G04 #@! TF.GenerationSoftware,KiCad,Pcbnew,9.0.1*
G04 #@! TF.CreationDate,2025-05-08T00:01:32-03:00*
G04 #@! TF.ProjectId,Controlador,436f6e74-726f-46c6-9164-6f722e6b6963,rev?*
G04 #@! TF.SameCoordinates,Original*
G04 #@! TF.FileFunction,Legend,Bot*
G04 #@! TF.FilePolarity,Positive*
%FSLAX46Y46*%
G04 Gerber Fmt 4.6, Leading zero omitted, Abs format (unit mm)*
G04 Created by KiCad (PCBNEW 9.0.1) date 2025-05-08 00:01:32*
%MOMM*%
%LPD*%
G01*
G04 APERTURE LIST*
G04 Aperture macros list*
%AMRoundRect*
0 Rectangle with rounded corners*
0 $1 Rounding radius*
0 $2 $3 $4 $5 $6 $7 $8 $9 X,Y pos of 4 corners*
0 Add a 4 corners polygon primitive as box body*
4,1,4,$2,$3,$4,$5,$6,$7,$8,$9,$2,$3,0*
0 Add four circle primitives for the rounded corners*
1,1,$1+$1,$2,$3*
1,1,$1+$1,$4,$5*
1,1,$1+$1,$6,$7*
1,1,$1+$1,$8,$9*
0 Add four rect primitives between the rounded corners*
20,1,$1+$1,$2,$3,$4,$5,0*
20,1,$1+$1,$4,$5,$6,$7,0*
20,1,$1+$1,$6,$7,$8,$9,0*
20,1,$1+$1,$8,$9,$2,$3,0*%
G04 Aperture macros list end*
%ADD10C,0.100000*%
%ADD11C,0.000000*%
%ADD12C,3.000000*%
%ADD13RoundRect,0.250000X-0.600000X-0.725000X0.600000X-0.725000X0.600000X0.725000X-0.600000X0.725000X0*%
%ADD14O,1.700000X1.950000*%
%ADD15C,1.100000*%
%ADD16RoundRect,0.249999X0.850001X-0.850001X0.850001X0.850001X-0.850001X0.850001X-0.850001X-0.850001X0*%
%ADD17C,2.200000*%
%ADD18R,2.000000X2.000000*%
%ADD19C,2.000000*%
%ADD20R,1.700000X1.700000*%
%ADD21C,1.700000*%
%ADD22RoundRect,0.250000X-0.550000X-0.550000X0.550000X-0.550000X0.550000X0.550000X-0.550000X0.550000X0*%
%ADD23C,1.600000*%
G04 APERTURE END LIST*
D10*
X82399836Y-73391895D02*
X82399836Y-73963323D01*
X82399836Y-73963323D02*
X82361741Y-74077609D01*
X82361741Y-74077609D02*
X82285550Y-74153800D01*
X82285550Y-74153800D02*
X82171265Y-74191895D01*
X82171265Y-74191895D02*
X82095074Y-74191895D01*
X83161741Y-74191895D02*
X82780789Y-74191895D01*
X82780789Y-74191895D02*
X82780789Y-73391895D01*
X83885551Y-74115704D02*
X83847455Y-74153800D01*
X83847455Y-74153800D02*
X83733170Y-74191895D01*
X83733170Y-74191895D02*
X83656979Y-74191895D01*
X83656979Y-74191895D02*
X83542693Y-74153800D01*
X83542693Y-74153800D02*
X83466503Y-74077609D01*
X83466503Y-74077609D02*
X83428408Y-74001419D01*
X83428408Y-74001419D02*
X83390312Y-73849038D01*
X83390312Y-73849038D02*
X83390312Y-73734752D01*
X83390312Y-73734752D02*
X83428408Y-73582371D01*
X83428408Y-73582371D02*
X83466503Y-73506180D01*
X83466503Y-73506180D02*
X83542693Y-73429990D01*
X83542693Y-73429990D02*
X83656979Y-73391895D01*
X83656979Y-73391895D02*
X83733170Y-73391895D01*
X83733170Y-73391895D02*
X83847455Y-73429990D01*
X83847455Y-73429990D02*
X83885551Y-73468085D01*
X84456979Y-73391895D02*
X84456979Y-73963323D01*
X84456979Y-73963323D02*
X84418884Y-74077609D01*
X84418884Y-74077609D02*
X84342693Y-74153800D01*
X84342693Y-74153800D02*
X84228408Y-74191895D01*
X84228408Y-74191895D02*
X84152217Y-74191895D01*
X85218884Y-74191895D02*
X84837932Y-74191895D01*
X84837932Y-74191895D02*
X84837932Y-73391895D01*
X85942694Y-74115704D02*
X85904598Y-74153800D01*
X85904598Y-74153800D02*
X85790313Y-74191895D01*
X85790313Y-74191895D02*
X85714122Y-74191895D01*
X85714122Y-74191895D02*
X85599836Y-74153800D01*
X85599836Y-74153800D02*
X85523646Y-74077609D01*
X85523646Y-74077609D02*
X85485551Y-74001419D01*
X85485551Y-74001419D02*
X85447455Y-73849038D01*
X85447455Y-73849038D02*
X85447455Y-73734752D01*
X85447455Y-73734752D02*
X85485551Y-73582371D01*
X85485551Y-73582371D02*
X85523646Y-73506180D01*
X85523646Y-73506180D02*
X85599836Y-73429990D01*
X85599836Y-73429990D02*
X85714122Y-73391895D01*
X85714122Y-73391895D02*
X85790313Y-73391895D01*
X85790313Y-73391895D02*
X85904598Y-73429990D01*
X85904598Y-73429990D02*
X85942694Y-73468085D01*
X86514122Y-73391895D02*
X86514122Y-73963323D01*
X86514122Y-73963323D02*
X86476027Y-74077609D01*
X86476027Y-74077609D02*
X86399836Y-74153800D01*
X86399836Y-74153800D02*
X86285551Y-74191895D01*
X86285551Y-74191895D02*
X86209360Y-74191895D01*
X87276027Y-74191895D02*
X86895075Y-74191895D01*
X86895075Y-74191895D02*
X86895075Y-73391895D01*
X87999837Y-74115704D02*
X87961741Y-74153800D01*
X87961741Y-74153800D02*
X87847456Y-74191895D01*
X87847456Y-74191895D02*
X87771265Y-74191895D01*
X87771265Y-74191895D02*
X87656979Y-74153800D01*
X87656979Y-74153800D02*
X87580789Y-74077609D01*
X87580789Y-74077609D02*
X87542694Y-74001419D01*
X87542694Y-74001419D02*
X87504598Y-73849038D01*
X87504598Y-73849038D02*
X87504598Y-73734752D01*
X87504598Y-73734752D02*
X87542694Y-73582371D01*
X87542694Y-73582371D02*
X87580789Y-73506180D01*
X87580789Y-73506180D02*
X87656979Y-73429990D01*
X87656979Y-73429990D02*
X87771265Y-73391895D01*
X87771265Y-73391895D02*
X87847456Y-73391895D01*
X87847456Y-73391895D02*
X87961741Y-73429990D01*
X87961741Y-73429990D02*
X87999837Y-73468085D01*
X88571265Y-73391895D02*
X88571265Y-73963323D01*
X88571265Y-73963323D02*
X88533170Y-74077609D01*
X88533170Y-74077609D02*
X88456979Y-74153800D01*
X88456979Y-74153800D02*
X88342694Y-74191895D01*
X88342694Y-74191895D02*
X88266503Y-74191895D01*
X89333170Y-74191895D02*
X88952218Y-74191895D01*
X88952218Y-74191895D02*
X88952218Y-73391895D01*
X90056980Y-74115704D02*
X90018884Y-74153800D01*
X90018884Y-74153800D02*
X89904599Y-74191895D01*
X89904599Y-74191895D02*
X89828408Y-74191895D01*
X89828408Y-74191895D02*
X89714122Y-74153800D01*
X89714122Y-74153800D02*
X89637932Y-74077609D01*
X89637932Y-74077609D02*
X89599837Y-74001419D01*
X89599837Y-74001419D02*
X89561741Y-73849038D01*
X89561741Y-73849038D02*
X89561741Y-73734752D01*
X89561741Y-73734752D02*
X89599837Y-73582371D01*
X89599837Y-73582371D02*
X89637932Y-73506180D01*
X89637932Y-73506180D02*
X89714122Y-73429990D01*
X89714122Y-73429990D02*
X89828408Y-73391895D01*
X89828408Y-73391895D02*
X89904599Y-73391895D01*
X89904599Y-73391895D02*
X90018884Y-73429990D01*
X90018884Y-73429990D02*
X90056980Y-73468085D01*
D11*
G36*
X33443333Y-33803166D02*
G01*
X33422166Y-33824333D01*
X33400999Y-33803166D01*
X33422166Y-33782000D01*
X33443333Y-33803166D01*
G37*
G36*
X33485666Y-33887833D02*
G01*
X33464499Y-33909000D01*
X33443333Y-33887833D01*
X33464499Y-33866666D01*
X33485666Y-33887833D01*
G37*
G36*
X33654999Y-34141833D02*
G01*
X33633833Y-34163000D01*
X33612666Y-34141833D01*
X33633833Y-34120666D01*
X33654999Y-34141833D01*
G37*
G36*
X33993666Y-34480500D02*
G01*
X33972499Y-34501666D01*
X33951333Y-34480500D01*
X33972499Y-34459333D01*
X33993666Y-34480500D01*
G37*
G36*
X34332333Y-34819166D02*
G01*
X34311166Y-34840333D01*
X34289999Y-34819166D01*
X34311166Y-34798000D01*
X34332333Y-34819166D01*
G37*
G36*
X39031333Y-35115500D02*
G01*
X39010167Y-35136666D01*
X38989000Y-35115500D01*
X39010167Y-35094333D01*
X39031333Y-35115500D01*
G37*
G36*
X34670999Y-35157833D02*
G01*
X34649833Y-35179000D01*
X34628666Y-35157833D01*
X34649833Y-35136666D01*
X34670999Y-35157833D01*
G37*
G36*
X35009666Y-35496500D02*
G01*
X34988499Y-35517666D01*
X34967333Y-35496500D01*
X34988499Y-35475333D01*
X35009666Y-35496500D01*
G37*
G36*
X35178999Y-35665833D02*
G01*
X35157833Y-35687000D01*
X35136666Y-35665833D01*
X35157833Y-35644666D01*
X35178999Y-35665833D01*
G37*
G36*
X35348333Y-35835166D02*
G01*
X35327166Y-35856333D01*
X35305999Y-35835166D01*
X35327166Y-35814000D01*
X35348333Y-35835166D01*
G37*
G36*
X36787666Y-36046833D02*
G01*
X36766499Y-36068000D01*
X36745333Y-36046833D01*
X36766499Y-36025666D01*
X36787666Y-36046833D01*
G37*
G36*
X35644666Y-36258500D02*
G01*
X35623499Y-36279666D01*
X35602333Y-36258500D01*
X35623499Y-36237333D01*
X35644666Y-36258500D01*
G37*
G36*
X37507333Y-36385500D02*
G01*
X37486167Y-36406666D01*
X37465000Y-36385500D01*
X37486167Y-36364333D01*
X37507333Y-36385500D01*
G37*
G36*
X35136666Y-37782500D02*
G01*
X35115499Y-37803667D01*
X35094333Y-37782500D01*
X35115499Y-37761333D01*
X35136666Y-37782500D01*
G37*
G36*
X37592000Y-38078833D02*
G01*
X37570833Y-38100000D01*
X37549667Y-38078833D01*
X37570833Y-38057667D01*
X37592000Y-38078833D01*
G37*
G36*
X37676667Y-38205833D02*
G01*
X37655500Y-38227000D01*
X37634333Y-38205833D01*
X37655500Y-38184667D01*
X37676667Y-38205833D01*
G37*
G36*
X39031333Y-38586833D02*
G01*
X39010167Y-38608000D01*
X38989000Y-38586833D01*
X39010167Y-38565667D01*
X39031333Y-38586833D01*
G37*
G36*
X33189333Y-40237833D02*
G01*
X33168166Y-40259000D01*
X33146999Y-40237833D01*
X33168166Y-40216667D01*
X33189333Y-40237833D01*
G37*
G36*
X33189333Y-40364833D02*
G01*
X33168166Y-40386000D01*
X33146999Y-40364833D01*
X33168166Y-40343667D01*
X33189333Y-40364833D01*
G37*
G36*
X34924999Y-41169167D02*
G01*
X34903833Y-41190333D01*
X34882666Y-41169167D01*
X34903833Y-41148000D01*
X34924999Y-41169167D01*
G37*
G36*
X36829999Y-41423167D02*
G01*
X36808833Y-41444333D01*
X36787666Y-41423167D01*
X36808833Y-41402000D01*
X36829999Y-41423167D01*
G37*
G36*
X41444333Y-42142833D02*
G01*
X41423167Y-42164000D01*
X41402000Y-42142833D01*
X41423167Y-42121667D01*
X41444333Y-42142833D01*
G37*
G36*
X41571333Y-36175176D02*
G01*
X41571333Y-36324686D01*
X41073917Y-36312760D01*
X40576500Y-36300833D01*
X40563234Y-36163250D01*
X40549969Y-36025666D01*
X41060651Y-36025666D01*
X41571333Y-36025666D01*
X41571333Y-36175176D01*
G37*
G36*
X36718612Y-41551836D02*
G01*
X36862902Y-41625830D01*
X36956594Y-41753718D01*
X36991174Y-41878009D01*
X36973368Y-42028348D01*
X36875590Y-42167256D01*
X36795558Y-42231067D01*
X36643792Y-42286585D01*
X36493536Y-42276340D01*
X36363434Y-42207490D01*
X36272132Y-42087192D01*
X36238274Y-41922605D01*
X36238663Y-41904100D01*
X36279006Y-41728021D01*
X36382398Y-41606058D01*
X36544448Y-41543651D01*
X36546470Y-41543328D01*
X36718612Y-41551836D01*
G37*
G36*
X39356203Y-37852409D02*
G01*
X39486206Y-37961074D01*
X39490543Y-37966515D01*
X39568981Y-38121139D01*
X39562816Y-38277680D01*
X39472070Y-38435419D01*
X39362311Y-38532820D01*
X39237134Y-38565667D01*
X39176538Y-38561024D01*
X39034850Y-38521169D01*
X38914038Y-38453360D01*
X38845963Y-38373270D01*
X38835034Y-38341753D01*
X38816242Y-38172505D01*
X38859668Y-38025484D01*
X38950344Y-37910328D01*
X39073304Y-37836672D01*
X39213579Y-37814154D01*
X39356203Y-37852409D01*
G37*
G36*
X32415596Y-38644892D02*
G01*
X32441762Y-38661241D01*
X32443493Y-38694618D01*
X32488134Y-38759515D01*
X32534482Y-38840533D01*
X32553146Y-38979805D01*
X32530032Y-39130346D01*
X32466593Y-39258458D01*
X32442862Y-39286521D01*
X32349011Y-39352108D01*
X32216056Y-39370000D01*
X32147577Y-39368713D01*
X32010368Y-39348553D01*
X31920380Y-39294024D01*
X31851582Y-39192447D01*
X31806534Y-39051853D01*
X31823243Y-38897142D01*
X31908186Y-38768412D01*
X32052452Y-38678137D01*
X32247132Y-38638787D01*
X32327079Y-38637550D01*
X32415596Y-38644892D01*
G37*
G36*
X38243253Y-34207899D02*
G01*
X38365176Y-34346186D01*
X38496842Y-34509052D01*
X38598700Y-34649073D01*
X38657486Y-34740288D01*
X38713399Y-34833792D01*
X38735000Y-34879888D01*
X38733357Y-34883367D01*
X38691902Y-34932123D01*
X38601296Y-35028941D01*
X38470484Y-35164527D01*
X38308408Y-35329586D01*
X38124012Y-35514825D01*
X37513025Y-36124723D01*
X37366616Y-36013052D01*
X37220207Y-35901380D01*
X37555294Y-35085106D01*
X37576021Y-35034645D01*
X37680217Y-34781784D01*
X37776458Y-34549509D01*
X37858723Y-34352267D01*
X37920992Y-34204504D01*
X37957244Y-34120666D01*
X38024107Y-33972500D01*
X38243253Y-34207899D01*
G37*
G36*
X36798249Y-33255501D02*
G01*
X36899404Y-33294646D01*
X37062272Y-33369897D01*
X37255535Y-33467291D01*
X37456828Y-33575517D01*
X37643789Y-33683260D01*
X37730122Y-33736838D01*
X37820971Y-33803884D01*
X37855546Y-33854161D01*
X37846052Y-33900796D01*
X37818454Y-33960571D01*
X37764932Y-34085584D01*
X37691349Y-34261870D01*
X37603435Y-34475697D01*
X37506923Y-34713333D01*
X37456455Y-34838577D01*
X37334768Y-35141762D01*
X37239303Y-35377742D01*
X37164882Y-35554390D01*
X37106326Y-35679576D01*
X37058459Y-35761172D01*
X37016104Y-35807052D01*
X36974083Y-35825086D01*
X36927218Y-35823146D01*
X36870333Y-35809105D01*
X36798249Y-35790835D01*
X36703000Y-35770053D01*
X36703000Y-34498007D01*
X36703000Y-33225961D01*
X36798249Y-33255501D01*
G37*
G36*
X35275678Y-37412083D02*
G01*
X35288840Y-37500054D01*
X35299078Y-37570833D01*
X35280697Y-37585597D01*
X35195496Y-37630596D01*
X35050871Y-37699663D01*
X34857820Y-37788023D01*
X34627344Y-37890902D01*
X34370442Y-38003526D01*
X34098112Y-38121118D01*
X33821355Y-38238907D01*
X33551170Y-38352116D01*
X33298556Y-38455971D01*
X33074512Y-38545698D01*
X32890039Y-38616522D01*
X32654245Y-38704064D01*
X32542713Y-38592532D01*
X32488353Y-38542693D01*
X32412349Y-38498010D01*
X32310630Y-38474507D01*
X32153728Y-38462318D01*
X32125044Y-38452295D01*
X32067279Y-38370146D01*
X32016649Y-38204977D01*
X31973036Y-37956332D01*
X31936321Y-37623750D01*
X31907160Y-37295666D01*
X33582601Y-37295666D01*
X35258042Y-37295666D01*
X35275678Y-37412083D01*
G37*
G36*
X36321136Y-38503183D02*
G01*
X36336797Y-38506195D01*
X36441539Y-38530318D01*
X36501594Y-38550842D01*
X36506023Y-38566534D01*
X36513475Y-38654988D01*
X36520107Y-38812177D01*
X36525681Y-39027882D01*
X36529958Y-39291881D01*
X36532699Y-39593954D01*
X36533666Y-39923880D01*
X36533666Y-41277096D01*
X36417249Y-41321201D01*
X36314631Y-41374064D01*
X36202848Y-41457101D01*
X36104864Y-41548896D01*
X35615639Y-41380886D01*
X35609064Y-41378624D01*
X35419878Y-41310213D01*
X35262471Y-41247178D01*
X35153095Y-41196434D01*
X35108002Y-41164895D01*
X35113099Y-41136261D01*
X35145672Y-41036063D01*
X35204565Y-40874015D01*
X35286170Y-40659557D01*
X35386878Y-40402130D01*
X35503081Y-40111174D01*
X35631171Y-39796130D01*
X36172751Y-38475345D01*
X36321136Y-38503183D01*
G37*
G36*
X37879072Y-37767325D02*
G01*
X37958678Y-37799655D01*
X38088261Y-37853713D01*
X38250546Y-37922333D01*
X38326721Y-37954791D01*
X38474505Y-38020418D01*
X38565659Y-38070711D01*
X38615519Y-38118446D01*
X38639418Y-38176396D01*
X38652692Y-38257336D01*
X38660241Y-38303357D01*
X38729957Y-38493491D01*
X38851417Y-38620687D01*
X38873783Y-38637781D01*
X38904451Y-38684187D01*
X38903703Y-38690485D01*
X38879055Y-38755015D01*
X38830557Y-38853129D01*
X38773220Y-38957296D01*
X38722056Y-39039986D01*
X38692077Y-39073667D01*
X38670216Y-39057292D01*
X38596545Y-38989966D01*
X38481361Y-38879682D01*
X38334924Y-38736298D01*
X38167494Y-38569671D01*
X37664811Y-38065676D01*
X37758858Y-37913504D01*
X37783151Y-37874707D01*
X37836619Y-37793622D01*
X37862415Y-37761333D01*
X37879072Y-37767325D01*
G37*
G36*
X38042637Y-38741123D02*
G01*
X38185894Y-38885529D01*
X38337458Y-39042050D01*
X38457757Y-39170552D01*
X38537068Y-39260609D01*
X38565667Y-39301797D01*
X38551494Y-39352110D01*
X38495293Y-39468191D01*
X38404003Y-39629634D01*
X38285869Y-39823354D01*
X38149142Y-40036269D01*
X38002067Y-40255294D01*
X37852892Y-40467347D01*
X37709866Y-40659344D01*
X37634894Y-40754301D01*
X37515455Y-40900097D01*
X37388203Y-41050772D01*
X37265415Y-41192236D01*
X37159367Y-41310401D01*
X37082337Y-41391180D01*
X37046602Y-41420483D01*
X37036903Y-41418108D01*
X36967171Y-41391585D01*
X36861750Y-41345832D01*
X36703000Y-41273864D01*
X36703000Y-39904009D01*
X36703000Y-38534154D01*
X36882917Y-38505499D01*
X36971908Y-38483878D01*
X37133546Y-38424597D01*
X37291220Y-38348096D01*
X37519608Y-38219349D01*
X38042637Y-38741123D01*
G37*
G36*
X35697773Y-33110656D02*
G01*
X35911212Y-33115337D01*
X36114181Y-33123134D01*
X36288739Y-33133695D01*
X36416948Y-33146668D01*
X36480869Y-33161699D01*
X36495008Y-33186154D01*
X36507994Y-33254170D01*
X36517987Y-33371731D01*
X36525269Y-33545858D01*
X36530122Y-33783572D01*
X36532827Y-34091895D01*
X36533666Y-34477849D01*
X36533666Y-35761367D01*
X36355115Y-35806688D01*
X36306189Y-35818619D01*
X36209469Y-35838583D01*
X36166257Y-35841701D01*
X36155064Y-35817458D01*
X36114629Y-35723538D01*
X36048466Y-35567459D01*
X35960391Y-35358291D01*
X35854224Y-35105109D01*
X35733782Y-34816983D01*
X35602883Y-34502987D01*
X35585670Y-34461602D01*
X35429839Y-34082513D01*
X35301372Y-33761442D01*
X35201711Y-33502241D01*
X35132301Y-33308764D01*
X35094586Y-33184862D01*
X35090009Y-33134390D01*
X35098086Y-33130135D01*
X35174019Y-33118831D01*
X35311238Y-33112051D01*
X35491802Y-33109443D01*
X35697773Y-33110656D01*
G37*
G36*
X41205083Y-33153526D02*
G01*
X41340147Y-33168996D01*
X41434095Y-33202110D01*
X41504873Y-33255920D01*
X41504946Y-33255994D01*
X41537109Y-33308454D01*
X41557508Y-33398618D01*
X41568223Y-33542082D01*
X41571333Y-33754437D01*
X41570909Y-33883244D01*
X41563227Y-34086563D01*
X41536957Y-34224304D01*
X41480730Y-34309226D01*
X41383176Y-34354088D01*
X41232922Y-34371648D01*
X41018599Y-34374666D01*
X40921027Y-34374602D01*
X40763278Y-34372638D01*
X40667570Y-34364976D01*
X40618400Y-34347720D01*
X40600266Y-34316971D01*
X40597667Y-34268833D01*
X40597546Y-34194487D01*
X40597139Y-34131250D01*
X40599449Y-34127284D01*
X40655329Y-34109456D01*
X40770677Y-34092050D01*
X40925222Y-34078333D01*
X41253833Y-34057166D01*
X41253833Y-33782000D01*
X41253833Y-33506833D01*
X40915166Y-33485666D01*
X40576500Y-33464500D01*
X40576500Y-33316333D01*
X40576500Y-33168166D01*
X40915024Y-33155614D01*
X41010956Y-33152648D01*
X41205083Y-33153526D01*
G37*
G36*
X32605730Y-35609200D02*
G01*
X32626963Y-35618241D01*
X32926974Y-35745106D01*
X33240686Y-35876329D01*
X33557903Y-36007782D01*
X33868431Y-36135333D01*
X34162076Y-36254853D01*
X34428644Y-36362210D01*
X34657939Y-36453276D01*
X34839768Y-36523920D01*
X34963937Y-36570011D01*
X35020249Y-36587420D01*
X35059140Y-36595190D01*
X35094333Y-36622752D01*
X35121316Y-36648597D01*
X35200734Y-36678193D01*
X35255422Y-36699758D01*
X35286801Y-36748399D01*
X35280981Y-36838635D01*
X35240292Y-36988750D01*
X35240026Y-36989485D01*
X35215879Y-37003371D01*
X35151836Y-37014748D01*
X35041503Y-37023818D01*
X34878484Y-37030784D01*
X34656386Y-37035849D01*
X34368813Y-37039216D01*
X34009369Y-37041087D01*
X33571661Y-37041666D01*
X31919333Y-37041666D01*
X31919333Y-36940509D01*
X31920580Y-36895777D01*
X31944650Y-36690838D01*
X31995251Y-36436126D01*
X32066960Y-36153604D01*
X32154356Y-35865237D01*
X32252014Y-35592989D01*
X32297294Y-35477812D01*
X32605730Y-35609200D01*
G37*
G36*
X35832825Y-38292200D02*
G01*
X35865508Y-38310534D01*
X35949622Y-38366476D01*
X35983333Y-38403912D01*
X35969178Y-38448135D01*
X35926732Y-38560204D01*
X35860569Y-38728454D01*
X35775298Y-38941657D01*
X35675529Y-39188588D01*
X35565871Y-39458022D01*
X35450936Y-39738731D01*
X35335333Y-40019490D01*
X35223672Y-40289074D01*
X35120562Y-40536255D01*
X35030615Y-40749808D01*
X34958440Y-40918507D01*
X34908647Y-41031126D01*
X34885847Y-41076439D01*
X34847891Y-41074071D01*
X34747595Y-41040051D01*
X34601497Y-40979411D01*
X34425007Y-40899393D01*
X34233535Y-40807233D01*
X34042489Y-40710172D01*
X33867279Y-40615448D01*
X33723313Y-40530301D01*
X33669732Y-40493936D01*
X33572760Y-40406702D01*
X33540159Y-40336764D01*
X33546720Y-40299433D01*
X33566701Y-40283591D01*
X33592974Y-40265872D01*
X33672991Y-40194967D01*
X33799688Y-40076371D01*
X33966150Y-39916723D01*
X34165464Y-39722660D01*
X34390715Y-39500823D01*
X34634989Y-39257848D01*
X35682318Y-38211147D01*
X35832825Y-38292200D01*
G37*
G36*
X38881418Y-35118430D02*
G01*
X38939312Y-35210862D01*
X39007243Y-35358358D01*
X39079447Y-35545718D01*
X39150162Y-35757743D01*
X39213625Y-35979237D01*
X39264075Y-36195000D01*
X39274356Y-36253107D01*
X39297010Y-36444801D01*
X39313329Y-36676052D01*
X39322611Y-36922132D01*
X39324154Y-37158310D01*
X39317253Y-37359857D01*
X39301208Y-37502042D01*
X39281014Y-37575842D01*
X39233265Y-37623854D01*
X39133348Y-37634333D01*
X38994508Y-37663955D01*
X38841575Y-37766361D01*
X38691203Y-37898389D01*
X38321518Y-37750828D01*
X37951833Y-37603267D01*
X37966590Y-37325147D01*
X37970646Y-37151951D01*
X37962666Y-36971739D01*
X37942981Y-36831628D01*
X37913814Y-36746423D01*
X37877387Y-36730931D01*
X37852666Y-36735845D01*
X37860213Y-36684689D01*
X37863796Y-36671485D01*
X37845442Y-36571264D01*
X37766468Y-36428876D01*
X37644123Y-36247594D01*
X38221859Y-35670963D01*
X38236636Y-35656231D01*
X38417310Y-35478596D01*
X38578676Y-35324345D01*
X38710716Y-35202723D01*
X38803413Y-35122971D01*
X38846751Y-35094333D01*
X38881418Y-35118430D01*
G37*
G36*
X41324531Y-34550612D02*
G01*
X41453294Y-34555049D01*
X41518258Y-34563309D01*
X41556085Y-34609314D01*
X41563454Y-34723625D01*
X41560566Y-34752170D01*
X41546667Y-34815690D01*
X41509469Y-34850891D01*
X41428598Y-34869356D01*
X41283678Y-34882666D01*
X41017189Y-34903833D01*
X41293541Y-35136666D01*
X41299408Y-35141610D01*
X41430991Y-35254491D01*
X41511044Y-35334825D01*
X41552425Y-35403732D01*
X41567995Y-35482333D01*
X41570613Y-35591750D01*
X41571333Y-35814000D01*
X41084500Y-35814000D01*
X40597667Y-35814000D01*
X40597667Y-35645807D01*
X40597667Y-35477615D01*
X40892154Y-35487057D01*
X41186641Y-35496500D01*
X41072070Y-35405059D01*
X41029636Y-35373260D01*
X40954372Y-35340206D01*
X40894000Y-35362726D01*
X40879301Y-35373951D01*
X40851496Y-35389510D01*
X40882084Y-35345600D01*
X40893295Y-35329070D01*
X40899090Y-35281514D01*
X40856523Y-35221114D01*
X40755084Y-35130032D01*
X40678161Y-35063174D01*
X40610523Y-34984304D01*
X40582709Y-34898869D01*
X40577876Y-34772931D01*
X40579253Y-34565166D01*
X41019514Y-34553017D01*
X41152768Y-34550427D01*
X41324531Y-34550612D01*
G37*
G36*
X40997000Y-40936333D02*
G01*
X41068378Y-40936333D01*
X41576444Y-40936333D01*
X41563305Y-41095083D01*
X41550383Y-41188806D01*
X41519027Y-41238215D01*
X41454917Y-41243749D01*
X41425389Y-41242065D01*
X41372191Y-41265616D01*
X41357524Y-41349582D01*
X41357190Y-41366942D01*
X41346852Y-41620321D01*
X41323172Y-41801509D01*
X41279474Y-41922072D01*
X41209083Y-41993574D01*
X41105324Y-42027579D01*
X40961522Y-42035654D01*
X40891031Y-42032329D01*
X40755303Y-42009993D01*
X40665513Y-41973510D01*
X40608847Y-41938624D01*
X40559680Y-41928592D01*
X40559422Y-41928727D01*
X40550674Y-41893663D01*
X40545460Y-41790104D01*
X40544181Y-41633775D01*
X40544501Y-41613517D01*
X40857978Y-41613517D01*
X40875386Y-41690794D01*
X40917210Y-41726142D01*
X40958432Y-41732669D01*
X41018488Y-41702397D01*
X41037969Y-41642874D01*
X41052262Y-41534287D01*
X41056649Y-41413744D01*
X41050161Y-41313127D01*
X41031825Y-41264318D01*
X40997000Y-41249819D01*
X40924512Y-41253902D01*
X40880682Y-41327220D01*
X40860021Y-41476557D01*
X40857978Y-41613517D01*
X40544501Y-41613517D01*
X40547239Y-41440403D01*
X40560312Y-40936333D01*
X40997000Y-40936333D01*
G37*
G36*
X34806348Y-33228258D02*
G01*
X34837038Y-33252676D01*
X34873091Y-33301815D01*
X34918362Y-33383322D01*
X34976705Y-33504843D01*
X35051973Y-33674025D01*
X35148020Y-33898514D01*
X35268700Y-34185957D01*
X35417868Y-34544000D01*
X35444679Y-34608395D01*
X35519481Y-34787575D01*
X35585392Y-34944821D01*
X35630629Y-35052000D01*
X35648244Y-35093432D01*
X35704497Y-35225975D01*
X35777176Y-35397405D01*
X35855018Y-35581166D01*
X35899016Y-35685154D01*
X35960467Y-35830699D01*
X36003581Y-35933218D01*
X36021004Y-35975248D01*
X36021147Y-35977699D01*
X35991275Y-35967075D01*
X35986493Y-35965171D01*
X35924261Y-35978505D01*
X35832525Y-36027556D01*
X35708166Y-36109293D01*
X34618083Y-35020035D01*
X34617936Y-35019889D01*
X34368803Y-34770228D01*
X34139693Y-34539252D01*
X33937276Y-34333793D01*
X33768226Y-34160685D01*
X33639215Y-34026759D01*
X33556915Y-33938848D01*
X33527999Y-33903785D01*
X33553895Y-33864114D01*
X33642702Y-33791660D01*
X33779875Y-33699741D01*
X33949933Y-33596978D01*
X34137396Y-33491994D01*
X34326784Y-33393409D01*
X34502617Y-33309846D01*
X34649413Y-33249925D01*
X34751693Y-33222269D01*
X34777168Y-33220916D01*
X34806348Y-33228258D01*
G37*
G36*
X41538935Y-37819608D02*
G01*
X41569640Y-37911337D01*
X41552968Y-38022488D01*
X41486667Y-38100000D01*
X41480184Y-38103608D01*
X41431809Y-38150186D01*
X41408217Y-38232678D01*
X41402000Y-38375167D01*
X41402051Y-38392793D01*
X41409671Y-38528202D01*
X41435407Y-38606021D01*
X41486667Y-38650333D01*
X41546679Y-38709867D01*
X41571333Y-38835267D01*
X41571296Y-38843077D01*
X41563850Y-38943902D01*
X41547384Y-38998838D01*
X41509515Y-38991549D01*
X41411083Y-38958515D01*
X41271131Y-38906684D01*
X41108432Y-38843491D01*
X40941763Y-38776374D01*
X40789897Y-38712770D01*
X40671610Y-38660114D01*
X40605678Y-38625842D01*
X40599907Y-38604400D01*
X40591223Y-38518583D01*
X40584511Y-38391307D01*
X40584456Y-38389759D01*
X40830500Y-38389759D01*
X40953016Y-38436651D01*
X41048940Y-38475803D01*
X41111766Y-38505936D01*
X41113849Y-38507010D01*
X41138038Y-38481631D01*
X41148000Y-38398832D01*
X41147199Y-38322324D01*
X41132114Y-38280007D01*
X41081227Y-38285264D01*
X40972943Y-38329546D01*
X40830500Y-38389759D01*
X40584456Y-38389759D01*
X40576500Y-38165648D01*
X41042167Y-37968848D01*
X41132114Y-37931889D01*
X41198011Y-37904812D01*
X41378343Y-37838744D01*
X41490655Y-37810742D01*
X41538935Y-37819608D01*
G37*
G36*
X33395694Y-34103963D02*
G01*
X33482301Y-34183061D01*
X33615242Y-34309020D01*
X33787559Y-34475128D01*
X33992294Y-34674676D01*
X34222488Y-34900953D01*
X34471183Y-35147250D01*
X34705993Y-35380860D01*
X34935319Y-35609495D01*
X35138446Y-35812509D01*
X35308593Y-35983101D01*
X35438976Y-36114470D01*
X35522814Y-36199815D01*
X35553325Y-36232336D01*
X35552527Y-36239656D01*
X35524797Y-36299479D01*
X35469733Y-36394559D01*
X35467630Y-36397943D01*
X35384074Y-36498972D01*
X35310983Y-36520635D01*
X35309529Y-36520189D01*
X35248276Y-36497039D01*
X35120733Y-36446186D01*
X34938007Y-36372217D01*
X34711209Y-36279719D01*
X34451448Y-36173279D01*
X34169833Y-36057484D01*
X33877473Y-35936921D01*
X33585477Y-35816177D01*
X33304954Y-35699840D01*
X33047014Y-35592496D01*
X32822766Y-35498732D01*
X32643320Y-35423137D01*
X32519782Y-35370294D01*
X32463265Y-35344794D01*
X32458758Y-35342367D01*
X32419068Y-35310724D01*
X32420827Y-35262504D01*
X32464185Y-35169165D01*
X32467573Y-35162606D01*
X32552487Y-35018634D01*
X32667332Y-34850096D01*
X32800996Y-34670480D01*
X32942369Y-34493276D01*
X33080340Y-34331971D01*
X33203798Y-34200053D01*
X33301633Y-34111011D01*
X33362735Y-34078333D01*
X33395694Y-34103963D01*
G37*
G36*
X40646561Y-39193663D02*
G01*
X40755227Y-39197289D01*
X40914487Y-39199756D01*
X41105667Y-39200667D01*
X41571333Y-39200667D01*
X41571333Y-39348833D01*
X41571333Y-39497000D01*
X41327917Y-39498413D01*
X41084500Y-39499826D01*
X41327917Y-39652890D01*
X41376649Y-39683708D01*
X41486050Y-39758785D01*
X41544197Y-39819641D01*
X41567241Y-39888479D01*
X41571333Y-39987501D01*
X41571332Y-39991789D01*
X41566520Y-40094252D01*
X41540296Y-40161379D01*
X41474666Y-40217791D01*
X41351635Y-40288108D01*
X41131938Y-40407167D01*
X41341052Y-40428333D01*
X41433071Y-40438986D01*
X41514147Y-40460786D01*
X41549823Y-40504600D01*
X41563432Y-40587083D01*
X41576698Y-40724667D01*
X41067304Y-40724667D01*
X40557911Y-40724667D01*
X40563628Y-40572609D01*
X40565551Y-40521968D01*
X40573293Y-40472564D01*
X40597309Y-40428450D01*
X40648652Y-40379510D01*
X40738372Y-40315626D01*
X40877523Y-40226684D01*
X41077156Y-40102567D01*
X41281478Y-39975650D01*
X41055989Y-39835564D01*
X40873075Y-39722037D01*
X40729834Y-39631032D01*
X40637538Y-39565621D01*
X40585534Y-39515250D01*
X40563170Y-39469364D01*
X40559794Y-39417411D01*
X40564754Y-39348833D01*
X40568357Y-39309752D01*
X40585897Y-39220605D01*
X40608250Y-39190083D01*
X40646561Y-39193663D01*
G37*
G36*
X41063825Y-36533674D02*
G01*
X41226890Y-36537370D01*
X41332297Y-36552260D01*
X41405399Y-36584864D01*
X41471554Y-36641705D01*
X41516949Y-36690798D01*
X41550575Y-36748089D01*
X41567019Y-36825540D01*
X41570412Y-36944610D01*
X41564880Y-37126753D01*
X41554164Y-37293693D01*
X41524601Y-37463903D01*
X41472493Y-37568510D01*
X41391647Y-37618153D01*
X41275872Y-37623476D01*
X41232880Y-37615934D01*
X41180159Y-37573778D01*
X41159849Y-37474104D01*
X41164899Y-37373048D01*
X41211894Y-37310824D01*
X41240022Y-37283187D01*
X41267941Y-37192706D01*
X41275238Y-37073565D01*
X41260971Y-36958638D01*
X41224200Y-36880800D01*
X41166570Y-36848481D01*
X41063333Y-36830000D01*
X41038912Y-36830666D01*
X40929573Y-36863298D01*
X40869815Y-36952607D01*
X40851667Y-37109104D01*
X40851770Y-37123703D01*
X40869040Y-37253619D01*
X40917565Y-37311895D01*
X40963424Y-37362071D01*
X40967886Y-37475175D01*
X40955184Y-37535094D01*
X40895426Y-37614953D01*
X40799980Y-37622681D01*
X40678916Y-37555478D01*
X40646819Y-37527236D01*
X40608689Y-37475320D01*
X40586225Y-37400197D01*
X40574477Y-37281381D01*
X40568498Y-37098389D01*
X40567042Y-37015630D01*
X40568569Y-36857604D01*
X40580454Y-36754561D01*
X40606362Y-36685374D01*
X40649960Y-36628916D01*
X40702386Y-36582679D01*
X40774085Y-36551669D01*
X40882478Y-36537222D01*
X41051470Y-36533666D01*
X41063825Y-36533674D01*
G37*
G36*
X35460617Y-37912821D02*
G01*
X35476433Y-37932877D01*
X35535697Y-38014514D01*
X35559789Y-38059258D01*
X35559730Y-38059887D01*
X35529478Y-38100988D01*
X35454455Y-38182916D01*
X35350234Y-38288627D01*
X35344630Y-38294172D01*
X35245352Y-38402340D01*
X35181448Y-38490857D01*
X35166521Y-38541036D01*
X35174392Y-38558166D01*
X35156703Y-38554222D01*
X35133055Y-38551936D01*
X35064924Y-38589778D01*
X34979134Y-38661695D01*
X34896850Y-38747039D01*
X34839238Y-38825163D01*
X34827460Y-38875420D01*
X34834463Y-38890686D01*
X34811420Y-38891461D01*
X34788564Y-38892388D01*
X34720121Y-38933604D01*
X34633574Y-39007194D01*
X34550357Y-39092329D01*
X34491901Y-39168180D01*
X34479638Y-39213917D01*
X34484269Y-39220567D01*
X34472583Y-39220972D01*
X34451121Y-39221153D01*
X34385494Y-39262642D01*
X34301751Y-39337979D01*
X34220723Y-39425731D01*
X34163238Y-39504467D01*
X34150127Y-39552753D01*
X34157180Y-39568016D01*
X34134721Y-39569187D01*
X34134690Y-39569167D01*
X34090489Y-39587548D01*
X34000886Y-39656287D01*
X33878895Y-39764503D01*
X33737531Y-39901312D01*
X33597533Y-40038640D01*
X33474206Y-40153143D01*
X33383199Y-40230556D01*
X33337787Y-40259000D01*
X33308660Y-40247626D01*
X33225475Y-40186040D01*
X33111365Y-40084068D01*
X32981305Y-39956605D01*
X32850271Y-39818544D01*
X32733240Y-39684779D01*
X32645188Y-39570204D01*
X32588194Y-39479645D01*
X32553283Y-39404259D01*
X32560870Y-39379704D01*
X32586287Y-39374648D01*
X32644819Y-39315751D01*
X32703169Y-39213498D01*
X32747989Y-39093749D01*
X32765934Y-38982367D01*
X32767037Y-38956176D01*
X32784030Y-38903230D01*
X32833820Y-38856486D01*
X32931980Y-38804185D01*
X33094083Y-38734568D01*
X33099923Y-38732158D01*
X33301722Y-38648283D01*
X33516000Y-38558300D01*
X33697333Y-38481283D01*
X33699531Y-38480341D01*
X33903633Y-38393371D01*
X34140791Y-38293112D01*
X34392510Y-38187300D01*
X34640294Y-38083671D01*
X34865647Y-37989960D01*
X35050073Y-37913903D01*
X35175077Y-37863236D01*
X35361655Y-37789143D01*
X35460617Y-37912821D01*
G37*
G36*
X34767621Y-48168022D02*
G01*
X34798000Y-48221772D01*
X34786873Y-48260832D01*
X34723916Y-48277398D01*
X34670283Y-48250838D01*
X34667239Y-48202319D01*
X34732263Y-48165564D01*
X34767621Y-48168022D01*
G37*
G36*
X35502036Y-44784608D02*
G01*
X35517107Y-44847407D01*
X35483895Y-44903419D01*
X35462692Y-44909080D01*
X35393805Y-44889437D01*
X35361279Y-44841304D01*
X35385223Y-44785869D01*
X35456665Y-44760066D01*
X35502036Y-44784608D01*
G37*
G36*
X35471644Y-45033866D02*
G01*
X35513101Y-45090212D01*
X35507424Y-45154417D01*
X35456665Y-45184815D01*
X35430818Y-45181194D01*
X35367220Y-45138639D01*
X35363254Y-45079729D01*
X35408244Y-45031949D01*
X35471644Y-45033866D01*
G37*
G36*
X35156215Y-45113990D02*
G01*
X35170941Y-45174196D01*
X35154107Y-45213218D01*
X35094333Y-45248528D01*
X35059468Y-45237387D01*
X35017725Y-45174196D01*
X35024853Y-45121363D01*
X35094333Y-45099865D01*
X35156215Y-45113990D01*
G37*
G36*
X37895374Y-47023062D02*
G01*
X37930667Y-47074949D01*
X37914952Y-47112103D01*
X37846000Y-47138661D01*
X37796626Y-47126836D01*
X37761333Y-47074949D01*
X37777048Y-47037795D01*
X37846000Y-47011237D01*
X37895374Y-47023062D01*
G37*
G36*
X38241442Y-47111634D02*
G01*
X38269333Y-47184251D01*
X38258283Y-47229663D01*
X38208336Y-47259616D01*
X38147318Y-47238776D01*
X38107965Y-47170030D01*
X38114094Y-47119073D01*
X38181563Y-47096186D01*
X38241442Y-47111634D01*
G37*
G36*
X37741109Y-47325237D02*
G01*
X37761333Y-47389971D01*
X37749688Y-47442732D01*
X37694729Y-47478461D01*
X37672727Y-47474172D01*
X37642729Y-47429090D01*
X37655704Y-47364864D01*
X37708417Y-47319160D01*
X37741109Y-47325237D01*
G37*
G36*
X37975235Y-47501084D02*
G01*
X38005286Y-47541235D01*
X37987138Y-47601560D01*
X37916575Y-47640856D01*
X37878309Y-47638922D01*
X37846000Y-47590269D01*
X37852647Y-47549875D01*
X37902561Y-47494098D01*
X37975235Y-47501084D01*
G37*
G36*
X37649774Y-47663833D02*
G01*
X37676667Y-47736850D01*
X37674330Y-47762258D01*
X37641412Y-47805792D01*
X37592498Y-47789973D01*
X37557146Y-47719172D01*
X37559199Y-47680206D01*
X37610063Y-47648360D01*
X37649774Y-47663833D01*
G37*
G36*
X34474595Y-47932681D02*
G01*
X34498800Y-47974460D01*
X34491416Y-48041435D01*
X34438166Y-48073109D01*
X34408607Y-48066028D01*
X34374666Y-48011904D01*
X34381701Y-47971403D01*
X34422796Y-47922803D01*
X34474595Y-47932681D01*
G37*
G36*
X34518694Y-48274252D02*
G01*
X34543222Y-48315608D01*
X34529064Y-48382314D01*
X34459333Y-48412909D01*
X34409940Y-48401722D01*
X34374666Y-48353741D01*
X34398150Y-48300329D01*
X34459948Y-48262979D01*
X34518694Y-48274252D01*
G37*
G36*
X34984361Y-48444152D02*
G01*
X35008889Y-48485507D01*
X34994731Y-48552213D01*
X34925000Y-48582808D01*
X34875606Y-48571621D01*
X34840333Y-48523640D01*
X34863817Y-48470228D01*
X34925614Y-48432879D01*
X34984361Y-48444152D01*
G37*
G36*
X35278659Y-48654485D02*
G01*
X35296180Y-48684539D01*
X35279041Y-48747435D01*
X35207241Y-48787679D01*
X35160199Y-48781520D01*
X35136666Y-48713348D01*
X35148933Y-48662409D01*
X35206030Y-48624395D01*
X35278659Y-48654485D01*
G37*
G36*
X34732856Y-48681900D02*
G01*
X34755666Y-48749594D01*
X34740270Y-48809673D01*
X34667895Y-48837658D01*
X34622635Y-48826571D01*
X34592782Y-48776456D01*
X34613552Y-48715235D01*
X34682069Y-48675750D01*
X34732856Y-48681900D01*
G37*
G36*
X35062870Y-48977981D02*
G01*
X35094333Y-49047526D01*
X35074865Y-49129002D01*
X35015551Y-49163286D01*
X34937095Y-49122847D01*
X34897716Y-49054479D01*
X34922074Y-48990992D01*
X35012165Y-48965083D01*
X35062870Y-48977981D01*
G37*
G36*
X36914667Y-51662240D02*
G01*
X36914667Y-51853377D01*
X36216167Y-51853377D01*
X35517666Y-51853377D01*
X35517666Y-51662240D01*
X35517666Y-51471103D01*
X36216167Y-51471103D01*
X36914667Y-51471103D01*
X36914667Y-51662240D01*
G37*
G36*
X35810311Y-44948916D02*
G01*
X35825496Y-44960440D01*
X35856333Y-45014915D01*
X35842941Y-45054985D01*
X35783933Y-45085966D01*
X35717178Y-45062184D01*
X35707665Y-45050534D01*
X35702434Y-44988893D01*
X35745749Y-44943954D01*
X35810311Y-44948916D01*
G37*
G36*
X34390241Y-45214600D02*
G01*
X34412720Y-45270685D01*
X34386168Y-45345456D01*
X34315753Y-45390262D01*
X34254648Y-45386547D01*
X34193708Y-45331141D01*
X34192612Y-45241761D01*
X34232859Y-45201376D01*
X34315979Y-45185458D01*
X34390241Y-45214600D01*
G37*
G36*
X34854444Y-45255607D02*
G01*
X34869943Y-45276012D01*
X34877195Y-45353800D01*
X34823305Y-45410956D01*
X34796038Y-45418973D01*
X34733745Y-45398660D01*
X34713333Y-45305161D01*
X34726006Y-45259576D01*
X34783791Y-45226517D01*
X34854444Y-45255607D01*
G37*
G36*
X38013540Y-45885080D02*
G01*
X38078396Y-45928665D01*
X38097726Y-46001825D01*
X38060823Y-46068743D01*
X37973580Y-46098026D01*
X37903541Y-46084780D01*
X37853193Y-46019183D01*
X37855166Y-45943652D01*
X37911007Y-45882847D01*
X38013540Y-45885080D01*
G37*
G36*
X34644241Y-46149048D02*
G01*
X34666720Y-46205133D01*
X34640168Y-46279904D01*
X34569753Y-46324711D01*
X34508648Y-46320995D01*
X34447708Y-46265589D01*
X34446612Y-46176209D01*
X34486859Y-46135824D01*
X34569979Y-46119906D01*
X34644241Y-46149048D01*
G37*
G36*
X37826861Y-46347778D02*
G01*
X37869012Y-46382597D01*
X37886753Y-46457571D01*
X37849820Y-46520406D01*
X37786687Y-46530160D01*
X37711533Y-46496757D01*
X37676667Y-46435788D01*
X37681960Y-46402726D01*
X37736982Y-46345897D01*
X37826861Y-46347778D01*
G37*
G36*
X34734500Y-46474423D02*
G01*
X34780354Y-46509477D01*
X34792659Y-46586708D01*
X34739865Y-46666969D01*
X34654216Y-46696108D01*
X34577316Y-46662311D01*
X34544000Y-46580610D01*
X34560653Y-46519454D01*
X34632174Y-46467445D01*
X34734500Y-46474423D01*
G37*
G36*
X37929322Y-46649366D02*
G01*
X37962838Y-46700690D01*
X37953336Y-46778141D01*
X37898939Y-46830731D01*
X37878622Y-46833228D01*
X37830552Y-46798342D01*
X37811909Y-46729349D01*
X37836690Y-46663788D01*
X37860766Y-46647484D01*
X37929322Y-46649366D01*
G37*
G36*
X35875757Y-48609253D02*
G01*
X35902702Y-48624122D01*
X35932594Y-48684700D01*
X35903439Y-48749427D01*
X35824150Y-48787518D01*
X35750497Y-48779846D01*
X35729333Y-48715694D01*
X35734546Y-48665654D01*
X35782395Y-48602022D01*
X35875757Y-48609253D01*
G37*
G36*
X35005978Y-44736541D02*
G01*
X35026262Y-44754715D01*
X35050944Y-44825399D01*
X35036617Y-44897155D01*
X34987171Y-44929966D01*
X34952749Y-44921668D01*
X34896883Y-44863398D01*
X34896798Y-44863176D01*
X34897254Y-44785955D01*
X34942190Y-44733810D01*
X35005978Y-44736541D01*
G37*
G36*
X34590122Y-44887513D02*
G01*
X34655529Y-44908512D01*
X34663360Y-44983059D01*
X34641098Y-45042472D01*
X34586333Y-45078628D01*
X34543905Y-45057780D01*
X34509305Y-44983059D01*
X34508760Y-44979057D01*
X34518442Y-44906892D01*
X34586333Y-44887491D01*
X34590122Y-44887513D01*
G37*
G36*
X34650116Y-45497609D02*
G01*
X34669927Y-45508138D01*
X34704645Y-45570732D01*
X34684997Y-45642710D01*
X34617469Y-45686547D01*
X34603526Y-45688097D01*
X34536979Y-45658112D01*
X34508365Y-45588411D01*
X34535533Y-45516120D01*
X34567395Y-45497119D01*
X34650116Y-45497609D01*
G37*
G36*
X34602608Y-45821367D02*
G01*
X34629869Y-45891867D01*
X34608690Y-45960794D01*
X34542671Y-45991839D01*
X34537024Y-45991718D01*
X34457509Y-45958065D01*
X34423082Y-45887550D01*
X34450866Y-45813444D01*
X34480487Y-45794962D01*
X34562321Y-45793728D01*
X34602608Y-45821367D01*
G37*
G36*
X37394444Y-45959982D02*
G01*
X37401380Y-45979777D01*
X37396598Y-46067649D01*
X37319412Y-46112628D01*
X37255223Y-46112598D01*
X37192432Y-46065194D01*
X37192975Y-45977704D01*
X37198296Y-45966194D01*
X37260202Y-45916156D01*
X37339348Y-45912875D01*
X37394444Y-45959982D01*
G37*
G36*
X37650609Y-46118691D02*
G01*
X37677870Y-46189191D01*
X37656690Y-46258118D01*
X37590671Y-46289163D01*
X37585025Y-46289042D01*
X37505509Y-46255389D01*
X37471083Y-46184875D01*
X37498867Y-46110768D01*
X37528488Y-46092286D01*
X37610321Y-46091053D01*
X37650609Y-46118691D01*
G37*
G36*
X38239654Y-46247784D02*
G01*
X38298733Y-46271480D01*
X38304028Y-46342257D01*
X38281538Y-46403122D01*
X38205833Y-46437825D01*
X38149694Y-46422165D01*
X38107639Y-46342257D01*
X38104806Y-46313193D01*
X38124948Y-46259787D01*
X38205833Y-46246688D01*
X38239654Y-46247784D01*
G37*
G36*
X38302071Y-46671566D02*
G01*
X38376965Y-46689431D01*
X38388274Y-46745768D01*
X38365397Y-46787880D01*
X38290500Y-46820099D01*
X38240662Y-46806931D01*
X38192726Y-46745768D01*
X38191443Y-46738075D01*
X38208398Y-46686114D01*
X38290500Y-46671437D01*
X38302071Y-46671566D01*
G37*
G36*
X36785635Y-46649553D02*
G01*
X36847291Y-46692398D01*
X36872333Y-46797180D01*
X36844977Y-46903979D01*
X36768457Y-46951047D01*
X36657600Y-46924640D01*
X36600065Y-46873341D01*
X36578839Y-46786949D01*
X36610642Y-46703773D01*
X36683549Y-46649433D01*
X36785635Y-46649553D01*
G37*
G36*
X36769469Y-47410014D02*
G01*
X36822062Y-47456613D01*
X36825542Y-47531582D01*
X36779110Y-47602524D01*
X36692417Y-47640563D01*
X36641649Y-47644093D01*
X36588009Y-47622278D01*
X36576000Y-47543661D01*
X36592006Y-47464833D01*
X36661453Y-47402446D01*
X36769469Y-47410014D01*
G37*
G36*
X35587705Y-48691569D02*
G01*
X35602333Y-48773946D01*
X35602205Y-48785556D01*
X35584399Y-48860700D01*
X35528250Y-48872047D01*
X35486278Y-48849093D01*
X35454166Y-48773946D01*
X35467291Y-48723941D01*
X35528250Y-48675844D01*
X35535917Y-48674557D01*
X35587705Y-48691569D01*
G37*
G36*
X35904124Y-49056472D02*
G01*
X35932907Y-49135661D01*
X35901085Y-49214827D01*
X35799942Y-49254911D01*
X35735535Y-49258890D01*
X35693770Y-49233418D01*
X35694471Y-49149087D01*
X35706623Y-49099711D01*
X35762499Y-49027479D01*
X35837251Y-49009126D01*
X35904124Y-49056472D01*
G37*
G36*
X37208969Y-45417780D02*
G01*
X37238069Y-45432065D01*
X37288782Y-45507367D01*
X37288834Y-45605940D01*
X37234873Y-45692261D01*
X37176875Y-45720614D01*
X37086706Y-45695967D01*
X37027326Y-45644054D01*
X37003039Y-45556312D01*
X37032806Y-45472083D01*
X37105245Y-45417271D01*
X37208969Y-45417780D01*
G37*
G36*
X37724148Y-45658942D02*
G01*
X37745984Y-45700041D01*
X37750599Y-45793791D01*
X37673961Y-45865867D01*
X37660709Y-45872344D01*
X37561105Y-45880742D01*
X37490714Y-45823939D01*
X37473540Y-45719468D01*
X37492651Y-45673813D01*
X37565128Y-45622975D01*
X37654976Y-45614955D01*
X37724148Y-45658942D01*
G37*
G36*
X36995594Y-45828445D02*
G01*
X37057241Y-45851724D01*
X37058785Y-45853306D01*
X37081533Y-45922755D01*
X37041378Y-45985668D01*
X36956420Y-46013076D01*
X36874452Y-45993452D01*
X36837639Y-45917507D01*
X36835651Y-45900706D01*
X36850506Y-45837911D01*
X36925833Y-45821939D01*
X36995594Y-45828445D01*
G37*
G36*
X36253230Y-45894522D02*
G01*
X36267053Y-45911975D01*
X36278181Y-45993039D01*
X36233031Y-46070203D01*
X36147491Y-46110942D01*
X36060285Y-46100255D01*
X36001917Y-46034708D01*
X36010357Y-45928126D01*
X36016919Y-45915956D01*
X36084389Y-45874419D01*
X36178224Y-45865190D01*
X36253230Y-45894522D01*
G37*
G36*
X34228972Y-46008151D02*
G01*
X34238418Y-46012472D01*
X34283980Y-46076073D01*
X34278531Y-46166907D01*
X34222951Y-46249643D01*
X34198052Y-46266346D01*
X34112406Y-46274131D01*
X34043262Y-46218541D01*
X34014833Y-46115216D01*
X34037111Y-46040064D01*
X34114869Y-45993685D01*
X34228972Y-46008151D01*
G37*
G36*
X34951532Y-46803330D02*
G01*
X34978334Y-46830256D01*
X35006054Y-46919927D01*
X34951532Y-47006769D01*
X34947983Y-47009634D01*
X34861055Y-47036370D01*
X34786992Y-46996337D01*
X34755666Y-46905049D01*
X34755732Y-46900307D01*
X34789496Y-46810892D01*
X34864720Y-46773395D01*
X34951532Y-46803330D01*
G37*
G36*
X34570474Y-46943690D02*
G01*
X34609611Y-46981410D01*
X34620918Y-47085326D01*
X34612526Y-47134388D01*
X34573328Y-47189428D01*
X34480500Y-47202374D01*
X34413717Y-47198504D01*
X34364055Y-47165387D01*
X34353500Y-47075531D01*
X34375809Y-46978824D01*
X34451116Y-46926824D01*
X34570474Y-46943690D01*
G37*
G36*
X36811668Y-47027688D02*
G01*
X36852496Y-47064954D01*
X36864585Y-47170276D01*
X36860840Y-47196631D01*
X36826681Y-47268699D01*
X36745333Y-47287324D01*
X36721412Y-47286523D01*
X36652965Y-47257882D01*
X36626082Y-47170276D01*
X36637232Y-47075959D01*
X36703169Y-47017715D01*
X36811668Y-47027688D01*
G37*
G36*
X35244790Y-47081708D02*
G01*
X35284486Y-47117748D01*
X35297706Y-47218418D01*
X35295553Y-47234469D01*
X35261988Y-47309894D01*
X35179000Y-47329798D01*
X35163712Y-47329485D01*
X35089021Y-47303335D01*
X35060293Y-47218418D01*
X35071431Y-47129575D01*
X35137445Y-47072254D01*
X35244790Y-47081708D01*
G37*
G36*
X35583200Y-47310254D02*
G01*
X35615044Y-47344535D01*
X35644666Y-47414748D01*
X35619890Y-47480831D01*
X35541813Y-47541655D01*
X35445616Y-47555717D01*
X35389994Y-47518296D01*
X35369500Y-47414748D01*
X35370273Y-47394597D01*
X35407412Y-47298454D01*
X35485307Y-47266956D01*
X35583200Y-47310254D01*
G37*
G36*
X36427833Y-48173419D02*
G01*
X36434490Y-48176414D01*
X36481433Y-48238717D01*
X36487634Y-48326211D01*
X36448621Y-48391906D01*
X36440193Y-48396530D01*
X36353544Y-48401532D01*
X36272899Y-48356299D01*
X36237333Y-48281289D01*
X36253801Y-48219361D01*
X36325134Y-48166503D01*
X36427833Y-48173419D01*
G37*
G36*
X36302867Y-48839351D02*
G01*
X36334711Y-48873632D01*
X36364333Y-48943845D01*
X36339557Y-49009928D01*
X36261481Y-49070752D01*
X36165283Y-49084814D01*
X36109661Y-49047394D01*
X36089166Y-48943845D01*
X36089940Y-48923694D01*
X36127078Y-48827551D01*
X36204974Y-48796053D01*
X36302867Y-48839351D01*
G37*
G36*
X36722758Y-45353542D02*
G01*
X36762971Y-45411088D01*
X36779224Y-45520979D01*
X36772031Y-45562581D01*
X36732857Y-45617450D01*
X36639500Y-45630802D01*
X36574538Y-45627174D01*
X36523541Y-45595099D01*
X36512500Y-45508006D01*
X36517132Y-45455558D01*
X36560974Y-45359995D01*
X36635810Y-45321366D01*
X36722758Y-45353542D01*
G37*
G36*
X36203376Y-45378620D02*
G01*
X36219295Y-45384572D01*
X36266932Y-45434976D01*
X36271496Y-45538864D01*
X36260208Y-45610761D01*
X36221444Y-45662073D01*
X36131500Y-45673277D01*
X36064904Y-45669007D01*
X36011631Y-45633899D01*
X35991637Y-45540655D01*
X36008049Y-45424109D01*
X36081076Y-45367936D01*
X36203376Y-45378620D01*
G37*
G36*
X34201202Y-45573057D02*
G01*
X34261777Y-45595406D01*
X34264976Y-45598772D01*
X34287591Y-45673297D01*
X34253725Y-45750993D01*
X34184250Y-45804582D01*
X34100039Y-45806786D01*
X34058617Y-45765153D01*
X34036000Y-45674610D01*
X34036278Y-45658968D01*
X34059381Y-45586181D01*
X34134777Y-45567089D01*
X34201202Y-45573057D01*
G37*
G36*
X36640039Y-45822388D02*
G01*
X36680195Y-45857002D01*
X36699521Y-45897716D01*
X36677304Y-45967127D01*
X36638658Y-46009254D01*
X36550304Y-46034313D01*
X36533305Y-46033921D01*
X36466323Y-46008640D01*
X36449000Y-45926793D01*
X36449048Y-45922060D01*
X36479770Y-45825526D01*
X36551269Y-45788020D01*
X36640039Y-45822388D01*
G37*
G36*
X35914563Y-46021947D02*
G01*
X35915263Y-46022661D01*
X35936419Y-46096649D01*
X35909711Y-46190180D01*
X35846544Y-46262868D01*
X35794329Y-46280300D01*
X35715415Y-46254324D01*
X35664470Y-46180488D01*
X35664335Y-46081525D01*
X35668562Y-46070590D01*
X35734730Y-46008390D01*
X35831052Y-45988766D01*
X35914563Y-46021947D01*
G37*
G36*
X35585243Y-46207608D02*
G01*
X35618770Y-46252827D01*
X35636126Y-46349159D01*
X35633401Y-46364204D01*
X35593603Y-46421848D01*
X35496500Y-46437825D01*
X35429717Y-46433956D01*
X35380055Y-46400839D01*
X35369500Y-46310982D01*
X35370342Y-46289747D01*
X35407790Y-46193574D01*
X35486167Y-46162963D01*
X35585243Y-46207608D01*
G37*
G36*
X34332539Y-46467366D02*
G01*
X34388963Y-46512156D01*
X34389965Y-46514666D01*
X34410865Y-46623388D01*
X34366200Y-46705417D01*
X34320775Y-46738585D01*
X34227663Y-46751571D01*
X34148529Y-46710190D01*
X34106915Y-46631435D01*
X34126360Y-46532297D01*
X34157191Y-46498042D01*
X34242390Y-46463650D01*
X34332539Y-46467366D01*
G37*
G36*
X37338099Y-47101683D02*
G01*
X37390010Y-47170546D01*
X37398131Y-47244948D01*
X37364375Y-47358739D01*
X37268892Y-47419956D01*
X37196967Y-47424431D01*
X37102400Y-47380093D01*
X37046922Y-47293829D01*
X37043379Y-47190919D01*
X37104617Y-47096644D01*
X37142391Y-47075187D01*
X37242911Y-47066621D01*
X37338099Y-47101683D01*
G37*
G36*
X37194005Y-47609359D02*
G01*
X37231882Y-47669230D01*
X37244890Y-47772149D01*
X37244120Y-47778355D01*
X37209013Y-47862635D01*
X37118597Y-47895137D01*
X37026384Y-47882757D01*
X36955522Y-47820282D01*
X36931366Y-47731530D01*
X36960024Y-47643392D01*
X37047609Y-47582756D01*
X37103565Y-47577037D01*
X37194005Y-47609359D01*
G37*
G36*
X35246193Y-47618474D02*
G01*
X35324142Y-47672632D01*
X35381530Y-47767341D01*
X35378885Y-47873342D01*
X35315155Y-47955286D01*
X35200166Y-47988160D01*
X35095102Y-47961528D01*
X35025477Y-47883597D01*
X35015896Y-47778960D01*
X35076190Y-47672632D01*
X35125792Y-47633736D01*
X35200166Y-47605885D01*
X35246193Y-47618474D01*
G37*
G36*
X36614203Y-47824227D02*
G01*
X36674778Y-47846577D01*
X36677976Y-47849943D01*
X36700592Y-47924468D01*
X36666726Y-48002164D01*
X36597251Y-48055753D01*
X36513039Y-48057957D01*
X36471617Y-48016324D01*
X36449000Y-47925780D01*
X36449278Y-47910138D01*
X36472382Y-47837352D01*
X36547778Y-47818260D01*
X36614203Y-47824227D01*
G37*
G36*
X35651466Y-47852504D02*
G01*
X35739268Y-47921349D01*
X35773127Y-48005916D01*
X35759765Y-48119349D01*
X35691284Y-48207523D01*
X35581166Y-48243009D01*
X35504566Y-48230244D01*
X35419922Y-48156152D01*
X35390666Y-48020771D01*
X35395698Y-47978298D01*
X35451361Y-47889055D01*
X35546057Y-47844431D01*
X35651466Y-47852504D01*
G37*
G36*
X36965385Y-48077612D02*
G01*
X37017573Y-48126063D01*
X37033620Y-48235247D01*
X37025728Y-48281149D01*
X36986538Y-48336089D01*
X36893500Y-48349196D01*
X36852741Y-48347738D01*
X36780030Y-48321126D01*
X36751896Y-48245389D01*
X36750007Y-48209160D01*
X36784850Y-48111429D01*
X36864540Y-48061374D01*
X36965385Y-48077612D01*
G37*
G36*
X36209297Y-48466002D02*
G01*
X36223027Y-48502918D01*
X36225867Y-48568193D01*
X36171708Y-48627053D01*
X36169733Y-48628688D01*
X36105902Y-48659045D01*
X36043153Y-48618557D01*
X36012195Y-48570561D01*
X36007473Y-48484162D01*
X36012781Y-48472659D01*
X36074738Y-48422294D01*
X36153972Y-48418840D01*
X36209297Y-48466002D01*
G37*
G36*
X36660572Y-48506507D02*
G01*
X36717297Y-48550952D01*
X36733229Y-48594423D01*
X36734459Y-48654901D01*
X36689619Y-48727971D01*
X36615639Y-48781818D01*
X36518181Y-48775984D01*
X36434826Y-48703175D01*
X36413288Y-48646904D01*
X36446055Y-48565131D01*
X36476412Y-48537807D01*
X36567866Y-48502774D01*
X36660572Y-48506507D01*
G37*
G36*
X35452042Y-49090738D02*
G01*
X35487728Y-49130142D01*
X35517666Y-49205229D01*
X35516504Y-49220276D01*
X35474644Y-49279201D01*
X35396524Y-49290343D01*
X35314812Y-49246978D01*
X35285678Y-49215953D01*
X35268634Y-49166673D01*
X35315970Y-49106775D01*
X35327740Y-49095295D01*
X35389701Y-49059628D01*
X35452042Y-49090738D01*
G37*
G36*
X35765019Y-45534935D02*
G01*
X35775924Y-45547671D01*
X35805669Y-45645684D01*
X35784504Y-45756516D01*
X35718750Y-45838675D01*
X35711040Y-45843209D01*
X35613788Y-45856730D01*
X35529039Y-45803357D01*
X35482666Y-45698457D01*
X35480998Y-45684143D01*
X35502766Y-45573251D01*
X35573429Y-45502111D01*
X35668882Y-45484686D01*
X35765019Y-45534935D01*
G37*
G36*
X35382200Y-45703009D02*
G01*
X35415008Y-45757615D01*
X35430772Y-45871175D01*
X35400601Y-45973699D01*
X35382140Y-45996125D01*
X35278946Y-46046263D01*
X35147250Y-46030101D01*
X35104231Y-46001854D01*
X35056431Y-45910382D01*
X35054316Y-45798715D01*
X35102800Y-45703009D01*
X35170752Y-45664243D01*
X35285489Y-45657461D01*
X35382200Y-45703009D01*
G37*
G36*
X37398476Y-46653234D02*
G01*
X37436369Y-46705396D01*
X37465000Y-46798862D01*
X37440311Y-46886181D01*
X37358847Y-46974626D01*
X37251285Y-47011237D01*
X37176597Y-46981897D01*
X37101274Y-46905049D01*
X37063727Y-46841172D01*
X37056482Y-46775807D01*
X37101274Y-46692675D01*
X37182408Y-46612038D01*
X37290699Y-46592150D01*
X37398476Y-46653234D01*
G37*
G36*
X34939111Y-47336878D02*
G01*
X34960030Y-47375263D01*
X34967717Y-47470216D01*
X34945919Y-47566752D01*
X34900370Y-47622579D01*
X34828337Y-47643622D01*
X34730573Y-47629724D01*
X34663868Y-47543431D01*
X34637812Y-47447934D01*
X34669959Y-47373531D01*
X34674368Y-47368542D01*
X34757868Y-47321558D01*
X34861209Y-47308948D01*
X34939111Y-47336878D01*
G37*
G36*
X35848797Y-47406736D02*
G01*
X35916809Y-47460257D01*
X35967222Y-47516368D01*
X35977038Y-47569170D01*
X35939511Y-47651153D01*
X35898437Y-47699132D01*
X35814000Y-47733310D01*
X35747598Y-47707714D01*
X35676151Y-47633667D01*
X35644666Y-47547999D01*
X35648042Y-47535792D01*
X35692513Y-47479033D01*
X35760046Y-47420463D01*
X35814000Y-47393511D01*
X35848797Y-47406736D01*
G37*
G36*
X36914667Y-58373277D02*
G01*
X36914667Y-58904214D01*
X36766500Y-58904214D01*
X36618333Y-58904214D01*
X36618333Y-58564414D01*
X36618333Y-58224615D01*
X36470167Y-58224615D01*
X36322000Y-58224615D01*
X36322000Y-58543177D01*
X36322000Y-58861739D01*
X36195000Y-58861739D01*
X36068000Y-58861739D01*
X36068000Y-58543177D01*
X36068000Y-58224615D01*
X35941000Y-58224615D01*
X35814000Y-58224615D01*
X35814000Y-58543177D01*
X35814000Y-58861739D01*
X35665833Y-58861739D01*
X35517666Y-58861739D01*
X35517666Y-58352040D01*
X35517666Y-57842341D01*
X36216167Y-57842341D01*
X36914667Y-57842341D01*
X36914667Y-58373277D01*
G37*
G36*
X35604234Y-56298133D02*
G01*
X35706227Y-56345688D01*
X35860585Y-56418502D01*
X36053498Y-56510053D01*
X36271157Y-56613820D01*
X36388223Y-56669922D01*
X36594352Y-56770606D01*
X36738670Y-56845723D01*
X36831592Y-56902028D01*
X36883537Y-56946279D01*
X36904919Y-56985229D01*
X36906157Y-57025634D01*
X36902612Y-57043631D01*
X36877617Y-57089294D01*
X36820718Y-57138625D01*
X36720372Y-57198923D01*
X36565035Y-57277486D01*
X36343167Y-57381612D01*
X36285265Y-57408269D01*
X36077273Y-57503643D01*
X35890589Y-57588689D01*
X35743740Y-57654991D01*
X35655250Y-57694133D01*
X35517666Y-57753056D01*
X35517666Y-57549344D01*
X35517666Y-57345632D01*
X35885273Y-57178203D01*
X36252881Y-57010775D01*
X35885273Y-56846428D01*
X35517666Y-56682080D01*
X35517666Y-56471880D01*
X35520465Y-56377948D01*
X35536949Y-56296455D01*
X35570583Y-56283034D01*
X35604234Y-56298133D01*
G37*
G36*
X36216167Y-49857056D02*
G01*
X36924269Y-49857056D01*
X36908091Y-50292424D01*
X36891542Y-50520342D01*
X36838421Y-50792914D01*
X36747643Y-50995160D01*
X36615397Y-51132218D01*
X36437870Y-51209222D01*
X36211251Y-51231308D01*
X36048890Y-51217443D01*
X35859903Y-51155350D01*
X35717564Y-51037962D01*
X35617373Y-50859120D01*
X35554828Y-50612661D01*
X35525429Y-50292424D01*
X35523311Y-50239330D01*
X35814000Y-50239330D01*
X35814000Y-50390102D01*
X35818214Y-50456720D01*
X35856460Y-50610198D01*
X35923648Y-50736836D01*
X36006396Y-50807594D01*
X36084540Y-50826082D01*
X36223708Y-50831745D01*
X36359717Y-50815393D01*
X36452668Y-50779535D01*
X36502188Y-50730621D01*
X36569085Y-50635016D01*
X36570782Y-50631730D01*
X36604423Y-50522214D01*
X36618333Y-50390785D01*
X36618333Y-50239330D01*
X36216167Y-50239330D01*
X35814000Y-50239330D01*
X35523311Y-50239330D01*
X35508063Y-49857056D01*
X36216167Y-49857056D01*
G37*
G36*
X35654457Y-60363100D02*
G01*
X35776146Y-60446893D01*
X35954480Y-60580304D01*
X36266037Y-60815585D01*
X36590352Y-60815585D01*
X36914667Y-60815585D01*
X36914667Y-61006722D01*
X36914667Y-61197859D01*
X36594667Y-61197859D01*
X36274668Y-61197859D01*
X35941000Y-61452709D01*
X35848250Y-61522245D01*
X35714262Y-61617690D01*
X35613437Y-61683215D01*
X35562499Y-61707558D01*
X35547856Y-61697009D01*
X35526070Y-61624306D01*
X35517666Y-61502384D01*
X35520508Y-61400029D01*
X35541488Y-61314063D01*
X35598196Y-61244541D01*
X35708166Y-61159945D01*
X35786306Y-61102176D01*
X35867272Y-61037822D01*
X35898666Y-61006123D01*
X35882430Y-60988245D01*
X35813242Y-60933361D01*
X35708166Y-60858060D01*
X35610386Y-60787306D01*
X35547051Y-60720036D01*
X35522056Y-60638909D01*
X35517666Y-60511676D01*
X35517686Y-60490107D01*
X35521030Y-60392430D01*
X35537724Y-60337569D01*
X35578591Y-60327226D01*
X35654457Y-60363100D01*
G37*
G36*
X36392249Y-53277207D02*
G01*
X36604176Y-53365234D01*
X36769298Y-53511387D01*
X36873411Y-53706104D01*
X36893732Y-53820729D01*
X36899827Y-53997796D01*
X36889701Y-54192186D01*
X36865278Y-54370027D01*
X36828481Y-54497441D01*
X36793556Y-54558126D01*
X36727147Y-54603266D01*
X36611538Y-54614247D01*
X36579753Y-54614042D01*
X36486516Y-54610394D01*
X36449021Y-54603628D01*
X36457248Y-54577417D01*
X36488439Y-54490700D01*
X36534915Y-54366320D01*
X36591307Y-54170109D01*
X36593928Y-53995976D01*
X36555479Y-53870561D01*
X36461611Y-53736968D01*
X36337948Y-53662355D01*
X36200791Y-53644525D01*
X36066441Y-53681283D01*
X35951199Y-53770431D01*
X35871367Y-53909773D01*
X35843245Y-54097114D01*
X35846078Y-54150827D01*
X35872175Y-54308976D01*
X35915914Y-54436744D01*
X35985507Y-54571772D01*
X35798061Y-54571772D01*
X35754950Y-54571430D01*
X35655125Y-54560543D01*
X35601375Y-54521703D01*
X35564141Y-54438009D01*
X35535820Y-54330127D01*
X35516766Y-54090850D01*
X35543274Y-53846176D01*
X35612916Y-53636048D01*
X35637310Y-53590595D01*
X35785513Y-53404147D01*
X35974172Y-53292316D01*
X36203363Y-53255050D01*
X36392249Y-53277207D01*
G37*
G36*
X36281913Y-54786521D02*
G01*
X36503285Y-54839838D01*
X36681116Y-54965202D01*
X36819417Y-55165145D01*
X36842166Y-55213869D01*
X36908770Y-55456694D01*
X36906971Y-55699514D01*
X36841190Y-55925325D01*
X36715845Y-56117125D01*
X36535359Y-56257910D01*
X36508268Y-56271861D01*
X36301964Y-56343347D01*
X36106217Y-56338697D01*
X35896974Y-56257910D01*
X35855286Y-56233777D01*
X35685856Y-56081031D01*
X35572484Y-55880792D01*
X35519590Y-55650063D01*
X35521557Y-55610055D01*
X35833724Y-55610055D01*
X35876789Y-55732330D01*
X35900549Y-55776629D01*
X36016872Y-55902759D01*
X36159784Y-55962144D01*
X36309758Y-55954615D01*
X36447269Y-55880006D01*
X36552793Y-55738147D01*
X36584236Y-55669807D01*
X36610989Y-55583948D01*
X36601627Y-55505755D01*
X36556621Y-55392759D01*
X36486050Y-55280941D01*
X36359788Y-55189558D01*
X36214071Y-55161232D01*
X36068562Y-55194604D01*
X35942924Y-55288320D01*
X35856821Y-55441022D01*
X35840152Y-55498426D01*
X35833724Y-55610055D01*
X35521557Y-55610055D01*
X35531594Y-55405846D01*
X35612916Y-55165145D01*
X35645578Y-55105367D01*
X35793855Y-54925222D01*
X35982714Y-54818993D01*
X36214071Y-54784460D01*
X36216167Y-54784147D01*
X36281913Y-54786521D01*
G37*
G36*
X36626761Y-52073822D02*
G01*
X36657117Y-52076208D01*
X36761438Y-52094718D01*
X36818520Y-52140678D01*
X36859361Y-52235651D01*
X36897731Y-52385045D01*
X36913244Y-52603638D01*
X36883073Y-52802770D01*
X36810927Y-52963080D01*
X36700513Y-53065203D01*
X36611470Y-53101762D01*
X36438784Y-53114370D01*
X36281332Y-53046649D01*
X36144089Y-52901453D01*
X36032031Y-52681638D01*
X35996041Y-52596716D01*
X35933349Y-52495386D01*
X35882481Y-52471793D01*
X35849287Y-52526582D01*
X35839616Y-52660400D01*
X35841424Y-52705482D01*
X35855116Y-52844778D01*
X35876303Y-52947106D01*
X35889286Y-53010530D01*
X35856576Y-53037258D01*
X35758720Y-53042675D01*
X35658655Y-53033993D01*
X35601076Y-52991006D01*
X35558434Y-52889253D01*
X35543394Y-52828622D01*
X35525495Y-52671145D01*
X35526911Y-52506652D01*
X35551920Y-52350788D01*
X35625559Y-52189867D01*
X35747052Y-52096139D01*
X35919833Y-52065752D01*
X35969702Y-52067594D01*
X36090204Y-52096681D01*
X36190178Y-52170891D01*
X36282813Y-52302775D01*
X36381298Y-52504883D01*
X36433928Y-52613194D01*
X36497022Y-52708437D01*
X36543579Y-52735212D01*
X36563781Y-52723335D01*
X36601250Y-52645309D01*
X36608437Y-52521581D01*
X36585823Y-52376918D01*
X36533889Y-52236088D01*
X36444688Y-52060656D01*
X36626761Y-52073822D01*
G37*
G36*
X35943682Y-59116588D02*
G01*
X36216167Y-59116588D01*
X36914667Y-59116588D01*
X36914667Y-59307725D01*
X36914667Y-59498862D01*
X36639500Y-59498862D01*
X36597769Y-59499075D01*
X36458371Y-59506018D01*
X36385415Y-59525148D01*
X36364333Y-59559683D01*
X36369769Y-59583651D01*
X36435764Y-59661952D01*
X36568093Y-59753410D01*
X36755917Y-59849990D01*
X36804471Y-59872875D01*
X36878804Y-59922990D01*
X36908979Y-59992479D01*
X36914667Y-60114062D01*
X36914208Y-60146911D01*
X36898610Y-60265352D01*
X36861750Y-60305755D01*
X36857484Y-60305414D01*
X36787882Y-60282800D01*
X36669384Y-60231785D01*
X36525040Y-60162198D01*
X36428351Y-60113745D01*
X36319143Y-60063839D01*
X36252906Y-60047068D01*
X36209611Y-60059853D01*
X36169228Y-60098616D01*
X36132766Y-60128546D01*
X36008603Y-60171510D01*
X35859893Y-60173772D01*
X35722966Y-60132567D01*
X35672487Y-60095399D01*
X35586805Y-59958089D01*
X35535033Y-59744998D01*
X35525930Y-59594431D01*
X35814648Y-59594431D01*
X35825425Y-59683114D01*
X35878140Y-59770984D01*
X35967239Y-59789400D01*
X36028318Y-59748484D01*
X36060098Y-59636558D01*
X36062838Y-59547452D01*
X36031842Y-59506609D01*
X35943682Y-59498862D01*
X35892673Y-59500911D01*
X35829796Y-59526111D01*
X35814648Y-59594431D01*
X35525930Y-59594431D01*
X35517666Y-59457752D01*
X35517666Y-59116588D01*
X35943682Y-59116588D01*
G37*
%LPC*%
D12*
X64770000Y-46990000D03*
X34925000Y-69850000D03*
X34925000Y-24130000D03*
D13*
X72510000Y-67310000D03*
D14*
X75010000Y-67310000D03*
X77510000Y-67310000D03*
X80010000Y-67310000D03*
X82510000Y-67310000D03*
X85010000Y-67310000D03*
X87510000Y-67310000D03*
X90010000Y-67310000D03*
D15*
X91440000Y-49530000D03*
X91440000Y-46990000D03*
X91440000Y-44450000D03*
D16*
X88900000Y-49530000D03*
D17*
X88900000Y-46990000D03*
X88900000Y-44450000D03*
D18*
X74930000Y-49357677D03*
D19*
X74930000Y-44357677D03*
D13*
X72470000Y-58420000D03*
D14*
X74970000Y-58420000D03*
X77470000Y-58420000D03*
X79970000Y-58420000D03*
X82470000Y-58420000D03*
X84970000Y-58420000D03*
X87470000Y-58420000D03*
X89970000Y-58420000D03*
D13*
X72510000Y-25400000D03*
D14*
X75010000Y-25400000D03*
X77510000Y-25400000D03*
X80010000Y-25400000D03*
X82510000Y-25400000D03*
X85010000Y-25400000D03*
X87510000Y-25400000D03*
X90010000Y-25400000D03*
D13*
X72510000Y-34290000D03*
D14*
X75010000Y-34290000D03*
X77510000Y-34290000D03*
X80010000Y-34290000D03*
X82510000Y-34290000D03*
X85010000Y-34290000D03*
X87510000Y-34290000D03*
X90010000Y-34290000D03*
D20*
X25400000Y-29210000D03*
D21*
X25400000Y-31750000D03*
X25400000Y-34290000D03*
X25400000Y-36830000D03*
X25400000Y-39370000D03*
X25400000Y-41910000D03*
X25400000Y-44450000D03*
X25400000Y-46990000D03*
X25400000Y-49530000D03*
X25400000Y-52070000D03*
X25400000Y-54610000D03*
X25400000Y-57150000D03*
X25400000Y-59690000D03*
X25400000Y-62230000D03*
X25400000Y-64770000D03*
D20*
X48260000Y-29210000D03*
D21*
X48260000Y-31750000D03*
X48260000Y-34290000D03*
X48260000Y-36830000D03*
X48260000Y-39370000D03*
X48260000Y-41910000D03*
X48260000Y-44450000D03*
X48260000Y-46990000D03*
X48260000Y-49530000D03*
X48260000Y-52070000D03*
X48260000Y-54610000D03*
X48260000Y-57150000D03*
X48260000Y-59690000D03*
X48260000Y-62230000D03*
X48260000Y-64770000D03*
D22*
X55885000Y-24130000D03*
D23*
X55885000Y-26670000D03*
X55885000Y-29210000D03*
X55885000Y-31750000D03*
X55885000Y-34290000D03*
X55885000Y-36830000D03*
X55885000Y-39370000D03*
X55885000Y-41910000D03*
X63505000Y-41910000D03*
X63505000Y-39370000D03*
X63505000Y-36830000D03*
X63505000Y-34290000D03*
X63505000Y-31750000D03*
X63505000Y-29210000D03*
X63505000Y-26670000D03*
X63505000Y-24130000D03*
D22*
X55880000Y-52070000D03*
D23*
X55880000Y-54610000D03*
X55880000Y-57150000D03*
X55880000Y-59690000D03*
X55880000Y-62230000D03*
X55880000Y-64770000D03*
X55880000Y-67310000D03*
X55880000Y-69850000D03*
X63500000Y-69850000D03*
X63500000Y-67310000D03*
X63500000Y-64770000D03*
X63500000Y-62230000D03*
X63500000Y-59690000D03*
X63500000Y-57150000D03*
X63500000Y-54610000D03*
X63500000Y-52070000D03*
%LPD*%
M02*
