M48
; DRILL file {KiCad 9.0.1} date 2025-05-08T00:01:41-0300
; FORMAT={-:-/ absolute / metric / decimal}
; #@! TF.CreationDate,2025-05-08T00:01:41-03:00
; #@! TF.GenerationSoftware,Kicad,Pcbnew,9.0.1
; #@! TF.FileFunction,Plated,1,2,PTH
FMAT,2
METRIC
; #@! TA.AperFunction,Plated,PTH,ComponentDrill
T1C0.800
; #@! TA.AperFunction,Plated,PTH,ComponentDrill
T2C0.950
; #@! TA.AperFunction,Plated,PTH,ComponentDrill
T3C1.000
; #@! TA.AperFunction,Plated,PTH,ComponentDrill
T4C1.100
%
G90
G05
T1
X55.88Y-52.07
X55.88Y-54.61
X55.88Y-57.15
X55.88Y-59.69
X55.88Y-62.23
X55.88Y-64.77
X55.88Y-67.31
X55.88Y-69.85
X55.885Y-24.13
X55.885Y-26.67
X55.885Y-29.21
X55.885Y-31.75
X55.885Y-34.29
X55.885Y-36.83
X55.885Y-39.37
X55.885Y-41.91
X63.5Y-52.07
X63.5Y-54.61
X63.5Y-57.15
X63.5Y-59.69
X63.5Y-62.23
X63.5Y-64.77
X63.5Y-67.31
X63.5Y-69.85
X63.505Y-24.13
X63.505Y-26.67
X63.505Y-29.21
X63.505Y-31.75
X63.505Y-34.29
X63.505Y-36.83
X63.505Y-39.37
X63.505Y-41.91
T2
X72.47Y-58.42
X72.51Y-25.4
X72.51Y-34.29
X72.51Y-67.31
X74.97Y-58.42
X75.01Y-25.4
X75.01Y-34.29
X75.01Y-67.31
X77.47Y-58.42
X77.51Y-25.4
X77.51Y-34.29
X77.51Y-67.31
X79.97Y-58.42
X80.01Y-25.4
X80.01Y-34.29
X80.01Y-67.31
X82.47Y-58.42
X82.51Y-25.4
X82.51Y-34.29
X82.51Y-67.31
X84.97Y-58.42
X85.01Y-25.4
X85.01Y-34.29
X85.01Y-67.31
X87.47Y-58.42
X87.51Y-25.4
X87.51Y-34.29
X87.51Y-67.31
X89.97Y-58.42
X90.01Y-25.4
X90.01Y-34.29
X90.01Y-67.31
T3
X25.4Y-29.21
X25.4Y-31.75
X25.4Y-34.29
X25.4Y-36.83
X25.4Y-39.37
X25.4Y-41.91
X25.4Y-44.45
X25.4Y-46.99
X25.4Y-49.53
X25.4Y-52.07
X25.4Y-54.61
X25.4Y-57.15
X25.4Y-59.69
X25.4Y-62.23
X25.4Y-64.77
X48.26Y-29.21
X48.26Y-31.75
X48.26Y-34.29
X48.26Y-36.83
X48.26Y-39.37
X48.26Y-41.91
X48.26Y-44.45
X48.26Y-46.99
X48.26Y-49.53
X48.26Y-52.07
X48.26Y-54.61
X48.26Y-57.15
X48.26Y-59.69
X48.26Y-62.23
X48.26Y-64.77
X74.93Y-44.358
X74.93Y-49.358
T4
X88.9Y-44.45
X88.9Y-46.99
X88.9Y-49.53
M30
