G04 #@! TF.GenerationSoftware,KiCad,Pcbnew,9.0.1*
G04 #@! TF.CreationDate,2025-05-08T00:01:32-03:00*
G04 #@! TF.ProjectId,Controlador,436f6e74-726f-46c6-9164-6f722e6b6963,rev?*
G04 #@! TF.SameCoordinates,Original*
G04 #@! TF.FileFunction,Legend,Top*
G04 #@! TF.FilePolarity,Positive*
%FSLAX46Y46*%
G04 Gerber Fmt 4.6, Leading zero omitted, Abs format (unit mm)*
G04 Created by KiCad (PCBNEW 9.0.1) date 2025-05-08 00:01:32*
%MOMM*%
%LPD*%
G01*
G04 APERTURE LIST*
G04 Aperture macros list*
%AMRoundRect*
0 Rectangle with rounded corners*
0 $1 Rounding radius*
0 $2 $3 $4 $5 $6 $7 $8 $9 X,Y pos of 4 corners*
0 Add a 4 corners polygon primitive as box body*
4,1,4,$2,$3,$4,$5,$6,$7,$8,$9,$2,$3,0*
0 Add four circle primitives for the rounded corners*
1,1,$1+$1,$2,$3*
1,1,$1+$1,$4,$5*
1,1,$1+$1,$6,$7*
1,1,$1+$1,$8,$9*
0 Add four rect primitives between the rounded corners*
20,1,$1+$1,$2,$3,$4,$5,0*
20,1,$1+$1,$4,$5,$6,$7,0*
20,1,$1+$1,$6,$7,$8,$9,0*
20,1,$1+$1,$8,$9,$2,$3,0*%
G04 Aperture macros list end*
%ADD10C,0.150000*%
%ADD11C,0.125000*%
%ADD12C,0.100000*%
%ADD13C,0.120000*%
%ADD14C,3.000000*%
%ADD15RoundRect,0.250000X-0.600000X-0.725000X0.600000X-0.725000X0.600000X0.725000X-0.600000X0.725000X0*%
%ADD16O,1.700000X1.950000*%
%ADD17C,1.100000*%
%ADD18RoundRect,0.249999X0.850001X-0.850001X0.850001X0.850001X-0.850001X0.850001X-0.850001X-0.850001X0*%
%ADD19C,2.200000*%
%ADD20R,2.000000X2.000000*%
%ADD21C,2.000000*%
%ADD22R,1.700000X1.700000*%
%ADD23C,1.700000*%
%ADD24RoundRect,0.250000X-0.550000X-0.550000X0.550000X-0.550000X0.550000X0.550000X-0.550000X0.550000X0*%
%ADD25C,1.600000*%
G04 APERTURE END LIST*
D10*
X28800588Y-61732438D02*
X28705350Y-61684819D01*
X28705350Y-61684819D02*
X28562493Y-61684819D01*
X28562493Y-61684819D02*
X28419636Y-61732438D01*
X28419636Y-61732438D02*
X28324398Y-61827676D01*
X28324398Y-61827676D02*
X28276779Y-61922914D01*
X28276779Y-61922914D02*
X28229160Y-62113390D01*
X28229160Y-62113390D02*
X28229160Y-62256247D01*
X28229160Y-62256247D02*
X28276779Y-62446723D01*
X28276779Y-62446723D02*
X28324398Y-62541961D01*
X28324398Y-62541961D02*
X28419636Y-62637200D01*
X28419636Y-62637200D02*
X28562493Y-62684819D01*
X28562493Y-62684819D02*
X28657731Y-62684819D01*
X28657731Y-62684819D02*
X28800588Y-62637200D01*
X28800588Y-62637200D02*
X28848207Y-62589580D01*
X28848207Y-62589580D02*
X28848207Y-62256247D01*
X28848207Y-62256247D02*
X28657731Y-62256247D01*
X29276779Y-62684819D02*
X29276779Y-61684819D01*
X29276779Y-61684819D02*
X29848207Y-62684819D01*
X29848207Y-62684819D02*
X29848207Y-61684819D01*
X30324398Y-62684819D02*
X30324398Y-61684819D01*
X30324398Y-61684819D02*
X30562493Y-61684819D01*
X30562493Y-61684819D02*
X30705350Y-61732438D01*
X30705350Y-61732438D02*
X30800588Y-61827676D01*
X30800588Y-61827676D02*
X30848207Y-61922914D01*
X30848207Y-61922914D02*
X30895826Y-62113390D01*
X30895826Y-62113390D02*
X30895826Y-62256247D01*
X30895826Y-62256247D02*
X30848207Y-62446723D01*
X30848207Y-62446723D02*
X30800588Y-62541961D01*
X30800588Y-62541961D02*
X30705350Y-62637200D01*
X30705350Y-62637200D02*
X30562493Y-62684819D01*
X30562493Y-62684819D02*
X30324398Y-62684819D01*
X94421315Y-49984819D02*
X93849887Y-49984819D01*
X94135601Y-49984819D02*
X94135601Y-48984819D01*
X94135601Y-48984819D02*
X94040363Y-49127676D01*
X94040363Y-49127676D02*
X93945125Y-49222914D01*
X93945125Y-49222914D02*
X93849887Y-49270533D01*
X94802268Y-49080057D02*
X94849887Y-49032438D01*
X94849887Y-49032438D02*
X94945125Y-48984819D01*
X94945125Y-48984819D02*
X95183220Y-48984819D01*
X95183220Y-48984819D02*
X95278458Y-49032438D01*
X95278458Y-49032438D02*
X95326077Y-49080057D01*
X95326077Y-49080057D02*
X95373696Y-49175295D01*
X95373696Y-49175295D02*
X95373696Y-49270533D01*
X95373696Y-49270533D02*
X95326077Y-49413390D01*
X95326077Y-49413390D02*
X94754649Y-49984819D01*
X94754649Y-49984819D02*
X95373696Y-49984819D01*
X95659411Y-48984819D02*
X95992744Y-49984819D01*
X95992744Y-49984819D02*
X96326077Y-48984819D01*
D11*
X79795714Y-63956119D02*
X79795714Y-62956119D01*
X79795714Y-63337071D02*
X79890952Y-63289452D01*
X79890952Y-63289452D02*
X80081428Y-63289452D01*
X80081428Y-63289452D02*
X80176666Y-63337071D01*
X80176666Y-63337071D02*
X80224285Y-63384690D01*
X80224285Y-63384690D02*
X80271904Y-63479928D01*
X80271904Y-63479928D02*
X80271904Y-63765642D01*
X80271904Y-63765642D02*
X80224285Y-63860880D01*
X80224285Y-63860880D02*
X80176666Y-63908500D01*
X80176666Y-63908500D02*
X80081428Y-63956119D01*
X80081428Y-63956119D02*
X79890952Y-63956119D01*
X79890952Y-63956119D02*
X79795714Y-63908500D01*
D10*
X28752969Y-64224819D02*
X28276779Y-64224819D01*
X28276779Y-64224819D02*
X28229160Y-64701009D01*
X28229160Y-64701009D02*
X28276779Y-64653390D01*
X28276779Y-64653390D02*
X28372017Y-64605771D01*
X28372017Y-64605771D02*
X28610112Y-64605771D01*
X28610112Y-64605771D02*
X28705350Y-64653390D01*
X28705350Y-64653390D02*
X28752969Y-64701009D01*
X28752969Y-64701009D02*
X28800588Y-64796247D01*
X28800588Y-64796247D02*
X28800588Y-65034342D01*
X28800588Y-65034342D02*
X28752969Y-65129580D01*
X28752969Y-65129580D02*
X28705350Y-65177200D01*
X28705350Y-65177200D02*
X28610112Y-65224819D01*
X28610112Y-65224819D02*
X28372017Y-65224819D01*
X28372017Y-65224819D02*
X28276779Y-65177200D01*
X28276779Y-65177200D02*
X28229160Y-65129580D01*
X29086303Y-64224819D02*
X29419636Y-65224819D01*
X29419636Y-65224819D02*
X29752969Y-64224819D01*
X87820476Y-63907200D02*
X87725238Y-63954819D01*
X87725238Y-63954819D02*
X87534762Y-63954819D01*
X87534762Y-63954819D02*
X87439524Y-63907200D01*
X87439524Y-63907200D02*
X87391905Y-63811961D01*
X87391905Y-63811961D02*
X87391905Y-63431009D01*
X87391905Y-63431009D02*
X87439524Y-63335771D01*
X87439524Y-63335771D02*
X87534762Y-63288152D01*
X87534762Y-63288152D02*
X87725238Y-63288152D01*
X87725238Y-63288152D02*
X87820476Y-63335771D01*
X87820476Y-63335771D02*
X87868095Y-63431009D01*
X87868095Y-63431009D02*
X87868095Y-63526247D01*
X87868095Y-63526247D02*
X87391905Y-63621485D01*
X89408095Y-29982438D02*
X89312857Y-29934819D01*
X89312857Y-29934819D02*
X89170000Y-29934819D01*
X89170000Y-29934819D02*
X89027143Y-29982438D01*
X89027143Y-29982438D02*
X88931905Y-30077676D01*
X88931905Y-30077676D02*
X88884286Y-30172914D01*
X88884286Y-30172914D02*
X88836667Y-30363390D01*
X88836667Y-30363390D02*
X88836667Y-30506247D01*
X88836667Y-30506247D02*
X88884286Y-30696723D01*
X88884286Y-30696723D02*
X88931905Y-30791961D01*
X88931905Y-30791961D02*
X89027143Y-30887200D01*
X89027143Y-30887200D02*
X89170000Y-30934819D01*
X89170000Y-30934819D02*
X89265238Y-30934819D01*
X89265238Y-30934819D02*
X89408095Y-30887200D01*
X89408095Y-30887200D02*
X89455714Y-30839580D01*
X89455714Y-30839580D02*
X89455714Y-30506247D01*
X89455714Y-30506247D02*
X89265238Y-30506247D01*
X89884286Y-30934819D02*
X89884286Y-29934819D01*
X89884286Y-29934819D02*
X90455714Y-30934819D01*
X90455714Y-30934819D02*
X90455714Y-29934819D01*
X90931905Y-30934819D02*
X90931905Y-29934819D01*
X90931905Y-29934819D02*
X91170000Y-29934819D01*
X91170000Y-29934819D02*
X91312857Y-29982438D01*
X91312857Y-29982438D02*
X91408095Y-30077676D01*
X91408095Y-30077676D02*
X91455714Y-30172914D01*
X91455714Y-30172914D02*
X91503333Y-30363390D01*
X91503333Y-30363390D02*
X91503333Y-30506247D01*
X91503333Y-30506247D02*
X91455714Y-30696723D01*
X91455714Y-30696723D02*
X91408095Y-30791961D01*
X91408095Y-30791961D02*
X91312857Y-30887200D01*
X91312857Y-30887200D02*
X91170000Y-30934819D01*
X91170000Y-30934819D02*
X90931905Y-30934819D01*
X79708571Y-20409819D02*
X80279999Y-20409819D01*
X79994285Y-21409819D02*
X79994285Y-20409819D01*
X80994285Y-21362200D02*
X80899047Y-21409819D01*
X80899047Y-21409819D02*
X80708571Y-21409819D01*
X80708571Y-21409819D02*
X80613333Y-21362200D01*
X80613333Y-21362200D02*
X80565714Y-21266961D01*
X80565714Y-21266961D02*
X80565714Y-20886009D01*
X80565714Y-20886009D02*
X80613333Y-20790771D01*
X80613333Y-20790771D02*
X80708571Y-20743152D01*
X80708571Y-20743152D02*
X80899047Y-20743152D01*
X80899047Y-20743152D02*
X80994285Y-20790771D01*
X80994285Y-20790771D02*
X81041904Y-20886009D01*
X81041904Y-20886009D02*
X81041904Y-20981247D01*
X81041904Y-20981247D02*
X80565714Y-21076485D01*
X81470476Y-20743152D02*
X81470476Y-21409819D01*
X81470476Y-20838390D02*
X81518095Y-20790771D01*
X81518095Y-20790771D02*
X81613333Y-20743152D01*
X81613333Y-20743152D02*
X81756190Y-20743152D01*
X81756190Y-20743152D02*
X81851428Y-20790771D01*
X81851428Y-20790771D02*
X81899047Y-20886009D01*
X81899047Y-20886009D02*
X81899047Y-21409819D01*
X82327619Y-21362200D02*
X82422857Y-21409819D01*
X82422857Y-21409819D02*
X82613333Y-21409819D01*
X82613333Y-21409819D02*
X82708571Y-21362200D01*
X82708571Y-21362200D02*
X82756190Y-21266961D01*
X82756190Y-21266961D02*
X82756190Y-21219342D01*
X82756190Y-21219342D02*
X82708571Y-21124104D01*
X82708571Y-21124104D02*
X82613333Y-21076485D01*
X82613333Y-21076485D02*
X82470476Y-21076485D01*
X82470476Y-21076485D02*
X82375238Y-21028866D01*
X82375238Y-21028866D02*
X82327619Y-20933628D01*
X82327619Y-20933628D02*
X82327619Y-20886009D01*
X82327619Y-20886009D02*
X82375238Y-20790771D01*
X82375238Y-20790771D02*
X82470476Y-20743152D01*
X82470476Y-20743152D02*
X82613333Y-20743152D01*
X82613333Y-20743152D02*
X82708571Y-20790771D01*
X85304285Y-30934819D02*
X85304285Y-29934819D01*
X85304285Y-30887200D02*
X85209047Y-30934819D01*
X85209047Y-30934819D02*
X85018571Y-30934819D01*
X85018571Y-30934819D02*
X84923333Y-30887200D01*
X84923333Y-30887200D02*
X84875714Y-30839580D01*
X84875714Y-30839580D02*
X84828095Y-30744342D01*
X84828095Y-30744342D02*
X84828095Y-30458628D01*
X84828095Y-30458628D02*
X84875714Y-30363390D01*
X84875714Y-30363390D02*
X84923333Y-30315771D01*
X84923333Y-30315771D02*
X85018571Y-30268152D01*
X85018571Y-30268152D02*
X85209047Y-30268152D01*
X85209047Y-30268152D02*
X85304285Y-30315771D01*
X43907030Y-34744819D02*
X43907030Y-33744819D01*
X43907030Y-33744819D02*
X44145125Y-33744819D01*
X44145125Y-33744819D02*
X44287982Y-33792438D01*
X44287982Y-33792438D02*
X44383220Y-33887676D01*
X44383220Y-33887676D02*
X44430839Y-33982914D01*
X44430839Y-33982914D02*
X44478458Y-34173390D01*
X44478458Y-34173390D02*
X44478458Y-34316247D01*
X44478458Y-34316247D02*
X44430839Y-34506723D01*
X44430839Y-34506723D02*
X44383220Y-34601961D01*
X44383220Y-34601961D02*
X44287982Y-34697200D01*
X44287982Y-34697200D02*
X44145125Y-34744819D01*
X44145125Y-34744819D02*
X43907030Y-34744819D01*
X44859411Y-33840057D02*
X44907030Y-33792438D01*
X44907030Y-33792438D02*
X45002268Y-33744819D01*
X45002268Y-33744819D02*
X45240363Y-33744819D01*
X45240363Y-33744819D02*
X45335601Y-33792438D01*
X45335601Y-33792438D02*
X45383220Y-33840057D01*
X45383220Y-33840057D02*
X45430839Y-33935295D01*
X45430839Y-33935295D02*
X45430839Y-34030533D01*
X45430839Y-34030533D02*
X45383220Y-34173390D01*
X45383220Y-34173390D02*
X44811792Y-34744819D01*
X44811792Y-34744819D02*
X45430839Y-34744819D01*
X85304285Y-63954819D02*
X85304285Y-62954819D01*
X85304285Y-63907200D02*
X85209047Y-63954819D01*
X85209047Y-63954819D02*
X85018571Y-63954819D01*
X85018571Y-63954819D02*
X84923333Y-63907200D01*
X84923333Y-63907200D02*
X84875714Y-63859580D01*
X84875714Y-63859580D02*
X84828095Y-63764342D01*
X84828095Y-63764342D02*
X84828095Y-63478628D01*
X84828095Y-63478628D02*
X84875714Y-63383390D01*
X84875714Y-63383390D02*
X84923333Y-63335771D01*
X84923333Y-63335771D02*
X85018571Y-63288152D01*
X85018571Y-63288152D02*
X85209047Y-63288152D01*
X85209047Y-63288152D02*
X85304285Y-63335771D01*
D11*
X82788095Y-63908500D02*
X82692857Y-63956119D01*
X82692857Y-63956119D02*
X82502381Y-63956119D01*
X82502381Y-63956119D02*
X82407143Y-63908500D01*
X82407143Y-63908500D02*
X82359524Y-63860880D01*
X82359524Y-63860880D02*
X82311905Y-63765642D01*
X82311905Y-63765642D02*
X82311905Y-63479928D01*
X82311905Y-63479928D02*
X82359524Y-63384690D01*
X82359524Y-63384690D02*
X82407143Y-63337071D01*
X82407143Y-63337071D02*
X82502381Y-63289452D01*
X82502381Y-63289452D02*
X82692857Y-63289452D01*
X82692857Y-63289452D02*
X82788095Y-63337071D01*
D10*
X43907030Y-32204819D02*
X43907030Y-31204819D01*
X43907030Y-31204819D02*
X44145125Y-31204819D01*
X44145125Y-31204819D02*
X44287982Y-31252438D01*
X44287982Y-31252438D02*
X44383220Y-31347676D01*
X44383220Y-31347676D02*
X44430839Y-31442914D01*
X44430839Y-31442914D02*
X44478458Y-31633390D01*
X44478458Y-31633390D02*
X44478458Y-31776247D01*
X44478458Y-31776247D02*
X44430839Y-31966723D01*
X44430839Y-31966723D02*
X44383220Y-32061961D01*
X44383220Y-32061961D02*
X44287982Y-32157200D01*
X44287982Y-32157200D02*
X44145125Y-32204819D01*
X44145125Y-32204819D02*
X43907030Y-32204819D01*
X45430839Y-32204819D02*
X44859411Y-32204819D01*
X45145125Y-32204819D02*
X45145125Y-31204819D01*
X45145125Y-31204819D02*
X45049887Y-31347676D01*
X45049887Y-31347676D02*
X44954649Y-31442914D01*
X44954649Y-31442914D02*
X44859411Y-31490533D01*
X43907030Y-47444819D02*
X43907030Y-46444819D01*
X43907030Y-46444819D02*
X44145125Y-46444819D01*
X44145125Y-46444819D02*
X44287982Y-46492438D01*
X44287982Y-46492438D02*
X44383220Y-46587676D01*
X44383220Y-46587676D02*
X44430839Y-46682914D01*
X44430839Y-46682914D02*
X44478458Y-46873390D01*
X44478458Y-46873390D02*
X44478458Y-47016247D01*
X44478458Y-47016247D02*
X44430839Y-47206723D01*
X44430839Y-47206723D02*
X44383220Y-47301961D01*
X44383220Y-47301961D02*
X44287982Y-47397200D01*
X44287982Y-47397200D02*
X44145125Y-47444819D01*
X44145125Y-47444819D02*
X43907030Y-47444819D01*
X45383220Y-46444819D02*
X44907030Y-46444819D01*
X44907030Y-46444819D02*
X44859411Y-46921009D01*
X44859411Y-46921009D02*
X44907030Y-46873390D01*
X44907030Y-46873390D02*
X45002268Y-46825771D01*
X45002268Y-46825771D02*
X45240363Y-46825771D01*
X45240363Y-46825771D02*
X45335601Y-46873390D01*
X45335601Y-46873390D02*
X45383220Y-46921009D01*
X45383220Y-46921009D02*
X45430839Y-47016247D01*
X45430839Y-47016247D02*
X45430839Y-47254342D01*
X45430839Y-47254342D02*
X45383220Y-47349580D01*
X45383220Y-47349580D02*
X45335601Y-47397200D01*
X45335601Y-47397200D02*
X45240363Y-47444819D01*
X45240363Y-47444819D02*
X45002268Y-47444819D01*
X45002268Y-47444819D02*
X44907030Y-47397200D01*
X44907030Y-47397200D02*
X44859411Y-47349580D01*
X75144285Y-63288152D02*
X75144285Y-64097676D01*
X75144285Y-64097676D02*
X75096666Y-64192914D01*
X75096666Y-64192914D02*
X75049047Y-64240533D01*
X75049047Y-64240533D02*
X74953809Y-64288152D01*
X74953809Y-64288152D02*
X74810952Y-64288152D01*
X74810952Y-64288152D02*
X74715714Y-64240533D01*
X75144285Y-63907200D02*
X75049047Y-63954819D01*
X75049047Y-63954819D02*
X74858571Y-63954819D01*
X74858571Y-63954819D02*
X74763333Y-63907200D01*
X74763333Y-63907200D02*
X74715714Y-63859580D01*
X74715714Y-63859580D02*
X74668095Y-63764342D01*
X74668095Y-63764342D02*
X74668095Y-63478628D01*
X74668095Y-63478628D02*
X74715714Y-63383390D01*
X74715714Y-63383390D02*
X74763333Y-63335771D01*
X74763333Y-63335771D02*
X74858571Y-63288152D01*
X74858571Y-63288152D02*
X75049047Y-63288152D01*
X75049047Y-63288152D02*
X75144285Y-63335771D01*
X72199524Y-63288152D02*
X72580476Y-63288152D01*
X72342381Y-63954819D02*
X72342381Y-63097676D01*
X72342381Y-63097676D02*
X72390000Y-63002438D01*
X72390000Y-63002438D02*
X72485238Y-62954819D01*
X72485238Y-62954819D02*
X72580476Y-62954819D01*
D11*
X79795714Y-30936119D02*
X79795714Y-29936119D01*
X79795714Y-30317071D02*
X79890952Y-30269452D01*
X79890952Y-30269452D02*
X80081428Y-30269452D01*
X80081428Y-30269452D02*
X80176666Y-30317071D01*
X80176666Y-30317071D02*
X80224285Y-30364690D01*
X80224285Y-30364690D02*
X80271904Y-30459928D01*
X80271904Y-30459928D02*
X80271904Y-30745642D01*
X80271904Y-30745642D02*
X80224285Y-30840880D01*
X80224285Y-30840880D02*
X80176666Y-30888500D01*
X80176666Y-30888500D02*
X80081428Y-30936119D01*
X80081428Y-30936119D02*
X79890952Y-30936119D01*
X79890952Y-30936119D02*
X79795714Y-30888500D01*
D10*
X43907030Y-49984819D02*
X43907030Y-48984819D01*
X43907030Y-48984819D02*
X44145125Y-48984819D01*
X44145125Y-48984819D02*
X44287982Y-49032438D01*
X44287982Y-49032438D02*
X44383220Y-49127676D01*
X44383220Y-49127676D02*
X44430839Y-49222914D01*
X44430839Y-49222914D02*
X44478458Y-49413390D01*
X44478458Y-49413390D02*
X44478458Y-49556247D01*
X44478458Y-49556247D02*
X44430839Y-49746723D01*
X44430839Y-49746723D02*
X44383220Y-49841961D01*
X44383220Y-49841961D02*
X44287982Y-49937200D01*
X44287982Y-49937200D02*
X44145125Y-49984819D01*
X44145125Y-49984819D02*
X43907030Y-49984819D01*
X45335601Y-48984819D02*
X45145125Y-48984819D01*
X45145125Y-48984819D02*
X45049887Y-49032438D01*
X45049887Y-49032438D02*
X45002268Y-49080057D01*
X45002268Y-49080057D02*
X44907030Y-49222914D01*
X44907030Y-49222914D02*
X44859411Y-49413390D01*
X44859411Y-49413390D02*
X44859411Y-49794342D01*
X44859411Y-49794342D02*
X44907030Y-49889580D01*
X44907030Y-49889580D02*
X44954649Y-49937200D01*
X44954649Y-49937200D02*
X45049887Y-49984819D01*
X45049887Y-49984819D02*
X45240363Y-49984819D01*
X45240363Y-49984819D02*
X45335601Y-49937200D01*
X45335601Y-49937200D02*
X45383220Y-49889580D01*
X45383220Y-49889580D02*
X45430839Y-49794342D01*
X45430839Y-49794342D02*
X45430839Y-49556247D01*
X45430839Y-49556247D02*
X45383220Y-49461009D01*
X45383220Y-49461009D02*
X45335601Y-49413390D01*
X45335601Y-49413390D02*
X45240363Y-49365771D01*
X45240363Y-49365771D02*
X45049887Y-49365771D01*
X45049887Y-49365771D02*
X44954649Y-49413390D01*
X44954649Y-49413390D02*
X44907030Y-49461009D01*
X44907030Y-49461009D02*
X44859411Y-49556247D01*
X43907030Y-29664819D02*
X43907030Y-28664819D01*
X43907030Y-28664819D02*
X44145125Y-28664819D01*
X44145125Y-28664819D02*
X44287982Y-28712438D01*
X44287982Y-28712438D02*
X44383220Y-28807676D01*
X44383220Y-28807676D02*
X44430839Y-28902914D01*
X44430839Y-28902914D02*
X44478458Y-29093390D01*
X44478458Y-29093390D02*
X44478458Y-29236247D01*
X44478458Y-29236247D02*
X44430839Y-29426723D01*
X44430839Y-29426723D02*
X44383220Y-29521961D01*
X44383220Y-29521961D02*
X44287982Y-29617200D01*
X44287982Y-29617200D02*
X44145125Y-29664819D01*
X44145125Y-29664819D02*
X43907030Y-29664819D01*
X45097506Y-28664819D02*
X45192744Y-28664819D01*
X45192744Y-28664819D02*
X45287982Y-28712438D01*
X45287982Y-28712438D02*
X45335601Y-28760057D01*
X45335601Y-28760057D02*
X45383220Y-28855295D01*
X45383220Y-28855295D02*
X45430839Y-29045771D01*
X45430839Y-29045771D02*
X45430839Y-29283866D01*
X45430839Y-29283866D02*
X45383220Y-29474342D01*
X45383220Y-29474342D02*
X45335601Y-29569580D01*
X45335601Y-29569580D02*
X45287982Y-29617200D01*
X45287982Y-29617200D02*
X45192744Y-29664819D01*
X45192744Y-29664819D02*
X45097506Y-29664819D01*
X45097506Y-29664819D02*
X45002268Y-29617200D01*
X45002268Y-29617200D02*
X44954649Y-29569580D01*
X44954649Y-29569580D02*
X44907030Y-29474342D01*
X44907030Y-29474342D02*
X44859411Y-29283866D01*
X44859411Y-29283866D02*
X44859411Y-29045771D01*
X44859411Y-29045771D02*
X44907030Y-28855295D01*
X44907030Y-28855295D02*
X44954649Y-28760057D01*
X44954649Y-28760057D02*
X45002268Y-28712438D01*
X45002268Y-28712438D02*
X45097506Y-28664819D01*
X89550952Y-63954819D02*
X88979524Y-63954819D01*
X89265238Y-63954819D02*
X89265238Y-62954819D01*
X89265238Y-62954819D02*
X89170000Y-63097676D01*
X89170000Y-63097676D02*
X89074762Y-63192914D01*
X89074762Y-63192914D02*
X88979524Y-63240533D01*
X89931905Y-63050057D02*
X89979524Y-63002438D01*
X89979524Y-63002438D02*
X90074762Y-62954819D01*
X90074762Y-62954819D02*
X90312857Y-62954819D01*
X90312857Y-62954819D02*
X90408095Y-63002438D01*
X90408095Y-63002438D02*
X90455714Y-63050057D01*
X90455714Y-63050057D02*
X90503333Y-63145295D01*
X90503333Y-63145295D02*
X90503333Y-63240533D01*
X90503333Y-63240533D02*
X90455714Y-63383390D01*
X90455714Y-63383390D02*
X89884286Y-63954819D01*
X89884286Y-63954819D02*
X90503333Y-63954819D01*
X90789048Y-62954819D02*
X91122381Y-63954819D01*
X91122381Y-63954819D02*
X91455714Y-62954819D01*
X95326077Y-46444819D02*
X94849887Y-46444819D01*
X94849887Y-46444819D02*
X94802268Y-46921009D01*
X94802268Y-46921009D02*
X94849887Y-46873390D01*
X94849887Y-46873390D02*
X94945125Y-46825771D01*
X94945125Y-46825771D02*
X95183220Y-46825771D01*
X95183220Y-46825771D02*
X95278458Y-46873390D01*
X95278458Y-46873390D02*
X95326077Y-46921009D01*
X95326077Y-46921009D02*
X95373696Y-47016247D01*
X95373696Y-47016247D02*
X95373696Y-47254342D01*
X95373696Y-47254342D02*
X95326077Y-47349580D01*
X95326077Y-47349580D02*
X95278458Y-47397200D01*
X95278458Y-47397200D02*
X95183220Y-47444819D01*
X95183220Y-47444819D02*
X94945125Y-47444819D01*
X94945125Y-47444819D02*
X94849887Y-47397200D01*
X94849887Y-47397200D02*
X94802268Y-47349580D01*
X95659411Y-46444819D02*
X95992744Y-47444819D01*
X95992744Y-47444819D02*
X96326077Y-46444819D01*
X75144285Y-30268152D02*
X75144285Y-31077676D01*
X75144285Y-31077676D02*
X75096666Y-31172914D01*
X75096666Y-31172914D02*
X75049047Y-31220533D01*
X75049047Y-31220533D02*
X74953809Y-31268152D01*
X74953809Y-31268152D02*
X74810952Y-31268152D01*
X74810952Y-31268152D02*
X74715714Y-31220533D01*
X75144285Y-30887200D02*
X75049047Y-30934819D01*
X75049047Y-30934819D02*
X74858571Y-30934819D01*
X74858571Y-30934819D02*
X74763333Y-30887200D01*
X74763333Y-30887200D02*
X74715714Y-30839580D01*
X74715714Y-30839580D02*
X74668095Y-30744342D01*
X74668095Y-30744342D02*
X74668095Y-30458628D01*
X74668095Y-30458628D02*
X74715714Y-30363390D01*
X74715714Y-30363390D02*
X74763333Y-30315771D01*
X74763333Y-30315771D02*
X74858571Y-30268152D01*
X74858571Y-30268152D02*
X75049047Y-30268152D01*
X75049047Y-30268152D02*
X75144285Y-30315771D01*
X43907030Y-37284819D02*
X43907030Y-36284819D01*
X43907030Y-36284819D02*
X44145125Y-36284819D01*
X44145125Y-36284819D02*
X44287982Y-36332438D01*
X44287982Y-36332438D02*
X44383220Y-36427676D01*
X44383220Y-36427676D02*
X44430839Y-36522914D01*
X44430839Y-36522914D02*
X44478458Y-36713390D01*
X44478458Y-36713390D02*
X44478458Y-36856247D01*
X44478458Y-36856247D02*
X44430839Y-37046723D01*
X44430839Y-37046723D02*
X44383220Y-37141961D01*
X44383220Y-37141961D02*
X44287982Y-37237200D01*
X44287982Y-37237200D02*
X44145125Y-37284819D01*
X44145125Y-37284819D02*
X43907030Y-37284819D01*
X44811792Y-36284819D02*
X45430839Y-36284819D01*
X45430839Y-36284819D02*
X45097506Y-36665771D01*
X45097506Y-36665771D02*
X45240363Y-36665771D01*
X45240363Y-36665771D02*
X45335601Y-36713390D01*
X45335601Y-36713390D02*
X45383220Y-36761009D01*
X45383220Y-36761009D02*
X45430839Y-36856247D01*
X45430839Y-36856247D02*
X45430839Y-37094342D01*
X45430839Y-37094342D02*
X45383220Y-37189580D01*
X45383220Y-37189580D02*
X45335601Y-37237200D01*
X45335601Y-37237200D02*
X45240363Y-37284819D01*
X45240363Y-37284819D02*
X44954649Y-37284819D01*
X44954649Y-37284819D02*
X44859411Y-37237200D01*
X44859411Y-37237200D02*
X44811792Y-37189580D01*
X94135601Y-43952438D02*
X94040363Y-43904819D01*
X94040363Y-43904819D02*
X93897506Y-43904819D01*
X93897506Y-43904819D02*
X93754649Y-43952438D01*
X93754649Y-43952438D02*
X93659411Y-44047676D01*
X93659411Y-44047676D02*
X93611792Y-44142914D01*
X93611792Y-44142914D02*
X93564173Y-44333390D01*
X93564173Y-44333390D02*
X93564173Y-44476247D01*
X93564173Y-44476247D02*
X93611792Y-44666723D01*
X93611792Y-44666723D02*
X93659411Y-44761961D01*
X93659411Y-44761961D02*
X93754649Y-44857200D01*
X93754649Y-44857200D02*
X93897506Y-44904819D01*
X93897506Y-44904819D02*
X93992744Y-44904819D01*
X93992744Y-44904819D02*
X94135601Y-44857200D01*
X94135601Y-44857200D02*
X94183220Y-44809580D01*
X94183220Y-44809580D02*
X94183220Y-44476247D01*
X94183220Y-44476247D02*
X93992744Y-44476247D01*
X94611792Y-44904819D02*
X94611792Y-43904819D01*
X94611792Y-43904819D02*
X95183220Y-44904819D01*
X95183220Y-44904819D02*
X95183220Y-43904819D01*
X95659411Y-44904819D02*
X95659411Y-43904819D01*
X95659411Y-43904819D02*
X95897506Y-43904819D01*
X95897506Y-43904819D02*
X96040363Y-43952438D01*
X96040363Y-43952438D02*
X96135601Y-44047676D01*
X96135601Y-44047676D02*
X96183220Y-44142914D01*
X96183220Y-44142914D02*
X96230839Y-44333390D01*
X96230839Y-44333390D02*
X96230839Y-44476247D01*
X96230839Y-44476247D02*
X96183220Y-44666723D01*
X96183220Y-44666723D02*
X96135601Y-44761961D01*
X96135601Y-44761961D02*
X96040363Y-44857200D01*
X96040363Y-44857200D02*
X95897506Y-44904819D01*
X95897506Y-44904819D02*
X95659411Y-44904819D01*
X43907030Y-52524819D02*
X43907030Y-51524819D01*
X43907030Y-51524819D02*
X44145125Y-51524819D01*
X44145125Y-51524819D02*
X44287982Y-51572438D01*
X44287982Y-51572438D02*
X44383220Y-51667676D01*
X44383220Y-51667676D02*
X44430839Y-51762914D01*
X44430839Y-51762914D02*
X44478458Y-51953390D01*
X44478458Y-51953390D02*
X44478458Y-52096247D01*
X44478458Y-52096247D02*
X44430839Y-52286723D01*
X44430839Y-52286723D02*
X44383220Y-52381961D01*
X44383220Y-52381961D02*
X44287982Y-52477200D01*
X44287982Y-52477200D02*
X44145125Y-52524819D01*
X44145125Y-52524819D02*
X43907030Y-52524819D01*
X44811792Y-51524819D02*
X45478458Y-51524819D01*
X45478458Y-51524819D02*
X45049887Y-52524819D01*
X87820476Y-30887200D02*
X87725238Y-30934819D01*
X87725238Y-30934819D02*
X87534762Y-30934819D01*
X87534762Y-30934819D02*
X87439524Y-30887200D01*
X87439524Y-30887200D02*
X87391905Y-30791961D01*
X87391905Y-30791961D02*
X87391905Y-30411009D01*
X87391905Y-30411009D02*
X87439524Y-30315771D01*
X87439524Y-30315771D02*
X87534762Y-30268152D01*
X87534762Y-30268152D02*
X87725238Y-30268152D01*
X87725238Y-30268152D02*
X87820476Y-30315771D01*
X87820476Y-30315771D02*
X87868095Y-30411009D01*
X87868095Y-30411009D02*
X87868095Y-30506247D01*
X87868095Y-30506247D02*
X87391905Y-30601485D01*
X77684285Y-63954819D02*
X77684285Y-63431009D01*
X77684285Y-63431009D02*
X77636666Y-63335771D01*
X77636666Y-63335771D02*
X77541428Y-63288152D01*
X77541428Y-63288152D02*
X77350952Y-63288152D01*
X77350952Y-63288152D02*
X77255714Y-63335771D01*
X77684285Y-63907200D02*
X77589047Y-63954819D01*
X77589047Y-63954819D02*
X77350952Y-63954819D01*
X77350952Y-63954819D02*
X77255714Y-63907200D01*
X77255714Y-63907200D02*
X77208095Y-63811961D01*
X77208095Y-63811961D02*
X77208095Y-63716723D01*
X77208095Y-63716723D02*
X77255714Y-63621485D01*
X77255714Y-63621485D02*
X77350952Y-63573866D01*
X77350952Y-63573866D02*
X77589047Y-63573866D01*
X77589047Y-63573866D02*
X77684285Y-63526247D01*
X77684285Y-30934819D02*
X77684285Y-30411009D01*
X77684285Y-30411009D02*
X77636666Y-30315771D01*
X77636666Y-30315771D02*
X77541428Y-30268152D01*
X77541428Y-30268152D02*
X77350952Y-30268152D01*
X77350952Y-30268152D02*
X77255714Y-30315771D01*
X77684285Y-30887200D02*
X77589047Y-30934819D01*
X77589047Y-30934819D02*
X77350952Y-30934819D01*
X77350952Y-30934819D02*
X77255714Y-30887200D01*
X77255714Y-30887200D02*
X77208095Y-30791961D01*
X77208095Y-30791961D02*
X77208095Y-30696723D01*
X77208095Y-30696723D02*
X77255714Y-30601485D01*
X77255714Y-30601485D02*
X77350952Y-30553866D01*
X77350952Y-30553866D02*
X77589047Y-30553866D01*
X77589047Y-30553866D02*
X77684285Y-30506247D01*
X72199524Y-30268152D02*
X72580476Y-30268152D01*
X72342381Y-30934819D02*
X72342381Y-30077676D01*
X72342381Y-30077676D02*
X72390000Y-29982438D01*
X72390000Y-29982438D02*
X72485238Y-29934819D01*
X72485238Y-29934819D02*
X72580476Y-29934819D01*
X43907030Y-55064819D02*
X43907030Y-54064819D01*
X43907030Y-54064819D02*
X44145125Y-54064819D01*
X44145125Y-54064819D02*
X44287982Y-54112438D01*
X44287982Y-54112438D02*
X44383220Y-54207676D01*
X44383220Y-54207676D02*
X44430839Y-54302914D01*
X44430839Y-54302914D02*
X44478458Y-54493390D01*
X44478458Y-54493390D02*
X44478458Y-54636247D01*
X44478458Y-54636247D02*
X44430839Y-54826723D01*
X44430839Y-54826723D02*
X44383220Y-54921961D01*
X44383220Y-54921961D02*
X44287982Y-55017200D01*
X44287982Y-55017200D02*
X44145125Y-55064819D01*
X44145125Y-55064819D02*
X43907030Y-55064819D01*
X45049887Y-54493390D02*
X44954649Y-54445771D01*
X44954649Y-54445771D02*
X44907030Y-54398152D01*
X44907030Y-54398152D02*
X44859411Y-54302914D01*
X44859411Y-54302914D02*
X44859411Y-54255295D01*
X44859411Y-54255295D02*
X44907030Y-54160057D01*
X44907030Y-54160057D02*
X44954649Y-54112438D01*
X44954649Y-54112438D02*
X45049887Y-54064819D01*
X45049887Y-54064819D02*
X45240363Y-54064819D01*
X45240363Y-54064819D02*
X45335601Y-54112438D01*
X45335601Y-54112438D02*
X45383220Y-54160057D01*
X45383220Y-54160057D02*
X45430839Y-54255295D01*
X45430839Y-54255295D02*
X45430839Y-54302914D01*
X45430839Y-54302914D02*
X45383220Y-54398152D01*
X45383220Y-54398152D02*
X45335601Y-54445771D01*
X45335601Y-54445771D02*
X45240363Y-54493390D01*
X45240363Y-54493390D02*
X45049887Y-54493390D01*
X45049887Y-54493390D02*
X44954649Y-54541009D01*
X44954649Y-54541009D02*
X44907030Y-54588628D01*
X44907030Y-54588628D02*
X44859411Y-54683866D01*
X44859411Y-54683866D02*
X44859411Y-54874342D01*
X44859411Y-54874342D02*
X44907030Y-54969580D01*
X44907030Y-54969580D02*
X44954649Y-55017200D01*
X44954649Y-55017200D02*
X45049887Y-55064819D01*
X45049887Y-55064819D02*
X45240363Y-55064819D01*
X45240363Y-55064819D02*
X45335601Y-55017200D01*
X45335601Y-55017200D02*
X45383220Y-54969580D01*
X45383220Y-54969580D02*
X45430839Y-54874342D01*
X45430839Y-54874342D02*
X45430839Y-54683866D01*
X45430839Y-54683866D02*
X45383220Y-54588628D01*
X45383220Y-54588628D02*
X45335601Y-54541009D01*
X45335601Y-54541009D02*
X45240363Y-54493390D01*
D11*
X82788095Y-30888500D02*
X82692857Y-30936119D01*
X82692857Y-30936119D02*
X82502381Y-30936119D01*
X82502381Y-30936119D02*
X82407143Y-30888500D01*
X82407143Y-30888500D02*
X82359524Y-30840880D01*
X82359524Y-30840880D02*
X82311905Y-30745642D01*
X82311905Y-30745642D02*
X82311905Y-30459928D01*
X82311905Y-30459928D02*
X82359524Y-30364690D01*
X82359524Y-30364690D02*
X82407143Y-30317071D01*
X82407143Y-30317071D02*
X82502381Y-30269452D01*
X82502381Y-30269452D02*
X82692857Y-30269452D01*
X82692857Y-30269452D02*
X82788095Y-30317071D01*
D12*
X106005752Y-48466190D02*
X106672419Y-48466190D01*
X105624800Y-48704285D02*
X106339085Y-48942380D01*
X106339085Y-48942380D02*
X106339085Y-48323333D01*
X105672419Y-48037618D02*
X105672419Y-47418571D01*
X105672419Y-47418571D02*
X106053371Y-47751904D01*
X106053371Y-47751904D02*
X106053371Y-47609047D01*
X106053371Y-47609047D02*
X106100990Y-47513809D01*
X106100990Y-47513809D02*
X106148609Y-47466190D01*
X106148609Y-47466190D02*
X106243847Y-47418571D01*
X106243847Y-47418571D02*
X106481942Y-47418571D01*
X106481942Y-47418571D02*
X106577180Y-47466190D01*
X106577180Y-47466190D02*
X106624800Y-47513809D01*
X106624800Y-47513809D02*
X106672419Y-47609047D01*
X106672419Y-47609047D02*
X106672419Y-47894761D01*
X106672419Y-47894761D02*
X106624800Y-47989999D01*
X106624800Y-47989999D02*
X106577180Y-48037618D01*
X106624800Y-46942380D02*
X106672419Y-46942380D01*
X106672419Y-46942380D02*
X106767657Y-46989999D01*
X106767657Y-46989999D02*
X106815276Y-47037618D01*
X106672419Y-45990000D02*
X106672419Y-46561428D01*
X106672419Y-46275714D02*
X105672419Y-46275714D01*
X105672419Y-46275714D02*
X105815276Y-46370952D01*
X105815276Y-46370952D02*
X105910514Y-46466190D01*
X105910514Y-46466190D02*
X105958133Y-46561428D01*
X106100990Y-45418571D02*
X106053371Y-45513809D01*
X106053371Y-45513809D02*
X106005752Y-45561428D01*
X106005752Y-45561428D02*
X105910514Y-45609047D01*
X105910514Y-45609047D02*
X105862895Y-45609047D01*
X105862895Y-45609047D02*
X105767657Y-45561428D01*
X105767657Y-45561428D02*
X105720038Y-45513809D01*
X105720038Y-45513809D02*
X105672419Y-45418571D01*
X105672419Y-45418571D02*
X105672419Y-45228095D01*
X105672419Y-45228095D02*
X105720038Y-45132857D01*
X105720038Y-45132857D02*
X105767657Y-45085238D01*
X105767657Y-45085238D02*
X105862895Y-45037619D01*
X105862895Y-45037619D02*
X105910514Y-45037619D01*
X105910514Y-45037619D02*
X106005752Y-45085238D01*
X106005752Y-45085238D02*
X106053371Y-45132857D01*
X106053371Y-45132857D02*
X106100990Y-45228095D01*
X106100990Y-45228095D02*
X106100990Y-45418571D01*
X106100990Y-45418571D02*
X106148609Y-45513809D01*
X106148609Y-45513809D02*
X106196228Y-45561428D01*
X106196228Y-45561428D02*
X106291466Y-45609047D01*
X106291466Y-45609047D02*
X106481942Y-45609047D01*
X106481942Y-45609047D02*
X106577180Y-45561428D01*
X106577180Y-45561428D02*
X106624800Y-45513809D01*
X106624800Y-45513809D02*
X106672419Y-45418571D01*
X106672419Y-45418571D02*
X106672419Y-45228095D01*
X106672419Y-45228095D02*
X106624800Y-45132857D01*
X106624800Y-45132857D02*
X106577180Y-45085238D01*
X106577180Y-45085238D02*
X106481942Y-45037619D01*
X106481942Y-45037619D02*
X106291466Y-45037619D01*
X106291466Y-45037619D02*
X106196228Y-45085238D01*
X106196228Y-45085238D02*
X106148609Y-45132857D01*
X106148609Y-45132857D02*
X106100990Y-45228095D01*
X97854205Y-25400000D02*
X107901420Y-25400000D01*
X107901420Y-68580000D02*
X98290000Y-68580000D01*
X107315000Y-25400000D02*
X107315000Y-68580000D01*
X107315000Y-25400000D02*
X107901421Y-26526504D01*
X107315000Y-25400000D02*
X106728579Y-26526504D01*
X107315000Y-68580000D02*
X106728579Y-67453496D01*
X107315000Y-68580000D02*
X107901421Y-67453496D01*
X55467619Y-12962419D02*
X56134285Y-12962419D01*
X56134285Y-12962419D02*
X55705714Y-13962419D01*
X56420000Y-12962419D02*
X57086666Y-12962419D01*
X57086666Y-12962419D02*
X56658095Y-13962419D01*
X57515238Y-13914800D02*
X57515238Y-13962419D01*
X57515238Y-13962419D02*
X57467619Y-14057657D01*
X57467619Y-14057657D02*
X57420000Y-14105276D01*
X58086666Y-13390990D02*
X57991428Y-13343371D01*
X57991428Y-13343371D02*
X57943809Y-13295752D01*
X57943809Y-13295752D02*
X57896190Y-13200514D01*
X57896190Y-13200514D02*
X57896190Y-13152895D01*
X57896190Y-13152895D02*
X57943809Y-13057657D01*
X57943809Y-13057657D02*
X57991428Y-13010038D01*
X57991428Y-13010038D02*
X58086666Y-12962419D01*
X58086666Y-12962419D02*
X58277142Y-12962419D01*
X58277142Y-12962419D02*
X58372380Y-13010038D01*
X58372380Y-13010038D02*
X58419999Y-13057657D01*
X58419999Y-13057657D02*
X58467618Y-13152895D01*
X58467618Y-13152895D02*
X58467618Y-13200514D01*
X58467618Y-13200514D02*
X58419999Y-13295752D01*
X58419999Y-13295752D02*
X58372380Y-13343371D01*
X58372380Y-13343371D02*
X58277142Y-13390990D01*
X58277142Y-13390990D02*
X58086666Y-13390990D01*
X58086666Y-13390990D02*
X57991428Y-13438609D01*
X57991428Y-13438609D02*
X57943809Y-13486228D01*
X57943809Y-13486228D02*
X57896190Y-13581466D01*
X57896190Y-13581466D02*
X57896190Y-13771942D01*
X57896190Y-13771942D02*
X57943809Y-13867180D01*
X57943809Y-13867180D02*
X57991428Y-13914800D01*
X57991428Y-13914800D02*
X58086666Y-13962419D01*
X58086666Y-13962419D02*
X58277142Y-13962419D01*
X58277142Y-13962419D02*
X58372380Y-13914800D01*
X58372380Y-13914800D02*
X58419999Y-13867180D01*
X58419999Y-13867180D02*
X58467618Y-13771942D01*
X58467618Y-13771942D02*
X58467618Y-13581466D01*
X58467618Y-13581466D02*
X58419999Y-13486228D01*
X58419999Y-13486228D02*
X58372380Y-13438609D01*
X58372380Y-13438609D02*
X58277142Y-13390990D01*
X59324761Y-12962419D02*
X59134285Y-12962419D01*
X59134285Y-12962419D02*
X59039047Y-13010038D01*
X59039047Y-13010038D02*
X58991428Y-13057657D01*
X58991428Y-13057657D02*
X58896190Y-13200514D01*
X58896190Y-13200514D02*
X58848571Y-13390990D01*
X58848571Y-13390990D02*
X58848571Y-13771942D01*
X58848571Y-13771942D02*
X58896190Y-13867180D01*
X58896190Y-13867180D02*
X58943809Y-13914800D01*
X58943809Y-13914800D02*
X59039047Y-13962419D01*
X59039047Y-13962419D02*
X59229523Y-13962419D01*
X59229523Y-13962419D02*
X59324761Y-13914800D01*
X59324761Y-13914800D02*
X59372380Y-13867180D01*
X59372380Y-13867180D02*
X59419999Y-13771942D01*
X59419999Y-13771942D02*
X59419999Y-13533847D01*
X59419999Y-13533847D02*
X59372380Y-13438609D01*
X59372380Y-13438609D02*
X59324761Y-13390990D01*
X59324761Y-13390990D02*
X59229523Y-13343371D01*
X59229523Y-13343371D02*
X59039047Y-13343371D01*
X59039047Y-13343371D02*
X58943809Y-13390990D01*
X58943809Y-13390990D02*
X58896190Y-13438609D01*
X58896190Y-13438609D02*
X58848571Y-13533847D01*
X59991428Y-13390990D02*
X59896190Y-13343371D01*
X59896190Y-13343371D02*
X59848571Y-13295752D01*
X59848571Y-13295752D02*
X59800952Y-13200514D01*
X59800952Y-13200514D02*
X59800952Y-13152895D01*
X59800952Y-13152895D02*
X59848571Y-13057657D01*
X59848571Y-13057657D02*
X59896190Y-13010038D01*
X59896190Y-13010038D02*
X59991428Y-12962419D01*
X59991428Y-12962419D02*
X60181904Y-12962419D01*
X60181904Y-12962419D02*
X60277142Y-13010038D01*
X60277142Y-13010038D02*
X60324761Y-13057657D01*
X60324761Y-13057657D02*
X60372380Y-13152895D01*
X60372380Y-13152895D02*
X60372380Y-13200514D01*
X60372380Y-13200514D02*
X60324761Y-13295752D01*
X60324761Y-13295752D02*
X60277142Y-13343371D01*
X60277142Y-13343371D02*
X60181904Y-13390990D01*
X60181904Y-13390990D02*
X59991428Y-13390990D01*
X59991428Y-13390990D02*
X59896190Y-13438609D01*
X59896190Y-13438609D02*
X59848571Y-13486228D01*
X59848571Y-13486228D02*
X59800952Y-13581466D01*
X59800952Y-13581466D02*
X59800952Y-13771942D01*
X59800952Y-13771942D02*
X59848571Y-13867180D01*
X59848571Y-13867180D02*
X59896190Y-13914800D01*
X59896190Y-13914800D02*
X59991428Y-13962419D01*
X59991428Y-13962419D02*
X60181904Y-13962419D01*
X60181904Y-13962419D02*
X60277142Y-13914800D01*
X60277142Y-13914800D02*
X60324761Y-13867180D01*
X60324761Y-13867180D02*
X60372380Y-13771942D01*
X60372380Y-13771942D02*
X60372380Y-13581466D01*
X60372380Y-13581466D02*
X60324761Y-13486228D01*
X60324761Y-13486228D02*
X60277142Y-13438609D01*
X60277142Y-13438609D02*
X60181904Y-13390990D01*
X61229523Y-13295752D02*
X61229523Y-13962419D01*
X60991428Y-12914800D02*
X60753333Y-13629085D01*
X60753333Y-13629085D02*
X61372380Y-13629085D01*
X19485795Y-24900000D02*
X19485795Y-14018580D01*
X97354205Y-14018580D02*
X97354205Y-24900000D01*
X19485795Y-14605000D02*
X97354205Y-14605000D01*
X19485795Y-14605000D02*
X20612299Y-14018579D01*
X19485795Y-14605000D02*
X20612299Y-15191421D01*
X97354205Y-14605000D02*
X96227701Y-15191421D01*
X97354205Y-14605000D02*
X96227701Y-14018579D01*
D10*
X79613333Y-71844819D02*
X79613333Y-72654342D01*
X79613333Y-72654342D02*
X79660952Y-72749580D01*
X79660952Y-72749580D02*
X79708571Y-72797200D01*
X79708571Y-72797200D02*
X79803809Y-72844819D01*
X79803809Y-72844819D02*
X79994285Y-72844819D01*
X79994285Y-72844819D02*
X80089523Y-72797200D01*
X80089523Y-72797200D02*
X80137142Y-72749580D01*
X80137142Y-72749580D02*
X80184761Y-72654342D01*
X80184761Y-72654342D02*
X80184761Y-71844819D01*
X80660952Y-72178152D02*
X80660952Y-72844819D01*
X80660952Y-72273390D02*
X80708571Y-72225771D01*
X80708571Y-72225771D02*
X80803809Y-72178152D01*
X80803809Y-72178152D02*
X80946666Y-72178152D01*
X80946666Y-72178152D02*
X81041904Y-72225771D01*
X81041904Y-72225771D02*
X81089523Y-72321009D01*
X81089523Y-72321009D02*
X81089523Y-72844819D01*
X81565714Y-72844819D02*
X81565714Y-72178152D01*
X81565714Y-71844819D02*
X81518095Y-71892438D01*
X81518095Y-71892438D02*
X81565714Y-71940057D01*
X81565714Y-71940057D02*
X81613333Y-71892438D01*
X81613333Y-71892438D02*
X81565714Y-71844819D01*
X81565714Y-71844819D02*
X81565714Y-71940057D01*
X81899047Y-72178152D02*
X82279999Y-72178152D01*
X82041904Y-71844819D02*
X82041904Y-72701961D01*
X82041904Y-72701961D02*
X82089523Y-72797200D01*
X82089523Y-72797200D02*
X82184761Y-72844819D01*
X82184761Y-72844819D02*
X82279999Y-72844819D01*
X82565714Y-72797200D02*
X82660952Y-72844819D01*
X82660952Y-72844819D02*
X82851428Y-72844819D01*
X82851428Y-72844819D02*
X82946666Y-72797200D01*
X82946666Y-72797200D02*
X82994285Y-72701961D01*
X82994285Y-72701961D02*
X82994285Y-72654342D01*
X82994285Y-72654342D02*
X82946666Y-72559104D01*
X82946666Y-72559104D02*
X82851428Y-72511485D01*
X82851428Y-72511485D02*
X82708571Y-72511485D01*
X82708571Y-72511485D02*
X82613333Y-72463866D01*
X82613333Y-72463866D02*
X82565714Y-72368628D01*
X82565714Y-72368628D02*
X82565714Y-72321009D01*
X82565714Y-72321009D02*
X82613333Y-72225771D01*
X82613333Y-72225771D02*
X82708571Y-72178152D01*
X82708571Y-72178152D02*
X82851428Y-72178152D01*
X82851428Y-72178152D02*
X82946666Y-72225771D01*
D13*
X69660000Y-64560000D02*
X69660000Y-65810000D01*
X69950000Y-64850000D02*
X69950000Y-70820000D01*
X69950000Y-70820000D02*
X92570000Y-70820000D01*
X69960000Y-64860000D02*
X69960000Y-65610000D01*
X69960000Y-65610000D02*
X71760000Y-65610000D01*
X69960000Y-67110000D02*
X70710000Y-67110000D01*
X70710000Y-67110000D02*
X70710000Y-70060000D01*
X70710000Y-70060000D02*
X81260000Y-70060000D01*
X70910000Y-64560000D02*
X69660000Y-64560000D01*
X71760000Y-64860000D02*
X69960000Y-64860000D01*
X71760000Y-65610000D02*
X71760000Y-64860000D01*
X73260000Y-64860000D02*
X73260000Y-65610000D01*
X73260000Y-65610000D02*
X89260000Y-65610000D01*
X89260000Y-64860000D02*
X73260000Y-64860000D01*
X89260000Y-65610000D02*
X89260000Y-64860000D01*
X90760000Y-64860000D02*
X90760000Y-65610000D01*
X90760000Y-65610000D02*
X92560000Y-65610000D01*
X91810000Y-67110000D02*
X91810000Y-70060000D01*
X91810000Y-70060000D02*
X81260000Y-70060000D01*
X92560000Y-64860000D02*
X90760000Y-64860000D01*
X92560000Y-65610000D02*
X92560000Y-64860000D01*
X92560000Y-67110000D02*
X91810000Y-67110000D01*
X92570000Y-64850000D02*
X69950000Y-64850000D01*
X92570000Y-70820000D02*
X92570000Y-64850000D01*
X85680000Y-42830000D02*
X92120000Y-42830000D01*
X85680000Y-51150000D02*
X85680000Y-42830000D01*
X85680000Y-51150000D02*
X92120000Y-51150000D01*
X86200000Y-51150000D02*
X86200000Y-42830000D01*
X91500000Y-43420000D02*
X91500000Y-42830000D01*
X91500000Y-45960000D02*
X91500000Y-45480000D01*
X91500000Y-48500000D02*
X91500000Y-48020000D01*
X91500000Y-51150000D02*
X91500000Y-50560000D01*
X92120000Y-43420000D02*
X92120000Y-42830000D01*
X92120000Y-45960000D02*
X92120000Y-45480000D01*
X92120000Y-48500000D02*
X92120000Y-48020000D01*
X92120000Y-51150000D02*
X92120000Y-50560000D01*
X93080000Y-49970000D02*
X92470000Y-49530000D01*
X93080000Y-49090000D01*
X93080000Y-49970000D01*
G36*
X93080000Y-49970000D02*
G01*
X92470000Y-49530000D01*
X93080000Y-49090000D01*
X93080000Y-49970000D01*
G37*
X69850000Y-46817677D02*
X80010000Y-46817677D01*
X69850000Y-46857677D02*
X80010000Y-46857677D01*
X69851000Y-46737677D02*
X80009000Y-46737677D01*
X69851000Y-46777677D02*
X80009000Y-46777677D01*
X69853000Y-46697677D02*
X80007000Y-46697677D01*
X69854000Y-46657677D02*
X80006000Y-46657677D01*
X69856000Y-46617677D02*
X80004000Y-46617677D01*
X69858000Y-46577677D02*
X80002000Y-46577677D01*
X69860000Y-46537677D02*
X80000000Y-46537677D01*
X69863000Y-46497677D02*
X79997000Y-46497677D01*
X69866000Y-46457677D02*
X79994000Y-46457677D01*
X69869000Y-46417677D02*
X79991000Y-46417677D01*
X69873000Y-46377677D02*
X79987000Y-46377677D01*
X69876000Y-46337677D02*
X79984000Y-46337677D01*
X69881000Y-46297677D02*
X79979000Y-46297677D01*
X69885000Y-46257677D02*
X79975000Y-46257677D01*
X69890000Y-46217677D02*
X79970000Y-46217677D01*
X69895000Y-46177677D02*
X79965000Y-46177677D01*
X69901000Y-46137677D02*
X79959000Y-46137677D01*
X69907000Y-46097677D02*
X79953000Y-46097677D01*
X69913000Y-46057677D02*
X79947000Y-46057677D01*
X69919000Y-46017677D02*
X79941000Y-46017677D01*
X69926000Y-45977677D02*
X79934000Y-45977677D01*
X69933000Y-45937677D02*
X79927000Y-45937677D01*
X69941000Y-45897677D02*
X79919000Y-45897677D01*
X69949000Y-45857677D02*
X79911000Y-45857677D01*
X69957000Y-45817677D02*
X79903000Y-45817677D01*
X69965000Y-45777677D02*
X79895000Y-45777677D01*
X69974000Y-45737677D02*
X79886000Y-45737677D01*
X69983000Y-45697677D02*
X79877000Y-45697677D01*
X69993000Y-45657677D02*
X79867000Y-45657677D01*
X70002000Y-45617677D02*
X79858000Y-45617677D01*
X70013000Y-45577677D02*
X73690000Y-45577677D01*
X70023000Y-45537677D02*
X73690000Y-45537677D01*
X70034000Y-45497677D02*
X73690000Y-45497677D01*
X70045000Y-45457677D02*
X73690000Y-45457677D01*
X70057000Y-45417677D02*
X73690000Y-45417677D01*
X70069000Y-45377677D02*
X73690000Y-45377677D01*
X70081000Y-45337677D02*
X73690000Y-45337677D01*
X70093000Y-45297677D02*
X73690000Y-45297677D01*
X70106000Y-45257677D02*
X73690000Y-45257677D01*
X70120000Y-45217677D02*
X73690000Y-45217677D01*
X70133000Y-45177677D02*
X73690000Y-45177677D01*
X70148000Y-45137677D02*
X73690000Y-45137677D01*
X70162000Y-45097677D02*
X73690000Y-45097677D01*
X70177000Y-45057677D02*
X73690000Y-45057677D01*
X70192000Y-45017677D02*
X73690000Y-45017677D01*
X70208000Y-44977677D02*
X73690000Y-44977677D01*
X70224000Y-44937677D02*
X73690000Y-44937677D01*
X70240000Y-44897677D02*
X73690000Y-44897677D01*
X70257000Y-44857677D02*
X73690000Y-44857677D01*
X70274000Y-44817677D02*
X73690000Y-44817677D01*
X70292000Y-44777677D02*
X73690000Y-44777677D01*
X70310000Y-44737677D02*
X73690000Y-44737677D01*
X70328000Y-44697677D02*
X73690000Y-44697677D01*
X70347000Y-44657677D02*
X73690000Y-44657677D01*
X70366000Y-44617677D02*
X73690000Y-44617677D01*
X70386000Y-44577677D02*
X73690000Y-44577677D01*
X70406000Y-44537677D02*
X73690000Y-44537677D01*
X70426000Y-44497677D02*
X73690000Y-44497677D01*
X70447000Y-44457677D02*
X73690000Y-44457677D01*
X70469000Y-44417677D02*
X73690000Y-44417677D01*
X70491000Y-44377677D02*
X73690000Y-44377677D01*
X70513000Y-44337677D02*
X73690000Y-44337677D01*
X70536000Y-44297677D02*
X73690000Y-44297677D01*
X70559000Y-44257677D02*
X73690000Y-44257677D01*
X70583000Y-44217677D02*
X73690000Y-44217677D01*
X70607000Y-44177677D02*
X73690000Y-44177677D01*
X70632000Y-44137677D02*
X73690000Y-44137677D01*
X70658000Y-44097677D02*
X73690000Y-44097677D01*
X70683000Y-44057677D02*
X73690000Y-44057677D01*
X70710000Y-44017677D02*
X73690000Y-44017677D01*
X70737000Y-43977677D02*
X73690000Y-43977677D01*
X70764000Y-43937677D02*
X73690000Y-43937677D01*
X70792000Y-43897677D02*
X73690000Y-43897677D01*
X70821000Y-43857677D02*
X73690000Y-43857677D01*
X70850000Y-43817677D02*
X73690000Y-43817677D01*
X70880000Y-43777677D02*
X73690000Y-43777677D01*
X70910000Y-43737677D02*
X73690000Y-43737677D01*
X70942000Y-43697677D02*
X73690000Y-43697677D01*
X70973000Y-43657677D02*
X73690000Y-43657677D01*
X71006000Y-43617677D02*
X73690000Y-43617677D01*
X71039000Y-43577677D02*
X73690000Y-43577677D01*
X71072000Y-43537677D02*
X73690000Y-43537677D01*
X71107000Y-43497677D02*
X73690000Y-43497677D01*
X71142000Y-43457677D02*
X73690000Y-43457677D01*
X71178000Y-43417677D02*
X73690000Y-43417677D01*
X71214000Y-43377677D02*
X73690000Y-43377677D01*
X71252000Y-43337677D02*
X73690000Y-43337677D01*
X71290000Y-43297677D02*
X73690000Y-43297677D01*
X71329000Y-43257677D02*
X73690000Y-43257677D01*
X71369000Y-43217677D02*
X73690000Y-43217677D01*
X71410000Y-43177677D02*
X73690000Y-43177677D01*
X71452000Y-43137677D02*
X73690000Y-43137677D01*
X71495000Y-43097677D02*
X78365000Y-43097677D01*
X71539000Y-43057677D02*
X78321000Y-43057677D01*
X71555000Y-51837323D02*
X72555000Y-51837323D01*
X71583000Y-43017677D02*
X78277000Y-43017677D01*
X71629000Y-42977677D02*
X78231000Y-42977677D01*
X71676000Y-42937677D02*
X78184000Y-42937677D01*
X71725000Y-42897677D02*
X78135000Y-42897677D01*
X71774000Y-42857677D02*
X78086000Y-42857677D01*
X71825000Y-42817677D02*
X78035000Y-42817677D01*
X71877000Y-42777677D02*
X77983000Y-42777677D01*
X71930000Y-42737677D02*
X77930000Y-42737677D01*
X71985000Y-42697677D02*
X77875000Y-42697677D01*
X72042000Y-42657677D02*
X77818000Y-42657677D01*
X72055000Y-52337323D02*
X72055000Y-51337323D01*
X72100000Y-42617677D02*
X77760000Y-42617677D01*
X72160000Y-42577677D02*
X77700000Y-42577677D01*
X72222000Y-42537677D02*
X77638000Y-42537677D01*
X72286000Y-42497677D02*
X77574000Y-42497677D01*
X72352000Y-42457677D02*
X77508000Y-42457677D01*
X72420000Y-42417677D02*
X77440000Y-42417677D01*
X72491000Y-42377677D02*
X77369000Y-42377677D01*
X72565000Y-42337677D02*
X77295000Y-42337677D01*
X72642000Y-42297677D02*
X77218000Y-42297677D01*
X72722000Y-42257677D02*
X77138000Y-42257677D01*
X72806000Y-42217677D02*
X77054000Y-42217677D01*
X72893000Y-42177677D02*
X76967000Y-42177677D01*
X72986000Y-42137677D02*
X76874000Y-42137677D01*
X73084000Y-42097677D02*
X76776000Y-42097677D01*
X73188000Y-42057677D02*
X76672000Y-42057677D01*
X73300000Y-42017677D02*
X76560000Y-42017677D01*
X73421000Y-41977677D02*
X76439000Y-41977677D01*
X73553000Y-41937677D02*
X76307000Y-41937677D01*
X73700000Y-41897677D02*
X76160000Y-41897677D01*
X73868000Y-41857677D02*
X75992000Y-41857677D01*
X74068000Y-41817677D02*
X75792000Y-41817677D01*
X74331000Y-41777677D02*
X75529000Y-41777677D01*
X76170000Y-43137677D02*
X78408000Y-43137677D01*
X76170000Y-43177677D02*
X78450000Y-43177677D01*
X76170000Y-43217677D02*
X78491000Y-43217677D01*
X76170000Y-43257677D02*
X78531000Y-43257677D01*
X76170000Y-43297677D02*
X78570000Y-43297677D01*
X76170000Y-43337677D02*
X78608000Y-43337677D01*
X76170000Y-43377677D02*
X78646000Y-43377677D01*
X76170000Y-43417677D02*
X78682000Y-43417677D01*
X76170000Y-43457677D02*
X78718000Y-43457677D01*
X76170000Y-43497677D02*
X78753000Y-43497677D01*
X76170000Y-43537677D02*
X78788000Y-43537677D01*
X76170000Y-43577677D02*
X78821000Y-43577677D01*
X76170000Y-43617677D02*
X78854000Y-43617677D01*
X76170000Y-43657677D02*
X78887000Y-43657677D01*
X76170000Y-43697677D02*
X78918000Y-43697677D01*
X76170000Y-43737677D02*
X78950000Y-43737677D01*
X76170000Y-43777677D02*
X78980000Y-43777677D01*
X76170000Y-43817677D02*
X79010000Y-43817677D01*
X76170000Y-43857677D02*
X79039000Y-43857677D01*
X76170000Y-43897677D02*
X79068000Y-43897677D01*
X76170000Y-43937677D02*
X79096000Y-43937677D01*
X76170000Y-43977677D02*
X79123000Y-43977677D01*
X76170000Y-44017677D02*
X79150000Y-44017677D01*
X76170000Y-44057677D02*
X79177000Y-44057677D01*
X76170000Y-44097677D02*
X79202000Y-44097677D01*
X76170000Y-44137677D02*
X79228000Y-44137677D01*
X76170000Y-44177677D02*
X79253000Y-44177677D01*
X76170000Y-44217677D02*
X79277000Y-44217677D01*
X76170000Y-44257677D02*
X79301000Y-44257677D01*
X76170000Y-44297677D02*
X79324000Y-44297677D01*
X76170000Y-44337677D02*
X79347000Y-44337677D01*
X76170000Y-44377677D02*
X79369000Y-44377677D01*
X76170000Y-44417677D02*
X79391000Y-44417677D01*
X76170000Y-44457677D02*
X79413000Y-44457677D01*
X76170000Y-44497677D02*
X79434000Y-44497677D01*
X76170000Y-44537677D02*
X79454000Y-44537677D01*
X76170000Y-44577677D02*
X79474000Y-44577677D01*
X76170000Y-44617677D02*
X79494000Y-44617677D01*
X76170000Y-44657677D02*
X79513000Y-44657677D01*
X76170000Y-44697677D02*
X79532000Y-44697677D01*
X76170000Y-44737677D02*
X79550000Y-44737677D01*
X76170000Y-44777677D02*
X79568000Y-44777677D01*
X76170000Y-44817677D02*
X79586000Y-44817677D01*
X76170000Y-44857677D02*
X79603000Y-44857677D01*
X76170000Y-44897677D02*
X79620000Y-44897677D01*
X76170000Y-44937677D02*
X79636000Y-44937677D01*
X76170000Y-44977677D02*
X79652000Y-44977677D01*
X76170000Y-45017677D02*
X79668000Y-45017677D01*
X76170000Y-45057677D02*
X79683000Y-45057677D01*
X76170000Y-45097677D02*
X79698000Y-45097677D01*
X76170000Y-45137677D02*
X79712000Y-45137677D01*
X76170000Y-45177677D02*
X79727000Y-45177677D01*
X76170000Y-45217677D02*
X79740000Y-45217677D01*
X76170000Y-45257677D02*
X79754000Y-45257677D01*
X76170000Y-45297677D02*
X79767000Y-45297677D01*
X76170000Y-45337677D02*
X79779000Y-45337677D01*
X76170000Y-45377677D02*
X79791000Y-45377677D01*
X76170000Y-45417677D02*
X79803000Y-45417677D01*
X76170000Y-45457677D02*
X79815000Y-45457677D01*
X76170000Y-45497677D02*
X79826000Y-45497677D01*
X76170000Y-45537677D02*
X79837000Y-45537677D01*
X76170000Y-45577677D02*
X79847000Y-45577677D01*
X80050000Y-46857677D02*
G75*
G02*
X69810000Y-46857677I-5120000J0D01*
G01*
X69810000Y-46857677D02*
G75*
G02*
X80050000Y-46857677I5120000J0D01*
G01*
X69620000Y-55670000D02*
X69620000Y-56920000D01*
X69910000Y-55960000D02*
X69910000Y-61930000D01*
X69910000Y-61930000D02*
X92530000Y-61930000D01*
X69920000Y-55970000D02*
X69920000Y-56720000D01*
X69920000Y-56720000D02*
X71720000Y-56720000D01*
X69920000Y-58220000D02*
X70670000Y-58220000D01*
X70670000Y-58220000D02*
X70670000Y-61170000D01*
X70670000Y-61170000D02*
X81220000Y-61170000D01*
X70870000Y-55670000D02*
X69620000Y-55670000D01*
X71720000Y-55970000D02*
X69920000Y-55970000D01*
X71720000Y-56720000D02*
X71720000Y-55970000D01*
X73220000Y-55970000D02*
X73220000Y-56720000D01*
X73220000Y-56720000D02*
X89220000Y-56720000D01*
X89220000Y-55970000D02*
X73220000Y-55970000D01*
X89220000Y-56720000D02*
X89220000Y-55970000D01*
X90720000Y-55970000D02*
X90720000Y-56720000D01*
X90720000Y-56720000D02*
X92520000Y-56720000D01*
X91770000Y-58220000D02*
X91770000Y-61170000D01*
X91770000Y-61170000D02*
X81220000Y-61170000D01*
X92520000Y-55970000D02*
X90720000Y-55970000D01*
X92520000Y-56720000D02*
X92520000Y-55970000D01*
X92520000Y-58220000D02*
X91770000Y-58220000D01*
X92530000Y-55960000D02*
X69910000Y-55960000D01*
X92530000Y-61930000D02*
X92530000Y-55960000D01*
X69660000Y-22650000D02*
X69660000Y-23900000D01*
X69950000Y-22940000D02*
X69950000Y-28910000D01*
X69950000Y-28910000D02*
X92570000Y-28910000D01*
X69960000Y-22950000D02*
X69960000Y-23700000D01*
X69960000Y-23700000D02*
X71760000Y-23700000D01*
X69960000Y-25200000D02*
X70710000Y-25200000D01*
X70710000Y-25200000D02*
X70710000Y-28150000D01*
X70710000Y-28150000D02*
X81260000Y-28150000D01*
X70910000Y-22650000D02*
X69660000Y-22650000D01*
X71760000Y-22950000D02*
X69960000Y-22950000D01*
X71760000Y-23700000D02*
X71760000Y-22950000D01*
X73260000Y-22950000D02*
X73260000Y-23700000D01*
X73260000Y-23700000D02*
X89260000Y-23700000D01*
X89260000Y-22950000D02*
X73260000Y-22950000D01*
X89260000Y-23700000D02*
X89260000Y-22950000D01*
X90760000Y-22950000D02*
X90760000Y-23700000D01*
X90760000Y-23700000D02*
X92560000Y-23700000D01*
X91810000Y-25200000D02*
X91810000Y-28150000D01*
X91810000Y-28150000D02*
X81260000Y-28150000D01*
X92560000Y-22950000D02*
X90760000Y-22950000D01*
X92560000Y-23700000D02*
X92560000Y-22950000D01*
X92560000Y-25200000D02*
X91810000Y-25200000D01*
X92570000Y-22940000D02*
X69950000Y-22940000D01*
X92570000Y-28910000D02*
X92570000Y-22940000D01*
X69660000Y-31540000D02*
X69660000Y-32790000D01*
X69950000Y-31830000D02*
X69950000Y-37800000D01*
X69950000Y-37800000D02*
X92570000Y-37800000D01*
X69960000Y-31840000D02*
X69960000Y-32590000D01*
X69960000Y-32590000D02*
X71760000Y-32590000D01*
X69960000Y-34090000D02*
X70710000Y-34090000D01*
X70710000Y-34090000D02*
X70710000Y-37040000D01*
X70710000Y-37040000D02*
X81260000Y-37040000D01*
X70910000Y-31540000D02*
X69660000Y-31540000D01*
X71760000Y-31840000D02*
X69960000Y-31840000D01*
X71760000Y-32590000D02*
X71760000Y-31840000D01*
X73260000Y-31840000D02*
X73260000Y-32590000D01*
X73260000Y-32590000D02*
X89260000Y-32590000D01*
X89260000Y-31840000D02*
X73260000Y-31840000D01*
X89260000Y-32590000D02*
X89260000Y-31840000D01*
X90760000Y-31840000D02*
X90760000Y-32590000D01*
X90760000Y-32590000D02*
X92560000Y-32590000D01*
X91810000Y-34090000D02*
X91810000Y-37040000D01*
X91810000Y-37040000D02*
X81260000Y-37040000D01*
X92560000Y-31840000D02*
X90760000Y-31840000D01*
X92560000Y-32590000D02*
X92560000Y-31840000D01*
X92560000Y-34090000D02*
X91810000Y-34090000D01*
X92570000Y-31830000D02*
X69950000Y-31830000D01*
X92570000Y-37800000D02*
X92570000Y-31830000D01*
X24070000Y-30480000D02*
X24070000Y-66100000D01*
X24070000Y-30480000D02*
X26730000Y-30480000D01*
X24070000Y-66100000D02*
X26730000Y-66100000D01*
X25400000Y-27880000D02*
X26730000Y-27880000D01*
X26730000Y-27880000D02*
X26730000Y-29210000D01*
X26730000Y-30480000D02*
X26730000Y-66100000D01*
X46930000Y-30480000D02*
X46930000Y-66100000D01*
X46930000Y-30480000D02*
X49590000Y-30480000D01*
X46930000Y-66100000D02*
X49590000Y-66100000D01*
X48260000Y-27880000D02*
X49590000Y-27880000D01*
X49590000Y-27880000D02*
X49590000Y-29210000D01*
X49590000Y-30480000D02*
X49590000Y-66100000D01*
X57045000Y-22800000D02*
X57045000Y-43240000D01*
X57045000Y-43240000D02*
X62345000Y-43240000D01*
X58695000Y-22800000D02*
X57045000Y-22800000D01*
X62345000Y-22800000D02*
X60695000Y-22800000D01*
X62345000Y-43240000D02*
X62345000Y-22800000D01*
X60695000Y-22800000D02*
G75*
G02*
X58695000Y-22800000I-1000000J0D01*
G01*
X57040000Y-50740000D02*
X57040000Y-71180000D01*
X57040000Y-71180000D02*
X62340000Y-71180000D01*
X58690000Y-50740000D02*
X57040000Y-50740000D01*
X62340000Y-50740000D02*
X60690000Y-50740000D01*
X62340000Y-71180000D02*
X62340000Y-50740000D01*
X60690000Y-50740000D02*
G75*
G02*
X58690000Y-50740000I-1000000J0D01*
G01*
%LPC*%
D14*
X64770000Y-46990000D03*
X34925000Y-69850000D03*
X34925000Y-24130000D03*
D15*
X72510000Y-67310000D03*
D16*
X75010000Y-67310000D03*
X77510000Y-67310000D03*
X80010000Y-67310000D03*
X82510000Y-67310000D03*
X85010000Y-67310000D03*
X87510000Y-67310000D03*
X90010000Y-67310000D03*
D17*
X91440000Y-49530000D03*
X91440000Y-46990000D03*
X91440000Y-44450000D03*
D18*
X88900000Y-49530000D03*
D19*
X88900000Y-46990000D03*
X88900000Y-44450000D03*
D20*
X74930000Y-49357677D03*
D21*
X74930000Y-44357677D03*
D15*
X72470000Y-58420000D03*
D16*
X74970000Y-58420000D03*
X77470000Y-58420000D03*
X79970000Y-58420000D03*
X82470000Y-58420000D03*
X84970000Y-58420000D03*
X87470000Y-58420000D03*
X89970000Y-58420000D03*
D15*
X72510000Y-25400000D03*
D16*
X75010000Y-25400000D03*
X77510000Y-25400000D03*
X80010000Y-25400000D03*
X82510000Y-25400000D03*
X85010000Y-25400000D03*
X87510000Y-25400000D03*
X90010000Y-25400000D03*
D15*
X72510000Y-34290000D03*
D16*
X75010000Y-34290000D03*
X77510000Y-34290000D03*
X80010000Y-34290000D03*
X82510000Y-34290000D03*
X85010000Y-34290000D03*
X87510000Y-34290000D03*
X90010000Y-34290000D03*
D22*
X25400000Y-29210000D03*
D23*
X25400000Y-31750000D03*
X25400000Y-34290000D03*
X25400000Y-36830000D03*
X25400000Y-39370000D03*
X25400000Y-41910000D03*
X25400000Y-44450000D03*
X25400000Y-46990000D03*
X25400000Y-49530000D03*
X25400000Y-52070000D03*
X25400000Y-54610000D03*
X25400000Y-57150000D03*
X25400000Y-59690000D03*
X25400000Y-62230000D03*
X25400000Y-64770000D03*
D22*
X48260000Y-29210000D03*
D23*
X48260000Y-31750000D03*
X48260000Y-34290000D03*
X48260000Y-36830000D03*
X48260000Y-39370000D03*
X48260000Y-41910000D03*
X48260000Y-44450000D03*
X48260000Y-46990000D03*
X48260000Y-49530000D03*
X48260000Y-52070000D03*
X48260000Y-54610000D03*
X48260000Y-57150000D03*
X48260000Y-59690000D03*
X48260000Y-62230000D03*
X48260000Y-64770000D03*
D24*
X55885000Y-24130000D03*
D25*
X55885000Y-26670000D03*
X55885000Y-29210000D03*
X55885000Y-31750000D03*
X55885000Y-34290000D03*
X55885000Y-36830000D03*
X55885000Y-39370000D03*
X55885000Y-41910000D03*
X63505000Y-41910000D03*
X63505000Y-39370000D03*
X63505000Y-36830000D03*
X63505000Y-34290000D03*
X63505000Y-31750000D03*
X63505000Y-29210000D03*
X63505000Y-26670000D03*
X63505000Y-24130000D03*
D24*
X55880000Y-52070000D03*
D25*
X55880000Y-54610000D03*
X55880000Y-57150000D03*
X55880000Y-59690000D03*
X55880000Y-62230000D03*
X55880000Y-64770000D03*
X55880000Y-67310000D03*
X55880000Y-69850000D03*
X63500000Y-69850000D03*
X63500000Y-67310000D03*
X63500000Y-64770000D03*
X63500000Y-62230000D03*
X63500000Y-59690000D03*
X63500000Y-57150000D03*
X63500000Y-54610000D03*
X63500000Y-52070000D03*
%LPD*%
M02*
