G04 #@! TF.GenerationSoftware,KiCad,Pcbnew,9.0.1*
G04 #@! TF.CreationDate,2025-05-08T00:01:33-03:00*
G04 #@! TF.ProjectId,Controlador,436f6e74-726f-46c6-9164-6f722e6b6963,rev?*
G04 #@! TF.SameCoordinates,Original*
G04 #@! TF.FileFunction,Soldermask,Bot*
G04 #@! TF.FilePolarity,Negative*
%FSLAX46Y46*%
G04 Gerber Fmt 4.6, Leading zero omitted, Abs format (unit mm)*
G04 Created by KiCad (PCBNEW 9.0.1) date 2025-05-08 00:01:33*
%MOMM*%
%LPD*%
G01*
G04 APERTURE LIST*
G04 Aperture macros list*
%AMRoundRect*
0 Rectangle with rounded corners*
0 $1 Rounding radius*
0 $2 $3 $4 $5 $6 $7 $8 $9 X,Y pos of 4 corners*
0 Add a 4 corners polygon primitive as box body*
4,1,4,$2,$3,$4,$5,$6,$7,$8,$9,$2,$3,0*
0 Add four circle primitives for the rounded corners*
1,1,$1+$1,$2,$3*
1,1,$1+$1,$4,$5*
1,1,$1+$1,$6,$7*
1,1,$1+$1,$8,$9*
0 Add four rect primitives between the rounded corners*
20,1,$1+$1,$2,$3,$4,$5,0*
20,1,$1+$1,$4,$5,$6,$7,0*
20,1,$1+$1,$6,$7,$8,$9,0*
20,1,$1+$1,$8,$9,$2,$3,0*%
G04 Aperture macros list end*
%ADD10C,3.000000*%
%ADD11RoundRect,0.250000X-0.600000X-0.725000X0.600000X-0.725000X0.600000X0.725000X-0.600000X0.725000X0*%
%ADD12O,1.700000X1.950000*%
%ADD13C,1.100000*%
%ADD14RoundRect,0.249999X0.850001X-0.850001X0.850001X0.850001X-0.850001X0.850001X-0.850001X-0.850001X0*%
%ADD15C,2.200000*%
%ADD16R,2.000000X2.000000*%
%ADD17C,2.000000*%
%ADD18R,1.700000X1.700000*%
%ADD19C,1.700000*%
%ADD20RoundRect,0.250000X-0.550000X-0.550000X0.550000X-0.550000X0.550000X0.550000X-0.550000X0.550000X0*%
%ADD21C,1.600000*%
G04 APERTURE END LIST*
D10*
X64770000Y-46990000D03*
X34925000Y-69850000D03*
X34925000Y-24130000D03*
D11*
X72510000Y-67310000D03*
D12*
X75010000Y-67310000D03*
X77510000Y-67310000D03*
X80010000Y-67310000D03*
X82510000Y-67310000D03*
X85010000Y-67310000D03*
X87510000Y-67310000D03*
X90010000Y-67310000D03*
D13*
X91440000Y-49530000D03*
X91440000Y-46990000D03*
X91440000Y-44450000D03*
D14*
X88900000Y-49530000D03*
D15*
X88900000Y-46990000D03*
X88900000Y-44450000D03*
D16*
X74930000Y-49357677D03*
D17*
X74930000Y-44357677D03*
D11*
X72470000Y-58420000D03*
D12*
X74970000Y-58420000D03*
X77470000Y-58420000D03*
X79970000Y-58420000D03*
X82470000Y-58420000D03*
X84970000Y-58420000D03*
X87470000Y-58420000D03*
X89970000Y-58420000D03*
D11*
X72510000Y-25400000D03*
D12*
X75010000Y-25400000D03*
X77510000Y-25400000D03*
X80010000Y-25400000D03*
X82510000Y-25400000D03*
X85010000Y-25400000D03*
X87510000Y-25400000D03*
X90010000Y-25400000D03*
D11*
X72510000Y-34290000D03*
D12*
X75010000Y-34290000D03*
X77510000Y-34290000D03*
X80010000Y-34290000D03*
X82510000Y-34290000D03*
X85010000Y-34290000D03*
X87510000Y-34290000D03*
X90010000Y-34290000D03*
D18*
X25400000Y-29210000D03*
D19*
X25400000Y-31750000D03*
X25400000Y-34290000D03*
X25400000Y-36830000D03*
X25400000Y-39370000D03*
X25400000Y-41910000D03*
X25400000Y-44450000D03*
X25400000Y-46990000D03*
X25400000Y-49530000D03*
X25400000Y-52070000D03*
X25400000Y-54610000D03*
X25400000Y-57150000D03*
X25400000Y-59690000D03*
X25400000Y-62230000D03*
X25400000Y-64770000D03*
D18*
X48260000Y-29210000D03*
D19*
X48260000Y-31750000D03*
X48260000Y-34290000D03*
X48260000Y-36830000D03*
X48260000Y-39370000D03*
X48260000Y-41910000D03*
X48260000Y-44450000D03*
X48260000Y-46990000D03*
X48260000Y-49530000D03*
X48260000Y-52070000D03*
X48260000Y-54610000D03*
X48260000Y-57150000D03*
X48260000Y-59690000D03*
X48260000Y-62230000D03*
X48260000Y-64770000D03*
D20*
X55885000Y-24130000D03*
D21*
X55885000Y-26670000D03*
X55885000Y-29210000D03*
X55885000Y-31750000D03*
X55885000Y-34290000D03*
X55885000Y-36830000D03*
X55885000Y-39370000D03*
X55885000Y-41910000D03*
X63505000Y-41910000D03*
X63505000Y-39370000D03*
X63505000Y-36830000D03*
X63505000Y-34290000D03*
X63505000Y-31750000D03*
X63505000Y-29210000D03*
X63505000Y-26670000D03*
X63505000Y-24130000D03*
D20*
X55880000Y-52070000D03*
D21*
X55880000Y-54610000D03*
X55880000Y-57150000D03*
X55880000Y-59690000D03*
X55880000Y-62230000D03*
X55880000Y-64770000D03*
X55880000Y-67310000D03*
X55880000Y-69850000D03*
X63500000Y-69850000D03*
X63500000Y-67310000D03*
X63500000Y-64770000D03*
X63500000Y-62230000D03*
X63500000Y-59690000D03*
X63500000Y-57150000D03*
X63500000Y-54610000D03*
X63500000Y-52070000D03*
M02*
