;TYPE=PLATED
;Layer: PTH_Through
;EasyEDA Pro v2.2.35.2, 2025-01-23 15:21:14
;Gerber Generator version 0.3
M48
METRIC,LZ,0000.00000
;Hole size 1 = 1.00000 METRIC
T01C1.00000
;Hole size 2 = 1.10002 METRIC
T02C1.10002
;Hole size 3 = 1.30002 METRIC
T03C1.30002
%
G05
G90
T01
X1.524Y-6.604
X1.524Y-9.144
X1.524Y-11.684
X1.524Y-14.224
X1.524Y-16.764
X1.524Y-19.304
X1.524Y-21.844
X1.524Y-24.384
X1.524Y-26.924
X1.524Y-29.464
X1.524Y-32.004
X1.524Y-34.544
X1.524Y-37.084
X1.524Y-39.624
X1.524Y-42.164
X24.384Y-6.604
X24.384Y-9.144
X24.384Y-11.684
X24.384Y-14.224
X24.384Y-16.764
X24.384Y-19.304
X24.384Y-21.844
X24.384Y-24.384
X24.384Y-26.924
X24.384Y-29.464
X24.384Y-32.004
X24.384Y-34.544
X24.384Y-37.084
X24.384Y-39.624
X24.384Y-42.164
X43.68818Y-1.26964
X43.68818Y-3.80964
X43.68818Y-6.34964
X43.68818Y-8.88964
X43.68818Y-11.42964
X43.68818Y-13.96964
X43.68818Y-16.50964
X43.68818Y-19.04964
X36.06818Y-19.04964
X36.06818Y-16.50964
X36.06818Y-13.96964
X36.06818Y-11.42964
X36.06818Y-8.88964
X36.06818Y-6.34964
X36.06818Y-3.80964
X36.06803Y-1.26992
X43.68818Y-22.35164
X43.68818Y-24.89164
X43.68818Y-27.43164
X43.68818Y-29.97164
X43.68818Y-32.51164
X43.68818Y-35.05164
X43.68818Y-37.59164
X43.68818Y-40.13164
X36.06818Y-40.13164
X36.06818Y-37.59164
X36.06818Y-35.05164
X36.06818Y-32.51164
X36.06818Y-29.97164
X36.06818Y-27.43164
X36.06818Y-24.89164
X36.06803Y-22.35192
X39.878Y-49.784
X39.878Y-44.704
T02
X54.356Y-48.514
X54.356Y-45.974
T03
X54.356Y-19.05
X54.356Y-16.51
X54.356Y-13.97
X54.356Y-11.43
X54.356Y-8.89
X54.356Y-6.35
X54.356Y-3.81
X54.356Y-1.27
X54.356Y-41.402
X54.356Y-38.862
X54.356Y-36.322
X54.356Y-33.782
X54.356Y-31.242
X54.356Y-28.702
X54.356Y-26.162
X54.356Y-23.622
M30