G04 Layer: TopSolderMaskLayer*
G04 EasyEDA Pro v2.2.35.2, 2025-01-23 15:21:14*
G04 Gerber Generator version 0.3*
G04 Scale: 100 percent, Rotated: No, Reflected: No*
G04 Dimensions in millimeters*
G04 Leading zeros omitted, absolute positions, 4 integers and 5 decimals*
%FSLAX45Y45*%
%MOMM*%
%AMRoundRect*1,1,$1,$2,$3*1,1,$1,$4,$5*1,1,$1,0-$2,0-$3*1,1,$1,0-$4,0-$5*20,1,$1,$2,$3,$4,$5,0*20,1,$1,$4,$5,0-$2,0-$3,0*20,1,$1,0-$2,0-$3,0-$4,0-$5,0*20,1,$1,0-$4,0-$5,$2,$3,0*4,1,4,$2,$3,$4,$5,0-$2,0-$3,0-$4,0-$5,$2,$3,0*%
%ADD10C,1.7016*%
%ADD11RoundRect,0.09579X-0.7903X-0.8029X-0.7903X0.8029*%
%ADD12RoundRect,0.09588X-0.80286X0.80286X0.80286X0.80286*%
%ADD13C,1.90002*%
%ADD14C,1.9016*%
%ADD15RoundRect,0.09645X0.90257X0.90257X0.90257X-0.90257*%
G75*


G04 Pad Start*
G54D10*
G01X152400Y-660400D03*
G01X152400Y-914400D03*
G01X152400Y-1168400D03*
G01X152400Y-1422400D03*
G01X152400Y-1676400D03*
G01X152400Y-1930400D03*
G01X152400Y-2184400D03*
G01X152400Y-2438400D03*
G01X152400Y-2692400D03*
G01X152400Y-2946400D03*
G01X152400Y-3200400D03*
G01X152400Y-3454400D03*
G01X152400Y-3708400D03*
G01X152400Y-3962400D03*
G54D11*
G01X152400Y-4216400D03*
G54D10*
G01X2438400Y-660400D03*
G01X2438400Y-914400D03*
G01X2438400Y-1168400D03*
G01X2438400Y-1422400D03*
G01X2438400Y-1676400D03*
G01X2438400Y-1930400D03*
G01X2438400Y-2184400D03*
G01X2438400Y-2438400D03*
G01X2438400Y-2692400D03*
G01X2438400Y-2946400D03*
G01X2438400Y-3200400D03*
G01X2438400Y-3454400D03*
G01X2438400Y-3708400D03*
G01X2438400Y-3962400D03*
G54D11*
G01X2438400Y-4216400D03*
G54D10*
G01X4368800Y-127000D03*
G01X4368800Y-381000D03*
G01X4368800Y-635000D03*
G01X4368800Y-889000D03*
G01X4368800Y-1143000D03*
G01X4368800Y-1397000D03*
G01X4368800Y-1651000D03*
G01X4368800Y-1905000D03*
G01X3606800Y-1905000D03*
G01X3606800Y-1651000D03*
G01X3606800Y-1397000D03*
G01X3606800Y-1143000D03*
G01X3606800Y-889000D03*
G01X3606800Y-635000D03*
G01X3606800Y-381000D03*
G54D12*
G01X3606800Y-127000D03*
G54D10*
G01X4368800Y-2235200D03*
G01X4368800Y-2489200D03*
G01X4368800Y-2743200D03*
G01X4368800Y-2997200D03*
G01X4368800Y-3251200D03*
G01X4368800Y-3505200D03*
G01X4368800Y-3759200D03*
G01X4368800Y-4013200D03*
G01X3606800Y-4013200D03*
G01X3606800Y-3759200D03*
G01X3606800Y-3505200D03*
G01X3606800Y-3251200D03*
G01X3606800Y-2997200D03*
G01X3606800Y-2743200D03*
G01X3606800Y-2489200D03*
G54D12*
G01X3606800Y-2235200D03*
G54D13*
G01X5435600Y-1905000D03*
G01X5435600Y-1651000D03*
G01X5435600Y-1397000D03*
G01X5435600Y-1143000D03*
G01X5435600Y-889000D03*
G01X5435600Y-635000D03*
G01X5435600Y-381000D03*
G01X5435600Y-127000D03*
G01X5435600Y-4140200D03*
G01X5435600Y-3886200D03*
G01X5435600Y-3632200D03*
G01X5435600Y-3378200D03*
G01X5435600Y-3124200D03*
G01X5435600Y-2870200D03*
G01X5435600Y-2616200D03*
G01X5435600Y-2362200D03*
G54D14*
G01X5435600Y-4851400D03*
G54D15*
G01X5435600Y-4597400D03*
G54D10*
G01X3987800Y-4978400D03*
G01X3987800Y-4470400D03*
G04 Pad End*

M02*

