G04 Layer: BottomLayer*
G04 EasyEDA Pro v2.2.35.2, 2025-01-23 15:21:14*
G04 Gerber Generator version 0.3*
G04 Scale: 100 percent, Rotated: No, Reflected: No*
G04 Dimensions in millimeters*
G04 Leading zeros omitted, absolute positions, 4 integers and 5 decimals*
%FSLAX45Y45*%
%MOMM*%
%ADD10C,1.6*%
%ADD11R,1.5748X1.6*%
%ADD12R,1.6X1.6*%
%ADD13C,1.8*%
%ADD14R,1.8X1.8*%
%ADD15C,0.254*%
G75*


G04 Pad Start*
G54D10*
G01X152400Y-660400D03*
G01X152400Y-914400D03*
G01X152400Y-1168400D03*
G01X152400Y-1422400D03*
G01X152400Y-1676400D03*
G01X152400Y-1930400D03*
G01X152400Y-2184400D03*
G01X152400Y-2438400D03*
G01X152400Y-2692400D03*
G01X152400Y-2946400D03*
G01X152400Y-3200400D03*
G01X152400Y-3454400D03*
G01X152400Y-3708400D03*
G01X152400Y-3962400D03*
G54D11*
G01X152400Y-4216400D03*
G54D10*
G01X2438400Y-660400D03*
G01X2438400Y-914400D03*
G01X2438400Y-1168400D03*
G01X2438400Y-1422400D03*
G01X2438400Y-1676400D03*
G01X2438400Y-1930400D03*
G01X2438400Y-2184400D03*
G01X2438400Y-2438400D03*
G01X2438400Y-2692400D03*
G01X2438400Y-2946400D03*
G01X2438400Y-3200400D03*
G01X2438400Y-3454400D03*
G01X2438400Y-3708400D03*
G01X2438400Y-3962400D03*
G54D11*
G01X2438400Y-4216400D03*
G54D10*
G01X4368800Y-127000D03*
G01X4368800Y-381000D03*
G01X4368800Y-635000D03*
G01X4368800Y-889000D03*
G01X4368800Y-1143000D03*
G01X4368800Y-1397000D03*
G01X4368800Y-1651000D03*
G01X4368800Y-1905000D03*
G01X3606800Y-1905000D03*
G01X3606800Y-1651000D03*
G01X3606800Y-1397000D03*
G01X3606800Y-1143000D03*
G01X3606800Y-889000D03*
G01X3606800Y-635000D03*
G01X3606800Y-381000D03*
G54D12*
G01X3606800Y-127000D03*
G54D10*
G01X4368800Y-2235200D03*
G01X4368800Y-2489200D03*
G01X4368800Y-2743200D03*
G01X4368800Y-2997200D03*
G01X4368800Y-3251200D03*
G01X4368800Y-3505200D03*
G01X4368800Y-3759200D03*
G01X4368800Y-4013200D03*
G01X3606800Y-4013200D03*
G01X3606800Y-3759200D03*
G01X3606800Y-3505200D03*
G01X3606800Y-3251200D03*
G01X3606800Y-2997200D03*
G01X3606800Y-2743200D03*
G01X3606800Y-2489200D03*
G54D12*
G01X3606800Y-2235200D03*
G54D13*
G01X5435600Y-1905000D03*
G01X5435600Y-1651000D03*
G01X5435600Y-1397000D03*
G01X5435600Y-1143000D03*
G01X5435600Y-889000D03*
G01X5435600Y-635000D03*
G01X5435600Y-381000D03*
G01X5435600Y-127000D03*
G01X5435600Y-4140200D03*
G01X5435600Y-3886200D03*
G01X5435600Y-3632200D03*
G01X5435600Y-3378200D03*
G01X5435600Y-3124200D03*
G01X5435600Y-2870200D03*
G01X5435600Y-2616200D03*
G01X5435600Y-2362200D03*
G01X5435600Y-4851400D03*
G54D14*
G01X5435600Y-4597400D03*
G54D10*
G01X3987800Y-4978400D03*
G01X3987800Y-4470400D03*
G04 Pad End*

G04 Track Start*
G54D15*
G01X3606800Y-4013200D02*
G01X3987800Y-4394200D01*
G01X3987800Y-4470400D01*
G01X5308600Y-4470400D01*
G01X5435600Y-4597400D01*
G01X5435600Y-4140200D01*
G01X3606800Y-1905000D02*
G01X2692400Y-1905000D01*
G01X2590800Y-1803400D01*
G01X1041400Y-1803400D01*
G01X3606800Y-1905000D02*
G01X3987800Y-1905000D01*
G01X4005761Y-1887039D02*
G01X3987800Y-1905000D01*
G01X4005761Y-1541961D02*
G01X4005761Y-1887039D01*
G01X3606800Y-1143000D02*
G01X4005761Y-1541961D01*
G01X3987800Y-2870200D02*
G01X3606800Y-3251200D01*
G01X3987800Y-2870200D02*
G01X3987800Y-3632200D01*
G01X3606800Y-4013200D01*
G01X1041400Y-1803400D02*
G01X152400Y-914400D01*
G01X5435600Y-1905000D02*
G01X5254965Y-2085635D01*
G01X3987800Y-2085635D01*
G01X3987800Y-1905000D02*
G01X3987800Y-2085635D01*
G01X3987800Y-2870200D01*
G04 Track End*

M02*

