G04 Layer: TopSilkscreenLayer*
G04 EasyEDA Pro v2.2.35.2, 2025-01-23 15:21:14*
G04 Gerber Generator version 0.3*
G04 Scale: 100 percent, Rotated: No, Reflected: No*
G04 Dimensions in millimeters*
G04 Leading zeros omitted, absolute positions, 4 integers and 5 decimals*
%FSLAX45Y45*%
%MOMM*%
%ADD10C,0.203*%
%ADD11C,0.1524*%
%ADD12C,0.254*%
G75*


G04 Text Start*
G54D10*
G01X670560Y-2382520D02*
G01X670560Y-2569210D01*
G01X670560Y-2382520D02*
G01X795020Y-2569210D01*
G01X795020Y-2382520D02*
G01X795020Y-2569210D01*
G01X911352Y-2382520D02*
G01X893572Y-2391410D01*
G01X875792Y-2409190D01*
G01X866902Y-2426970D01*
G01X858012Y-2453640D01*
G01X858012Y-2498090D01*
G01X866902Y-2524760D01*
G01X875792Y-2542540D01*
G01X893572Y-2560320D01*
G01X911352Y-2569210D01*
G01X946912Y-2569210D01*
G01X964692Y-2560320D01*
G01X982472Y-2542540D01*
G01X991362Y-2524760D01*
G01X1000252Y-2498090D01*
G01X1000252Y-2453640D01*
G01X991362Y-2426970D01*
G01X982472Y-2409190D01*
G01X964692Y-2391410D01*
G01X946912Y-2382520D01*
G01X911352Y-2382520D01*
G01X1063244Y-2382520D02*
G01X1063244Y-2569210D01*
G01X1063244Y-2382520D02*
G01X1125474Y-2382520D01*
G01X1152144Y-2391410D01*
G01X1169924Y-2409190D01*
G01X1178814Y-2426970D01*
G01X1187704Y-2453640D01*
G01X1187704Y-2498090D01*
G01X1178814Y-2524760D01*
G01X1169924Y-2542540D01*
G01X1152144Y-2560320D01*
G01X1125474Y-2569210D01*
G01X1063244Y-2569210D01*
G01X1250696Y-2382520D02*
G01X1250696Y-2569210D01*
G01X1250696Y-2382520D02*
G01X1366266Y-2382520D01*
G01X1250696Y-2471420D02*
G01X1321816Y-2471420D01*
G01X1250696Y-2569210D02*
G01X1366266Y-2569210D01*
G01X1429258Y-2382520D02*
G01X1429258Y-2569210D01*
G01X1429258Y-2382520D02*
G01X1500378Y-2569210D01*
G01X1571498Y-2382520D02*
G01X1500378Y-2569210D01*
G01X1571498Y-2382520D02*
G01X1571498Y-2569210D01*
G01X1767840Y-2426970D02*
G01X1758950Y-2409190D01*
G01X1741170Y-2391410D01*
G01X1723390Y-2382520D01*
G01X1687830Y-2382520D01*
G01X1670050Y-2391410D01*
G01X1652270Y-2409190D01*
G01X1643380Y-2426970D01*
G01X1634490Y-2453640D01*
G01X1634490Y-2498090D01*
G01X1643380Y-2524760D01*
G01X1652270Y-2542540D01*
G01X1670050Y-2560320D01*
G01X1687830Y-2569210D01*
G01X1723390Y-2569210D01*
G01X1741170Y-2560320D01*
G01X1758950Y-2542540D01*
G01X1767840Y-2524760D01*
G01X1830832Y-2382520D02*
G01X1830832Y-2515870D01*
G01X1839722Y-2542540D01*
G01X1857502Y-2560320D01*
G01X1884172Y-2569210D01*
G01X1901952Y-2569210D01*
G01X1928622Y-2560320D01*
G01X1946402Y-2542540D01*
G01X1955292Y-2515870D01*
G01X1955292Y-2382520D01*
G01X670560Y-2687320D02*
G01X670560Y-2874010D01*
G01X670560Y-2687320D02*
G01X786130Y-2687320D01*
G01X670560Y-2776220D02*
G01X741680Y-2776220D01*
G01X670560Y-2874010D02*
G01X786130Y-2874010D01*
G01X973582Y-2713990D02*
G01X955802Y-2696210D01*
G01X929132Y-2687320D01*
G01X893572Y-2687320D01*
G01X866902Y-2696210D01*
G01X849122Y-2713990D01*
G01X849122Y-2731770D01*
G01X858012Y-2749550D01*
G01X866902Y-2758440D01*
G01X884682Y-2767330D01*
G01X938022Y-2785110D01*
G01X955802Y-2794000D01*
G01X964692Y-2802890D01*
G01X973582Y-2820670D01*
G01X973582Y-2847340D01*
G01X955802Y-2865120D01*
G01X929132Y-2874010D01*
G01X893572Y-2874010D01*
G01X866902Y-2865120D01*
G01X849122Y-2847340D01*
G01X1036574Y-2687320D02*
G01X1036574Y-2874010D01*
G01X1036574Y-2687320D02*
G01X1116584Y-2687320D01*
G01X1143254Y-2696210D01*
G01X1152144Y-2705100D01*
G01X1161034Y-2722880D01*
G01X1161034Y-2749550D01*
G01X1152144Y-2767330D01*
G01X1143254Y-2776220D01*
G01X1116584Y-2785110D01*
G01X1036574Y-2785110D01*
G01X1268476Y-2687320D02*
G01X1241806Y-2696210D01*
G01X1232916Y-2713990D01*
G01X1232916Y-2731770D01*
G01X1241806Y-2749550D01*
G01X1259586Y-2758440D01*
G01X1295146Y-2767330D01*
G01X1321816Y-2776220D01*
G01X1339596Y-2794000D01*
G01X1348486Y-2811780D01*
G01X1348486Y-2838450D01*
G01X1339596Y-2856230D01*
G01X1330706Y-2865120D01*
G01X1304036Y-2874010D01*
G01X1268476Y-2874010D01*
G01X1241806Y-2865120D01*
G01X1232916Y-2856230D01*
G01X1224026Y-2838450D01*
G01X1224026Y-2811780D01*
G01X1232916Y-2794000D01*
G01X1250696Y-2776220D01*
G01X1277366Y-2767330D01*
G01X1312926Y-2758440D01*
G01X1330706Y-2749550D01*
G01X1339596Y-2731770D01*
G01X1339596Y-2713990D01*
G01X1330706Y-2696210D01*
G01X1304036Y-2687320D01*
G01X1268476Y-2687320D01*
G01X1420368Y-2731770D02*
G01X1420368Y-2722880D01*
G01X1429258Y-2705100D01*
G01X1438148Y-2696210D01*
G01X1455928Y-2687320D01*
G01X1491488Y-2687320D01*
G01X1509268Y-2696210D01*
G01X1518158Y-2705100D01*
G01X1527048Y-2722880D01*
G01X1527048Y-2740660D01*
G01X1518158Y-2758440D01*
G01X1500378Y-2785110D01*
G01X1411478Y-2874010D01*
G01X1535938Y-2874010D01*
G01X1705610Y-2713990D02*
G01X1696720Y-2696210D01*
G01X1670050Y-2687320D01*
G01X1652270Y-2687320D01*
G01X1625600Y-2696210D01*
G01X1607820Y-2722880D01*
G01X1598930Y-2767330D01*
G01X1598930Y-2811780D01*
G01X1607820Y-2847340D01*
G01X1625600Y-2865120D01*
G01X1652270Y-2874010D01*
G01X1661160Y-2874010D01*
G01X1687830Y-2865120D01*
G01X1705610Y-2847340D01*
G01X1714500Y-2820670D01*
G01X1714500Y-2811780D01*
G01X1705610Y-2785110D01*
G01X1687830Y-2767330D01*
G01X1661160Y-2758440D01*
G01X1652270Y-2758440D01*
G01X1625600Y-2767330D01*
G01X1607820Y-2785110D01*
G01X1598930Y-2811780D01*
G01X1884172Y-2713990D02*
G01X1875282Y-2696210D01*
G01X1848612Y-2687320D01*
G01X1830832Y-2687320D01*
G01X1804162Y-2696210D01*
G01X1786382Y-2722880D01*
G01X1777492Y-2767330D01*
G01X1777492Y-2811780D01*
G01X1786382Y-2847340D01*
G01X1804162Y-2865120D01*
G01X1830832Y-2874010D01*
G01X1839722Y-2874010D01*
G01X1866392Y-2865120D01*
G01X1884172Y-2847340D01*
G01X1893062Y-2820670D01*
G01X1893062Y-2811780D01*
G01X1884172Y-2785110D01*
G01X1866392Y-2767330D01*
G01X1839722Y-2758440D01*
G01X1830832Y-2758440D01*
G01X1804162Y-2767330D01*
G01X1786382Y-2785110D01*
G01X1777492Y-2811780D01*
G01X6021070Y-4811014D02*
G01X5964936Y-4811014D01*
G01X5959348Y-4861560D01*
G01X5964936Y-4855972D01*
G01X5981954Y-4850384D01*
G01X5998718Y-4850384D01*
G01X6015482Y-4855972D01*
G01X6026658Y-4867148D01*
G01X6032246Y-4883912D01*
G01X6032246Y-4895342D01*
G01X6026658Y-4912106D01*
G01X6015482Y-4923282D01*
G01X5998718Y-4928870D01*
G01X5981954Y-4928870D01*
G01X5964936Y-4923282D01*
G01X5959348Y-4917694D01*
G01X5953760Y-4906518D01*
G01X6079490Y-4811014D02*
G01X6124448Y-4928870D01*
G01X6169406Y-4811014D02*
G01X6124448Y-4928870D01*
G01X5987288Y-4509008D02*
G01X5981446Y-4497578D01*
G01X5970270Y-4486402D01*
G01X5959094Y-4480814D01*
G01X5936742Y-4480814D01*
G01X5925312Y-4486402D01*
G01X5914136Y-4497578D01*
G01X5908548Y-4509008D01*
G01X5902960Y-4525772D01*
G01X5902960Y-4553712D01*
G01X5908548Y-4570730D01*
G01X5914136Y-4581906D01*
G01X5925312Y-4593082D01*
G01X5936742Y-4598670D01*
G01X5959094Y-4598670D01*
G01X5970270Y-4593082D01*
G01X5981446Y-4581906D01*
G01X5987288Y-4570730D01*
G01X5987288Y-4553712D01*
G01X5959094Y-4553712D02*
G01X5987288Y-4553712D01*
G01X6034532Y-4480814D02*
G01X6034532Y-4598670D01*
G01X6034532Y-4480814D02*
G01X6113272Y-4598670D01*
G01X6113272Y-4480814D02*
G01X6113272Y-4598670D01*
G01X6160516Y-4480814D02*
G01X6160516Y-4598670D01*
G01X6160516Y-4480814D02*
G01X6199886Y-4480814D01*
G01X6216650Y-4486402D01*
G01X6227826Y-4497578D01*
G01X6233414Y-4509008D01*
G01X6239256Y-4525772D01*
G01X6239256Y-4553712D01*
G01X6233414Y-4570730D01*
G01X6227826Y-4581906D01*
G01X6216650Y-4593082D01*
G01X6199886Y-4598670D01*
G01X6160516Y-4598670D01*
G01X6664960Y-70926D02*
G01X6664960Y-221548D01*
G01X6664960Y-70926D02*
G01X6758178Y-70926D01*
G01X6664960Y-142554D02*
G01X6722364Y-142554D01*
G01X6772656Y-356676D02*
G01X6765544Y-342452D01*
G01X6751066Y-327974D01*
G01X6736842Y-320862D01*
G01X6708140Y-320862D01*
G01X6693662Y-327974D01*
G01X6679184Y-342452D01*
G01X6672072Y-356676D01*
G01X6664960Y-378266D01*
G01X6664960Y-414080D01*
G01X6672072Y-435670D01*
G01X6679184Y-450148D01*
G01X6693662Y-464372D01*
G01X6708140Y-471484D01*
G01X6736842Y-471484D01*
G01X6751066Y-464372D01*
G01X6765544Y-450148D01*
G01X6772656Y-435670D01*
G01X6772656Y-414080D01*
G01X6736842Y-414080D02*
G01X6772656Y-414080D01*
G01X6722364Y-570798D02*
G01X6664960Y-721674D01*
G01X6722364Y-570798D02*
G01X6779768Y-721674D01*
G01X6686550Y-671382D02*
G01X6758178Y-671382D01*
G01X6664960Y-820988D02*
G01X6664960Y-971610D01*
G01X6664960Y-820988D02*
G01X6729476Y-820988D01*
G01X6751066Y-828100D01*
G01X6758178Y-835212D01*
G01X6765544Y-849690D01*
G01X6765544Y-863914D01*
G01X6758178Y-878392D01*
G01X6751066Y-885504D01*
G01X6729476Y-892616D01*
G01X6664960Y-892616D02*
G01X6729476Y-892616D01*
G01X6751066Y-899728D01*
G01X6758178Y-907094D01*
G01X6765544Y-921318D01*
G01X6765544Y-942908D01*
G01X6758178Y-957132D01*
G01X6751066Y-964498D01*
G01X6729476Y-971610D01*
G01X6664960Y-971610D01*
G01X6772656Y-1106738D02*
G01X6765544Y-1092514D01*
G01X6751066Y-1078036D01*
G01X6736842Y-1070924D01*
G01X6708140Y-1070924D01*
G01X6693662Y-1078036D01*
G01X6679184Y-1092514D01*
G01X6672072Y-1106738D01*
G01X6664960Y-1128328D01*
G01X6664960Y-1164142D01*
G01X6672072Y-1185732D01*
G01X6679184Y-1199956D01*
G01X6693662Y-1214434D01*
G01X6708140Y-1221546D01*
G01X6736842Y-1221546D01*
G01X6751066Y-1214434D01*
G01X6765544Y-1199956D01*
G01X6772656Y-1185732D01*
G01X6664960Y-1320860D02*
G01X6664960Y-1471482D01*
G01X6664960Y-1320860D02*
G01X6715252Y-1320860D01*
G01X6736842Y-1327972D01*
G01X6751066Y-1342450D01*
G01X6758178Y-1356674D01*
G01X6765544Y-1378264D01*
G01X6765544Y-1414078D01*
G01X6758178Y-1435668D01*
G01X6751066Y-1450146D01*
G01X6736842Y-1464370D01*
G01X6715252Y-1471482D01*
G01X6664960Y-1471482D01*
G01X6664960Y-1570796D02*
G01X6664960Y-1721672D01*
G01X6664960Y-1570796D02*
G01X6758178Y-1570796D01*
G01X6664960Y-1642678D02*
G01X6722364Y-1642678D01*
G01X6664960Y-1721672D02*
G01X6758178Y-1721672D01*
G01X6772656Y-1856800D02*
G01X6765544Y-1842322D01*
G01X6751066Y-1828098D01*
G01X6736842Y-1820986D01*
G01X6708140Y-1820986D01*
G01X6693662Y-1828098D01*
G01X6679184Y-1842322D01*
G01X6672072Y-1856800D01*
G01X6664960Y-1878390D01*
G01X6664960Y-1914204D01*
G01X6672072Y-1935794D01*
G01X6679184Y-1950018D01*
G01X6693662Y-1964496D01*
G01X6708140Y-1971608D01*
G01X6736842Y-1971608D01*
G01X6751066Y-1964496D01*
G01X6765544Y-1950018D01*
G01X6772656Y-1935794D01*
G01X6772656Y-1914204D01*
G01X6736842Y-1914204D02*
G01X6772656Y-1914204D01*
G01X6827520Y-1820986D02*
G01X6827520Y-1971608D01*
G01X6827520Y-1820986D02*
G01X6927850Y-1971608D01*
G01X6927850Y-1820986D02*
G01X6927850Y-1971608D01*
G01X6982714Y-1820986D02*
G01X6982714Y-1971608D01*
G01X6982714Y-1820986D02*
G01X7032752Y-1820986D01*
G01X7054342Y-1828098D01*
G01X7068820Y-1842322D01*
G01X7075932Y-1856800D01*
G01X7083044Y-1878390D01*
G01X7083044Y-1914204D01*
G01X7075932Y-1935794D01*
G01X7068820Y-1950018D01*
G01X7054342Y-1964496D01*
G01X7032752Y-1971608D01*
G01X6982714Y-1971608D01*
G01X6664960Y-2306126D02*
G01X6664960Y-2456748D01*
G01X6664960Y-2306126D02*
G01X6758178Y-2306126D01*
G01X6664960Y-2377754D02*
G01X6722364Y-2377754D01*
G01X6772656Y-2591876D02*
G01X6765544Y-2577652D01*
G01X6751066Y-2563174D01*
G01X6736842Y-2556062D01*
G01X6708140Y-2556062D01*
G01X6693662Y-2563174D01*
G01X6679184Y-2577652D01*
G01X6672072Y-2591876D01*
G01X6664960Y-2613466D01*
G01X6664960Y-2649280D01*
G01X6672072Y-2670870D01*
G01X6679184Y-2685348D01*
G01X6693662Y-2699572D01*
G01X6708140Y-2706684D01*
G01X6736842Y-2706684D01*
G01X6751066Y-2699572D01*
G01X6765544Y-2685348D01*
G01X6772656Y-2670870D01*
G01X6772656Y-2649280D01*
G01X6736842Y-2649280D02*
G01X6772656Y-2649280D01*
G01X6722364Y-2805998D02*
G01X6664960Y-2956874D01*
G01X6722364Y-2805998D02*
G01X6779768Y-2956874D01*
G01X6686550Y-2906582D02*
G01X6758178Y-2906582D01*
G01X6664960Y-3056188D02*
G01X6664960Y-3206810D01*
G01X6664960Y-3056188D02*
G01X6729476Y-3056188D01*
G01X6751066Y-3063300D01*
G01X6758178Y-3070412D01*
G01X6765544Y-3084890D01*
G01X6765544Y-3099114D01*
G01X6758178Y-3113592D01*
G01X6751066Y-3120704D01*
G01X6729476Y-3127816D01*
G01X6664960Y-3127816D02*
G01X6729476Y-3127816D01*
G01X6751066Y-3134928D01*
G01X6758178Y-3142294D01*
G01X6765544Y-3156518D01*
G01X6765544Y-3178108D01*
G01X6758178Y-3192332D01*
G01X6751066Y-3199698D01*
G01X6729476Y-3206810D01*
G01X6664960Y-3206810D01*
G01X6772656Y-3341938D02*
G01X6765544Y-3327714D01*
G01X6751066Y-3313236D01*
G01X6736842Y-3306124D01*
G01X6708140Y-3306124D01*
G01X6693662Y-3313236D01*
G01X6679184Y-3327714D01*
G01X6672072Y-3341938D01*
G01X6664960Y-3363528D01*
G01X6664960Y-3399342D01*
G01X6672072Y-3420932D01*
G01X6679184Y-3435156D01*
G01X6693662Y-3449634D01*
G01X6708140Y-3456746D01*
G01X6736842Y-3456746D01*
G01X6751066Y-3449634D01*
G01X6765544Y-3435156D01*
G01X6772656Y-3420932D01*
G01X6664960Y-3556060D02*
G01X6664960Y-3706682D01*
G01X6664960Y-3556060D02*
G01X6715252Y-3556060D01*
G01X6736842Y-3563172D01*
G01X6751066Y-3577650D01*
G01X6758178Y-3591874D01*
G01X6765544Y-3613464D01*
G01X6765544Y-3649278D01*
G01X6758178Y-3670868D01*
G01X6751066Y-3685346D01*
G01X6736842Y-3699570D01*
G01X6715252Y-3706682D01*
G01X6664960Y-3706682D01*
G01X6664960Y-3805996D02*
G01X6664960Y-3956872D01*
G01X6664960Y-3805996D02*
G01X6758178Y-3805996D01*
G01X6664960Y-3877878D02*
G01X6722364Y-3877878D01*
G01X6664960Y-3956872D02*
G01X6758178Y-3956872D01*
G01X6772656Y-4092000D02*
G01X6765544Y-4077522D01*
G01X6751066Y-4063298D01*
G01X6736842Y-4056186D01*
G01X6708140Y-4056186D01*
G01X6693662Y-4063298D01*
G01X6679184Y-4077522D01*
G01X6672072Y-4092000D01*
G01X6664960Y-4113590D01*
G01X6664960Y-4149404D01*
G01X6672072Y-4170994D01*
G01X6679184Y-4185218D01*
G01X6693662Y-4199696D01*
G01X6708140Y-4206808D01*
G01X6736842Y-4206808D01*
G01X6751066Y-4199696D01*
G01X6765544Y-4185218D01*
G01X6772656Y-4170994D01*
G01X6772656Y-4149404D01*
G01X6736842Y-4149404D02*
G01X6772656Y-4149404D01*
G01X6827520Y-4056186D02*
G01X6827520Y-4206808D01*
G01X6827520Y-4056186D02*
G01X6927850Y-4206808D01*
G01X6927850Y-4056186D02*
G01X6927850Y-4206808D01*
G01X6982714Y-4056186D02*
G01X6982714Y-4206808D01*
G01X6982714Y-4056186D02*
G01X7032752Y-4056186D01*
G01X7054342Y-4063298D01*
G01X7068820Y-4077522D01*
G01X7075932Y-4092000D01*
G01X7083044Y-4113590D01*
G01X7083044Y-4149404D01*
G01X7075932Y-4170994D01*
G01X7068820Y-4185218D01*
G01X7054342Y-4199696D01*
G01X7032752Y-4206808D01*
G01X6982714Y-4206808D01*
G54D11*
G01X337566Y-4361180D02*
G01X402590Y-4361180D01*
G01X337566Y-4361180D02*
G01X337566Y-4321048D01*
G01X368554Y-4361180D02*
G01X368554Y-4336288D01*
G01X377698Y-4290822D02*
G01X377698Y-4253738D01*
G01X371602Y-4253738D01*
G01X365252Y-4256786D01*
G01X362204Y-4260088D01*
G01X359156Y-4266184D01*
G01X359156Y-4275582D01*
G01X362204Y-4281678D01*
G01X368554Y-4287774D01*
G01X377698Y-4290822D01*
G01X384048Y-4290822D01*
G01X393192Y-4287774D01*
G01X399542Y-4281678D01*
G01X402590Y-4275582D01*
G01X402590Y-4266184D01*
G01X399542Y-4260088D01*
G01X393192Y-4253738D01*
G01X359156Y-4223512D02*
G01X402590Y-4223512D01*
G01X371602Y-4223512D02*
G01X362204Y-4214368D01*
G01X359156Y-4208272D01*
G01X359156Y-4198874D01*
G01X362204Y-4192778D01*
G01X371602Y-4189476D01*
G01X402590Y-4189476D01*
G01X371602Y-4189476D02*
G01X362204Y-4180332D01*
G01X359156Y-4173982D01*
G01X359156Y-4164838D01*
G01X362204Y-4158742D01*
G01X371602Y-4155440D01*
G01X402590Y-4155440D01*
G01X424180Y-4125214D02*
G01X424180Y-4069588D01*
G01X337566Y-4039362D02*
G01X402590Y-4039362D01*
G01X337566Y-3996182D02*
G01X402590Y-3996182D01*
G01X368554Y-4039362D02*
G01X368554Y-3996182D01*
G01X2193768Y-4373476D02*
G01X2258792Y-4373476D01*
G01X2193768Y-4373476D02*
G01X2193768Y-4333344D01*
G01X2224756Y-4373476D02*
G01X2224756Y-4348584D01*
G01X2233900Y-4303118D02*
G01X2233900Y-4266034D01*
G01X2227804Y-4266034D01*
G01X2221454Y-4269082D01*
G01X2218406Y-4272384D01*
G01X2215358Y-4278480D01*
G01X2215358Y-4287878D01*
G01X2218406Y-4293974D01*
G01X2224756Y-4300070D01*
G01X2233900Y-4303118D01*
G01X2240250Y-4303118D01*
G01X2249394Y-4300070D01*
G01X2255744Y-4293974D01*
G01X2258792Y-4287878D01*
G01X2258792Y-4278480D01*
G01X2255744Y-4272384D01*
G01X2249394Y-4266034D01*
G01X2215358Y-4235808D02*
G01X2258792Y-4235808D01*
G01X2227804Y-4235808D02*
G01X2218406Y-4226664D01*
G01X2215358Y-4220568D01*
G01X2215358Y-4211170D01*
G01X2218406Y-4205074D01*
G01X2227804Y-4201772D01*
G01X2258792Y-4201772D01*
G01X2227804Y-4201772D02*
G01X2218406Y-4192628D01*
G01X2215358Y-4186278D01*
G01X2215358Y-4177134D01*
G01X2218406Y-4171038D01*
G01X2227804Y-4167736D01*
G01X2258792Y-4167736D01*
G01X2280382Y-4137510D02*
G01X2280382Y-4081884D01*
G01X2193768Y-4051658D02*
G01X2258792Y-4051658D01*
G01X2193768Y-4008478D02*
G01X2258792Y-4008478D01*
G01X2224756Y-4051658D02*
G01X2224756Y-4008478D01*
G01X4555734Y-10914D02*
G01X4490710Y-10914D01*
G01X4555734Y-10914D02*
G01X4490710Y-35806D01*
G01X4555734Y-60444D02*
G01X4490710Y-35806D01*
G01X4555734Y-60444D02*
G01X4490710Y-60444D01*
G01X4555734Y-90670D02*
G01X4509252Y-90670D01*
G01X4500108Y-93718D01*
G01X4493758Y-99814D01*
G01X4490710Y-109212D01*
G01X4490710Y-115308D01*
G01X4493758Y-124706D01*
G01X4500108Y-130802D01*
G01X4509252Y-133850D01*
G01X4555734Y-133850D01*
G01X4555734Y-164076D02*
G01X4490710Y-207256D01*
G01X4555734Y-207256D02*
G01X4490710Y-164076D01*
G01X4469120Y-237482D02*
G01X4469120Y-293108D01*
G01X4555734Y-323334D02*
G01X4490710Y-323334D01*
G01X4555734Y-323334D02*
G01X4555734Y-344924D01*
G01X4552686Y-354068D01*
G01X4546590Y-360418D01*
G01X4540240Y-363466D01*
G01X4531096Y-366514D01*
G01X4515602Y-366514D01*
G01X4506204Y-363466D01*
G01X4500108Y-360418D01*
G01X4493758Y-354068D01*
G01X4490710Y-344924D01*
G01X4490710Y-323334D01*
G01X4555734Y-2119114D02*
G01X4490710Y-2119114D01*
G01X4555734Y-2119114D02*
G01X4490710Y-2144006D01*
G01X4555734Y-2168644D02*
G01X4490710Y-2144006D01*
G01X4555734Y-2168644D02*
G01X4490710Y-2168644D01*
G01X4555734Y-2198870D02*
G01X4509252Y-2198870D01*
G01X4500108Y-2201918D01*
G01X4493758Y-2208014D01*
G01X4490710Y-2217412D01*
G01X4490710Y-2223508D01*
G01X4493758Y-2232906D01*
G01X4500108Y-2239002D01*
G01X4509252Y-2242050D01*
G01X4555734Y-2242050D01*
G01X4555734Y-2272276D02*
G01X4490710Y-2315456D01*
G01X4555734Y-2315456D02*
G01X4490710Y-2272276D01*
G01X4469120Y-2345682D02*
G01X4469120Y-2401308D01*
G01X4555734Y-2431534D02*
G01X4509252Y-2431534D01*
G01X4500108Y-2434582D01*
G01X4493758Y-2440678D01*
G01X4490710Y-2450076D01*
G01X4490710Y-2456172D01*
G01X4493758Y-2465570D01*
G01X4500108Y-2471666D01*
G01X4509252Y-2474714D01*
G01X4555734Y-2474714D01*
G01X6020562Y-1988566D02*
G01X6014466Y-1991614D01*
G01X6008116Y-1997710D01*
G01X6005068Y-2004060D01*
G01X6002020Y-2013204D01*
G01X6002020Y-2028698D01*
G01X6005068Y-2038096D01*
G01X6008116Y-2044192D01*
G01X6014466Y-2050542D01*
G01X6020562Y-2053590D01*
G01X6033008Y-2053590D01*
G01X6039104Y-2050542D01*
G01X6045454Y-2044192D01*
G01X6048502Y-2038096D01*
G01X6051550Y-2028698D01*
G01X6051550Y-2013204D01*
G01X6048502Y-2004060D01*
G01X6045454Y-1997710D01*
G01X6039104Y-1991614D01*
G01X6033008Y-1988566D01*
G01X6020562Y-1988566D01*
G01X6081776Y-1988566D02*
G01X6081776Y-2035048D01*
G01X6084824Y-2044192D01*
G01X6090920Y-2050542D01*
G01X6100318Y-2053590D01*
G01X6106414Y-2053590D01*
G01X6115812Y-2050542D01*
G01X6121908Y-2044192D01*
G01X6124956Y-2035048D01*
G01X6124956Y-1988566D01*
G01X6176772Y-1988566D02*
G01X6176772Y-2053590D01*
G01X6155182Y-1988566D02*
G01X6198362Y-1988566D01*
G01X6228588Y-2075180D02*
G01X6284214Y-2075180D01*
G01X6314440Y-1988566D02*
G01X6314440Y-2053590D01*
G01X6314440Y-1988566D02*
G01X6336030Y-1988566D01*
G01X6345174Y-1991614D01*
G01X6351524Y-1997710D01*
G01X6354572Y-2004060D01*
G01X6357620Y-2013204D01*
G01X6357620Y-2028698D01*
G01X6354572Y-2038096D01*
G01X6351524Y-2044192D01*
G01X6345174Y-2050542D01*
G01X6336030Y-2053590D01*
G01X6314440Y-2053590D01*
G01X6020562Y-2191766D02*
G01X6014466Y-2194814D01*
G01X6008116Y-2200910D01*
G01X6005068Y-2207260D01*
G01X6002020Y-2216404D01*
G01X6002020Y-2231898D01*
G01X6005068Y-2241296D01*
G01X6008116Y-2247392D01*
G01X6014466Y-2253742D01*
G01X6020562Y-2256790D01*
G01X6033008Y-2256790D01*
G01X6039104Y-2253742D01*
G01X6045454Y-2247392D01*
G01X6048502Y-2241296D01*
G01X6051550Y-2231898D01*
G01X6051550Y-2216404D01*
G01X6048502Y-2207260D01*
G01X6045454Y-2200910D01*
G01X6039104Y-2194814D01*
G01X6033008Y-2191766D01*
G01X6020562Y-2191766D01*
G01X6081776Y-2191766D02*
G01X6081776Y-2238248D01*
G01X6084824Y-2247392D01*
G01X6090920Y-2253742D01*
G01X6100318Y-2256790D01*
G01X6106414Y-2256790D01*
G01X6115812Y-2253742D01*
G01X6121908Y-2247392D01*
G01X6124956Y-2238248D01*
G01X6124956Y-2191766D01*
G01X6176772Y-2191766D02*
G01X6176772Y-2256790D01*
G01X6155182Y-2191766D02*
G01X6198362Y-2191766D01*
G01X6228588Y-2278380D02*
G01X6284214Y-2278380D01*
G01X6314440Y-2191766D02*
G01X6314440Y-2238248D01*
G01X6317488Y-2247392D01*
G01X6323584Y-2253742D01*
G01X6332982Y-2256790D01*
G01X6339078Y-2256790D01*
G01X6348476Y-2253742D01*
G01X6354572Y-2247392D01*
G01X6357620Y-2238248D01*
G01X6357620Y-2191766D01*
G01X5072634Y-4554220D02*
G01X5007610Y-4554220D01*
G01X5072634Y-4554220D02*
G01X5072634Y-4582160D01*
G01X5069586Y-4591304D01*
G01X5066538Y-4594352D01*
G01X5060188Y-4597654D01*
G01X5051044Y-4597654D01*
G01X5044948Y-4594352D01*
G01X5041646Y-4591304D01*
G01X5038598Y-4582160D01*
G01X5038598Y-4554220D01*
G01X5072634Y-4646422D02*
G01X5069586Y-4640072D01*
G01X5063490Y-4633976D01*
G01X5057140Y-4630928D01*
G01X5047996Y-4627880D01*
G01X5032502Y-4627880D01*
G01X5023104Y-4630928D01*
G01X5017008Y-4633976D01*
G01X5010658Y-4640072D01*
G01X5007610Y-4646422D01*
G01X5007610Y-4658614D01*
G01X5010658Y-4664964D01*
G01X5017008Y-4671060D01*
G01X5023104Y-4674108D01*
G01X5032502Y-4677410D01*
G01X5047996Y-4677410D01*
G01X5057140Y-4674108D01*
G01X5063490Y-4671060D01*
G01X5069586Y-4664964D01*
G01X5072634Y-4658614D01*
G01X5072634Y-4646422D01*
G01X5072634Y-4707636D02*
G01X5007610Y-4722876D01*
G01X5072634Y-4738370D02*
G01X5007610Y-4722876D01*
G01X5072634Y-4738370D02*
G01X5007610Y-4753864D01*
G01X5072634Y-4769358D02*
G01X5007610Y-4753864D01*
G01X5072634Y-4799584D02*
G01X5007610Y-4799584D01*
G01X5072634Y-4799584D02*
G01X5072634Y-4839716D01*
G01X5041646Y-4799584D02*
G01X5041646Y-4824222D01*
G01X5007610Y-4799584D02*
G01X5007610Y-4839716D01*
G01X5072634Y-4869942D02*
G01X5007610Y-4869942D01*
G01X5072634Y-4869942D02*
G01X5072634Y-4897628D01*
G01X5069586Y-4907026D01*
G01X5066538Y-4910074D01*
G01X5060188Y-4913122D01*
G01X5054092Y-4913122D01*
G01X5047996Y-4910074D01*
G01X5044948Y-4907026D01*
G01X5041646Y-4897628D01*
G01X5041646Y-4869942D01*
G01X5041646Y-4891532D02*
G01X5007610Y-4913122D01*
G01X3731260Y-4942332D02*
G01X3728212Y-4942332D01*
G01X3721862Y-4939284D01*
G01X3718814Y-4935982D01*
G01X3715766Y-4929886D01*
G01X3715766Y-4917440D01*
G01X3718814Y-4911344D01*
G01X3721862Y-4908296D01*
G01X3728212Y-4905248D01*
G01X3734308Y-4905248D01*
G01X3740404Y-4908296D01*
G01X3749802Y-4914392D01*
G01X3780790Y-4945380D01*
G01X3780790Y-4901946D01*
G01X3731260Y-4868672D02*
G01X3728212Y-4868672D01*
G01X3721862Y-4865624D01*
G01X3718814Y-4862576D01*
G01X3715766Y-4856480D01*
G01X3715766Y-4844034D01*
G01X3718814Y-4837684D01*
G01X3721862Y-4834636D01*
G01X3728212Y-4831588D01*
G01X3734308Y-4831588D01*
G01X3740404Y-4834636D01*
G01X3749802Y-4840986D01*
G01X3780790Y-4871720D01*
G01X3780790Y-4828540D01*
G01X3715766Y-4779772D02*
G01X3718814Y-4789170D01*
G01X3728212Y-4795266D01*
G01X3743452Y-4798314D01*
G01X3752850Y-4798314D01*
G01X3768344Y-4795266D01*
G01X3777742Y-4789170D01*
G01X3780790Y-4779772D01*
G01X3780790Y-4773676D01*
G01X3777742Y-4764278D01*
G01X3768344Y-4758182D01*
G01X3752850Y-4755134D01*
G01X3743452Y-4755134D01*
G01X3728212Y-4758182D01*
G01X3718814Y-4764278D01*
G01X3715766Y-4773676D01*
G01X3715766Y-4779772D01*
G01X3715766Y-4706366D02*
G01X3718814Y-4715764D01*
G01X3728212Y-4721860D01*
G01X3743452Y-4724908D01*
G01X3752850Y-4724908D01*
G01X3768344Y-4721860D01*
G01X3777742Y-4715764D01*
G01X3780790Y-4706366D01*
G01X3780790Y-4700270D01*
G01X3777742Y-4690872D01*
G01X3768344Y-4684776D01*
G01X3752850Y-4681728D01*
G01X3743452Y-4681728D01*
G01X3728212Y-4684776D01*
G01X3718814Y-4690872D01*
G01X3715766Y-4700270D01*
G01X3715766Y-4706366D01*
G01X3737356Y-4651502D02*
G01X3768344Y-4651502D01*
G01X3777742Y-4648454D01*
G01X3780790Y-4642358D01*
G01X3780790Y-4632960D01*
G01X3777742Y-4626864D01*
G01X3768344Y-4617466D01*
G01X3737356Y-4617466D02*
G01X3780790Y-4617466D01*
G01X3715766Y-4587240D02*
G01X3780790Y-4587240D01*
G01X3715766Y-4587240D02*
G01X3715766Y-4547108D01*
G01X3746754Y-4587240D02*
G01X3746754Y-4562602D01*
G04 Text End*

G04 PolygonModel Start*
G54D12*
G01X27402Y-4089400D02*
G01X277401Y-4089400D01*
G01X277401Y-4368396D02*
G01X277401Y-508404D01*
G01X27402Y-4368396D02*
G01X277401Y-4368396D01*
G01X27402Y-508404D02*
G01X27402Y-4368396D01*
G01X277401Y-508404D02*
G01X27402Y-508404D01*
G01X2313402Y-4089400D02*
G01X2563401Y-4089400D01*
G01X2563401Y-4368396D02*
G01X2563401Y-508404D01*
G01X2313402Y-4368396D02*
G01X2563401Y-4368396D01*
G01X2313402Y-508404D02*
G01X2313402Y-4368396D01*
G01X2563401Y-508404D02*
G01X2313402Y-508404D01*
G01X4087622Y-15994D02*
G01X4307611Y-15994D01*
G01X3667813Y-15994D02*
G01X3887803Y-15994D01*
G01X4307789Y-2015988D02*
G01X4307789Y-15994D01*
G01X3667813Y-2015988D02*
G01X3667813Y-15994D01*
G01X3667813Y-2015988D02*
G01X4307789Y-2015988D01*
G01X4087800Y-15994D02*
G02X3887803Y-20996I-99999J-2501D01*
G01X4087622Y-2124194D02*
G01X4307611Y-2124194D01*
G01X3667813Y-2124194D02*
G01X3887803Y-2124194D01*
G01X4307789Y-4124188D02*
G01X4307789Y-2124194D01*
G01X3667813Y-4124188D02*
G01X3667813Y-2124194D01*
G01X3667813Y-4124188D02*
G01X4307789Y-4124188D01*
G01X4087800Y-2124194D02*
G02X3887803Y-2129196I-99999J-2501D01*
G01X5775597Y-84010D02*
G01X6535600Y-84010D01*
G01X6585600Y-1865864D02*
G01X6585600Y-166101D01*
G01X5775599Y-1948843D02*
G01X6535600Y-1948843D01*
G01X5435600Y0D02*
G01X5775599Y0D01*
G01X5775599Y0D02*
G01X5775599Y-2032000D01*
G01X5775599Y-2032000D02*
G01X5435600Y-2032000D01*
G01X6535600Y-84010D02*
G01X6535600Y-172136D01*
G01X6349368Y-334251D02*
G01X6349368Y-172867D01*
G01X6298568Y-334251D02*
G01X6298568Y-172867D01*
G01X6128022Y-334251D02*
G01X6128022Y-172867D01*
G01X6077222Y-334251D02*
G01X6077222Y-172867D01*
G01X5775597Y-172867D02*
G01X6535600Y-172867D01*
G01X6535600Y-127884D02*
G01X6546162Y-127884D01*
G01X6546162Y-127884D02*
G01X6585600Y-167317D01*
G01X5435600Y-13886D02*
G01X5435600Y0D01*
G01X6535600Y-379712D02*
G01X6585600Y-379712D01*
G01X5775597Y-338010D02*
G01X6535600Y-338010D01*
G01X5775597Y-426867D02*
G01X6535600Y-426867D01*
G01X6535600Y-427195D02*
G01X6535600Y-339070D01*
G01X5435600Y-267886D02*
G01X5435600Y-240114D01*
G01X5775599Y-1859986D02*
G01X6535600Y-1859986D01*
G01X6353000Y-592808D02*
G01X6353000Y-427192D01*
G01X6300384Y-592808D02*
G01X6300384Y-427192D01*
G01X6349365Y-843049D02*
G01X6349365Y-681665D01*
G01X6298565Y-843049D02*
G01X6298565Y-681665D01*
G01X6349365Y-1097049D02*
G01X6349365Y-931906D01*
G01X6296757Y-1097049D02*
G01X6296757Y-931906D01*
G01X6345738Y-1352928D02*
G01X6345738Y-1185906D01*
G01X6298565Y-1352928D02*
G01X6298565Y-1185906D01*
G01X6343922Y-1608808D02*
G01X6343922Y-1441785D01*
G01X6296757Y-1608808D02*
G01X6296757Y-1441785D01*
G01X6343922Y-1859986D02*
G01X6343922Y-1697665D01*
G01X6296757Y-1859986D02*
G01X6296757Y-1697665D01*
G01X6131654Y-592808D02*
G01X6131654Y-427195D01*
G01X6079038Y-592808D02*
G01X6079038Y-427195D01*
G01X6128024Y-843046D02*
G01X6128024Y-681665D01*
G01X6077224Y-843046D02*
G01X6077224Y-681665D01*
G01X6128024Y-1097046D02*
G01X6128024Y-931903D01*
G01X6075411Y-1097046D02*
G01X6075411Y-931903D01*
G01X6124395Y-1352928D02*
G01X6124395Y-1185903D01*
G01X6077224Y-1352928D02*
G01X6077224Y-1185903D01*
G01X6122581Y-1608808D02*
G01X6122581Y-1441785D01*
G01X6075411Y-1608808D02*
G01X6075411Y-1441785D01*
G01X6122581Y-1859986D02*
G01X6122581Y-1697665D01*
G01X6075411Y-1859986D02*
G01X6075411Y-1697665D01*
G01X6535600Y-632699D02*
G01X6585600Y-632699D01*
G01X6535600Y-886699D02*
G01X6585600Y-886699D01*
G01X6535600Y-1142512D02*
G01X6585600Y-1142512D01*
G01X6535600Y-1392885D02*
G01X6585600Y-1392885D01*
G01X6535600Y-1650512D02*
G01X6585600Y-1650512D01*
G01X5775597Y-592808D02*
G01X6535600Y-592808D01*
G01X5775597Y-681665D02*
G01X6535600Y-681665D01*
G01X6535600Y-681993D02*
G01X6535600Y-593867D01*
G01X5775597Y-843046D02*
G01X6535600Y-843046D01*
G01X5775597Y-931903D02*
G01X6535600Y-931903D01*
G01X6535600Y-932231D02*
G01X6535600Y-844105D01*
G01X5775597Y-1097046D02*
G01X6535600Y-1097046D01*
G01X5775597Y-1185903D02*
G01X6535600Y-1185903D01*
G01X6535600Y-1186231D02*
G01X6535600Y-1098105D01*
G01X5775597Y-1352928D02*
G01X6535600Y-1352928D01*
G01X5775597Y-1441785D02*
G01X6535600Y-1441785D01*
G01X6535600Y-1442113D02*
G01X6535600Y-1353988D01*
G01X5775597Y-1608808D02*
G01X6535600Y-1608808D01*
G01X5775597Y-1697665D02*
G01X6535600Y-1697665D01*
G01X6535600Y-1697993D02*
G01X6535600Y-1609867D01*
G01X6535600Y-1905300D02*
G01X6546164Y-1905300D01*
G01X6546164Y-1905300D02*
G01X6585600Y-1865864D01*
G01X6535600Y-1949171D02*
G01X6535600Y-1861045D01*
G01X5435600Y-521886D02*
G01X5435600Y-494114D01*
G01X5435600Y-775886D02*
G01X5435600Y-748114D01*
G01X5435600Y-1029886D02*
G01X5435600Y-1002114D01*
G01X5435600Y-1283886D02*
G01X5435600Y-1256114D01*
G01X5435600Y-1537886D02*
G01X5435600Y-1510114D01*
G01X5435600Y-1791886D02*
G01X5435600Y-1764114D01*
G01X5435600Y-2032000D02*
G01X5435600Y-2018114D01*
G01X5775597Y-2319210D02*
G01X6535600Y-2319210D01*
G01X6585600Y-4101064D02*
G01X6585600Y-2401301D01*
G01X5775599Y-4184043D02*
G01X6535600Y-4184043D01*
G01X5435600Y-2235200D02*
G01X5775599Y-2235200D01*
G01X5775599Y-2235200D02*
G01X5775599Y-4267200D01*
G01X5775599Y-4267200D02*
G01X5435600Y-4267200D01*
G01X6535600Y-2319210D02*
G01X6535600Y-2407336D01*
G01X6349368Y-2569451D02*
G01X6349368Y-2408067D01*
G01X6298568Y-2569451D02*
G01X6298568Y-2408067D01*
G01X6128022Y-2569451D02*
G01X6128022Y-2408067D01*
G01X6077222Y-2569451D02*
G01X6077222Y-2408067D01*
G01X5775597Y-2408067D02*
G01X6535600Y-2408067D01*
G01X6535600Y-2363084D02*
G01X6546162Y-2363084D01*
G01X6546162Y-2363084D02*
G01X6585600Y-2402517D01*
G01X5435600Y-2249086D02*
G01X5435600Y-2235200D01*
G01X6535600Y-2614912D02*
G01X6585600Y-2614912D01*
G01X5775597Y-2573210D02*
G01X6535600Y-2573210D01*
G01X5775597Y-2662067D02*
G01X6535600Y-2662067D01*
G01X6535600Y-2662395D02*
G01X6535600Y-2574270D01*
G01X5435600Y-2503086D02*
G01X5435600Y-2475314D01*
G01X5775599Y-4095186D02*
G01X6535600Y-4095186D01*
G01X6353000Y-2828008D02*
G01X6353000Y-2662392D01*
G01X6300384Y-2828008D02*
G01X6300384Y-2662392D01*
G01X6349365Y-3078249D02*
G01X6349365Y-2916865D01*
G01X6298565Y-3078249D02*
G01X6298565Y-2916865D01*
G01X6349365Y-3332249D02*
G01X6349365Y-3167106D01*
G01X6296757Y-3332249D02*
G01X6296757Y-3167106D01*
G01X6345738Y-3588128D02*
G01X6345738Y-3421106D01*
G01X6298565Y-3588128D02*
G01X6298565Y-3421106D01*
G01X6343922Y-3844008D02*
G01X6343922Y-3676985D01*
G01X6296757Y-3844008D02*
G01X6296757Y-3676985D01*
G01X6343922Y-4095186D02*
G01X6343922Y-3932865D01*
G01X6296757Y-4095186D02*
G01X6296757Y-3932865D01*
G01X6131654Y-2828008D02*
G01X6131654Y-2662395D01*
G01X6079038Y-2828008D02*
G01X6079038Y-2662395D01*
G01X6128024Y-3078246D02*
G01X6128024Y-2916865D01*
G01X6077224Y-3078246D02*
G01X6077224Y-2916865D01*
G01X6128024Y-3332246D02*
G01X6128024Y-3167103D01*
G01X6075411Y-3332246D02*
G01X6075411Y-3167103D01*
G01X6124395Y-3588128D02*
G01X6124395Y-3421103D01*
G01X6077224Y-3588128D02*
G01X6077224Y-3421103D01*
G01X6122581Y-3844008D02*
G01X6122581Y-3676985D01*
G01X6075411Y-3844008D02*
G01X6075411Y-3676985D01*
G01X6122581Y-4095186D02*
G01X6122581Y-3932865D01*
G01X6075411Y-4095186D02*
G01X6075411Y-3932865D01*
G01X6535600Y-2867899D02*
G01X6585600Y-2867899D01*
G01X6535600Y-3121899D02*
G01X6585600Y-3121899D01*
G01X6535600Y-3377712D02*
G01X6585600Y-3377712D01*
G01X6535600Y-3628085D02*
G01X6585600Y-3628085D01*
G01X6535600Y-3885712D02*
G01X6585600Y-3885712D01*
G01X5775597Y-2828008D02*
G01X6535600Y-2828008D01*
G01X5775597Y-2916865D02*
G01X6535600Y-2916865D01*
G01X6535600Y-2917193D02*
G01X6535600Y-2829067D01*
G01X5775597Y-3078246D02*
G01X6535600Y-3078246D01*
G01X5775597Y-3167103D02*
G01X6535600Y-3167103D01*
G01X6535600Y-3167431D02*
G01X6535600Y-3079305D01*
G01X5775597Y-3332246D02*
G01X6535600Y-3332246D01*
G01X5775597Y-3421103D02*
G01X6535600Y-3421103D01*
G01X6535600Y-3421431D02*
G01X6535600Y-3333305D01*
G01X5775597Y-3588128D02*
G01X6535600Y-3588128D01*
G01X5775597Y-3676985D02*
G01X6535600Y-3676985D01*
G01X6535600Y-3677313D02*
G01X6535600Y-3589188D01*
G01X5775597Y-3844008D02*
G01X6535600Y-3844008D01*
G01X5775597Y-3932865D02*
G01X6535600Y-3932865D01*
G01X6535600Y-3933193D02*
G01X6535600Y-3845067D01*
G01X6535600Y-4140500D02*
G01X6546164Y-4140500D01*
G01X6546164Y-4140500D02*
G01X6585600Y-4101064D01*
G01X6535600Y-4184371D02*
G01X6535600Y-4096245D01*
G01X5435600Y-2757086D02*
G01X5435600Y-2729314D01*
G01X5435600Y-3011086D02*
G01X5435600Y-2983314D01*
G01X5435600Y-3265086D02*
G01X5435600Y-3237314D01*
G01X5435600Y-3519086D02*
G01X5435600Y-3491314D01*
G01X5435600Y-3773086D02*
G01X5435600Y-3745314D01*
G01X5435600Y-4027086D02*
G01X5435600Y-3999314D01*
G01X5435600Y-4267200D02*
G01X5435600Y-4253314D01*
G01X5749544Y-4446400D02*
G01X5121600Y-4446400D01*
G01X5749544Y-5002400D02*
G01X5121600Y-5002400D01*
G01X5749544Y-5002400D02*
G01X5749544Y-4446400D01*
G01X5291346Y-5002400D02*
G01X5291346Y-4446400D01*
G01X5575112Y-5002400D02*
G01X5575112Y-4446400D01*
G01X5121600Y-5002400D02*
G01X5121600Y-4446400D01*
G01X5740400Y-4540250D02*
G01X5740400Y-4660900D01*
G01X5676900Y-4660900D01*
G01X5676900Y-4540250D01*
G01X5740400Y-4540250D01*
G01X5740400Y-4781550D02*
G01X5740400Y-4902200D01*
G01X5676900Y-4902200D01*
G01X5676900Y-4781550D01*
G01X5740400Y-4781550D01*
G01X3987800Y-5181600D02*
G01X3987800Y-5080000D01*
G01X3911600Y-5130800D02*
G01X4064000Y-5130800D01*
G36*
G01X3632200Y-4368800D02*
G01X4343400Y-4368800D01*
G01X4241800Y-4292600D01*
G01X4089400Y-4241800D01*
G01X3937000Y-4216400D01*
G01X3835400Y-4241800D01*
G01X3632200Y-4368800D01*
G37*

G04 Circle Start*
G01X3487801Y-4724400D02*
G03X4487799Y-4724400I499999J0D01*
G03X3487801Y-4724400I-499999J0D01*
G04 Circle End*

M02*

