M48
; DRILL file {KiCad 9.0.1} date 2025-05-07T23:59:27-0300
; FORMAT={-:-/ absolute / metric / decimal}
; #@! TF.CreationDate,2025-05-07T23:59:27-03:00
; #@! TF.GenerationSoftware,Kicad,Pcbnew,9.0.1
; #@! TF.FileFunction,Plated,1,2,PTH
FMAT,2
METRIC
; #@! TA.AperFunction,Plated,PTH,ComponentDrill
T1C0.950
; #@! TA.AperFunction,Plated,PTH,ComponentDrill
T2C1.100
%
G90
G05
T1
X33.02Y-31.155
X33.02Y-33.655
X33.02Y-36.155
X33.02Y-38.655
X33.02Y-41.155
X33.02Y-43.655
X33.02Y-46.155
X33.02Y-48.655
X33.02Y-56.555
X33.02Y-59.055
X33.02Y-61.555
X33.02Y-64.055
X33.02Y-66.555
X33.02Y-69.055
X33.02Y-71.555
X33.02Y-74.055
T2
X46.99Y-32.29
X46.99Y-39.37
X46.99Y-46.355
X46.99Y-53.34
X46.99Y-60.96
X46.99Y-67.945
X46.99Y-75.24
X49.53Y-32.29
X49.53Y-39.37
X49.53Y-46.355
X49.53Y-53.34
X49.53Y-60.96
X49.53Y-67.945
X49.53Y-75.24
X52.07Y-32.29
X52.07Y-39.37
X52.07Y-46.355
X52.07Y-53.34
X52.07Y-60.96
X52.07Y-67.945
X52.07Y-75.24
X60.96Y-30.48
X60.96Y-37.465
X60.96Y-44.45
X60.96Y-51.435
X60.96Y-59.055
X60.96Y-66.04
X60.96Y-73.025
X63.5Y-30.48
X63.5Y-37.465
X63.5Y-44.45
X63.5Y-51.435
X63.5Y-59.055
X63.5Y-66.04
X63.5Y-73.025
X66.04Y-30.48
X66.04Y-37.465
X66.04Y-44.45
X66.04Y-51.435
X66.04Y-59.055
X66.04Y-66.04
X66.04Y-73.025
X81.28Y-31.115
X81.28Y-33.655
X81.28Y-36.195
X81.28Y-38.735
X81.28Y-41.275
X81.28Y-43.815
X81.28Y-46.355
X81.28Y-57.15
X81.28Y-59.69
X81.28Y-62.23
X81.28Y-64.77
X81.28Y-67.31
X81.28Y-69.85
X81.28Y-72.39
X81.28Y-74.93
M30
