%TF.GenerationSoftware,KiCad,Pcbnew,9.0.1*%
%TF.CreationDate,2025-05-07T23:59:22-03:00*%
%TF.ProjectId,Display,44697370-6c61-4792-9e6b-696361645f70,rev?*%
%TF.SameCoordinates,Original*%
%TF.FileFunction,Copper,L2,Bot*%
%TF.FilePolarity,Positive*%
%FSLAX46Y46*%
G04 Gerber Fmt 4.6, Leading zero omitted, Abs format (unit mm)*
G04 Created by KiCad (PCBNEW 9.0.1) date 2025-05-07 23:59:22*
%MOMM*%
%LPD*%
G01*
G04 APERTURE LIST*
G04 Aperture macros list*
%AMRoundRect*
0 Rectangle with rounded corners*
0 $1 Rounding radius*
0 $2 $3 $4 $5 $6 $7 $8 $9 X,Y pos of 4 corners*
0 Add a 4 corners polygon primitive as box body*
4,1,4,$2,$3,$4,$5,$6,$7,$8,$9,$2,$3,0*
0 Add four circle primitives for the rounded corners*
1,1,$1+$1,$2,$3*
1,1,$1+$1,$4,$5*
1,1,$1+$1,$6,$7*
1,1,$1+$1,$8,$9*
0 Add four rect primitives between the rounded corners*
20,1,$1+$1,$2,$3,$4,$5,0*
20,1,$1+$1,$4,$5,$6,$7,0*
20,1,$1+$1,$6,$7,$8,$9,0*
20,1,$1+$1,$8,$9,$2,$3,0*%
G04 Aperture macros list end*
%TA.AperFunction,ComponentPad*%
%ADD10R,1.905000X2.000000*%
%TD*%
%TA.AperFunction,ComponentPad*%
%ADD11O,1.905000X2.000000*%
%TD*%
%TA.AperFunction,ComponentPad*%
%ADD12RoundRect,0.250000X0.725000X-0.600000X0.725000X0.600000X-0.725000X0.600000X-0.725000X-0.600000X0*%
%TD*%
%TA.AperFunction,ComponentPad*%
%ADD13O,1.950000X1.700000*%
%TD*%
%TA.AperFunction,ComponentPad*%
%ADD14RoundRect,0.249999X0.850001X-0.850001X0.850001X0.850001X-0.850001X0.850001X-0.850001X-0.850001X0*%
%TD*%
%TA.AperFunction,ComponentPad*%
%ADD15C,2.200000*%
%TD*%
%TA.AperFunction,Conductor*%
%ADD16C,1.000000*%
%TD*%
%TA.AperFunction,Conductor*%
%ADD17C,0.200000*%
%TD*%
G04 APERTURE END LIST*
D10*
%TO.P,Q7,1,B*%
%TO.N,f_D_in*%
X46990000Y-53340000D03*
D11*
%TO.P,Q7,2,C*%
%TO.N,f_D_out*%
X49530000Y-53340000D03*
%TO.P,Q7,3,E*%
%TO.N,GND*%
X52070000Y-53340000D03*
%TD*%
D10*
%TO.P,Q10,1,B*%
%TO.N,b_U_in*%
X46990000Y-67945000D03*
D11*
%TO.P,Q10,2,C*%
%TO.N,b_U_out*%
X49530000Y-67945000D03*
%TO.P,Q10,3,E*%
%TO.N,GND*%
X52070000Y-67945000D03*
%TD*%
D10*
%TO.P,Q8,1,B*%
%TO.N,g_D_in*%
X66040000Y-44450000D03*
D11*
%TO.P,Q8,2,C*%
%TO.N,g_D_out*%
X63500000Y-44450000D03*
%TO.P,Q8,3,E*%
%TO.N,GND*%
X60960000Y-44450000D03*
%TD*%
D10*
%TO.P,Q12,1,B*%
%TO.N,d_U_in*%
X46990000Y-60960000D03*
D11*
%TO.P,Q12,2,C*%
%TO.N,d_U_out*%
X49530000Y-60960000D03*
%TO.P,Q12,3,E*%
%TO.N,GND*%
X52070000Y-60960000D03*
%TD*%
D10*
%TO.P,Q2,1,B*%
%TO.N,a_D_in*%
X46990000Y-46355000D03*
D11*
%TO.P,Q2,2,C*%
%TO.N,a_D_out*%
X49530000Y-46355000D03*
%TO.P,Q2,3,E*%
%TO.N,GND*%
X52070000Y-46355000D03*
%TD*%
D12*
%TO.P,J5,1,Pin_1*%
%TO.N,f_U_in*%
X33020000Y-74055000D03*
D13*
%TO.P,J5,2,Pin_2*%
%TO.N,g_U_in*%
X33020000Y-71555000D03*
%TO.P,J5,3,Pin_3*%
%TO.N,a_U_in*%
X33020000Y-69055000D03*
%TO.P,J5,4,Pin_4*%
%TO.N,b_U_in*%
X33020000Y-66555000D03*
%TO.P,J5,5,Pin_5*%
%TO.N,c_U_in*%
X33020000Y-64055000D03*
%TO.P,J5,6,Pin_6*%
%TO.N,d_U_in*%
X33020000Y-61555000D03*
%TO.P,J5,7,Pin_7*%
%TO.N,e_U_in*%
X33020000Y-59055000D03*
%TO.P,J5,8,Pin_8*%
%TO.N,+12V*%
X33020000Y-56555000D03*
%TD*%
D10*
%TO.P,Q9,1,B*%
%TO.N,a_U_in*%
X66040000Y-66040000D03*
D11*
%TO.P,Q9,2,C*%
%TO.N,a_U_out*%
X63500000Y-66040000D03*
%TO.P,Q9,3,E*%
%TO.N,GND*%
X60960000Y-66040000D03*
%TD*%
D14*
%TO.P,J6,1,Pin_1*%
%TO.N,+12V*%
X81280000Y-74930000D03*
D15*
%TO.P,J6,2,Pin_2*%
%TO.N,f_U_out*%
X81280000Y-72390000D03*
%TO.P,J6,3,Pin_3*%
%TO.N,g_U_out*%
X81280000Y-69850000D03*
%TO.P,J6,4,Pin_4*%
%TO.N,a_U_out*%
X81280000Y-67310000D03*
%TO.P,J6,5,Pin_5*%
%TO.N,b_U_out*%
X81280000Y-64770000D03*
%TO.P,J6,6,Pin_6*%
%TO.N,c_U_out*%
X81280000Y-62230000D03*
%TO.P,J6,7,Pin_7*%
%TO.N,d_U_out*%
X81280000Y-59690000D03*
%TO.P,J6,8,Pin_8*%
%TO.N,e_U_out*%
X81280000Y-57150000D03*
%TD*%
D10*
%TO.P,Q4,1,B*%
%TO.N,c_D_in*%
X46990000Y-39370000D03*
D11*
%TO.P,Q4,2,C*%
%TO.N,c_D_out*%
X49530000Y-39370000D03*
%TO.P,Q4,3,E*%
%TO.N,GND*%
X52070000Y-39370000D03*
%TD*%
D10*
%TO.P,Q3,1,B*%
%TO.N,b_D_in*%
X66040000Y-37465000D03*
D11*
%TO.P,Q3,2,C*%
%TO.N,b_D_out*%
X63500000Y-37465000D03*
%TO.P,Q3,3,E*%
%TO.N,GND*%
X60960000Y-37465000D03*
%TD*%
D10*
%TO.P,Q11,1,B*%
%TO.N,c_U_in*%
X66040000Y-59055000D03*
D11*
%TO.P,Q11,2,C*%
%TO.N,c_U_out*%
X63500000Y-59055000D03*
%TO.P,Q11,3,E*%
%TO.N,GND*%
X60960000Y-59055000D03*
%TD*%
D10*
%TO.P,Q6,1,B*%
%TO.N,e_D_in*%
X46990000Y-32290236D03*
D11*
%TO.P,Q6,2,C*%
%TO.N,e_D_out*%
X49530000Y-32290236D03*
%TO.P,Q6,3,E*%
%TO.N,GND*%
X52070000Y-32290236D03*
%TD*%
D14*
%TO.P,J1,1,Pin_1*%
%TO.N,f_D_out*%
X81280000Y-46355000D03*
D15*
%TO.P,J1,2,Pin_2*%
%TO.N,g_D_out*%
X81280000Y-43815000D03*
%TO.P,J1,3,Pin_3*%
%TO.N,a_D_out*%
X81280000Y-41275000D03*
%TO.P,J1,4,Pin_4*%
%TO.N,b_D_out*%
X81280000Y-38735000D03*
%TO.P,J1,5,Pin_5*%
%TO.N,c_D_out*%
X81280000Y-36195000D03*
%TO.P,J1,6,Pin_6*%
%TO.N,d_D_out*%
X81280000Y-33655000D03*
%TO.P,J1,7,Pin_7*%
%TO.N,e_D_out*%
X81280000Y-31115000D03*
%TD*%
D10*
%TO.P,Q5,1,B*%
%TO.N,d_D_in*%
X66040000Y-30480000D03*
D11*
%TO.P,Q5,2,C*%
%TO.N,d_D_out*%
X63500000Y-30480000D03*
%TO.P,Q5,3,E*%
%TO.N,GND*%
X60960000Y-30480000D03*
%TD*%
D10*
%TO.P,Q15,1,B*%
%TO.N,g_U_in*%
X46990000Y-75240000D03*
D11*
%TO.P,Q15,2,C*%
%TO.N,g_U_out*%
X49530000Y-75240000D03*
%TO.P,Q15,3,E*%
%TO.N,GND*%
X52070000Y-75240000D03*
%TD*%
D10*
%TO.P,Q13,1,B*%
%TO.N,e_U_in*%
X66040000Y-51435000D03*
D11*
%TO.P,Q13,2,C*%
%TO.N,e_U_out*%
X63500000Y-51435000D03*
%TO.P,Q13,3,E*%
%TO.N,GND*%
X60960000Y-51435000D03*
%TD*%
D12*
%TO.P,J4,1,Pin_1*%
%TO.N,f_D_in*%
X33020000Y-48655000D03*
D13*
%TO.P,J4,2,Pin_2*%
%TO.N,g_D_in*%
X33020000Y-46155000D03*
%TO.P,J4,3,Pin_3*%
%TO.N,a_D_in*%
X33020000Y-43655000D03*
%TO.P,J4,4,Pin_4*%
%TO.N,b_D_in*%
X33020000Y-41155000D03*
%TO.P,J4,5,Pin_5*%
%TO.N,c_D_in*%
X33020000Y-38655000D03*
%TO.P,J4,6,Pin_6*%
%TO.N,d_D_in*%
X33020000Y-36155000D03*
%TO.P,J4,7,Pin_7*%
%TO.N,e_D_in*%
X33020000Y-33655000D03*
%TO.P,J4,8,Pin_8*%
%TO.N,GND*%
X33020000Y-31155000D03*
%TD*%
D10*
%TO.P,Q14,1,B*%
%TO.N,f_U_in*%
X66040000Y-73025000D03*
D11*
%TO.P,Q14,2,C*%
%TO.N,f_U_out*%
X63500000Y-73025000D03*
%TO.P,Q14,3,E*%
%TO.N,GND*%
X60960000Y-73025000D03*
%TD*%
D16*
%TO.N,GND*%
X35600000Y-28575000D02*
X33020000Y-31155000D01*
X53880236Y-30480000D02*
X51975236Y-28575000D01*
X60960000Y-30480000D02*
X53880236Y-30480000D01*
X52070000Y-75240000D02*
X52070000Y-32290236D01*
D17*
X33020000Y-31155000D02*
X33185764Y-30989236D01*
D16*
X51975236Y-28575000D02*
X35600000Y-28575000D01*
X60960000Y-30480000D02*
X60960000Y-73025000D01*
X53880236Y-30480000D02*
X52070000Y-32290236D01*
%TO.N,+12V*%
X81280000Y-74930000D02*
X78105000Y-78105000D01*
X36203395Y-78105000D02*
X34995000Y-76896605D01*
X34995000Y-76896605D02*
X34995000Y-58530000D01*
X34995000Y-58530000D02*
X33020000Y-56555000D01*
X78105000Y-78105000D02*
X36203395Y-78105000D01*
%TD*%
M02*
