%TF.GenerationSoftware,KiCad,Pcbnew,9.0.1*%
%TF.CreationDate,2025-05-07T23:59:22-03:00*%
%TF.ProjectId,Display,44697370-6c61-4792-9e6b-696361645f70,rev?*%
%TF.SameCoordinates,Original*%
%TF.FileFunction,Soldermask,Bot*%
%TF.FilePolarity,Negative*%
%FSLAX46Y46*%
G04 Gerber Fmt 4.6, Leading zero omitted, Abs format (unit mm)*
G04 Created by KiCad (PCBNEW 9.0.1) date 2025-05-07 23:59:22*
%MOMM*%
%LPD*%
G01*
G04 APERTURE LIST*
G04 Aperture macros list*
%AMRoundRect*
0 Rectangle with rounded corners*
0 $1 Rounding radius*
0 $2 $3 $4 $5 $6 $7 $8 $9 X,Y pos of 4 corners*
0 Add a 4 corners polygon primitive as box body*
4,1,4,$2,$3,$4,$5,$6,$7,$8,$9,$2,$3,0*
0 Add four circle primitives for the rounded corners*
1,1,$1+$1,$2,$3*
1,1,$1+$1,$4,$5*
1,1,$1+$1,$6,$7*
1,1,$1+$1,$8,$9*
0 Add four rect primitives between the rounded corners*
20,1,$1+$1,$2,$3,$4,$5,0*
20,1,$1+$1,$4,$5,$6,$7,0*
20,1,$1+$1,$6,$7,$8,$9,0*
20,1,$1+$1,$8,$9,$2,$3,0*%
G04 Aperture macros list end*
%ADD10R,1.905000X2.000000*%
%ADD11O,1.905000X2.000000*%
%ADD12C,3.000000*%
%ADD13RoundRect,0.250000X0.725000X-0.600000X0.725000X0.600000X-0.725000X0.600000X-0.725000X-0.600000X0*%
%ADD14O,1.950000X1.700000*%
%ADD15RoundRect,0.249999X0.850001X-0.850001X0.850001X0.850001X-0.850001X0.850001X-0.850001X-0.850001X0*%
%ADD16C,2.200000*%
G04 APERTURE END LIST*
D10*
%TO.C,Q7*%
X46990000Y-53340000D03*
D11*
X49530000Y-53340000D03*
X52070000Y-53340000D03*
%TD*%
D10*
%TO.C,Q10*%
X46990000Y-67945000D03*
D11*
X49530000Y-67945000D03*
X52070000Y-67945000D03*
%TD*%
D12*
%TO.C,H4*%
X40640000Y-74295000D03*
%TD*%
%TO.C,H2*%
X73025000Y-74295000D03*
%TD*%
D10*
%TO.C,Q8*%
X66040000Y-44450000D03*
D11*
X63500000Y-44450000D03*
X60960000Y-44450000D03*
%TD*%
D12*
%TO.C,H1*%
X73025000Y-32385000D03*
%TD*%
D10*
%TO.C,Q12*%
X46990000Y-60960000D03*
D11*
X49530000Y-60960000D03*
X52070000Y-60960000D03*
%TD*%
D10*
%TO.C,Q2*%
X46990000Y-46355000D03*
D11*
X49530000Y-46355000D03*
X52070000Y-46355000D03*
%TD*%
D13*
%TO.C,J5*%
X33020000Y-74055000D03*
D14*
X33020000Y-71555000D03*
X33020000Y-69055000D03*
X33020000Y-66555000D03*
X33020000Y-64055000D03*
X33020000Y-61555000D03*
X33020000Y-59055000D03*
X33020000Y-56555000D03*
%TD*%
D10*
%TO.C,Q9*%
X66040000Y-66040000D03*
D11*
X63500000Y-66040000D03*
X60960000Y-66040000D03*
%TD*%
D15*
%TO.C,J6*%
X81280000Y-74930000D03*
D16*
X81280000Y-72390000D03*
X81280000Y-69850000D03*
X81280000Y-67310000D03*
X81280000Y-64770000D03*
X81280000Y-62230000D03*
X81280000Y-59690000D03*
X81280000Y-57150000D03*
%TD*%
D10*
%TO.C,Q4*%
X46990000Y-39370000D03*
D11*
X49530000Y-39370000D03*
X52070000Y-39370000D03*
%TD*%
D10*
%TO.C,Q3*%
X66040000Y-37465000D03*
D11*
X63500000Y-37465000D03*
X60960000Y-37465000D03*
%TD*%
D10*
%TO.C,Q11*%
X66040000Y-59055000D03*
D11*
X63500000Y-59055000D03*
X60960000Y-59055000D03*
%TD*%
D10*
%TO.C,Q6*%
X46990000Y-32290236D03*
D11*
X49530000Y-32290236D03*
X52070000Y-32290236D03*
%TD*%
D15*
%TO.C,J1*%
X81280000Y-46355000D03*
D16*
X81280000Y-43815000D03*
X81280000Y-41275000D03*
X81280000Y-38735000D03*
X81280000Y-36195000D03*
X81280000Y-33655000D03*
X81280000Y-31115000D03*
%TD*%
D12*
%TO.C,H3*%
X40640000Y-32385000D03*
%TD*%
D10*
%TO.C,Q5*%
X66040000Y-30480000D03*
D11*
X63500000Y-30480000D03*
X60960000Y-30480000D03*
%TD*%
D10*
%TO.C,Q15*%
X46990000Y-75240000D03*
D11*
X49530000Y-75240000D03*
X52070000Y-75240000D03*
%TD*%
D10*
%TO.C,Q13*%
X66040000Y-51435000D03*
D11*
X63500000Y-51435000D03*
X60960000Y-51435000D03*
%TD*%
D13*
%TO.C,J4*%
X33020000Y-48655000D03*
D14*
X33020000Y-46155000D03*
X33020000Y-43655000D03*
X33020000Y-41155000D03*
X33020000Y-38655000D03*
X33020000Y-36155000D03*
X33020000Y-33655000D03*
X33020000Y-31155000D03*
%TD*%
D10*
%TO.C,Q14*%
X66040000Y-73025000D03*
D11*
X63500000Y-73025000D03*
X60960000Y-73025000D03*
%TD*%
M02*
