%TF.GenerationSoftware,KiCad,Pcbnew,9.0.1*%
%TF.CreationDate,2025-05-07T23:59:22-03:00*%
%TF.ProjectId,Display,44697370-6c61-4792-9e6b-696361645f70,rev?*%
%TF.SameCoordinates,Original*%
%TF.FileFunction,Legend,Bot*%
%TF.FilePolarity,Positive*%
%FSLAX46Y46*%
G04 Gerber Fmt 4.6, Leading zero omitted, Abs format (unit mm)*
G04 Created by KiCad (PCBNEW 9.0.1) date 2025-05-07 23:59:22*
%MOMM*%
%LPD*%
G01*
G04 APERTURE LIST*
G04 Aperture macros list*
%AMRoundRect*
0 Rectangle with rounded corners*
0 $1 Rounding radius*
0 $2 $3 $4 $5 $6 $7 $8 $9 X,Y pos of 4 corners*
0 Add a 4 corners polygon primitive as box body*
4,1,4,$2,$3,$4,$5,$6,$7,$8,$9,$2,$3,0*
0 Add four circle primitives for the rounded corners*
1,1,$1+$1,$2,$3*
1,1,$1+$1,$4,$5*
1,1,$1+$1,$6,$7*
1,1,$1+$1,$8,$9*
0 Add four rect primitives between the rounded corners*
20,1,$1+$1,$2,$3,$4,$5,0*
20,1,$1+$1,$4,$5,$6,$7,0*
20,1,$1+$1,$6,$7,$8,$9,0*
20,1,$1+$1,$8,$9,$2,$3,0*%
G04 Aperture macros list end*
%ADD10C,0.100000*%
%ADD11C,0.000000*%
%ADD12R,1.905000X2.000000*%
%ADD13O,1.905000X2.000000*%
%ADD14C,3.000000*%
%ADD15RoundRect,0.250000X0.725000X-0.600000X0.725000X0.600000X-0.725000X0.600000X-0.725000X-0.600000X0*%
%ADD16O,1.950000X1.700000*%
%ADD17RoundRect,0.249999X0.850001X-0.850001X0.850001X0.850001X-0.850001X0.850001X-0.850001X-0.850001X0*%
%ADD18C,2.200000*%
G04 APERTURE END LIST*
D10*
X34139836Y-25131895D02*
X34139836Y-25703323D01*
X34139836Y-25703323D02*
X34101741Y-25817609D01*
X34101741Y-25817609D02*
X34025550Y-25893800D01*
X34025550Y-25893800D02*
X33911265Y-25931895D01*
X33911265Y-25931895D02*
X33835074Y-25931895D01*
X34901741Y-25931895D02*
X34520789Y-25931895D01*
X34520789Y-25931895D02*
X34520789Y-25131895D01*
X35625551Y-25855704D02*
X35587455Y-25893800D01*
X35587455Y-25893800D02*
X35473170Y-25931895D01*
X35473170Y-25931895D02*
X35396979Y-25931895D01*
X35396979Y-25931895D02*
X35282693Y-25893800D01*
X35282693Y-25893800D02*
X35206503Y-25817609D01*
X35206503Y-25817609D02*
X35168408Y-25741419D01*
X35168408Y-25741419D02*
X35130312Y-25589038D01*
X35130312Y-25589038D02*
X35130312Y-25474752D01*
X35130312Y-25474752D02*
X35168408Y-25322371D01*
X35168408Y-25322371D02*
X35206503Y-25246180D01*
X35206503Y-25246180D02*
X35282693Y-25169990D01*
X35282693Y-25169990D02*
X35396979Y-25131895D01*
X35396979Y-25131895D02*
X35473170Y-25131895D01*
X35473170Y-25131895D02*
X35587455Y-25169990D01*
X35587455Y-25169990D02*
X35625551Y-25208085D01*
X36196979Y-25131895D02*
X36196979Y-25703323D01*
X36196979Y-25703323D02*
X36158884Y-25817609D01*
X36158884Y-25817609D02*
X36082693Y-25893800D01*
X36082693Y-25893800D02*
X35968408Y-25931895D01*
X35968408Y-25931895D02*
X35892217Y-25931895D01*
X36958884Y-25931895D02*
X36577932Y-25931895D01*
X36577932Y-25931895D02*
X36577932Y-25131895D01*
X37682694Y-25855704D02*
X37644598Y-25893800D01*
X37644598Y-25893800D02*
X37530313Y-25931895D01*
X37530313Y-25931895D02*
X37454122Y-25931895D01*
X37454122Y-25931895D02*
X37339836Y-25893800D01*
X37339836Y-25893800D02*
X37263646Y-25817609D01*
X37263646Y-25817609D02*
X37225551Y-25741419D01*
X37225551Y-25741419D02*
X37187455Y-25589038D01*
X37187455Y-25589038D02*
X37187455Y-25474752D01*
X37187455Y-25474752D02*
X37225551Y-25322371D01*
X37225551Y-25322371D02*
X37263646Y-25246180D01*
X37263646Y-25246180D02*
X37339836Y-25169990D01*
X37339836Y-25169990D02*
X37454122Y-25131895D01*
X37454122Y-25131895D02*
X37530313Y-25131895D01*
X37530313Y-25131895D02*
X37644598Y-25169990D01*
X37644598Y-25169990D02*
X37682694Y-25208085D01*
X38254122Y-25131895D02*
X38254122Y-25703323D01*
X38254122Y-25703323D02*
X38216027Y-25817609D01*
X38216027Y-25817609D02*
X38139836Y-25893800D01*
X38139836Y-25893800D02*
X38025551Y-25931895D01*
X38025551Y-25931895D02*
X37949360Y-25931895D01*
X39016027Y-25931895D02*
X38635075Y-25931895D01*
X38635075Y-25931895D02*
X38635075Y-25131895D01*
X39739837Y-25855704D02*
X39701741Y-25893800D01*
X39701741Y-25893800D02*
X39587456Y-25931895D01*
X39587456Y-25931895D02*
X39511265Y-25931895D01*
X39511265Y-25931895D02*
X39396979Y-25893800D01*
X39396979Y-25893800D02*
X39320789Y-25817609D01*
X39320789Y-25817609D02*
X39282694Y-25741419D01*
X39282694Y-25741419D02*
X39244598Y-25589038D01*
X39244598Y-25589038D02*
X39244598Y-25474752D01*
X39244598Y-25474752D02*
X39282694Y-25322371D01*
X39282694Y-25322371D02*
X39320789Y-25246180D01*
X39320789Y-25246180D02*
X39396979Y-25169990D01*
X39396979Y-25169990D02*
X39511265Y-25131895D01*
X39511265Y-25131895D02*
X39587456Y-25131895D01*
X39587456Y-25131895D02*
X39701741Y-25169990D01*
X39701741Y-25169990D02*
X39739837Y-25208085D01*
X40311265Y-25131895D02*
X40311265Y-25703323D01*
X40311265Y-25703323D02*
X40273170Y-25817609D01*
X40273170Y-25817609D02*
X40196979Y-25893800D01*
X40196979Y-25893800D02*
X40082694Y-25931895D01*
X40082694Y-25931895D02*
X40006503Y-25931895D01*
X41073170Y-25931895D02*
X40692218Y-25931895D01*
X40692218Y-25931895D02*
X40692218Y-25131895D01*
X41796980Y-25855704D02*
X41758884Y-25893800D01*
X41758884Y-25893800D02*
X41644599Y-25931895D01*
X41644599Y-25931895D02*
X41568408Y-25931895D01*
X41568408Y-25931895D02*
X41454122Y-25893800D01*
X41454122Y-25893800D02*
X41377932Y-25817609D01*
X41377932Y-25817609D02*
X41339837Y-25741419D01*
X41339837Y-25741419D02*
X41301741Y-25589038D01*
X41301741Y-25589038D02*
X41301741Y-25474752D01*
X41301741Y-25474752D02*
X41339837Y-25322371D01*
X41339837Y-25322371D02*
X41377932Y-25246180D01*
X41377932Y-25246180D02*
X41454122Y-25169990D01*
X41454122Y-25169990D02*
X41568408Y-25131895D01*
X41568408Y-25131895D02*
X41644599Y-25131895D01*
X41644599Y-25131895D02*
X41758884Y-25169990D01*
X41758884Y-25169990D02*
X41796980Y-25208085D01*
D11*
%TO.C,G\u002A\u002A\u002A*%
G36*
X70019333Y-46587833D02*
G01*
X69998166Y-46609000D01*
X69976999Y-46587833D01*
X69998166Y-46566667D01*
X70019333Y-46587833D01*
G37*
G36*
X70019333Y-46714833D02*
G01*
X69998166Y-46736000D01*
X69976999Y-46714833D01*
X69998166Y-46693667D01*
X70019333Y-46714833D01*
G37*
G36*
X70273333Y-40153166D02*
G01*
X70252166Y-40174333D01*
X70230999Y-40153166D01*
X70252166Y-40132000D01*
X70273333Y-40153166D01*
G37*
G36*
X70315666Y-40237833D02*
G01*
X70294499Y-40259000D01*
X70273333Y-40237833D01*
X70294499Y-40216666D01*
X70315666Y-40237833D01*
G37*
G36*
X70484999Y-40491833D02*
G01*
X70463833Y-40513000D01*
X70442666Y-40491833D01*
X70463833Y-40470666D01*
X70484999Y-40491833D01*
G37*
G36*
X70823666Y-40830500D02*
G01*
X70802499Y-40851666D01*
X70781333Y-40830500D01*
X70802499Y-40809333D01*
X70823666Y-40830500D01*
G37*
G36*
X71162333Y-41169166D02*
G01*
X71141166Y-41190333D01*
X71119999Y-41169166D01*
X71141166Y-41148000D01*
X71162333Y-41169166D01*
G37*
G36*
X71500999Y-41507833D02*
G01*
X71479833Y-41529000D01*
X71458666Y-41507833D01*
X71479833Y-41486666D01*
X71500999Y-41507833D01*
G37*
G36*
X71754999Y-47519167D02*
G01*
X71733833Y-47540333D01*
X71712666Y-47519167D01*
X71733833Y-47498000D01*
X71754999Y-47519167D01*
G37*
G36*
X71839666Y-41846500D02*
G01*
X71818499Y-41867666D01*
X71797333Y-41846500D01*
X71818499Y-41825333D01*
X71839666Y-41846500D01*
G37*
G36*
X71966666Y-44132500D02*
G01*
X71945499Y-44153667D01*
X71924333Y-44132500D01*
X71945499Y-44111333D01*
X71966666Y-44132500D01*
G37*
G36*
X72008999Y-42015833D02*
G01*
X71987833Y-42037000D01*
X71966666Y-42015833D01*
X71987833Y-41994666D01*
X72008999Y-42015833D01*
G37*
G36*
X72178333Y-42185166D02*
G01*
X72157166Y-42206333D01*
X72135999Y-42185166D01*
X72157166Y-42164000D01*
X72178333Y-42185166D01*
G37*
G36*
X72474666Y-42608500D02*
G01*
X72453499Y-42629666D01*
X72432333Y-42608500D01*
X72453499Y-42587333D01*
X72474666Y-42608500D01*
G37*
G36*
X73617666Y-42396833D02*
G01*
X73596499Y-42418000D01*
X73575333Y-42396833D01*
X73596499Y-42375666D01*
X73617666Y-42396833D01*
G37*
G36*
X73659999Y-47773167D02*
G01*
X73638833Y-47794333D01*
X73617666Y-47773167D01*
X73638833Y-47752000D01*
X73659999Y-47773167D01*
G37*
G36*
X74337333Y-42735500D02*
G01*
X74316167Y-42756666D01*
X74295000Y-42735500D01*
X74316167Y-42714333D01*
X74337333Y-42735500D01*
G37*
G36*
X74422000Y-44428833D02*
G01*
X74400833Y-44450000D01*
X74379667Y-44428833D01*
X74400833Y-44407667D01*
X74422000Y-44428833D01*
G37*
G36*
X74506667Y-44555833D02*
G01*
X74485500Y-44577000D01*
X74464333Y-44555833D01*
X74485500Y-44534667D01*
X74506667Y-44555833D01*
G37*
G36*
X75861333Y-41465500D02*
G01*
X75840167Y-41486666D01*
X75819000Y-41465500D01*
X75840167Y-41444333D01*
X75861333Y-41465500D01*
G37*
G36*
X75861333Y-44936833D02*
G01*
X75840167Y-44958000D01*
X75819000Y-44936833D01*
X75840167Y-44915667D01*
X75861333Y-44936833D01*
G37*
G36*
X78274333Y-48492833D02*
G01*
X78253167Y-48514000D01*
X78232000Y-48492833D01*
X78253167Y-48471667D01*
X78274333Y-48492833D01*
G37*
G36*
X78401333Y-42525176D02*
G01*
X78401333Y-42674686D01*
X77903917Y-42662760D01*
X77406500Y-42650833D01*
X77393234Y-42513250D01*
X77379969Y-42375666D01*
X77890651Y-42375666D01*
X78401333Y-42375666D01*
X78401333Y-42525176D01*
G37*
G36*
X73548612Y-47901836D02*
G01*
X73692902Y-47975830D01*
X73786594Y-48103718D01*
X73821174Y-48228009D01*
X73803368Y-48378348D01*
X73705590Y-48517256D01*
X73625558Y-48581067D01*
X73473792Y-48636585D01*
X73323536Y-48626340D01*
X73193434Y-48557490D01*
X73102132Y-48437192D01*
X73068274Y-48272605D01*
X73068663Y-48254100D01*
X73109006Y-48078021D01*
X73212398Y-47956058D01*
X73374448Y-47893651D01*
X73376470Y-47893328D01*
X73548612Y-47901836D01*
G37*
G36*
X76186203Y-44202409D02*
G01*
X76316206Y-44311074D01*
X76320543Y-44316515D01*
X76398981Y-44471139D01*
X76392816Y-44627680D01*
X76302070Y-44785419D01*
X76192311Y-44882820D01*
X76067134Y-44915667D01*
X76006538Y-44911024D01*
X75864850Y-44871169D01*
X75744038Y-44803360D01*
X75675963Y-44723270D01*
X75665034Y-44691753D01*
X75646242Y-44522505D01*
X75689668Y-44375484D01*
X75780344Y-44260328D01*
X75903304Y-44186672D01*
X76043579Y-44164154D01*
X76186203Y-44202409D01*
G37*
G36*
X69245596Y-44994892D02*
G01*
X69271762Y-45011241D01*
X69273493Y-45044618D01*
X69318134Y-45109515D01*
X69364482Y-45190533D01*
X69383146Y-45329805D01*
X69360032Y-45480346D01*
X69296593Y-45608458D01*
X69272862Y-45636521D01*
X69179011Y-45702108D01*
X69046056Y-45720000D01*
X68977577Y-45718713D01*
X68840368Y-45698553D01*
X68750380Y-45644024D01*
X68681582Y-45542447D01*
X68636534Y-45401853D01*
X68653243Y-45247142D01*
X68738186Y-45118412D01*
X68882452Y-45028137D01*
X69077132Y-44988787D01*
X69157079Y-44987550D01*
X69245596Y-44994892D01*
G37*
G36*
X75073253Y-40557899D02*
G01*
X75195176Y-40696186D01*
X75326842Y-40859052D01*
X75428700Y-40999073D01*
X75487486Y-41090288D01*
X75543399Y-41183792D01*
X75565000Y-41229888D01*
X75563357Y-41233367D01*
X75521902Y-41282123D01*
X75431296Y-41378941D01*
X75300484Y-41514527D01*
X75138408Y-41679586D01*
X74954012Y-41864825D01*
X74343025Y-42474723D01*
X74196616Y-42363052D01*
X74050207Y-42251380D01*
X74385294Y-41435106D01*
X74406021Y-41384645D01*
X74510217Y-41131784D01*
X74606458Y-40899509D01*
X74688723Y-40702267D01*
X74750992Y-40554504D01*
X74787244Y-40470666D01*
X74854107Y-40322500D01*
X75073253Y-40557899D01*
G37*
G36*
X72105678Y-43762083D02*
G01*
X72118840Y-43850054D01*
X72129078Y-43920833D01*
X72110697Y-43935597D01*
X72025496Y-43980596D01*
X71880871Y-44049663D01*
X71687820Y-44138023D01*
X71457344Y-44240902D01*
X71200442Y-44353526D01*
X70928112Y-44471118D01*
X70651355Y-44588907D01*
X70381170Y-44702116D01*
X70128556Y-44805971D01*
X69904512Y-44895698D01*
X69720039Y-44966522D01*
X69484245Y-45054064D01*
X69372713Y-44942532D01*
X69318353Y-44892693D01*
X69242349Y-44848010D01*
X69140630Y-44824507D01*
X68983728Y-44812318D01*
X68955044Y-44802295D01*
X68897279Y-44720146D01*
X68846649Y-44554977D01*
X68803036Y-44306332D01*
X68766321Y-43973750D01*
X68737160Y-43645666D01*
X70412601Y-43645666D01*
X72088042Y-43645666D01*
X72105678Y-43762083D01*
G37*
G36*
X73628249Y-39605501D02*
G01*
X73729404Y-39644646D01*
X73892272Y-39719897D01*
X74085535Y-39817291D01*
X74286828Y-39925517D01*
X74473789Y-40033260D01*
X74560122Y-40086838D01*
X74650971Y-40153884D01*
X74685546Y-40204161D01*
X74676052Y-40250796D01*
X74648454Y-40310571D01*
X74594932Y-40435584D01*
X74521349Y-40611870D01*
X74433435Y-40825697D01*
X74336923Y-41063333D01*
X74286455Y-41188577D01*
X74164768Y-41491762D01*
X74069303Y-41727742D01*
X73994882Y-41904390D01*
X73936326Y-42029576D01*
X73888459Y-42111172D01*
X73846104Y-42157052D01*
X73804083Y-42175086D01*
X73757218Y-42173146D01*
X73700333Y-42159105D01*
X73628249Y-42140835D01*
X73533000Y-42120053D01*
X73533000Y-40848007D01*
X73533000Y-39575961D01*
X73628249Y-39605501D01*
G37*
G36*
X73151136Y-44853183D02*
G01*
X73166797Y-44856195D01*
X73271539Y-44880318D01*
X73331594Y-44900842D01*
X73336023Y-44916534D01*
X73343475Y-45004988D01*
X73350107Y-45162177D01*
X73355681Y-45377882D01*
X73359958Y-45641881D01*
X73362699Y-45943954D01*
X73363666Y-46273880D01*
X73363666Y-47627096D01*
X73247249Y-47671201D01*
X73144631Y-47724064D01*
X73032848Y-47807101D01*
X72934864Y-47898896D01*
X72445639Y-47730886D01*
X72439064Y-47728624D01*
X72249878Y-47660213D01*
X72092471Y-47597178D01*
X71983095Y-47546434D01*
X71938002Y-47514895D01*
X71943099Y-47486261D01*
X71975672Y-47386063D01*
X72034565Y-47224015D01*
X72116170Y-47009557D01*
X72216878Y-46752130D01*
X72333081Y-46461174D01*
X72461171Y-46146130D01*
X73002751Y-44825345D01*
X73151136Y-44853183D01*
G37*
G36*
X74709072Y-44117325D02*
G01*
X74788678Y-44149655D01*
X74918261Y-44203713D01*
X75080546Y-44272333D01*
X75156721Y-44304791D01*
X75304505Y-44370418D01*
X75395659Y-44420711D01*
X75445519Y-44468446D01*
X75469418Y-44526396D01*
X75482692Y-44607336D01*
X75490241Y-44653357D01*
X75559957Y-44843491D01*
X75681417Y-44970687D01*
X75703783Y-44987781D01*
X75734451Y-45034187D01*
X75733703Y-45040485D01*
X75709055Y-45105015D01*
X75660557Y-45203129D01*
X75603220Y-45307296D01*
X75552056Y-45389986D01*
X75522077Y-45423667D01*
X75500216Y-45407292D01*
X75426545Y-45339966D01*
X75311361Y-45229682D01*
X75164924Y-45086298D01*
X74997494Y-44919671D01*
X74494811Y-44415676D01*
X74588858Y-44263504D01*
X74613151Y-44224707D01*
X74666619Y-44143622D01*
X74692415Y-44111333D01*
X74709072Y-44117325D01*
G37*
G36*
X74872637Y-45091123D02*
G01*
X75015894Y-45235529D01*
X75167458Y-45392050D01*
X75287757Y-45520552D01*
X75367068Y-45610609D01*
X75395667Y-45651797D01*
X75381494Y-45702110D01*
X75325293Y-45818191D01*
X75234003Y-45979634D01*
X75115869Y-46173354D01*
X74979142Y-46386269D01*
X74832067Y-46605294D01*
X74682892Y-46817347D01*
X74539866Y-47009344D01*
X74464894Y-47104301D01*
X74345455Y-47250097D01*
X74218203Y-47400772D01*
X74095415Y-47542236D01*
X73989367Y-47660401D01*
X73912337Y-47741180D01*
X73876602Y-47770483D01*
X73866903Y-47768108D01*
X73797171Y-47741585D01*
X73691750Y-47695832D01*
X73533000Y-47623864D01*
X73533000Y-46254009D01*
X73533000Y-44884154D01*
X73712917Y-44855499D01*
X73801908Y-44833878D01*
X73963546Y-44774597D01*
X74121220Y-44698096D01*
X74349608Y-44569349D01*
X74872637Y-45091123D01*
G37*
G36*
X72527773Y-39460656D02*
G01*
X72741212Y-39465337D01*
X72944181Y-39473134D01*
X73118739Y-39483695D01*
X73246948Y-39496668D01*
X73310869Y-39511699D01*
X73325008Y-39536154D01*
X73337994Y-39604170D01*
X73347987Y-39721731D01*
X73355269Y-39895858D01*
X73360122Y-40133572D01*
X73362827Y-40441895D01*
X73363666Y-40827849D01*
X73363666Y-42111367D01*
X73185115Y-42156688D01*
X73136189Y-42168619D01*
X73039469Y-42188583D01*
X72996257Y-42191701D01*
X72985064Y-42167458D01*
X72944629Y-42073538D01*
X72878466Y-41917459D01*
X72790391Y-41708291D01*
X72684224Y-41455109D01*
X72563782Y-41166983D01*
X72432883Y-40852987D01*
X72415670Y-40811602D01*
X72259839Y-40432513D01*
X72131372Y-40111442D01*
X72031711Y-39852241D01*
X71962301Y-39658764D01*
X71924586Y-39534862D01*
X71920009Y-39484390D01*
X71928086Y-39480135D01*
X72004019Y-39468831D01*
X72141238Y-39462051D01*
X72321802Y-39459443D01*
X72527773Y-39460656D01*
G37*
G36*
X78035083Y-39503526D02*
G01*
X78170147Y-39518996D01*
X78264095Y-39552110D01*
X78334873Y-39605920D01*
X78334946Y-39605994D01*
X78367109Y-39658454D01*
X78387508Y-39748618D01*
X78398223Y-39892082D01*
X78401333Y-40104437D01*
X78400909Y-40233244D01*
X78393227Y-40436563D01*
X78366957Y-40574304D01*
X78310730Y-40659226D01*
X78213176Y-40704088D01*
X78062922Y-40721648D01*
X77848599Y-40724666D01*
X77751027Y-40724602D01*
X77593278Y-40722638D01*
X77497570Y-40714976D01*
X77448400Y-40697720D01*
X77430266Y-40666971D01*
X77427667Y-40618833D01*
X77427546Y-40544487D01*
X77427139Y-40481250D01*
X77429449Y-40477284D01*
X77485329Y-40459456D01*
X77600677Y-40442050D01*
X77755222Y-40428333D01*
X78083833Y-40407166D01*
X78083833Y-40132000D01*
X78083833Y-39856833D01*
X77745166Y-39835666D01*
X77406500Y-39814500D01*
X77406500Y-39666333D01*
X77406500Y-39518166D01*
X77745024Y-39505614D01*
X77840956Y-39502648D01*
X78035083Y-39503526D01*
G37*
G36*
X69435730Y-41959200D02*
G01*
X69456963Y-41968241D01*
X69756974Y-42095106D01*
X70070686Y-42226329D01*
X70387903Y-42357782D01*
X70698431Y-42485333D01*
X70992076Y-42604853D01*
X71258644Y-42712210D01*
X71487939Y-42803276D01*
X71669768Y-42873920D01*
X71793937Y-42920011D01*
X71850249Y-42937420D01*
X71889140Y-42945190D01*
X71924333Y-42972752D01*
X71951316Y-42998597D01*
X72030734Y-43028193D01*
X72085422Y-43049758D01*
X72116801Y-43098399D01*
X72110981Y-43188635D01*
X72070292Y-43338750D01*
X72070026Y-43339485D01*
X72045879Y-43353371D01*
X71981836Y-43364748D01*
X71871503Y-43373818D01*
X71708484Y-43380784D01*
X71486386Y-43385849D01*
X71198813Y-43389216D01*
X70839369Y-43391087D01*
X70401661Y-43391666D01*
X68749333Y-43391666D01*
X68749333Y-43290509D01*
X68750580Y-43245777D01*
X68774650Y-43040838D01*
X68825251Y-42786126D01*
X68896960Y-42503604D01*
X68984356Y-42215237D01*
X69082014Y-41942989D01*
X69127294Y-41827812D01*
X69435730Y-41959200D01*
G37*
G36*
X72662825Y-44642200D02*
G01*
X72695508Y-44660534D01*
X72779622Y-44716476D01*
X72813333Y-44753912D01*
X72799178Y-44798135D01*
X72756732Y-44910204D01*
X72690569Y-45078454D01*
X72605298Y-45291657D01*
X72505529Y-45538588D01*
X72395871Y-45808022D01*
X72280936Y-46088731D01*
X72165333Y-46369490D01*
X72053672Y-46639074D01*
X71950562Y-46886255D01*
X71860615Y-47099808D01*
X71788440Y-47268507D01*
X71738647Y-47381126D01*
X71715847Y-47426439D01*
X71677891Y-47424071D01*
X71577595Y-47390051D01*
X71431497Y-47329411D01*
X71255007Y-47249393D01*
X71063535Y-47157233D01*
X70872489Y-47060172D01*
X70697279Y-46965448D01*
X70553313Y-46880301D01*
X70499732Y-46843936D01*
X70402760Y-46756702D01*
X70370159Y-46686764D01*
X70376720Y-46649433D01*
X70396701Y-46633591D01*
X70422974Y-46615872D01*
X70502991Y-46544967D01*
X70629688Y-46426371D01*
X70796150Y-46266723D01*
X70995464Y-46072660D01*
X71220715Y-45850823D01*
X71464989Y-45607848D01*
X72512318Y-44561147D01*
X72662825Y-44642200D01*
G37*
G36*
X75711418Y-41468430D02*
G01*
X75769312Y-41560862D01*
X75837243Y-41708358D01*
X75909447Y-41895718D01*
X75980162Y-42107743D01*
X76043625Y-42329237D01*
X76094075Y-42545000D01*
X76104356Y-42603107D01*
X76127010Y-42794801D01*
X76143329Y-43026052D01*
X76152611Y-43272132D01*
X76154154Y-43508310D01*
X76147253Y-43709857D01*
X76131208Y-43852042D01*
X76111014Y-43925842D01*
X76063265Y-43973854D01*
X75963348Y-43984333D01*
X75824508Y-44013955D01*
X75671575Y-44116361D01*
X75521203Y-44248389D01*
X75151518Y-44100828D01*
X74781833Y-43953267D01*
X74796590Y-43675147D01*
X74800646Y-43501951D01*
X74792666Y-43321739D01*
X74772981Y-43181628D01*
X74743814Y-43096423D01*
X74707387Y-43080931D01*
X74682666Y-43085845D01*
X74690213Y-43034689D01*
X74693796Y-43021485D01*
X74675442Y-42921264D01*
X74596468Y-42778876D01*
X74474123Y-42597594D01*
X75051859Y-42020963D01*
X75066636Y-42006231D01*
X75247310Y-41828596D01*
X75408676Y-41674345D01*
X75540716Y-41552723D01*
X75633413Y-41472971D01*
X75676751Y-41444333D01*
X75711418Y-41468430D01*
G37*
G36*
X78154531Y-40900612D02*
G01*
X78283294Y-40905049D01*
X78348258Y-40913309D01*
X78386085Y-40959314D01*
X78393454Y-41073625D01*
X78390566Y-41102170D01*
X78376667Y-41165690D01*
X78339469Y-41200891D01*
X78258598Y-41219356D01*
X78113678Y-41232666D01*
X77847189Y-41253833D01*
X78123541Y-41486666D01*
X78129408Y-41491610D01*
X78260991Y-41604491D01*
X78341044Y-41684825D01*
X78382425Y-41753732D01*
X78397995Y-41832333D01*
X78400613Y-41941750D01*
X78401333Y-42164000D01*
X77914500Y-42164000D01*
X77427667Y-42164000D01*
X77427667Y-41995807D01*
X77427667Y-41827615D01*
X77722154Y-41837057D01*
X78016641Y-41846500D01*
X77902070Y-41755059D01*
X77859636Y-41723260D01*
X77784372Y-41690206D01*
X77724000Y-41712726D01*
X77709301Y-41723951D01*
X77681496Y-41739510D01*
X77712084Y-41695600D01*
X77723295Y-41679070D01*
X77729090Y-41631514D01*
X77686523Y-41571114D01*
X77585084Y-41480032D01*
X77508161Y-41413174D01*
X77440523Y-41334304D01*
X77412709Y-41248869D01*
X77407876Y-41122931D01*
X77409253Y-40915166D01*
X77849514Y-40903017D01*
X77982768Y-40900427D01*
X78154531Y-40900612D01*
G37*
G36*
X77827000Y-47286333D02*
G01*
X77898378Y-47286333D01*
X78406444Y-47286333D01*
X78393305Y-47445083D01*
X78380383Y-47538806D01*
X78349027Y-47588215D01*
X78284917Y-47593749D01*
X78255389Y-47592065D01*
X78202191Y-47615616D01*
X78187524Y-47699582D01*
X78187190Y-47716942D01*
X78176852Y-47970321D01*
X78153172Y-48151509D01*
X78109474Y-48272072D01*
X78039083Y-48343574D01*
X77935324Y-48377579D01*
X77791522Y-48385654D01*
X77721031Y-48382329D01*
X77585303Y-48359993D01*
X77495513Y-48323510D01*
X77438847Y-48288624D01*
X77389680Y-48278592D01*
X77389422Y-48278727D01*
X77380674Y-48243663D01*
X77375460Y-48140104D01*
X77374181Y-47983775D01*
X77374501Y-47963517D01*
X77687978Y-47963517D01*
X77705386Y-48040794D01*
X77747210Y-48076142D01*
X77788432Y-48082669D01*
X77848488Y-48052397D01*
X77867969Y-47992874D01*
X77882262Y-47884287D01*
X77886649Y-47763744D01*
X77880161Y-47663127D01*
X77861825Y-47614318D01*
X77827000Y-47599819D01*
X77754512Y-47603902D01*
X77710682Y-47677220D01*
X77690021Y-47826557D01*
X77687978Y-47963517D01*
X77374501Y-47963517D01*
X77377239Y-47790403D01*
X77390312Y-47286333D01*
X77827000Y-47286333D01*
G37*
G36*
X71636348Y-39578258D02*
G01*
X71667038Y-39602676D01*
X71703091Y-39651815D01*
X71748362Y-39733322D01*
X71806705Y-39854843D01*
X71881973Y-40024025D01*
X71978020Y-40248514D01*
X72098700Y-40535957D01*
X72247868Y-40894000D01*
X72274679Y-40958395D01*
X72349481Y-41137575D01*
X72415392Y-41294821D01*
X72460629Y-41402000D01*
X72478244Y-41443432D01*
X72534497Y-41575975D01*
X72607176Y-41747405D01*
X72685018Y-41931166D01*
X72729016Y-42035154D01*
X72790467Y-42180699D01*
X72833581Y-42283218D01*
X72851004Y-42325248D01*
X72851147Y-42327699D01*
X72821275Y-42317075D01*
X72816493Y-42315171D01*
X72754261Y-42328505D01*
X72662525Y-42377556D01*
X72538166Y-42459293D01*
X71448083Y-41370035D01*
X71447936Y-41369889D01*
X71198803Y-41120228D01*
X70969693Y-40889252D01*
X70767276Y-40683793D01*
X70598226Y-40510685D01*
X70469215Y-40376759D01*
X70386915Y-40288848D01*
X70357999Y-40253785D01*
X70383895Y-40214114D01*
X70472702Y-40141660D01*
X70609875Y-40049741D01*
X70779933Y-39946978D01*
X70967396Y-39841994D01*
X71156784Y-39743409D01*
X71332617Y-39659846D01*
X71479413Y-39599925D01*
X71581693Y-39572269D01*
X71607168Y-39570916D01*
X71636348Y-39578258D01*
G37*
G36*
X78368935Y-44169608D02*
G01*
X78399640Y-44261337D01*
X78382968Y-44372488D01*
X78316667Y-44450000D01*
X78310184Y-44453608D01*
X78261809Y-44500186D01*
X78238217Y-44582678D01*
X78232000Y-44725167D01*
X78232051Y-44742793D01*
X78239671Y-44878202D01*
X78265407Y-44956021D01*
X78316667Y-45000333D01*
X78376679Y-45059867D01*
X78401333Y-45185267D01*
X78401296Y-45193077D01*
X78393850Y-45293902D01*
X78377384Y-45348838D01*
X78339515Y-45341549D01*
X78241083Y-45308515D01*
X78101131Y-45256684D01*
X77938432Y-45193491D01*
X77771763Y-45126374D01*
X77619897Y-45062770D01*
X77501610Y-45010114D01*
X77435678Y-44975842D01*
X77429907Y-44954400D01*
X77421223Y-44868583D01*
X77414511Y-44741307D01*
X77414456Y-44739759D01*
X77660500Y-44739759D01*
X77783016Y-44786651D01*
X77878940Y-44825803D01*
X77941766Y-44855936D01*
X77943849Y-44857010D01*
X77968038Y-44831631D01*
X77978000Y-44748832D01*
X77977199Y-44672324D01*
X77962114Y-44630007D01*
X77911227Y-44635264D01*
X77802943Y-44679546D01*
X77660500Y-44739759D01*
X77414456Y-44739759D01*
X77406500Y-44515648D01*
X77872167Y-44318848D01*
X77962114Y-44281889D01*
X78028011Y-44254812D01*
X78208343Y-44188744D01*
X78320655Y-44160742D01*
X78368935Y-44169608D01*
G37*
G36*
X70225694Y-40453963D02*
G01*
X70312301Y-40533061D01*
X70445242Y-40659020D01*
X70617559Y-40825128D01*
X70822294Y-41024676D01*
X71052488Y-41250953D01*
X71301183Y-41497250D01*
X71535993Y-41730860D01*
X71765319Y-41959495D01*
X71968446Y-42162509D01*
X72138593Y-42333101D01*
X72268976Y-42464470D01*
X72352814Y-42549815D01*
X72383325Y-42582336D01*
X72382527Y-42589656D01*
X72354797Y-42649479D01*
X72299733Y-42744559D01*
X72297630Y-42747943D01*
X72214074Y-42848972D01*
X72140983Y-42870635D01*
X72139529Y-42870189D01*
X72078276Y-42847039D01*
X71950733Y-42796186D01*
X71768007Y-42722217D01*
X71541209Y-42629719D01*
X71281448Y-42523279D01*
X70999833Y-42407484D01*
X70707473Y-42286921D01*
X70415477Y-42166177D01*
X70134954Y-42049840D01*
X69877014Y-41942496D01*
X69652766Y-41848732D01*
X69473320Y-41773137D01*
X69349782Y-41720294D01*
X69293265Y-41694794D01*
X69288758Y-41692367D01*
X69249068Y-41660724D01*
X69250827Y-41612504D01*
X69294185Y-41519165D01*
X69297573Y-41512606D01*
X69382487Y-41368634D01*
X69497332Y-41200096D01*
X69630996Y-41020480D01*
X69772369Y-40843276D01*
X69910340Y-40681971D01*
X70033798Y-40550053D01*
X70131633Y-40461011D01*
X70192735Y-40428333D01*
X70225694Y-40453963D01*
G37*
G36*
X77476561Y-45543663D02*
G01*
X77585227Y-45547289D01*
X77744487Y-45549756D01*
X77935667Y-45550667D01*
X78401333Y-45550667D01*
X78401333Y-45698833D01*
X78401333Y-45847000D01*
X78157917Y-45848413D01*
X77914500Y-45849826D01*
X78157917Y-46002890D01*
X78206649Y-46033708D01*
X78316050Y-46108785D01*
X78374197Y-46169641D01*
X78397241Y-46238479D01*
X78401333Y-46337501D01*
X78401332Y-46341789D01*
X78396520Y-46444252D01*
X78370296Y-46511379D01*
X78304666Y-46567791D01*
X78181635Y-46638108D01*
X77961938Y-46757167D01*
X78171052Y-46778333D01*
X78263071Y-46788986D01*
X78344147Y-46810786D01*
X78379823Y-46854600D01*
X78393432Y-46937083D01*
X78406698Y-47074667D01*
X77897304Y-47074667D01*
X77387911Y-47074667D01*
X77393628Y-46922609D01*
X77395551Y-46871968D01*
X77403293Y-46822564D01*
X77427309Y-46778450D01*
X77478652Y-46729510D01*
X77568372Y-46665626D01*
X77707523Y-46576684D01*
X77907156Y-46452567D01*
X78111478Y-46325650D01*
X77885989Y-46185564D01*
X77703075Y-46072037D01*
X77559834Y-45981032D01*
X77467538Y-45915621D01*
X77415534Y-45865250D01*
X77393170Y-45819364D01*
X77389794Y-45767411D01*
X77394754Y-45698833D01*
X77398357Y-45659752D01*
X77415897Y-45570605D01*
X77438250Y-45540083D01*
X77476561Y-45543663D01*
G37*
G36*
X77893825Y-42883674D02*
G01*
X78056890Y-42887370D01*
X78162297Y-42902260D01*
X78235399Y-42934864D01*
X78301554Y-42991705D01*
X78346949Y-43040798D01*
X78380575Y-43098089D01*
X78397019Y-43175540D01*
X78400412Y-43294610D01*
X78394880Y-43476753D01*
X78384164Y-43643693D01*
X78354601Y-43813903D01*
X78302493Y-43918510D01*
X78221647Y-43968153D01*
X78105872Y-43973476D01*
X78062880Y-43965934D01*
X78010159Y-43923778D01*
X77989849Y-43824104D01*
X77994899Y-43723048D01*
X78041894Y-43660824D01*
X78070022Y-43633187D01*
X78097941Y-43542706D01*
X78105238Y-43423565D01*
X78090971Y-43308638D01*
X78054200Y-43230800D01*
X77996570Y-43198481D01*
X77893333Y-43180000D01*
X77868912Y-43180666D01*
X77759573Y-43213298D01*
X77699815Y-43302607D01*
X77681667Y-43459104D01*
X77681770Y-43473703D01*
X77699040Y-43603619D01*
X77747565Y-43661895D01*
X77793424Y-43712071D01*
X77797886Y-43825175D01*
X77785184Y-43885094D01*
X77725426Y-43964953D01*
X77629980Y-43972681D01*
X77508916Y-43905478D01*
X77476819Y-43877236D01*
X77438689Y-43825320D01*
X77416225Y-43750197D01*
X77404477Y-43631381D01*
X77398498Y-43448389D01*
X77397042Y-43365630D01*
X77398569Y-43207604D01*
X77410454Y-43104561D01*
X77436362Y-43035374D01*
X77479960Y-42978916D01*
X77532386Y-42932679D01*
X77604085Y-42901669D01*
X77712478Y-42887222D01*
X77881470Y-42883666D01*
X77893825Y-42883674D01*
G37*
G36*
X72290617Y-44262821D02*
G01*
X72306433Y-44282877D01*
X72365697Y-44364514D01*
X72389789Y-44409258D01*
X72389730Y-44409887D01*
X72359478Y-44450988D01*
X72284455Y-44532916D01*
X72180234Y-44638627D01*
X72174630Y-44644172D01*
X72075352Y-44752340D01*
X72011448Y-44840857D01*
X71996521Y-44891036D01*
X72004392Y-44908166D01*
X71986703Y-44904222D01*
X71963055Y-44901936D01*
X71894924Y-44939778D01*
X71809134Y-45011695D01*
X71726850Y-45097039D01*
X71669238Y-45175163D01*
X71657460Y-45225420D01*
X71664463Y-45240686D01*
X71641420Y-45241461D01*
X71618564Y-45242388D01*
X71550121Y-45283604D01*
X71463574Y-45357194D01*
X71380357Y-45442329D01*
X71321901Y-45518180D01*
X71309638Y-45563917D01*
X71314269Y-45570567D01*
X71302583Y-45570972D01*
X71281121Y-45571153D01*
X71215494Y-45612642D01*
X71131751Y-45687979D01*
X71050723Y-45775731D01*
X70993238Y-45854467D01*
X70980127Y-45902753D01*
X70987180Y-45918016D01*
X70964721Y-45919187D01*
X70964690Y-45919167D01*
X70920489Y-45937548D01*
X70830886Y-46006287D01*
X70708895Y-46114503D01*
X70567531Y-46251312D01*
X70427533Y-46388640D01*
X70304206Y-46503143D01*
X70213199Y-46580556D01*
X70167787Y-46609000D01*
X70138660Y-46597626D01*
X70055475Y-46536040D01*
X69941365Y-46434068D01*
X69811305Y-46306605D01*
X69680271Y-46168544D01*
X69563240Y-46034779D01*
X69475188Y-45920204D01*
X69418194Y-45829645D01*
X69383283Y-45754259D01*
X69390870Y-45729704D01*
X69416287Y-45724648D01*
X69474819Y-45665751D01*
X69533169Y-45563498D01*
X69577989Y-45443749D01*
X69595934Y-45332367D01*
X69597037Y-45306176D01*
X69614030Y-45253230D01*
X69663820Y-45206486D01*
X69761980Y-45154185D01*
X69924083Y-45084568D01*
X69929923Y-45082158D01*
X70131722Y-44998283D01*
X70346000Y-44908300D01*
X70527333Y-44831283D01*
X70529531Y-44830341D01*
X70733633Y-44743371D01*
X70970791Y-44643112D01*
X71222510Y-44537300D01*
X71470294Y-44433671D01*
X71695647Y-44339960D01*
X71880073Y-44263903D01*
X72005077Y-44213236D01*
X72191655Y-44139143D01*
X72290617Y-44262821D01*
G37*
G36*
X71597621Y-54518022D02*
G01*
X71628000Y-54571772D01*
X71616873Y-54610832D01*
X71553916Y-54627398D01*
X71500283Y-54600838D01*
X71497239Y-54552319D01*
X71562263Y-54515564D01*
X71597621Y-54518022D01*
G37*
G36*
X71304595Y-54282681D02*
G01*
X71328800Y-54324460D01*
X71321416Y-54391435D01*
X71268166Y-54423109D01*
X71238607Y-54416028D01*
X71204666Y-54361904D01*
X71211701Y-54321403D01*
X71252796Y-54272803D01*
X71304595Y-54282681D01*
G37*
G36*
X71348694Y-54624252D02*
G01*
X71373222Y-54665608D01*
X71359064Y-54732314D01*
X71289333Y-54762909D01*
X71239940Y-54751722D01*
X71204666Y-54703741D01*
X71228150Y-54650329D01*
X71289948Y-54612979D01*
X71348694Y-54624252D01*
G37*
G36*
X71562856Y-55031900D02*
G01*
X71585666Y-55099594D01*
X71570270Y-55159673D01*
X71497895Y-55187658D01*
X71452635Y-55176571D01*
X71422782Y-55126456D01*
X71443552Y-55065235D01*
X71512069Y-55025750D01*
X71562856Y-55031900D01*
G37*
G36*
X71814361Y-54794152D02*
G01*
X71838889Y-54835507D01*
X71824731Y-54902213D01*
X71755000Y-54932808D01*
X71705606Y-54921621D01*
X71670333Y-54873640D01*
X71693817Y-54820228D01*
X71755614Y-54782879D01*
X71814361Y-54794152D01*
G37*
G36*
X71892870Y-55327981D02*
G01*
X71924333Y-55397526D01*
X71904865Y-55479002D01*
X71845551Y-55513286D01*
X71767095Y-55472847D01*
X71727716Y-55404479D01*
X71752074Y-55340992D01*
X71842165Y-55315083D01*
X71892870Y-55327981D01*
G37*
G36*
X71986215Y-51463990D02*
G01*
X72000941Y-51524196D01*
X71984107Y-51563218D01*
X71924333Y-51598528D01*
X71889468Y-51587387D01*
X71847725Y-51524196D01*
X71854853Y-51471363D01*
X71924333Y-51449865D01*
X71986215Y-51463990D01*
G37*
G36*
X72108659Y-55004485D02*
G01*
X72126180Y-55034539D01*
X72109041Y-55097435D01*
X72037241Y-55137679D01*
X71990199Y-55131520D01*
X71966666Y-55063348D01*
X71978933Y-55012409D01*
X72036030Y-54974395D01*
X72108659Y-55004485D01*
G37*
G36*
X72301644Y-51383866D02*
G01*
X72343101Y-51440212D01*
X72337424Y-51504417D01*
X72286665Y-51534815D01*
X72260818Y-51531194D01*
X72197220Y-51488639D01*
X72193254Y-51429729D01*
X72238244Y-51381949D01*
X72301644Y-51383866D01*
G37*
G36*
X72332036Y-51134608D02*
G01*
X72347107Y-51197407D01*
X72313895Y-51253419D01*
X72292692Y-51259080D01*
X72223805Y-51239437D01*
X72191279Y-51191304D01*
X72215223Y-51135869D01*
X72286665Y-51110066D01*
X72332036Y-51134608D01*
G37*
G36*
X73744667Y-58012240D02*
G01*
X73744667Y-58203377D01*
X73046167Y-58203377D01*
X72347666Y-58203377D01*
X72347666Y-58012240D01*
X72347666Y-57821103D01*
X73046167Y-57821103D01*
X73744667Y-57821103D01*
X73744667Y-58012240D01*
G37*
G36*
X74479774Y-54013833D02*
G01*
X74506667Y-54086850D01*
X74504330Y-54112258D01*
X74471412Y-54155792D01*
X74422498Y-54139973D01*
X74387146Y-54069172D01*
X74389199Y-54030206D01*
X74440063Y-53998360D01*
X74479774Y-54013833D01*
G37*
G36*
X74571109Y-53675237D02*
G01*
X74591333Y-53739971D01*
X74579688Y-53792732D01*
X74524729Y-53828461D01*
X74502727Y-53824172D01*
X74472729Y-53779090D01*
X74485704Y-53714864D01*
X74538417Y-53669160D01*
X74571109Y-53675237D01*
G37*
G36*
X74725374Y-53373062D02*
G01*
X74760667Y-53424949D01*
X74744952Y-53462103D01*
X74676000Y-53488661D01*
X74626626Y-53476836D01*
X74591333Y-53424949D01*
X74607048Y-53387795D01*
X74676000Y-53361237D01*
X74725374Y-53373062D01*
G37*
G36*
X74805235Y-53851084D02*
G01*
X74835286Y-53891235D01*
X74817138Y-53951560D01*
X74746575Y-53990856D01*
X74708309Y-53988922D01*
X74676000Y-53940269D01*
X74682647Y-53899875D01*
X74732561Y-53844098D01*
X74805235Y-53851084D01*
G37*
G36*
X75071442Y-53461634D02*
G01*
X75099333Y-53534251D01*
X75088283Y-53579663D01*
X75038336Y-53609616D01*
X74977318Y-53588776D01*
X74937965Y-53520030D01*
X74944094Y-53469073D01*
X75011563Y-53446186D01*
X75071442Y-53461634D01*
G37*
G36*
X71220241Y-51564600D02*
G01*
X71242720Y-51620685D01*
X71216168Y-51695456D01*
X71145753Y-51740262D01*
X71084648Y-51736547D01*
X71023708Y-51681141D01*
X71022612Y-51591761D01*
X71062859Y-51551376D01*
X71145979Y-51535458D01*
X71220241Y-51564600D01*
G37*
G36*
X71474241Y-52499048D02*
G01*
X71496720Y-52555133D01*
X71470168Y-52629904D01*
X71399753Y-52674711D01*
X71338648Y-52670995D01*
X71277708Y-52615589D01*
X71276612Y-52526209D01*
X71316859Y-52485824D01*
X71399979Y-52469906D01*
X71474241Y-52499048D01*
G37*
G36*
X71564500Y-52824423D02*
G01*
X71610354Y-52859477D01*
X71622659Y-52936708D01*
X71569865Y-53016969D01*
X71484216Y-53046108D01*
X71407316Y-53012311D01*
X71374000Y-52930610D01*
X71390653Y-52869454D01*
X71462174Y-52817445D01*
X71564500Y-52824423D01*
G37*
G36*
X71684444Y-51605607D02*
G01*
X71699943Y-51626012D01*
X71707195Y-51703800D01*
X71653305Y-51760956D01*
X71626038Y-51768973D01*
X71563745Y-51748660D01*
X71543333Y-51655161D01*
X71556006Y-51609576D01*
X71613791Y-51576517D01*
X71684444Y-51605607D01*
G37*
G36*
X72640311Y-51298916D02*
G01*
X72655496Y-51310440D01*
X72686333Y-51364915D01*
X72672941Y-51404985D01*
X72613933Y-51435966D01*
X72547178Y-51412184D01*
X72537665Y-51400534D01*
X72532434Y-51338893D01*
X72575749Y-51293954D01*
X72640311Y-51298916D01*
G37*
G36*
X72705757Y-54959253D02*
G01*
X72732702Y-54974122D01*
X72762594Y-55034700D01*
X72733439Y-55099427D01*
X72654150Y-55137518D01*
X72580497Y-55129846D01*
X72559333Y-55065694D01*
X72564546Y-55015654D01*
X72612395Y-54952022D01*
X72705757Y-54959253D01*
G37*
G36*
X74656861Y-52697778D02*
G01*
X74699012Y-52732597D01*
X74716753Y-52807571D01*
X74679820Y-52870406D01*
X74616687Y-52880160D01*
X74541533Y-52846757D01*
X74506667Y-52785788D01*
X74511960Y-52752726D01*
X74566982Y-52695897D01*
X74656861Y-52697778D01*
G37*
G36*
X74759322Y-52999366D02*
G01*
X74792838Y-53050690D01*
X74783336Y-53128141D01*
X74728939Y-53180731D01*
X74708622Y-53183228D01*
X74660552Y-53148342D01*
X74641909Y-53079349D01*
X74666690Y-53013788D01*
X74690766Y-52997484D01*
X74759322Y-52999366D01*
G37*
G36*
X74843540Y-52235080D02*
G01*
X74908396Y-52278665D01*
X74927726Y-52351825D01*
X74890823Y-52418743D01*
X74803580Y-52448026D01*
X74733541Y-52434780D01*
X74683193Y-52369183D01*
X74685166Y-52293652D01*
X74741007Y-52232847D01*
X74843540Y-52235080D01*
G37*
G36*
X71432608Y-52171367D02*
G01*
X71459869Y-52241867D01*
X71438690Y-52310794D01*
X71372671Y-52341839D01*
X71367024Y-52341718D01*
X71287509Y-52308065D01*
X71253082Y-52237550D01*
X71280866Y-52163444D01*
X71310487Y-52144962D01*
X71392321Y-52143728D01*
X71432608Y-52171367D01*
G37*
G36*
X71420122Y-51237513D02*
G01*
X71485529Y-51258512D01*
X71493360Y-51333059D01*
X71471098Y-51392472D01*
X71416333Y-51428628D01*
X71373905Y-51407780D01*
X71339305Y-51333059D01*
X71338760Y-51329057D01*
X71348442Y-51256892D01*
X71416333Y-51237491D01*
X71420122Y-51237513D01*
G37*
G36*
X71480116Y-51847609D02*
G01*
X71499927Y-51858138D01*
X71534645Y-51920732D01*
X71514997Y-51992710D01*
X71447469Y-52036547D01*
X71433526Y-52038097D01*
X71366979Y-52008112D01*
X71338365Y-51938411D01*
X71365533Y-51866120D01*
X71397395Y-51847119D01*
X71480116Y-51847609D01*
G37*
G36*
X71835978Y-51086541D02*
G01*
X71856262Y-51104715D01*
X71880944Y-51175399D01*
X71866617Y-51247155D01*
X71817171Y-51279966D01*
X71782749Y-51271668D01*
X71726883Y-51213398D01*
X71726798Y-51213176D01*
X71727254Y-51135955D01*
X71772190Y-51083810D01*
X71835978Y-51086541D01*
G37*
G36*
X72417705Y-55041569D02*
G01*
X72432333Y-55123946D01*
X72432205Y-55135556D01*
X72414399Y-55210700D01*
X72358250Y-55222047D01*
X72316278Y-55199093D01*
X72284166Y-55123946D01*
X72297291Y-55073941D01*
X72358250Y-55025844D01*
X72365917Y-55024557D01*
X72417705Y-55041569D01*
G37*
G36*
X72734124Y-55406472D02*
G01*
X72762907Y-55485661D01*
X72731085Y-55564827D01*
X72629942Y-55604911D01*
X72565535Y-55608890D01*
X72523770Y-55583418D01*
X72524471Y-55499087D01*
X72536623Y-55449711D01*
X72592499Y-55377479D01*
X72667251Y-55359126D01*
X72734124Y-55406472D01*
G37*
G36*
X73599469Y-53760014D02*
G01*
X73652062Y-53806613D01*
X73655542Y-53881582D01*
X73609110Y-53952524D01*
X73522417Y-53990563D01*
X73471649Y-53994093D01*
X73418009Y-53972278D01*
X73406000Y-53893661D01*
X73422006Y-53814833D01*
X73491453Y-53752446D01*
X73599469Y-53760014D01*
G37*
G36*
X73615635Y-52999553D02*
G01*
X73677291Y-53042398D01*
X73702333Y-53147180D01*
X73674977Y-53253979D01*
X73598457Y-53301047D01*
X73487600Y-53274640D01*
X73430065Y-53223341D01*
X73408839Y-53136949D01*
X73440642Y-53053773D01*
X73513549Y-52999433D01*
X73615635Y-52999553D01*
G37*
G36*
X74224444Y-52309982D02*
G01*
X74231380Y-52329777D01*
X74226598Y-52417649D01*
X74149412Y-52462628D01*
X74085223Y-52462598D01*
X74022432Y-52415194D01*
X74022975Y-52327704D01*
X74028296Y-52316194D01*
X74090202Y-52266156D01*
X74169348Y-52262875D01*
X74224444Y-52309982D01*
G37*
G36*
X74480609Y-52468691D02*
G01*
X74507870Y-52539191D01*
X74486690Y-52608118D01*
X74420671Y-52639163D01*
X74415025Y-52639042D01*
X74335509Y-52605389D01*
X74301083Y-52534875D01*
X74328867Y-52460768D01*
X74358488Y-52442286D01*
X74440321Y-52441053D01*
X74480609Y-52468691D01*
G37*
G36*
X75069654Y-52597784D02*
G01*
X75128733Y-52621480D01*
X75134028Y-52692257D01*
X75111538Y-52753122D01*
X75035833Y-52787825D01*
X74979694Y-52772165D01*
X74937639Y-52692257D01*
X74934806Y-52663193D01*
X74954948Y-52609787D01*
X75035833Y-52596688D01*
X75069654Y-52597784D01*
G37*
G36*
X75132071Y-53021566D02*
G01*
X75206965Y-53039431D01*
X75218274Y-53095768D01*
X75195397Y-53137880D01*
X75120500Y-53170099D01*
X75070662Y-53156931D01*
X75022726Y-53095768D01*
X75021443Y-53088075D01*
X75038398Y-53036114D01*
X75120500Y-53021437D01*
X75132071Y-53021566D01*
G37*
G36*
X71058972Y-52358151D02*
G01*
X71068418Y-52362472D01*
X71113980Y-52426073D01*
X71108531Y-52516907D01*
X71052951Y-52599643D01*
X71028052Y-52616346D01*
X70942406Y-52624131D01*
X70873262Y-52568541D01*
X70844833Y-52465216D01*
X70867111Y-52390064D01*
X70944869Y-52343685D01*
X71058972Y-52358151D01*
G37*
G36*
X71400474Y-53293690D02*
G01*
X71439611Y-53331410D01*
X71450918Y-53435326D01*
X71442526Y-53484388D01*
X71403328Y-53539428D01*
X71310500Y-53552374D01*
X71243717Y-53548504D01*
X71194055Y-53515387D01*
X71183500Y-53425531D01*
X71205809Y-53328824D01*
X71281116Y-53276824D01*
X71400474Y-53293690D01*
G37*
G36*
X71781532Y-53153330D02*
G01*
X71808334Y-53180256D01*
X71836054Y-53269927D01*
X71781532Y-53356769D01*
X71777983Y-53359634D01*
X71691055Y-53386370D01*
X71616992Y-53346337D01*
X71585666Y-53255049D01*
X71585732Y-53250307D01*
X71619496Y-53160892D01*
X71694720Y-53123395D01*
X71781532Y-53153330D01*
G37*
G36*
X72074790Y-53431708D02*
G01*
X72114486Y-53467748D01*
X72127706Y-53568418D01*
X72125553Y-53584469D01*
X72091988Y-53659894D01*
X72009000Y-53679798D01*
X71993712Y-53679485D01*
X71919021Y-53653335D01*
X71890293Y-53568418D01*
X71901431Y-53479575D01*
X71967445Y-53422254D01*
X72074790Y-53431708D01*
G37*
G36*
X72413200Y-53660254D02*
G01*
X72445044Y-53694535D01*
X72474666Y-53764748D01*
X72449890Y-53830831D01*
X72371813Y-53891655D01*
X72275616Y-53905717D01*
X72219994Y-53868296D01*
X72199500Y-53764748D01*
X72200273Y-53744597D01*
X72237412Y-53648454D01*
X72315307Y-53616956D01*
X72413200Y-53660254D01*
G37*
G36*
X73083230Y-52244522D02*
G01*
X73097053Y-52261975D01*
X73108181Y-52343039D01*
X73063031Y-52420203D01*
X72977491Y-52460942D01*
X72890285Y-52450255D01*
X72831917Y-52384708D01*
X72840357Y-52278126D01*
X72846919Y-52265956D01*
X72914389Y-52224419D01*
X73008224Y-52215190D01*
X73083230Y-52244522D01*
G37*
G36*
X73132867Y-55189351D02*
G01*
X73164711Y-55223632D01*
X73194333Y-55293845D01*
X73169557Y-55359928D01*
X73091481Y-55420752D01*
X72995283Y-55434814D01*
X72939661Y-55397394D01*
X72919166Y-55293845D01*
X72919940Y-55273694D01*
X72957078Y-55177551D01*
X73034974Y-55146053D01*
X73132867Y-55189351D01*
G37*
G36*
X73257833Y-54523419D02*
G01*
X73264490Y-54526414D01*
X73311433Y-54588717D01*
X73317634Y-54676211D01*
X73278621Y-54741906D01*
X73270193Y-54746530D01*
X73183544Y-54751532D01*
X73102899Y-54706299D01*
X73067333Y-54631289D01*
X73083801Y-54569361D01*
X73155134Y-54516503D01*
X73257833Y-54523419D01*
G37*
G36*
X73641668Y-53377688D02*
G01*
X73682496Y-53414954D01*
X73694585Y-53520276D01*
X73690840Y-53546631D01*
X73656681Y-53618699D01*
X73575333Y-53637324D01*
X73551412Y-53636523D01*
X73482965Y-53607882D01*
X73456082Y-53520276D01*
X73467232Y-53425959D01*
X73533169Y-53367715D01*
X73641668Y-53377688D01*
G37*
G36*
X73825594Y-52178445D02*
G01*
X73887241Y-52201724D01*
X73888785Y-52203306D01*
X73911533Y-52272755D01*
X73871378Y-52335668D01*
X73786420Y-52363076D01*
X73704452Y-52343452D01*
X73667639Y-52267507D01*
X73665651Y-52250706D01*
X73680506Y-52187911D01*
X73755833Y-52171939D01*
X73825594Y-52178445D01*
G37*
G36*
X74038969Y-51767780D02*
G01*
X74068069Y-51782065D01*
X74118782Y-51857367D01*
X74118834Y-51955940D01*
X74064873Y-52042261D01*
X74006875Y-52070614D01*
X73916706Y-52045967D01*
X73857326Y-51994054D01*
X73833039Y-51906312D01*
X73862806Y-51822083D01*
X73935245Y-51767271D01*
X74038969Y-51767780D01*
G37*
G36*
X74554148Y-52008942D02*
G01*
X74575984Y-52050041D01*
X74580599Y-52143791D01*
X74503961Y-52215867D01*
X74490709Y-52222344D01*
X74391105Y-52230742D01*
X74320714Y-52173939D01*
X74303540Y-52069468D01*
X74322651Y-52023813D01*
X74395128Y-51972975D01*
X74484976Y-51964955D01*
X74554148Y-52008942D01*
G37*
G36*
X71031202Y-51923057D02*
G01*
X71091777Y-51945406D01*
X71094976Y-51948772D01*
X71117591Y-52023297D01*
X71083725Y-52100993D01*
X71014250Y-52154582D01*
X70930039Y-52156786D01*
X70888617Y-52115153D01*
X70866000Y-52024610D01*
X70866278Y-52008968D01*
X70889381Y-51936181D01*
X70964777Y-51917089D01*
X71031202Y-51923057D01*
G37*
G36*
X71162539Y-52817366D02*
G01*
X71218963Y-52862156D01*
X71219965Y-52864666D01*
X71240865Y-52973388D01*
X71196200Y-53055417D01*
X71150775Y-53088585D01*
X71057663Y-53101571D01*
X70978529Y-53060190D01*
X70936915Y-52981435D01*
X70956360Y-52882297D01*
X70987191Y-52848042D01*
X71072390Y-52813650D01*
X71162539Y-52817366D01*
G37*
G36*
X72076193Y-53968474D02*
G01*
X72154142Y-54022632D01*
X72211530Y-54117341D01*
X72208885Y-54223342D01*
X72145155Y-54305286D01*
X72030166Y-54338160D01*
X71925102Y-54311528D01*
X71855477Y-54233597D01*
X71845896Y-54128960D01*
X71906190Y-54022632D01*
X71955792Y-53983736D01*
X72030166Y-53955885D01*
X72076193Y-53968474D01*
G37*
G36*
X72282042Y-55440738D02*
G01*
X72317728Y-55480142D01*
X72347666Y-55555229D01*
X72346504Y-55570276D01*
X72304644Y-55629201D01*
X72226524Y-55640343D01*
X72144812Y-55596978D01*
X72115678Y-55565953D01*
X72098634Y-55516673D01*
X72145970Y-55456775D01*
X72157740Y-55445295D01*
X72219701Y-55409628D01*
X72282042Y-55440738D01*
G37*
G36*
X72415243Y-52557608D02*
G01*
X72448770Y-52602827D01*
X72466126Y-52699159D01*
X72463401Y-52714204D01*
X72423603Y-52771848D01*
X72326500Y-52787825D01*
X72259717Y-52783956D01*
X72210055Y-52750839D01*
X72199500Y-52660982D01*
X72200342Y-52639747D01*
X72237790Y-52543574D01*
X72316167Y-52512963D01*
X72415243Y-52557608D01*
G37*
G36*
X72481466Y-54202504D02*
G01*
X72569268Y-54271349D01*
X72603127Y-54355916D01*
X72589765Y-54469349D01*
X72521284Y-54557523D01*
X72411166Y-54593009D01*
X72334566Y-54580244D01*
X72249922Y-54506152D01*
X72220666Y-54370771D01*
X72225698Y-54328298D01*
X72281361Y-54239055D01*
X72376057Y-54194431D01*
X72481466Y-54202504D01*
G37*
G36*
X72744563Y-52371947D02*
G01*
X72745263Y-52372661D01*
X72766419Y-52446649D01*
X72739711Y-52540180D01*
X72676544Y-52612868D01*
X72624329Y-52630300D01*
X72545415Y-52604324D01*
X72494470Y-52530488D01*
X72494335Y-52431525D01*
X72498562Y-52420590D01*
X72564730Y-52358390D01*
X72661052Y-52338766D01*
X72744563Y-52371947D01*
G37*
G36*
X73033376Y-51728620D02*
G01*
X73049295Y-51734572D01*
X73096932Y-51784976D01*
X73101496Y-51888864D01*
X73090208Y-51960761D01*
X73051444Y-52012073D01*
X72961500Y-52023277D01*
X72894904Y-52019007D01*
X72841631Y-51983899D01*
X72821637Y-51890655D01*
X72838049Y-51774109D01*
X72911076Y-51717936D01*
X73033376Y-51728620D01*
G37*
G36*
X73039297Y-54816002D02*
G01*
X73053027Y-54852918D01*
X73055867Y-54918193D01*
X73001708Y-54977053D01*
X72999733Y-54978688D01*
X72935902Y-55009045D01*
X72873153Y-54968557D01*
X72842195Y-54920561D01*
X72837473Y-54834162D01*
X72842781Y-54822659D01*
X72904738Y-54772294D01*
X72983972Y-54768840D01*
X73039297Y-54816002D01*
G37*
G36*
X73490572Y-54856507D02*
G01*
X73547297Y-54900952D01*
X73563229Y-54944423D01*
X73564459Y-55004901D01*
X73519619Y-55077971D01*
X73445639Y-55131818D01*
X73348181Y-55125984D01*
X73264826Y-55053175D01*
X73243288Y-54996904D01*
X73276055Y-54915131D01*
X73306412Y-54887807D01*
X73397866Y-54852774D01*
X73490572Y-54856507D01*
G37*
G36*
X73470039Y-52172388D02*
G01*
X73510195Y-52207002D01*
X73529521Y-52247716D01*
X73507304Y-52317127D01*
X73468658Y-52359254D01*
X73380304Y-52384313D01*
X73363305Y-52383921D01*
X73296323Y-52358640D01*
X73279000Y-52276793D01*
X73279048Y-52272060D01*
X73309770Y-52175526D01*
X73381269Y-52138020D01*
X73470039Y-52172388D01*
G37*
G36*
X73444203Y-54174227D02*
G01*
X73504778Y-54196577D01*
X73507976Y-54199943D01*
X73530592Y-54274468D01*
X73496726Y-54352164D01*
X73427251Y-54405753D01*
X73343039Y-54407957D01*
X73301617Y-54366324D01*
X73279000Y-54275780D01*
X73279278Y-54260138D01*
X73302382Y-54187352D01*
X73377778Y-54168260D01*
X73444203Y-54174227D01*
G37*
G36*
X73552758Y-51703542D02*
G01*
X73592971Y-51761088D01*
X73609224Y-51870979D01*
X73602031Y-51912581D01*
X73562857Y-51967450D01*
X73469500Y-51980802D01*
X73404538Y-51977174D01*
X73353541Y-51945099D01*
X73342500Y-51858006D01*
X73347132Y-51805558D01*
X73390974Y-51709995D01*
X73465810Y-51671366D01*
X73552758Y-51703542D01*
G37*
G36*
X73795385Y-54427612D02*
G01*
X73847573Y-54476063D01*
X73863620Y-54585247D01*
X73855728Y-54631149D01*
X73816538Y-54686089D01*
X73723500Y-54699196D01*
X73682741Y-54697738D01*
X73610030Y-54671126D01*
X73581896Y-54595389D01*
X73580007Y-54559160D01*
X73614850Y-54461429D01*
X73694540Y-54411374D01*
X73795385Y-54427612D01*
G37*
G36*
X74024005Y-53959359D02*
G01*
X74061882Y-54019230D01*
X74074890Y-54122149D01*
X74074120Y-54128355D01*
X74039013Y-54212635D01*
X73948597Y-54245137D01*
X73856384Y-54232757D01*
X73785522Y-54170282D01*
X73761366Y-54081530D01*
X73790024Y-53993392D01*
X73877609Y-53932756D01*
X73933565Y-53927037D01*
X74024005Y-53959359D01*
G37*
G36*
X74168099Y-53451683D02*
G01*
X74220010Y-53520546D01*
X74228131Y-53594948D01*
X74194375Y-53708739D01*
X74098892Y-53769956D01*
X74026967Y-53774431D01*
X73932400Y-53730093D01*
X73876922Y-53643829D01*
X73873379Y-53540919D01*
X73934617Y-53446644D01*
X73972391Y-53425187D01*
X74072911Y-53416621D01*
X74168099Y-53451683D01*
G37*
G36*
X71769111Y-53686878D02*
G01*
X71790030Y-53725263D01*
X71797717Y-53820216D01*
X71775919Y-53916752D01*
X71730370Y-53972579D01*
X71658337Y-53993622D01*
X71560573Y-53979724D01*
X71493868Y-53893431D01*
X71467812Y-53797934D01*
X71499959Y-53723531D01*
X71504368Y-53718542D01*
X71587868Y-53671558D01*
X71691209Y-53658948D01*
X71769111Y-53686878D01*
G37*
G36*
X72212200Y-52053009D02*
G01*
X72245008Y-52107615D01*
X72260772Y-52221175D01*
X72230601Y-52323699D01*
X72212140Y-52346125D01*
X72108946Y-52396263D01*
X71977250Y-52380101D01*
X71934231Y-52351854D01*
X71886431Y-52260382D01*
X71884316Y-52148715D01*
X71932800Y-52053009D01*
X72000752Y-52014243D01*
X72115489Y-52007461D01*
X72212200Y-52053009D01*
G37*
G36*
X72595019Y-51884935D02*
G01*
X72605924Y-51897671D01*
X72635669Y-51995684D01*
X72614504Y-52106516D01*
X72548750Y-52188675D01*
X72541040Y-52193209D01*
X72443788Y-52206730D01*
X72359039Y-52153357D01*
X72312666Y-52048457D01*
X72310998Y-52034143D01*
X72332766Y-51923251D01*
X72403429Y-51852111D01*
X72498882Y-51834686D01*
X72595019Y-51884935D01*
G37*
G36*
X74228476Y-53003234D02*
G01*
X74266369Y-53055396D01*
X74295000Y-53148862D01*
X74270311Y-53236181D01*
X74188847Y-53324626D01*
X74081285Y-53361237D01*
X74006597Y-53331897D01*
X73931274Y-53255049D01*
X73893727Y-53191172D01*
X73886482Y-53125807D01*
X73931274Y-53042675D01*
X74012408Y-52962038D01*
X74120699Y-52942150D01*
X74228476Y-53003234D01*
G37*
G36*
X72678797Y-53756736D02*
G01*
X72746809Y-53810257D01*
X72797222Y-53866368D01*
X72807038Y-53919170D01*
X72769511Y-54001153D01*
X72728437Y-54049132D01*
X72644000Y-54083310D01*
X72577598Y-54057714D01*
X72506151Y-53983667D01*
X72474666Y-53897999D01*
X72478042Y-53885792D01*
X72522513Y-53829033D01*
X72590046Y-53770463D01*
X72644000Y-53743511D01*
X72678797Y-53756736D01*
G37*
G36*
X73744667Y-64723277D02*
G01*
X73744667Y-65254214D01*
X73596500Y-65254214D01*
X73448333Y-65254214D01*
X73448333Y-64914414D01*
X73448333Y-64574615D01*
X73300167Y-64574615D01*
X73152000Y-64574615D01*
X73152000Y-64893177D01*
X73152000Y-65211739D01*
X73025000Y-65211739D01*
X72898000Y-65211739D01*
X72898000Y-64893177D01*
X72898000Y-64574615D01*
X72771000Y-64574615D01*
X72644000Y-64574615D01*
X72644000Y-64893177D01*
X72644000Y-65211739D01*
X72495833Y-65211739D01*
X72347666Y-65211739D01*
X72347666Y-64702040D01*
X72347666Y-64192341D01*
X73046167Y-64192341D01*
X73744667Y-64192341D01*
X73744667Y-64723277D01*
G37*
G36*
X72434234Y-62648133D02*
G01*
X72536227Y-62695688D01*
X72690585Y-62768502D01*
X72883498Y-62860053D01*
X73101157Y-62963820D01*
X73218223Y-63019922D01*
X73424352Y-63120606D01*
X73568670Y-63195723D01*
X73661592Y-63252028D01*
X73713537Y-63296279D01*
X73734919Y-63335229D01*
X73736157Y-63375634D01*
X73732612Y-63393631D01*
X73707617Y-63439294D01*
X73650718Y-63488625D01*
X73550372Y-63548923D01*
X73395035Y-63627486D01*
X73173167Y-63731612D01*
X73115265Y-63758269D01*
X72907273Y-63853643D01*
X72720589Y-63938689D01*
X72573740Y-64004991D01*
X72485250Y-64044133D01*
X72347666Y-64103056D01*
X72347666Y-63899344D01*
X72347666Y-63695632D01*
X72715273Y-63528203D01*
X73082881Y-63360775D01*
X72715273Y-63196428D01*
X72347666Y-63032080D01*
X72347666Y-62821880D01*
X72350465Y-62727948D01*
X72366949Y-62646455D01*
X72400583Y-62633034D01*
X72434234Y-62648133D01*
G37*
G36*
X73046167Y-56207056D02*
G01*
X73754269Y-56207056D01*
X73738091Y-56642424D01*
X73721542Y-56870342D01*
X73668421Y-57142914D01*
X73577643Y-57345160D01*
X73445397Y-57482218D01*
X73267870Y-57559222D01*
X73041251Y-57581308D01*
X72878890Y-57567443D01*
X72689903Y-57505350D01*
X72547564Y-57387962D01*
X72447373Y-57209120D01*
X72384828Y-56962661D01*
X72355429Y-56642424D01*
X72353311Y-56589330D01*
X72644000Y-56589330D01*
X72644000Y-56740102D01*
X72648214Y-56806720D01*
X72686460Y-56960198D01*
X72753648Y-57086836D01*
X72836396Y-57157594D01*
X72914540Y-57176082D01*
X73053708Y-57181745D01*
X73189717Y-57165393D01*
X73282668Y-57129535D01*
X73332188Y-57080621D01*
X73399085Y-56985016D01*
X73400782Y-56981730D01*
X73434423Y-56872214D01*
X73448333Y-56740785D01*
X73448333Y-56589330D01*
X73046167Y-56589330D01*
X72644000Y-56589330D01*
X72353311Y-56589330D01*
X72338063Y-56207056D01*
X73046167Y-56207056D01*
G37*
G36*
X72484457Y-66713100D02*
G01*
X72606146Y-66796893D01*
X72784480Y-66930304D01*
X73096037Y-67165585D01*
X73420352Y-67165585D01*
X73744667Y-67165585D01*
X73744667Y-67356722D01*
X73744667Y-67547859D01*
X73424667Y-67547859D01*
X73104668Y-67547859D01*
X72771000Y-67802709D01*
X72678250Y-67872245D01*
X72544262Y-67967690D01*
X72443437Y-68033215D01*
X72392499Y-68057558D01*
X72377856Y-68047009D01*
X72356070Y-67974306D01*
X72347666Y-67852384D01*
X72350508Y-67750029D01*
X72371488Y-67664063D01*
X72428196Y-67594541D01*
X72538166Y-67509945D01*
X72616306Y-67452176D01*
X72697272Y-67387822D01*
X72728666Y-67356123D01*
X72712430Y-67338245D01*
X72643242Y-67283361D01*
X72538166Y-67208060D01*
X72440386Y-67137306D01*
X72377051Y-67070036D01*
X72352056Y-66988909D01*
X72347666Y-66861676D01*
X72347686Y-66840107D01*
X72351030Y-66742430D01*
X72367724Y-66687569D01*
X72408591Y-66677226D01*
X72484457Y-66713100D01*
G37*
G36*
X73222249Y-59627207D02*
G01*
X73434176Y-59715234D01*
X73599298Y-59861387D01*
X73703411Y-60056104D01*
X73723732Y-60170729D01*
X73729827Y-60347796D01*
X73719701Y-60542186D01*
X73695278Y-60720027D01*
X73658481Y-60847441D01*
X73623556Y-60908126D01*
X73557147Y-60953266D01*
X73441538Y-60964247D01*
X73409753Y-60964042D01*
X73316516Y-60960394D01*
X73279021Y-60953628D01*
X73287248Y-60927417D01*
X73318439Y-60840700D01*
X73364915Y-60716320D01*
X73421307Y-60520109D01*
X73423928Y-60345976D01*
X73385479Y-60220561D01*
X73291611Y-60086968D01*
X73167948Y-60012355D01*
X73030791Y-59994525D01*
X72896441Y-60031283D01*
X72781199Y-60120431D01*
X72701367Y-60259773D01*
X72673245Y-60447114D01*
X72676078Y-60500827D01*
X72702175Y-60658976D01*
X72745914Y-60786744D01*
X72815507Y-60921772D01*
X72628061Y-60921772D01*
X72584950Y-60921430D01*
X72485125Y-60910543D01*
X72431375Y-60871703D01*
X72394141Y-60788009D01*
X72365820Y-60680127D01*
X72346766Y-60440850D01*
X72373274Y-60196176D01*
X72442916Y-59986048D01*
X72467310Y-59940595D01*
X72615513Y-59754147D01*
X72804172Y-59642316D01*
X73033363Y-59605050D01*
X73222249Y-59627207D01*
G37*
G36*
X73111913Y-61136521D02*
G01*
X73333285Y-61189838D01*
X73511116Y-61315202D01*
X73649417Y-61515145D01*
X73672166Y-61563869D01*
X73738770Y-61806694D01*
X73736971Y-62049514D01*
X73671190Y-62275325D01*
X73545845Y-62467125D01*
X73365359Y-62607910D01*
X73338268Y-62621861D01*
X73131964Y-62693347D01*
X72936217Y-62688697D01*
X72726974Y-62607910D01*
X72685286Y-62583777D01*
X72515856Y-62431031D01*
X72402484Y-62230792D01*
X72349590Y-62000063D01*
X72351557Y-61960055D01*
X72663724Y-61960055D01*
X72706789Y-62082330D01*
X72730549Y-62126629D01*
X72846872Y-62252759D01*
X72989784Y-62312144D01*
X73139758Y-62304615D01*
X73277269Y-62230006D01*
X73382793Y-62088147D01*
X73414236Y-62019807D01*
X73440989Y-61933948D01*
X73431627Y-61855755D01*
X73386621Y-61742759D01*
X73316050Y-61630941D01*
X73189788Y-61539558D01*
X73044071Y-61511232D01*
X72898562Y-61544604D01*
X72772924Y-61638320D01*
X72686821Y-61791022D01*
X72670152Y-61848426D01*
X72663724Y-61960055D01*
X72351557Y-61960055D01*
X72361594Y-61755846D01*
X72442916Y-61515145D01*
X72475578Y-61455367D01*
X72623855Y-61275222D01*
X72812714Y-61168993D01*
X73044071Y-61134460D01*
X73046167Y-61134147D01*
X73111913Y-61136521D01*
G37*
G36*
X73456761Y-58423822D02*
G01*
X73487117Y-58426208D01*
X73591438Y-58444718D01*
X73648520Y-58490678D01*
X73689361Y-58585651D01*
X73727731Y-58735045D01*
X73743244Y-58953638D01*
X73713073Y-59152770D01*
X73640927Y-59313080D01*
X73530513Y-59415203D01*
X73441470Y-59451762D01*
X73268784Y-59464370D01*
X73111332Y-59396649D01*
X72974089Y-59251453D01*
X72862031Y-59031638D01*
X72826041Y-58946716D01*
X72763349Y-58845386D01*
X72712481Y-58821793D01*
X72679287Y-58876582D01*
X72669616Y-59010400D01*
X72671424Y-59055482D01*
X72685116Y-59194778D01*
X72706303Y-59297106D01*
X72719286Y-59360530D01*
X72686576Y-59387258D01*
X72588720Y-59392675D01*
X72488655Y-59383993D01*
X72431076Y-59341006D01*
X72388434Y-59239253D01*
X72373394Y-59178622D01*
X72355495Y-59021145D01*
X72356911Y-58856652D01*
X72381920Y-58700788D01*
X72455559Y-58539867D01*
X72577052Y-58446139D01*
X72749833Y-58415752D01*
X72799702Y-58417594D01*
X72920204Y-58446681D01*
X73020178Y-58520891D01*
X73112813Y-58652775D01*
X73211298Y-58854883D01*
X73263928Y-58963194D01*
X73327022Y-59058437D01*
X73373579Y-59085212D01*
X73393781Y-59073335D01*
X73431250Y-58995309D01*
X73438437Y-58871581D01*
X73415823Y-58726918D01*
X73363889Y-58586088D01*
X73274688Y-58410656D01*
X73456761Y-58423822D01*
G37*
G36*
X72773682Y-65466588D02*
G01*
X73046167Y-65466588D01*
X73744667Y-65466588D01*
X73744667Y-65657725D01*
X73744667Y-65848862D01*
X73469500Y-65848862D01*
X73427769Y-65849075D01*
X73288371Y-65856018D01*
X73215415Y-65875148D01*
X73194333Y-65909683D01*
X73199769Y-65933651D01*
X73265764Y-66011952D01*
X73398093Y-66103410D01*
X73585917Y-66199990D01*
X73634471Y-66222875D01*
X73708804Y-66272990D01*
X73738979Y-66342479D01*
X73744667Y-66464062D01*
X73744208Y-66496911D01*
X73728610Y-66615352D01*
X73691750Y-66655755D01*
X73687484Y-66655414D01*
X73617882Y-66632800D01*
X73499384Y-66581785D01*
X73355040Y-66512198D01*
X73258351Y-66463745D01*
X73149143Y-66413839D01*
X73082906Y-66397068D01*
X73039611Y-66409853D01*
X72999228Y-66448616D01*
X72962766Y-66478546D01*
X72838603Y-66521510D01*
X72689893Y-66523772D01*
X72552966Y-66482567D01*
X72502487Y-66445399D01*
X72416805Y-66308089D01*
X72365033Y-66094998D01*
X72355930Y-65944431D01*
X72644648Y-65944431D01*
X72655425Y-66033114D01*
X72708140Y-66120984D01*
X72797239Y-66139400D01*
X72858318Y-66098484D01*
X72890098Y-65986558D01*
X72892838Y-65897452D01*
X72861842Y-65856609D01*
X72773682Y-65848862D01*
X72722673Y-65850911D01*
X72659796Y-65876111D01*
X72644648Y-65944431D01*
X72355930Y-65944431D01*
X72347666Y-65807752D01*
X72347666Y-65466588D01*
X72773682Y-65466588D01*
G37*
%TD*%
%LPC*%
D12*
%TO.C,Q7*%
X46990000Y-53340000D03*
D13*
X49530000Y-53340000D03*
X52070000Y-53340000D03*
%TD*%
D12*
%TO.C,Q10*%
X46990000Y-67945000D03*
D13*
X49530000Y-67945000D03*
X52070000Y-67945000D03*
%TD*%
D14*
%TO.C,H4*%
X40640000Y-74295000D03*
%TD*%
%TO.C,H2*%
X73025000Y-74295000D03*
%TD*%
D12*
%TO.C,Q8*%
X66040000Y-44450000D03*
D13*
X63500000Y-44450000D03*
X60960000Y-44450000D03*
%TD*%
D14*
%TO.C,H1*%
X73025000Y-32385000D03*
%TD*%
D12*
%TO.C,Q12*%
X46990000Y-60960000D03*
D13*
X49530000Y-60960000D03*
X52070000Y-60960000D03*
%TD*%
D12*
%TO.C,Q2*%
X46990000Y-46355000D03*
D13*
X49530000Y-46355000D03*
X52070000Y-46355000D03*
%TD*%
D15*
%TO.C,J5*%
X33020000Y-74055000D03*
D16*
X33020000Y-71555000D03*
X33020000Y-69055000D03*
X33020000Y-66555000D03*
X33020000Y-64055000D03*
X33020000Y-61555000D03*
X33020000Y-59055000D03*
X33020000Y-56555000D03*
%TD*%
D12*
%TO.C,Q9*%
X66040000Y-66040000D03*
D13*
X63500000Y-66040000D03*
X60960000Y-66040000D03*
%TD*%
D17*
%TO.C,J6*%
X81280000Y-74930000D03*
D18*
X81280000Y-72390000D03*
X81280000Y-69850000D03*
X81280000Y-67310000D03*
X81280000Y-64770000D03*
X81280000Y-62230000D03*
X81280000Y-59690000D03*
X81280000Y-57150000D03*
%TD*%
D12*
%TO.C,Q4*%
X46990000Y-39370000D03*
D13*
X49530000Y-39370000D03*
X52070000Y-39370000D03*
%TD*%
D12*
%TO.C,Q3*%
X66040000Y-37465000D03*
D13*
X63500000Y-37465000D03*
X60960000Y-37465000D03*
%TD*%
D12*
%TO.C,Q11*%
X66040000Y-59055000D03*
D13*
X63500000Y-59055000D03*
X60960000Y-59055000D03*
%TD*%
D12*
%TO.C,Q6*%
X46990000Y-32290236D03*
D13*
X49530000Y-32290236D03*
X52070000Y-32290236D03*
%TD*%
D17*
%TO.C,J1*%
X81280000Y-46355000D03*
D18*
X81280000Y-43815000D03*
X81280000Y-41275000D03*
X81280000Y-38735000D03*
X81280000Y-36195000D03*
X81280000Y-33655000D03*
X81280000Y-31115000D03*
%TD*%
D14*
%TO.C,H3*%
X40640000Y-32385000D03*
%TD*%
D12*
%TO.C,Q5*%
X66040000Y-30480000D03*
D13*
X63500000Y-30480000D03*
X60960000Y-30480000D03*
%TD*%
D12*
%TO.C,Q15*%
X46990000Y-75240000D03*
D13*
X49530000Y-75240000D03*
X52070000Y-75240000D03*
%TD*%
D12*
%TO.C,Q13*%
X66040000Y-51435000D03*
D13*
X63500000Y-51435000D03*
X60960000Y-51435000D03*
%TD*%
D15*
%TO.C,J4*%
X33020000Y-48655000D03*
D16*
X33020000Y-46155000D03*
X33020000Y-43655000D03*
X33020000Y-41155000D03*
X33020000Y-38655000D03*
X33020000Y-36155000D03*
X33020000Y-33655000D03*
X33020000Y-31155000D03*
%TD*%
D12*
%TO.C,Q14*%
X66040000Y-73025000D03*
D13*
X63500000Y-73025000D03*
X60960000Y-73025000D03*
%TD*%
%LPD*%
M02*
