%TF.GenerationSoftware,KiCad,Pcbnew,9.0.1*%
%TF.CreationDate,2025-05-07T23:59:22-03:00*%
%TF.ProjectId,Display,44697370-6c61-4792-9e6b-696361645f70,rev?*%
%TF.SameCoordinates,Original*%
%TF.FileFunction,Legend,Top*%
%TF.FilePolarity,Positive*%
%FSLAX46Y46*%
G04 Gerber Fmt 4.6, Leading zero omitted, Abs format (unit mm)*
G04 Created by KiCad (PCBNEW 9.0.1) date 2025-05-07 23:59:22*
%MOMM*%
%LPD*%
G01*
G04 APERTURE LIST*
G04 Aperture macros list*
%AMRoundRect*
0 Rectangle with rounded corners*
0 $1 Rounding radius*
0 $2 $3 $4 $5 $6 $7 $8 $9 X,Y pos of 4 corners*
0 Add a 4 corners polygon primitive as box body*
4,1,4,$2,$3,$4,$5,$6,$7,$8,$9,$2,$3,0*
0 Add four circle primitives for the rounded corners*
1,1,$1+$1,$2,$3*
1,1,$1+$1,$4,$5*
1,1,$1+$1,$6,$7*
1,1,$1+$1,$8,$9*
0 Add four rect primitives between the rounded corners*
20,1,$1+$1,$2,$3,$4,$5,0*
20,1,$1+$1,$4,$5,$6,$7,0*
20,1,$1+$1,$6,$7,$8,$9,0*
20,1,$1+$1,$8,$9,$2,$3,0*%
G04 Aperture macros list end*
%ADD10C,0.125000*%
%ADD11C,0.150000*%
%ADD12C,0.120000*%
%ADD13R,1.905000X2.000000*%
%ADD14O,1.905000X2.000000*%
%ADD15C,3.000000*%
%ADD16RoundRect,0.250000X0.725000X-0.600000X0.725000X0.600000X-0.725000X0.600000X-0.725000X-0.600000X0*%
%ADD17O,1.950000X1.700000*%
%ADD18RoundRect,0.249999X0.850001X-0.850001X0.850001X0.850001X-0.850001X0.850001X-0.850001X-0.850001X0*%
%ADD19C,2.200000*%
G04 APERTURE END LIST*
D10*
X86145714Y-65226119D02*
X86145714Y-64226119D01*
X86145714Y-64607071D02*
X86240952Y-64559452D01*
X86240952Y-64559452D02*
X86431428Y-64559452D01*
X86431428Y-64559452D02*
X86526666Y-64607071D01*
X86526666Y-64607071D02*
X86574285Y-64654690D01*
X86574285Y-64654690D02*
X86621904Y-64749928D01*
X86621904Y-64749928D02*
X86621904Y-65035642D01*
X86621904Y-65035642D02*
X86574285Y-65130880D01*
X86574285Y-65130880D02*
X86526666Y-65178500D01*
X86526666Y-65178500D02*
X86431428Y-65226119D01*
X86431428Y-65226119D02*
X86240952Y-65226119D01*
X86240952Y-65226119D02*
X86145714Y-65178500D01*
D11*
X86574285Y-69638152D02*
X86574285Y-70447676D01*
X86574285Y-70447676D02*
X86526666Y-70542914D01*
X86526666Y-70542914D02*
X86479047Y-70590533D01*
X86479047Y-70590533D02*
X86383809Y-70638152D01*
X86383809Y-70638152D02*
X86240952Y-70638152D01*
X86240952Y-70638152D02*
X86145714Y-70590533D01*
X86574285Y-70257200D02*
X86479047Y-70304819D01*
X86479047Y-70304819D02*
X86288571Y-70304819D01*
X86288571Y-70304819D02*
X86193333Y-70257200D01*
X86193333Y-70257200D02*
X86145714Y-70209580D01*
X86145714Y-70209580D02*
X86098095Y-70114342D01*
X86098095Y-70114342D02*
X86098095Y-69828628D01*
X86098095Y-69828628D02*
X86145714Y-69733390D01*
X86145714Y-69733390D02*
X86193333Y-69685771D01*
X86193333Y-69685771D02*
X86288571Y-69638152D01*
X86288571Y-69638152D02*
X86479047Y-69638152D01*
X86479047Y-69638152D02*
X86574285Y-69685771D01*
D10*
X29448095Y-39143500D02*
X29352857Y-39191119D01*
X29352857Y-39191119D02*
X29162381Y-39191119D01*
X29162381Y-39191119D02*
X29067143Y-39143500D01*
X29067143Y-39143500D02*
X29019524Y-39095880D01*
X29019524Y-39095880D02*
X28971905Y-39000642D01*
X28971905Y-39000642D02*
X28971905Y-38714928D01*
X28971905Y-38714928D02*
X29019524Y-38619690D01*
X29019524Y-38619690D02*
X29067143Y-38572071D01*
X29067143Y-38572071D02*
X29162381Y-38524452D01*
X29162381Y-38524452D02*
X29352857Y-38524452D01*
X29352857Y-38524452D02*
X29448095Y-38572071D01*
D11*
X29424285Y-69669819D02*
X29424285Y-69146009D01*
X29424285Y-69146009D02*
X29376666Y-69050771D01*
X29376666Y-69050771D02*
X29281428Y-69003152D01*
X29281428Y-69003152D02*
X29090952Y-69003152D01*
X29090952Y-69003152D02*
X28995714Y-69050771D01*
X29424285Y-69622200D02*
X29329047Y-69669819D01*
X29329047Y-69669819D02*
X29090952Y-69669819D01*
X29090952Y-69669819D02*
X28995714Y-69622200D01*
X28995714Y-69622200D02*
X28948095Y-69526961D01*
X28948095Y-69526961D02*
X28948095Y-69431723D01*
X28948095Y-69431723D02*
X28995714Y-69336485D01*
X28995714Y-69336485D02*
X29090952Y-69288866D01*
X29090952Y-69288866D02*
X29329047Y-69288866D01*
X29329047Y-69288866D02*
X29424285Y-69241247D01*
X29019524Y-48683152D02*
X29400476Y-48683152D01*
X29162381Y-49349819D02*
X29162381Y-48492676D01*
X29162381Y-48492676D02*
X29210000Y-48397438D01*
X29210000Y-48397438D02*
X29305238Y-48349819D01*
X29305238Y-48349819D02*
X29400476Y-48349819D01*
X37554819Y-67071666D02*
X38364342Y-67071666D01*
X38364342Y-67071666D02*
X38459580Y-67024047D01*
X38459580Y-67024047D02*
X38507200Y-66976428D01*
X38507200Y-66976428D02*
X38554819Y-66881190D01*
X38554819Y-66881190D02*
X38554819Y-66690714D01*
X38554819Y-66690714D02*
X38507200Y-66595476D01*
X38507200Y-66595476D02*
X38459580Y-66547857D01*
X38459580Y-66547857D02*
X38364342Y-66500238D01*
X38364342Y-66500238D02*
X37554819Y-66500238D01*
X37888152Y-66024047D02*
X38554819Y-66024047D01*
X37983390Y-66024047D02*
X37935771Y-65976428D01*
X37935771Y-65976428D02*
X37888152Y-65881190D01*
X37888152Y-65881190D02*
X37888152Y-65738333D01*
X37888152Y-65738333D02*
X37935771Y-65643095D01*
X37935771Y-65643095D02*
X38031009Y-65595476D01*
X38031009Y-65595476D02*
X38554819Y-65595476D01*
X38554819Y-65119285D02*
X37888152Y-65119285D01*
X37554819Y-65119285D02*
X37602438Y-65166904D01*
X37602438Y-65166904D02*
X37650057Y-65119285D01*
X37650057Y-65119285D02*
X37602438Y-65071666D01*
X37602438Y-65071666D02*
X37554819Y-65119285D01*
X37554819Y-65119285D02*
X37650057Y-65119285D01*
X37888152Y-64785952D02*
X37888152Y-64405000D01*
X37554819Y-64643095D02*
X38411961Y-64643095D01*
X38411961Y-64643095D02*
X38507200Y-64595476D01*
X38507200Y-64595476D02*
X38554819Y-64500238D01*
X38554819Y-64500238D02*
X38554819Y-64405000D01*
X38507200Y-64119285D02*
X38554819Y-64024047D01*
X38554819Y-64024047D02*
X38554819Y-63833571D01*
X38554819Y-63833571D02*
X38507200Y-63738333D01*
X38507200Y-63738333D02*
X38411961Y-63690714D01*
X38411961Y-63690714D02*
X38364342Y-63690714D01*
X38364342Y-63690714D02*
X38269104Y-63738333D01*
X38269104Y-63738333D02*
X38221485Y-63833571D01*
X38221485Y-63833571D02*
X38221485Y-63976428D01*
X38221485Y-63976428D02*
X38173866Y-64071666D01*
X38173866Y-64071666D02*
X38078628Y-64119285D01*
X38078628Y-64119285D02*
X38031009Y-64119285D01*
X38031009Y-64119285D02*
X37935771Y-64071666D01*
X37935771Y-64071666D02*
X37888152Y-63976428D01*
X37888152Y-63976428D02*
X37888152Y-63833571D01*
X37888152Y-63833571D02*
X37935771Y-63738333D01*
X29400476Y-59462200D02*
X29305238Y-59509819D01*
X29305238Y-59509819D02*
X29114762Y-59509819D01*
X29114762Y-59509819D02*
X29019524Y-59462200D01*
X29019524Y-59462200D02*
X28971905Y-59366961D01*
X28971905Y-59366961D02*
X28971905Y-58986009D01*
X28971905Y-58986009D02*
X29019524Y-58890771D01*
X29019524Y-58890771D02*
X29114762Y-58843152D01*
X29114762Y-58843152D02*
X29305238Y-58843152D01*
X29305238Y-58843152D02*
X29400476Y-58890771D01*
X29400476Y-58890771D02*
X29448095Y-58986009D01*
X29448095Y-58986009D02*
X29448095Y-59081247D01*
X29448095Y-59081247D02*
X28971905Y-59176485D01*
X86585588Y-75384819D02*
X86014160Y-75384819D01*
X86299874Y-75384819D02*
X86299874Y-74384819D01*
X86299874Y-74384819D02*
X86204636Y-74527676D01*
X86204636Y-74527676D02*
X86109398Y-74622914D01*
X86109398Y-74622914D02*
X86014160Y-74670533D01*
X86966541Y-74480057D02*
X87014160Y-74432438D01*
X87014160Y-74432438D02*
X87109398Y-74384819D01*
X87109398Y-74384819D02*
X87347493Y-74384819D01*
X87347493Y-74384819D02*
X87442731Y-74432438D01*
X87442731Y-74432438D02*
X87490350Y-74480057D01*
X87490350Y-74480057D02*
X87537969Y-74575295D01*
X87537969Y-74575295D02*
X87537969Y-74670533D01*
X87537969Y-74670533D02*
X87490350Y-74813390D01*
X87490350Y-74813390D02*
X86918922Y-75384819D01*
X86918922Y-75384819D02*
X87537969Y-75384819D01*
X87823684Y-74384819D02*
X88157017Y-75384819D01*
X88157017Y-75384819D02*
X88490350Y-74384819D01*
X86574285Y-34109819D02*
X86574285Y-33109819D01*
X86574285Y-34062200D02*
X86479047Y-34109819D01*
X86479047Y-34109819D02*
X86288571Y-34109819D01*
X86288571Y-34109819D02*
X86193333Y-34062200D01*
X86193333Y-34062200D02*
X86145714Y-34014580D01*
X86145714Y-34014580D02*
X86098095Y-33919342D01*
X86098095Y-33919342D02*
X86098095Y-33633628D01*
X86098095Y-33633628D02*
X86145714Y-33538390D01*
X86145714Y-33538390D02*
X86193333Y-33490771D01*
X86193333Y-33490771D02*
X86288571Y-33443152D01*
X86288571Y-33443152D02*
X86479047Y-33443152D01*
X86479047Y-33443152D02*
X86574285Y-33490771D01*
X86169524Y-72178152D02*
X86550476Y-72178152D01*
X86312381Y-72844819D02*
X86312381Y-71987676D01*
X86312381Y-71987676D02*
X86360000Y-71892438D01*
X86360000Y-71892438D02*
X86455238Y-71844819D01*
X86455238Y-71844819D02*
X86550476Y-71844819D01*
D10*
X29448095Y-64543500D02*
X29352857Y-64591119D01*
X29352857Y-64591119D02*
X29162381Y-64591119D01*
X29162381Y-64591119D02*
X29067143Y-64543500D01*
X29067143Y-64543500D02*
X29019524Y-64495880D01*
X29019524Y-64495880D02*
X28971905Y-64400642D01*
X28971905Y-64400642D02*
X28971905Y-64114928D01*
X28971905Y-64114928D02*
X29019524Y-64019690D01*
X29019524Y-64019690D02*
X29067143Y-63972071D01*
X29067143Y-63972071D02*
X29162381Y-63924452D01*
X29162381Y-63924452D02*
X29352857Y-63924452D01*
X29352857Y-63924452D02*
X29448095Y-63972071D01*
X28995714Y-41731119D02*
X28995714Y-40731119D01*
X28995714Y-41112071D02*
X29090952Y-41064452D01*
X29090952Y-41064452D02*
X29281428Y-41064452D01*
X29281428Y-41064452D02*
X29376666Y-41112071D01*
X29376666Y-41112071D02*
X29424285Y-41159690D01*
X29424285Y-41159690D02*
X29471904Y-41254928D01*
X29471904Y-41254928D02*
X29471904Y-41540642D01*
X29471904Y-41540642D02*
X29424285Y-41635880D01*
X29424285Y-41635880D02*
X29376666Y-41683500D01*
X29376666Y-41683500D02*
X29281428Y-41731119D01*
X29281428Y-41731119D02*
X29090952Y-41731119D01*
X29090952Y-41731119D02*
X28995714Y-41683500D01*
X86598095Y-62638500D02*
X86502857Y-62686119D01*
X86502857Y-62686119D02*
X86312381Y-62686119D01*
X86312381Y-62686119D02*
X86217143Y-62638500D01*
X86217143Y-62638500D02*
X86169524Y-62590880D01*
X86169524Y-62590880D02*
X86121905Y-62495642D01*
X86121905Y-62495642D02*
X86121905Y-62209928D01*
X86121905Y-62209928D02*
X86169524Y-62114690D01*
X86169524Y-62114690D02*
X86217143Y-62067071D01*
X86217143Y-62067071D02*
X86312381Y-62019452D01*
X86312381Y-62019452D02*
X86502857Y-62019452D01*
X86502857Y-62019452D02*
X86598095Y-62067071D01*
D11*
X29424285Y-71543152D02*
X29424285Y-72352676D01*
X29424285Y-72352676D02*
X29376666Y-72447914D01*
X29376666Y-72447914D02*
X29329047Y-72495533D01*
X29329047Y-72495533D02*
X29233809Y-72543152D01*
X29233809Y-72543152D02*
X29090952Y-72543152D01*
X29090952Y-72543152D02*
X28995714Y-72495533D01*
X29424285Y-72162200D02*
X29329047Y-72209819D01*
X29329047Y-72209819D02*
X29138571Y-72209819D01*
X29138571Y-72209819D02*
X29043333Y-72162200D01*
X29043333Y-72162200D02*
X28995714Y-72114580D01*
X28995714Y-72114580D02*
X28948095Y-72019342D01*
X28948095Y-72019342D02*
X28948095Y-71733628D01*
X28948095Y-71733628D02*
X28995714Y-71638390D01*
X28995714Y-71638390D02*
X29043333Y-71590771D01*
X29043333Y-71590771D02*
X29138571Y-71543152D01*
X29138571Y-71543152D02*
X29329047Y-71543152D01*
X29329047Y-71543152D02*
X29424285Y-71590771D01*
X29424285Y-46143152D02*
X29424285Y-46952676D01*
X29424285Y-46952676D02*
X29376666Y-47047914D01*
X29376666Y-47047914D02*
X29329047Y-47095533D01*
X29329047Y-47095533D02*
X29233809Y-47143152D01*
X29233809Y-47143152D02*
X29090952Y-47143152D01*
X29090952Y-47143152D02*
X28995714Y-47095533D01*
X29424285Y-46762200D02*
X29329047Y-46809819D01*
X29329047Y-46809819D02*
X29138571Y-46809819D01*
X29138571Y-46809819D02*
X29043333Y-46762200D01*
X29043333Y-46762200D02*
X28995714Y-46714580D01*
X28995714Y-46714580D02*
X28948095Y-46619342D01*
X28948095Y-46619342D02*
X28948095Y-46333628D01*
X28948095Y-46333628D02*
X28995714Y-46238390D01*
X28995714Y-46238390D02*
X29043333Y-46190771D01*
X29043333Y-46190771D02*
X29138571Y-46143152D01*
X29138571Y-46143152D02*
X29329047Y-46143152D01*
X29329047Y-46143152D02*
X29424285Y-46190771D01*
X86574285Y-67764819D02*
X86574285Y-67241009D01*
X86574285Y-67241009D02*
X86526666Y-67145771D01*
X86526666Y-67145771D02*
X86431428Y-67098152D01*
X86431428Y-67098152D02*
X86240952Y-67098152D01*
X86240952Y-67098152D02*
X86145714Y-67145771D01*
X86574285Y-67717200D02*
X86479047Y-67764819D01*
X86479047Y-67764819D02*
X86240952Y-67764819D01*
X86240952Y-67764819D02*
X86145714Y-67717200D01*
X86145714Y-67717200D02*
X86098095Y-67621961D01*
X86098095Y-67621961D02*
X86098095Y-67526723D01*
X86098095Y-67526723D02*
X86145714Y-67431485D01*
X86145714Y-67431485D02*
X86240952Y-67383866D01*
X86240952Y-67383866D02*
X86479047Y-67383866D01*
X86479047Y-67383866D02*
X86574285Y-67336247D01*
D10*
X28995714Y-67131119D02*
X28995714Y-66131119D01*
X28995714Y-66512071D02*
X29090952Y-66464452D01*
X29090952Y-66464452D02*
X29281428Y-66464452D01*
X29281428Y-66464452D02*
X29376666Y-66512071D01*
X29376666Y-66512071D02*
X29424285Y-66559690D01*
X29424285Y-66559690D02*
X29471904Y-66654928D01*
X29471904Y-66654928D02*
X29471904Y-66940642D01*
X29471904Y-66940642D02*
X29424285Y-67035880D01*
X29424285Y-67035880D02*
X29376666Y-67083500D01*
X29376666Y-67083500D02*
X29281428Y-67131119D01*
X29281428Y-67131119D02*
X29090952Y-67131119D01*
X29090952Y-67131119D02*
X28995714Y-67083500D01*
D11*
X29400476Y-34062200D02*
X29305238Y-34109819D01*
X29305238Y-34109819D02*
X29114762Y-34109819D01*
X29114762Y-34109819D02*
X29019524Y-34062200D01*
X29019524Y-34062200D02*
X28971905Y-33966961D01*
X28971905Y-33966961D02*
X28971905Y-33586009D01*
X28971905Y-33586009D02*
X29019524Y-33490771D01*
X29019524Y-33490771D02*
X29114762Y-33443152D01*
X29114762Y-33443152D02*
X29305238Y-33443152D01*
X29305238Y-33443152D02*
X29400476Y-33490771D01*
X29400476Y-33490771D02*
X29448095Y-33586009D01*
X29448095Y-33586009D02*
X29448095Y-33681247D01*
X29448095Y-33681247D02*
X28971905Y-33776485D01*
X29424285Y-62049819D02*
X29424285Y-61049819D01*
X29424285Y-62002200D02*
X29329047Y-62049819D01*
X29329047Y-62049819D02*
X29138571Y-62049819D01*
X29138571Y-62049819D02*
X29043333Y-62002200D01*
X29043333Y-62002200D02*
X28995714Y-61954580D01*
X28995714Y-61954580D02*
X28948095Y-61859342D01*
X28948095Y-61859342D02*
X28948095Y-61573628D01*
X28948095Y-61573628D02*
X28995714Y-61478390D01*
X28995714Y-61478390D02*
X29043333Y-61430771D01*
X29043333Y-61430771D02*
X29138571Y-61383152D01*
X29138571Y-61383152D02*
X29329047Y-61383152D01*
X29329047Y-61383152D02*
X29424285Y-61430771D01*
X86574285Y-43603152D02*
X86574285Y-44412676D01*
X86574285Y-44412676D02*
X86526666Y-44507914D01*
X86526666Y-44507914D02*
X86479047Y-44555533D01*
X86479047Y-44555533D02*
X86383809Y-44603152D01*
X86383809Y-44603152D02*
X86240952Y-44603152D01*
X86240952Y-44603152D02*
X86145714Y-44555533D01*
X86574285Y-44222200D02*
X86479047Y-44269819D01*
X86479047Y-44269819D02*
X86288571Y-44269819D01*
X86288571Y-44269819D02*
X86193333Y-44222200D01*
X86193333Y-44222200D02*
X86145714Y-44174580D01*
X86145714Y-44174580D02*
X86098095Y-44079342D01*
X86098095Y-44079342D02*
X86098095Y-43793628D01*
X86098095Y-43793628D02*
X86145714Y-43698390D01*
X86145714Y-43698390D02*
X86193333Y-43650771D01*
X86193333Y-43650771D02*
X86288571Y-43603152D01*
X86288571Y-43603152D02*
X86479047Y-43603152D01*
X86479047Y-43603152D02*
X86574285Y-43650771D01*
X27813095Y-30617438D02*
X27717857Y-30569819D01*
X27717857Y-30569819D02*
X27575000Y-30569819D01*
X27575000Y-30569819D02*
X27432143Y-30617438D01*
X27432143Y-30617438D02*
X27336905Y-30712676D01*
X27336905Y-30712676D02*
X27289286Y-30807914D01*
X27289286Y-30807914D02*
X27241667Y-30998390D01*
X27241667Y-30998390D02*
X27241667Y-31141247D01*
X27241667Y-31141247D02*
X27289286Y-31331723D01*
X27289286Y-31331723D02*
X27336905Y-31426961D01*
X27336905Y-31426961D02*
X27432143Y-31522200D01*
X27432143Y-31522200D02*
X27575000Y-31569819D01*
X27575000Y-31569819D02*
X27670238Y-31569819D01*
X27670238Y-31569819D02*
X27813095Y-31522200D01*
X27813095Y-31522200D02*
X27860714Y-31474580D01*
X27860714Y-31474580D02*
X27860714Y-31141247D01*
X27860714Y-31141247D02*
X27670238Y-31141247D01*
X28289286Y-31569819D02*
X28289286Y-30569819D01*
X28289286Y-30569819D02*
X28860714Y-31569819D01*
X28860714Y-31569819D02*
X28860714Y-30569819D01*
X29336905Y-31569819D02*
X29336905Y-30569819D01*
X29336905Y-30569819D02*
X29575000Y-30569819D01*
X29575000Y-30569819D02*
X29717857Y-30617438D01*
X29717857Y-30617438D02*
X29813095Y-30712676D01*
X29813095Y-30712676D02*
X29860714Y-30807914D01*
X29860714Y-30807914D02*
X29908333Y-30998390D01*
X29908333Y-30998390D02*
X29908333Y-31141247D01*
X29908333Y-31141247D02*
X29860714Y-31331723D01*
X29860714Y-31331723D02*
X29813095Y-31426961D01*
X29813095Y-31426961D02*
X29717857Y-31522200D01*
X29717857Y-31522200D02*
X29575000Y-31569819D01*
X29575000Y-31569819D02*
X29336905Y-31569819D01*
D10*
X86598095Y-36603500D02*
X86502857Y-36651119D01*
X86502857Y-36651119D02*
X86312381Y-36651119D01*
X86312381Y-36651119D02*
X86217143Y-36603500D01*
X86217143Y-36603500D02*
X86169524Y-36555880D01*
X86169524Y-36555880D02*
X86121905Y-36460642D01*
X86121905Y-36460642D02*
X86121905Y-36174928D01*
X86121905Y-36174928D02*
X86169524Y-36079690D01*
X86169524Y-36079690D02*
X86217143Y-36032071D01*
X86217143Y-36032071D02*
X86312381Y-35984452D01*
X86312381Y-35984452D02*
X86502857Y-35984452D01*
X86502857Y-35984452D02*
X86598095Y-36032071D01*
D11*
X37554819Y-41576428D02*
X37554819Y-41005000D01*
X38554819Y-41290714D02*
X37554819Y-41290714D01*
X38507200Y-40290714D02*
X38554819Y-40385952D01*
X38554819Y-40385952D02*
X38554819Y-40576428D01*
X38554819Y-40576428D02*
X38507200Y-40671666D01*
X38507200Y-40671666D02*
X38411961Y-40719285D01*
X38411961Y-40719285D02*
X38031009Y-40719285D01*
X38031009Y-40719285D02*
X37935771Y-40671666D01*
X37935771Y-40671666D02*
X37888152Y-40576428D01*
X37888152Y-40576428D02*
X37888152Y-40385952D01*
X37888152Y-40385952D02*
X37935771Y-40290714D01*
X37935771Y-40290714D02*
X38031009Y-40243095D01*
X38031009Y-40243095D02*
X38126247Y-40243095D01*
X38126247Y-40243095D02*
X38221485Y-40719285D01*
X37888152Y-39814523D02*
X38554819Y-39814523D01*
X37983390Y-39814523D02*
X37935771Y-39766904D01*
X37935771Y-39766904D02*
X37888152Y-39671666D01*
X37888152Y-39671666D02*
X37888152Y-39528809D01*
X37888152Y-39528809D02*
X37935771Y-39433571D01*
X37935771Y-39433571D02*
X38031009Y-39385952D01*
X38031009Y-39385952D02*
X38554819Y-39385952D01*
X38507200Y-38957380D02*
X38554819Y-38862142D01*
X38554819Y-38862142D02*
X38554819Y-38671666D01*
X38554819Y-38671666D02*
X38507200Y-38576428D01*
X38507200Y-38576428D02*
X38411961Y-38528809D01*
X38411961Y-38528809D02*
X38364342Y-38528809D01*
X38364342Y-38528809D02*
X38269104Y-38576428D01*
X38269104Y-38576428D02*
X38221485Y-38671666D01*
X38221485Y-38671666D02*
X38221485Y-38814523D01*
X38221485Y-38814523D02*
X38173866Y-38909761D01*
X38173866Y-38909761D02*
X38078628Y-38957380D01*
X38078628Y-38957380D02*
X38031009Y-38957380D01*
X38031009Y-38957380D02*
X37935771Y-38909761D01*
X37935771Y-38909761D02*
X37888152Y-38814523D01*
X37888152Y-38814523D02*
X37888152Y-38671666D01*
X37888152Y-38671666D02*
X37935771Y-38576428D01*
X86574285Y-60144819D02*
X86574285Y-59144819D01*
X86574285Y-60097200D02*
X86479047Y-60144819D01*
X86479047Y-60144819D02*
X86288571Y-60144819D01*
X86288571Y-60144819D02*
X86193333Y-60097200D01*
X86193333Y-60097200D02*
X86145714Y-60049580D01*
X86145714Y-60049580D02*
X86098095Y-59954342D01*
X86098095Y-59954342D02*
X86098095Y-59668628D01*
X86098095Y-59668628D02*
X86145714Y-59573390D01*
X86145714Y-59573390D02*
X86193333Y-59525771D01*
X86193333Y-59525771D02*
X86288571Y-59478152D01*
X86288571Y-59478152D02*
X86479047Y-59478152D01*
X86479047Y-59478152D02*
X86574285Y-59525771D01*
X86550476Y-57557200D02*
X86455238Y-57604819D01*
X86455238Y-57604819D02*
X86264762Y-57604819D01*
X86264762Y-57604819D02*
X86169524Y-57557200D01*
X86169524Y-57557200D02*
X86121905Y-57461961D01*
X86121905Y-57461961D02*
X86121905Y-57081009D01*
X86121905Y-57081009D02*
X86169524Y-56985771D01*
X86169524Y-56985771D02*
X86264762Y-56938152D01*
X86264762Y-56938152D02*
X86455238Y-56938152D01*
X86455238Y-56938152D02*
X86550476Y-56985771D01*
X86550476Y-56985771D02*
X86598095Y-57081009D01*
X86598095Y-57081009D02*
X86598095Y-57176247D01*
X86598095Y-57176247D02*
X86121905Y-57271485D01*
D10*
X86145714Y-39191119D02*
X86145714Y-38191119D01*
X86145714Y-38572071D02*
X86240952Y-38524452D01*
X86240952Y-38524452D02*
X86431428Y-38524452D01*
X86431428Y-38524452D02*
X86526666Y-38572071D01*
X86526666Y-38572071D02*
X86574285Y-38619690D01*
X86574285Y-38619690D02*
X86621904Y-38714928D01*
X86621904Y-38714928D02*
X86621904Y-39000642D01*
X86621904Y-39000642D02*
X86574285Y-39095880D01*
X86574285Y-39095880D02*
X86526666Y-39143500D01*
X86526666Y-39143500D02*
X86431428Y-39191119D01*
X86431428Y-39191119D02*
X86240952Y-39191119D01*
X86240952Y-39191119D02*
X86145714Y-39143500D01*
D11*
X76289819Y-67706666D02*
X77099342Y-67706666D01*
X77099342Y-67706666D02*
X77194580Y-67659047D01*
X77194580Y-67659047D02*
X77242200Y-67611428D01*
X77242200Y-67611428D02*
X77289819Y-67516190D01*
X77289819Y-67516190D02*
X77289819Y-67325714D01*
X77289819Y-67325714D02*
X77242200Y-67230476D01*
X77242200Y-67230476D02*
X77194580Y-67182857D01*
X77194580Y-67182857D02*
X77099342Y-67135238D01*
X77099342Y-67135238D02*
X76289819Y-67135238D01*
X76623152Y-66659047D02*
X77289819Y-66659047D01*
X76718390Y-66659047D02*
X76670771Y-66611428D01*
X76670771Y-66611428D02*
X76623152Y-66516190D01*
X76623152Y-66516190D02*
X76623152Y-66373333D01*
X76623152Y-66373333D02*
X76670771Y-66278095D01*
X76670771Y-66278095D02*
X76766009Y-66230476D01*
X76766009Y-66230476D02*
X77289819Y-66230476D01*
X77289819Y-65754285D02*
X76623152Y-65754285D01*
X76289819Y-65754285D02*
X76337438Y-65801904D01*
X76337438Y-65801904D02*
X76385057Y-65754285D01*
X76385057Y-65754285D02*
X76337438Y-65706666D01*
X76337438Y-65706666D02*
X76289819Y-65754285D01*
X76289819Y-65754285D02*
X76385057Y-65754285D01*
X76623152Y-65420952D02*
X76623152Y-65040000D01*
X76289819Y-65278095D02*
X77146961Y-65278095D01*
X77146961Y-65278095D02*
X77242200Y-65230476D01*
X77242200Y-65230476D02*
X77289819Y-65135238D01*
X77289819Y-65135238D02*
X77289819Y-65040000D01*
X77242200Y-64754285D02*
X77289819Y-64659047D01*
X77289819Y-64659047D02*
X77289819Y-64468571D01*
X77289819Y-64468571D02*
X77242200Y-64373333D01*
X77242200Y-64373333D02*
X77146961Y-64325714D01*
X77146961Y-64325714D02*
X77099342Y-64325714D01*
X77099342Y-64325714D02*
X77004104Y-64373333D01*
X77004104Y-64373333D02*
X76956485Y-64468571D01*
X76956485Y-64468571D02*
X76956485Y-64611428D01*
X76956485Y-64611428D02*
X76908866Y-64706666D01*
X76908866Y-64706666D02*
X76813628Y-64754285D01*
X76813628Y-64754285D02*
X76766009Y-64754285D01*
X76766009Y-64754285D02*
X76670771Y-64706666D01*
X76670771Y-64706666D02*
X76623152Y-64611428D01*
X76623152Y-64611428D02*
X76623152Y-64468571D01*
X76623152Y-64468571D02*
X76670771Y-64373333D01*
X29424285Y-44269819D02*
X29424285Y-43746009D01*
X29424285Y-43746009D02*
X29376666Y-43650771D01*
X29376666Y-43650771D02*
X29281428Y-43603152D01*
X29281428Y-43603152D02*
X29090952Y-43603152D01*
X29090952Y-43603152D02*
X28995714Y-43650771D01*
X29424285Y-44222200D02*
X29329047Y-44269819D01*
X29329047Y-44269819D02*
X29090952Y-44269819D01*
X29090952Y-44269819D02*
X28995714Y-44222200D01*
X28995714Y-44222200D02*
X28948095Y-44126961D01*
X28948095Y-44126961D02*
X28948095Y-44031723D01*
X28948095Y-44031723D02*
X28995714Y-43936485D01*
X28995714Y-43936485D02*
X29090952Y-43888866D01*
X29090952Y-43888866D02*
X29329047Y-43888866D01*
X29329047Y-43888866D02*
X29424285Y-43841247D01*
X86550476Y-31522200D02*
X86455238Y-31569819D01*
X86455238Y-31569819D02*
X86264762Y-31569819D01*
X86264762Y-31569819D02*
X86169524Y-31522200D01*
X86169524Y-31522200D02*
X86121905Y-31426961D01*
X86121905Y-31426961D02*
X86121905Y-31046009D01*
X86121905Y-31046009D02*
X86169524Y-30950771D01*
X86169524Y-30950771D02*
X86264762Y-30903152D01*
X86264762Y-30903152D02*
X86455238Y-30903152D01*
X86455238Y-30903152D02*
X86550476Y-30950771D01*
X86550476Y-30950771D02*
X86598095Y-31046009D01*
X86598095Y-31046009D02*
X86598095Y-31141247D01*
X86598095Y-31141247D02*
X86121905Y-31236485D01*
X29019524Y-74083152D02*
X29400476Y-74083152D01*
X29162381Y-74749819D02*
X29162381Y-73892676D01*
X29162381Y-73892676D02*
X29210000Y-73797438D01*
X29210000Y-73797438D02*
X29305238Y-73749819D01*
X29305238Y-73749819D02*
X29400476Y-73749819D01*
X27955952Y-56969819D02*
X27384524Y-56969819D01*
X27670238Y-56969819D02*
X27670238Y-55969819D01*
X27670238Y-55969819D02*
X27575000Y-56112676D01*
X27575000Y-56112676D02*
X27479762Y-56207914D01*
X27479762Y-56207914D02*
X27384524Y-56255533D01*
X28336905Y-56065057D02*
X28384524Y-56017438D01*
X28384524Y-56017438D02*
X28479762Y-55969819D01*
X28479762Y-55969819D02*
X28717857Y-55969819D01*
X28717857Y-55969819D02*
X28813095Y-56017438D01*
X28813095Y-56017438D02*
X28860714Y-56065057D01*
X28860714Y-56065057D02*
X28908333Y-56160295D01*
X28908333Y-56160295D02*
X28908333Y-56255533D01*
X28908333Y-56255533D02*
X28860714Y-56398390D01*
X28860714Y-56398390D02*
X28289286Y-56969819D01*
X28289286Y-56969819D02*
X28908333Y-56969819D01*
X29194048Y-55969819D02*
X29527381Y-56969819D01*
X29527381Y-56969819D02*
X29860714Y-55969819D01*
X76289819Y-40306428D02*
X76289819Y-39735000D01*
X77289819Y-40020714D02*
X76289819Y-40020714D01*
X77242200Y-39020714D02*
X77289819Y-39115952D01*
X77289819Y-39115952D02*
X77289819Y-39306428D01*
X77289819Y-39306428D02*
X77242200Y-39401666D01*
X77242200Y-39401666D02*
X77146961Y-39449285D01*
X77146961Y-39449285D02*
X76766009Y-39449285D01*
X76766009Y-39449285D02*
X76670771Y-39401666D01*
X76670771Y-39401666D02*
X76623152Y-39306428D01*
X76623152Y-39306428D02*
X76623152Y-39115952D01*
X76623152Y-39115952D02*
X76670771Y-39020714D01*
X76670771Y-39020714D02*
X76766009Y-38973095D01*
X76766009Y-38973095D02*
X76861247Y-38973095D01*
X76861247Y-38973095D02*
X76956485Y-39449285D01*
X76623152Y-38544523D02*
X77289819Y-38544523D01*
X76718390Y-38544523D02*
X76670771Y-38496904D01*
X76670771Y-38496904D02*
X76623152Y-38401666D01*
X76623152Y-38401666D02*
X76623152Y-38258809D01*
X76623152Y-38258809D02*
X76670771Y-38163571D01*
X76670771Y-38163571D02*
X76766009Y-38115952D01*
X76766009Y-38115952D02*
X77289819Y-38115952D01*
X77242200Y-37687380D02*
X77289819Y-37592142D01*
X77289819Y-37592142D02*
X77289819Y-37401666D01*
X77289819Y-37401666D02*
X77242200Y-37306428D01*
X77242200Y-37306428D02*
X77146961Y-37258809D01*
X77146961Y-37258809D02*
X77099342Y-37258809D01*
X77099342Y-37258809D02*
X77004104Y-37306428D01*
X77004104Y-37306428D02*
X76956485Y-37401666D01*
X76956485Y-37401666D02*
X76956485Y-37544523D01*
X76956485Y-37544523D02*
X76908866Y-37639761D01*
X76908866Y-37639761D02*
X76813628Y-37687380D01*
X76813628Y-37687380D02*
X76766009Y-37687380D01*
X76766009Y-37687380D02*
X76670771Y-37639761D01*
X76670771Y-37639761D02*
X76623152Y-37544523D01*
X76623152Y-37544523D02*
X76623152Y-37401666D01*
X76623152Y-37401666D02*
X76670771Y-37306428D01*
X86574285Y-41729819D02*
X86574285Y-41206009D01*
X86574285Y-41206009D02*
X86526666Y-41110771D01*
X86526666Y-41110771D02*
X86431428Y-41063152D01*
X86431428Y-41063152D02*
X86240952Y-41063152D01*
X86240952Y-41063152D02*
X86145714Y-41110771D01*
X86574285Y-41682200D02*
X86479047Y-41729819D01*
X86479047Y-41729819D02*
X86240952Y-41729819D01*
X86240952Y-41729819D02*
X86145714Y-41682200D01*
X86145714Y-41682200D02*
X86098095Y-41586961D01*
X86098095Y-41586961D02*
X86098095Y-41491723D01*
X86098095Y-41491723D02*
X86145714Y-41396485D01*
X86145714Y-41396485D02*
X86240952Y-41348866D01*
X86240952Y-41348866D02*
X86479047Y-41348866D01*
X86479047Y-41348866D02*
X86574285Y-41301247D01*
X29424285Y-36649819D02*
X29424285Y-35649819D01*
X29424285Y-36602200D02*
X29329047Y-36649819D01*
X29329047Y-36649819D02*
X29138571Y-36649819D01*
X29138571Y-36649819D02*
X29043333Y-36602200D01*
X29043333Y-36602200D02*
X28995714Y-36554580D01*
X28995714Y-36554580D02*
X28948095Y-36459342D01*
X28948095Y-36459342D02*
X28948095Y-36173628D01*
X28948095Y-36173628D02*
X28995714Y-36078390D01*
X28995714Y-36078390D02*
X29043333Y-36030771D01*
X29043333Y-36030771D02*
X29138571Y-35983152D01*
X29138571Y-35983152D02*
X29329047Y-35983152D01*
X29329047Y-35983152D02*
X29424285Y-36030771D01*
X86169524Y-46143152D02*
X86550476Y-46143152D01*
X86312381Y-46809819D02*
X86312381Y-45952676D01*
X86312381Y-45952676D02*
X86360000Y-45857438D01*
X86360000Y-45857438D02*
X86455238Y-45809819D01*
X86455238Y-45809819D02*
X86550476Y-45809819D01*
D12*
%TO.C,Q7*%
X44410000Y-50070000D02*
X44410000Y-54711000D01*
X44410000Y-50070000D02*
X54650000Y-50070000D01*
X44410000Y-51580000D02*
X54650000Y-51580000D01*
X44410000Y-54711000D02*
X54650000Y-54711000D01*
X47680000Y-50070000D02*
X47680000Y-51580000D01*
X51381000Y-50070000D02*
X51381000Y-51580000D01*
X54650000Y-50070000D02*
X54650000Y-54711000D01*
%TO.C,Q10*%
X44410000Y-64675000D02*
X44410000Y-69316000D01*
X44410000Y-64675000D02*
X54650000Y-64675000D01*
X44410000Y-66185000D02*
X54650000Y-66185000D01*
X44410000Y-69316000D02*
X54650000Y-69316000D01*
X47680000Y-64675000D02*
X47680000Y-66185000D01*
X51381000Y-64675000D02*
X51381000Y-66185000D01*
X54650000Y-64675000D02*
X54650000Y-69316000D01*
%TO.C,Q8*%
X58380000Y-47720000D02*
X58380000Y-43079000D01*
X61649000Y-47720000D02*
X61649000Y-46210000D01*
X65350000Y-47720000D02*
X65350000Y-46210000D01*
X68620000Y-43079000D02*
X58380000Y-43079000D01*
X68620000Y-46210000D02*
X58380000Y-46210000D01*
X68620000Y-47720000D02*
X58380000Y-47720000D01*
X68620000Y-47720000D02*
X68620000Y-43079000D01*
%TO.C,Q12*%
X44410000Y-57690000D02*
X44410000Y-62331000D01*
X44410000Y-57690000D02*
X54650000Y-57690000D01*
X44410000Y-59200000D02*
X54650000Y-59200000D01*
X44410000Y-62331000D02*
X54650000Y-62331000D01*
X47680000Y-57690000D02*
X47680000Y-59200000D01*
X51381000Y-57690000D02*
X51381000Y-59200000D01*
X54650000Y-57690000D02*
X54650000Y-62331000D01*
%TO.C,Q2*%
X44410000Y-43085000D02*
X44410000Y-47726000D01*
X44410000Y-43085000D02*
X54650000Y-43085000D01*
X44410000Y-44595000D02*
X54650000Y-44595000D01*
X44410000Y-47726000D02*
X54650000Y-47726000D01*
X47680000Y-43085000D02*
X47680000Y-44595000D01*
X51381000Y-43085000D02*
X51381000Y-44595000D01*
X54650000Y-43085000D02*
X54650000Y-47726000D01*
%TO.C,J5*%
X30270000Y-75655000D02*
X30270000Y-76905000D01*
X30270000Y-76905000D02*
X31520000Y-76905000D01*
X30560000Y-53995000D02*
X30560000Y-76615000D01*
X30560000Y-76615000D02*
X36530000Y-76615000D01*
X30570000Y-54005000D02*
X30570000Y-55805000D01*
X30570000Y-55805000D02*
X31320000Y-55805000D01*
X30570000Y-57305000D02*
X30570000Y-73305000D01*
X30570000Y-73305000D02*
X31320000Y-73305000D01*
X30570000Y-74805000D02*
X30570000Y-76605000D01*
X30570000Y-76605000D02*
X31320000Y-76605000D01*
X31320000Y-54005000D02*
X30570000Y-54005000D01*
X31320000Y-55805000D02*
X31320000Y-54005000D01*
X31320000Y-57305000D02*
X30570000Y-57305000D01*
X31320000Y-73305000D02*
X31320000Y-57305000D01*
X31320000Y-74805000D02*
X30570000Y-74805000D01*
X31320000Y-76605000D02*
X31320000Y-74805000D01*
X32820000Y-54005000D02*
X32820000Y-54755000D01*
X32820000Y-54755000D02*
X35770000Y-54755000D01*
X32820000Y-75855000D02*
X35770000Y-75855000D01*
X32820000Y-76605000D02*
X32820000Y-75855000D01*
X35770000Y-54755000D02*
X35770000Y-65305000D01*
X35770000Y-75855000D02*
X35770000Y-65305000D01*
X36530000Y-53995000D02*
X30560000Y-53995000D01*
X36530000Y-76615000D02*
X36530000Y-53995000D01*
%TO.C,Q9*%
X58380000Y-69310000D02*
X58380000Y-64669000D01*
X61649000Y-69310000D02*
X61649000Y-67800000D01*
X65350000Y-69310000D02*
X65350000Y-67800000D01*
X68620000Y-64669000D02*
X58380000Y-64669000D01*
X68620000Y-67800000D02*
X58380000Y-67800000D01*
X68620000Y-69310000D02*
X58380000Y-69310000D01*
X68620000Y-69310000D02*
X68620000Y-64669000D01*
%TO.C,J6*%
X78060000Y-55530000D02*
X84500000Y-55530000D01*
X78060000Y-76550000D02*
X78060000Y-55530000D01*
X78060000Y-76550000D02*
X84500000Y-76550000D01*
X78580000Y-76550000D02*
X78580000Y-55530000D01*
X83880000Y-76550000D02*
X83880000Y-55530000D01*
X84500000Y-74630000D02*
X84500000Y-55530000D01*
X84500000Y-76550000D02*
X84500000Y-75230000D01*
X85110000Y-75370000D02*
X84500000Y-74930000D01*
X85110000Y-74490000D01*
X85110000Y-75370000D01*
G36*
X85110000Y-75370000D02*
G01*
X84500000Y-74930000D01*
X85110000Y-74490000D01*
X85110000Y-75370000D01*
G37*
%TO.C,Q4*%
X44410000Y-36100000D02*
X44410000Y-40741000D01*
X44410000Y-36100000D02*
X54650000Y-36100000D01*
X44410000Y-37610000D02*
X54650000Y-37610000D01*
X44410000Y-40741000D02*
X54650000Y-40741000D01*
X47680000Y-36100000D02*
X47680000Y-37610000D01*
X51381000Y-36100000D02*
X51381000Y-37610000D01*
X54650000Y-36100000D02*
X54650000Y-40741000D01*
%TO.C,Q3*%
X58380000Y-40735000D02*
X58380000Y-36094000D01*
X61649000Y-40735000D02*
X61649000Y-39225000D01*
X65350000Y-40735000D02*
X65350000Y-39225000D01*
X68620000Y-36094000D02*
X58380000Y-36094000D01*
X68620000Y-39225000D02*
X58380000Y-39225000D01*
X68620000Y-40735000D02*
X58380000Y-40735000D01*
X68620000Y-40735000D02*
X68620000Y-36094000D01*
%TO.C,Q11*%
X58380000Y-62325000D02*
X58380000Y-57684000D01*
X61649000Y-62325000D02*
X61649000Y-60815000D01*
X65350000Y-62325000D02*
X65350000Y-60815000D01*
X68620000Y-57684000D02*
X58380000Y-57684000D01*
X68620000Y-60815000D02*
X58380000Y-60815000D01*
X68620000Y-62325000D02*
X58380000Y-62325000D01*
X68620000Y-62325000D02*
X68620000Y-57684000D01*
%TO.C,Q6*%
X44410000Y-29020236D02*
X44410000Y-33661236D01*
X44410000Y-29020236D02*
X54650000Y-29020236D01*
X44410000Y-30530236D02*
X54650000Y-30530236D01*
X44410000Y-33661236D02*
X54650000Y-33661236D01*
X47680000Y-29020236D02*
X47680000Y-30530236D01*
X51381000Y-29020236D02*
X51381000Y-30530236D01*
X54650000Y-29020236D02*
X54650000Y-33661236D01*
%TO.C,J1*%
X78060000Y-29495000D02*
X84500000Y-29495000D01*
X78060000Y-47975000D02*
X78060000Y-29495000D01*
X78060000Y-47975000D02*
X84500000Y-47975000D01*
X78580000Y-47975000D02*
X78580000Y-29495000D01*
X83880000Y-47975000D02*
X83880000Y-29495000D01*
X84500000Y-46055000D02*
X84500000Y-29495000D01*
X84500000Y-47975000D02*
X84500000Y-46655000D01*
X85110000Y-46795000D02*
X84500000Y-46355000D01*
X85110000Y-45915000D01*
X85110000Y-46795000D01*
G36*
X85110000Y-46795000D02*
G01*
X84500000Y-46355000D01*
X85110000Y-45915000D01*
X85110000Y-46795000D01*
G37*
%TO.C,Q5*%
X58380000Y-33750000D02*
X58380000Y-29109000D01*
X61649000Y-33750000D02*
X61649000Y-32240000D01*
X65350000Y-33750000D02*
X65350000Y-32240000D01*
X68620000Y-29109000D02*
X58380000Y-29109000D01*
X68620000Y-32240000D02*
X58380000Y-32240000D01*
X68620000Y-33750000D02*
X58380000Y-33750000D01*
X68620000Y-33750000D02*
X68620000Y-29109000D01*
%TO.C,Q15*%
X44410000Y-71970000D02*
X44410000Y-76611000D01*
X44410000Y-71970000D02*
X54650000Y-71970000D01*
X44410000Y-73480000D02*
X54650000Y-73480000D01*
X44410000Y-76611000D02*
X54650000Y-76611000D01*
X47680000Y-71970000D02*
X47680000Y-73480000D01*
X51381000Y-71970000D02*
X51381000Y-73480000D01*
X54650000Y-71970000D02*
X54650000Y-76611000D01*
%TO.C,Q13*%
X58380000Y-54705000D02*
X58380000Y-50064000D01*
X61649000Y-54705000D02*
X61649000Y-53195000D01*
X65350000Y-54705000D02*
X65350000Y-53195000D01*
X68620000Y-50064000D02*
X58380000Y-50064000D01*
X68620000Y-53195000D02*
X58380000Y-53195000D01*
X68620000Y-54705000D02*
X58380000Y-54705000D01*
X68620000Y-54705000D02*
X68620000Y-50064000D01*
%TO.C,J4*%
X30270000Y-50255000D02*
X30270000Y-51505000D01*
X30270000Y-51505000D02*
X31520000Y-51505000D01*
X30560000Y-28595000D02*
X30560000Y-51215000D01*
X30560000Y-51215000D02*
X36530000Y-51215000D01*
X30570000Y-28605000D02*
X30570000Y-30405000D01*
X30570000Y-30405000D02*
X31320000Y-30405000D01*
X30570000Y-31905000D02*
X30570000Y-47905000D01*
X30570000Y-47905000D02*
X31320000Y-47905000D01*
X30570000Y-49405000D02*
X30570000Y-51205000D01*
X30570000Y-51205000D02*
X31320000Y-51205000D01*
X31320000Y-28605000D02*
X30570000Y-28605000D01*
X31320000Y-30405000D02*
X31320000Y-28605000D01*
X31320000Y-31905000D02*
X30570000Y-31905000D01*
X31320000Y-47905000D02*
X31320000Y-31905000D01*
X31320000Y-49405000D02*
X30570000Y-49405000D01*
X31320000Y-51205000D02*
X31320000Y-49405000D01*
X32820000Y-28605000D02*
X32820000Y-29355000D01*
X32820000Y-29355000D02*
X35770000Y-29355000D01*
X32820000Y-50455000D02*
X35770000Y-50455000D01*
X32820000Y-51205000D02*
X32820000Y-50455000D01*
X35770000Y-29355000D02*
X35770000Y-39905000D01*
X35770000Y-50455000D02*
X35770000Y-39905000D01*
X36530000Y-28595000D02*
X30560000Y-28595000D01*
X36530000Y-51215000D02*
X36530000Y-28595000D01*
%TO.C,Q14*%
X58380000Y-76295000D02*
X58380000Y-71654000D01*
X61649000Y-76295000D02*
X61649000Y-74785000D01*
X65350000Y-76295000D02*
X65350000Y-74785000D01*
X68620000Y-71654000D02*
X58380000Y-71654000D01*
X68620000Y-74785000D02*
X58380000Y-74785000D01*
X68620000Y-76295000D02*
X58380000Y-76295000D01*
X68620000Y-76295000D02*
X68620000Y-71654000D01*
%TD*%
%LPC*%
D13*
%TO.C,Q7*%
X46990000Y-53340000D03*
D14*
X49530000Y-53340000D03*
X52070000Y-53340000D03*
%TD*%
D13*
%TO.C,Q10*%
X46990000Y-67945000D03*
D14*
X49530000Y-67945000D03*
X52070000Y-67945000D03*
%TD*%
D15*
%TO.C,H4*%
X40640000Y-74295000D03*
%TD*%
%TO.C,H2*%
X73025000Y-74295000D03*
%TD*%
D13*
%TO.C,Q8*%
X66040000Y-44450000D03*
D14*
X63500000Y-44450000D03*
X60960000Y-44450000D03*
%TD*%
D15*
%TO.C,H1*%
X73025000Y-32385000D03*
%TD*%
D13*
%TO.C,Q12*%
X46990000Y-60960000D03*
D14*
X49530000Y-60960000D03*
X52070000Y-60960000D03*
%TD*%
D13*
%TO.C,Q2*%
X46990000Y-46355000D03*
D14*
X49530000Y-46355000D03*
X52070000Y-46355000D03*
%TD*%
D16*
%TO.C,J5*%
X33020000Y-74055000D03*
D17*
X33020000Y-71555000D03*
X33020000Y-69055000D03*
X33020000Y-66555000D03*
X33020000Y-64055000D03*
X33020000Y-61555000D03*
X33020000Y-59055000D03*
X33020000Y-56555000D03*
%TD*%
D13*
%TO.C,Q9*%
X66040000Y-66040000D03*
D14*
X63500000Y-66040000D03*
X60960000Y-66040000D03*
%TD*%
D18*
%TO.C,J6*%
X81280000Y-74930000D03*
D19*
X81280000Y-72390000D03*
X81280000Y-69850000D03*
X81280000Y-67310000D03*
X81280000Y-64770000D03*
X81280000Y-62230000D03*
X81280000Y-59690000D03*
X81280000Y-57150000D03*
%TD*%
D13*
%TO.C,Q4*%
X46990000Y-39370000D03*
D14*
X49530000Y-39370000D03*
X52070000Y-39370000D03*
%TD*%
D13*
%TO.C,Q3*%
X66040000Y-37465000D03*
D14*
X63500000Y-37465000D03*
X60960000Y-37465000D03*
%TD*%
D13*
%TO.C,Q11*%
X66040000Y-59055000D03*
D14*
X63500000Y-59055000D03*
X60960000Y-59055000D03*
%TD*%
D13*
%TO.C,Q6*%
X46990000Y-32290236D03*
D14*
X49530000Y-32290236D03*
X52070000Y-32290236D03*
%TD*%
D18*
%TO.C,J1*%
X81280000Y-46355000D03*
D19*
X81280000Y-43815000D03*
X81280000Y-41275000D03*
X81280000Y-38735000D03*
X81280000Y-36195000D03*
X81280000Y-33655000D03*
X81280000Y-31115000D03*
%TD*%
D15*
%TO.C,H3*%
X40640000Y-32385000D03*
%TD*%
D13*
%TO.C,Q5*%
X66040000Y-30480000D03*
D14*
X63500000Y-30480000D03*
X60960000Y-30480000D03*
%TD*%
D13*
%TO.C,Q15*%
X46990000Y-75240000D03*
D14*
X49530000Y-75240000D03*
X52070000Y-75240000D03*
%TD*%
D13*
%TO.C,Q13*%
X66040000Y-51435000D03*
D14*
X63500000Y-51435000D03*
X60960000Y-51435000D03*
%TD*%
D16*
%TO.C,J4*%
X33020000Y-48655000D03*
D17*
X33020000Y-46155000D03*
X33020000Y-43655000D03*
X33020000Y-41155000D03*
X33020000Y-38655000D03*
X33020000Y-36155000D03*
X33020000Y-33655000D03*
X33020000Y-31155000D03*
%TD*%
D13*
%TO.C,Q14*%
X66040000Y-73025000D03*
D14*
X63500000Y-73025000D03*
X60960000Y-73025000D03*
%TD*%
%LPD*%
M02*
