;TYPE=PLATED
;Layer: PTH_Through
;EasyEDA Pro v2.2.35.2, 2025-01-23 15:21:27
;Gerber Generator version 0.3
M48
METRIC,LZ,0000.00000
;Hole size 1 = 1.10002 METRIC
T01C1.10002
;Hole size 2 = 1.30002 METRIC
T02C1.30002
;Hole size 3 = 1.40000 METRIC
T03C1.40000
%
G05
G90
T01
X19.80409Y-8.7757
X19.80409Y-11.1633
X19.80409Y-13.5763
X15.46008Y-8.7757
X15.46008Y-11.1633
X15.46008Y-13.5763
X11.11607Y-8.7757
X11.11607Y-11.1633
X11.11607Y-13.5763
X6.77206Y-8.7757
X6.77206Y-11.1633
X6.77206Y-13.5763
X2.42805Y-8.7757
X2.42805Y-11.1633
X2.42805Y-13.5763
X28.49211Y-8.7757
X28.49211Y-11.1633
X28.49211Y-13.5763
X24.1481Y-8.7757
X24.1481Y-11.1633
X24.1481Y-13.5763
X50.21216Y-8.7757
X50.21216Y-11.1633
X50.21216Y-13.5763
X45.86815Y-8.7757
X45.86815Y-11.1633
X45.86815Y-13.5763
X41.52414Y-8.7757
X41.52414Y-11.1633
X41.52414Y-13.5763
X37.18013Y-8.7757
X37.18013Y-11.1633
X37.18013Y-13.5763
X32.83612Y-8.7757
X32.83612Y-11.1633
X32.83612Y-13.5763
X58.90018Y-8.7757
X58.90018Y-11.1633
X58.90018Y-13.5763
X54.55617Y-8.7757
X54.55617Y-11.1633
X54.55617Y-13.5763
X59.182Y1.27
X56.642Y1.27
T02
X2.54Y-21.336
X5.08Y-21.336
X7.62Y-21.336
X10.16Y-21.336
X12.7Y-21.336
X15.24Y-21.336
X17.78Y-21.336
X20.32Y-21.336
X27.432Y-21.59
X29.972Y-21.59
X32.512Y-21.59
X35.052Y-21.59
X37.592Y-21.59
X40.132Y-21.59
X42.672Y-21.59
X45.212Y-21.59
T03
X2.794Y1.016
X5.334Y1.016
X7.874Y1.016
X10.414Y1.016
X12.954Y1.016
X15.494Y1.016
X18.034Y1.016
X29.21Y1.016
X31.75Y1.016
X34.29Y1.016
X36.83Y1.016
X39.37Y1.016
X41.91Y1.016
X44.45Y1.016
M30