G04 Layer: TopSolderMaskLayer*
G04 EasyEDA Pro v2.2.35.2, 2025-01-23 15:21:27*
G04 Gerber Generator version 0.3*
G04 Scale: 100 percent, Rotated: No, Reflected: No*
G04 Dimensions in millimeters*
G04 Leading zeros omitted, absolute positions, 4 integers and 5 decimals*
%FSLAX45Y45*%
%MOMM*%
%AMRoundRect*1,1,$1,$2,$3*1,1,$1,$4,$5*1,1,$1,0-$2,0-$3*1,1,$1,0-$4,0-$5*20,1,$1,$2,$3,$4,$5,0*20,1,$1,$4,$5,0-$2,0-$3,0*20,1,$1,0-$2,0-$3,0-$4,0-$5,0*20,1,$1,0-$4,0-$5,$2,$3,0*4,1,4,$2,$3,$4,$5,0-$2,0-$3,0-$4,0-$5,$2,$3,0*%
%ADD10RoundRect,0.09649X-0.91061X0.91061X0.91061X0.91061*%
%ADD11C,1.9177*%
%ADD12C,2.1016*%
%ADD13RoundRect,0.09691X1.00234X-1.00234X-1.00234X-1.00234*%
%ADD14C,1.90002*%
%ADD15C,1.9016*%
%ADD16RoundRect,0.09645X-0.90257X0.90257X0.90257X0.90257*%
G75*


G04 Pad Start*
G54D10*
G01X1980409Y-877570D03*
G54D11*
G01X1980409Y-1116330D03*
G01X1980409Y-1357630D03*
G54D10*
G01X1546008Y-877570D03*
G54D11*
G01X1546008Y-1116330D03*
G01X1546008Y-1357630D03*
G54D10*
G01X1111607Y-877570D03*
G54D11*
G01X1111607Y-1116330D03*
G01X1111607Y-1357630D03*
G54D10*
G01X677206Y-877570D03*
G54D11*
G01X677206Y-1116330D03*
G01X677206Y-1357630D03*
G54D10*
G01X242805Y-877570D03*
G54D11*
G01X242805Y-1116330D03*
G01X242805Y-1357630D03*
G54D10*
G01X2849211Y-877570D03*
G54D11*
G01X2849211Y-1116330D03*
G01X2849211Y-1357630D03*
G54D10*
G01X2414810Y-877570D03*
G54D11*
G01X2414810Y-1116330D03*
G01X2414810Y-1357630D03*
G54D10*
G01X5021216Y-877570D03*
G54D11*
G01X5021216Y-1116330D03*
G01X5021216Y-1357630D03*
G54D10*
G01X4586815Y-877570D03*
G54D11*
G01X4586815Y-1116330D03*
G01X4586815Y-1357630D03*
G54D10*
G01X4152414Y-877570D03*
G54D11*
G01X4152414Y-1116330D03*
G01X4152414Y-1357630D03*
G54D10*
G01X3718013Y-877570D03*
G54D11*
G01X3718013Y-1116330D03*
G01X3718013Y-1357630D03*
G54D10*
G01X3283612Y-877570D03*
G54D11*
G01X3283612Y-1116330D03*
G01X3283612Y-1357630D03*
G54D10*
G01X5890018Y-877570D03*
G54D11*
G01X5890018Y-1116330D03*
G01X5890018Y-1357630D03*
G54D10*
G01X5455617Y-877570D03*
G54D11*
G01X5455617Y-1116330D03*
G01X5455617Y-1357630D03*
G54D12*
G01X279400Y101600D03*
G01X533400Y101600D03*
G01X787400Y101600D03*
G01X1041400Y101600D03*
G01X1295400Y101600D03*
G01X1549400Y101600D03*
G54D13*
G01X1803400Y101600D03*
G54D12*
G01X2921000Y101600D03*
G01X3175000Y101600D03*
G01X3429000Y101600D03*
G01X3683000Y101600D03*
G01X3937000Y101600D03*
G01X4191000Y101600D03*
G54D13*
G01X4445000Y101600D03*
G54D14*
G01X254000Y-2133600D03*
G01X508000Y-2133600D03*
G01X762000Y-2133600D03*
G01X1016000Y-2133600D03*
G01X1270000Y-2133600D03*
G01X1524000Y-2133600D03*
G01X1778000Y-2133600D03*
G01X2032000Y-2133600D03*
G01X2743200Y-2159000D03*
G01X2997200Y-2159000D03*
G01X3251200Y-2159000D03*
G01X3505200Y-2159000D03*
G01X3759200Y-2159000D03*
G01X4013200Y-2159000D03*
G01X4267200Y-2159000D03*
G01X4521200Y-2159000D03*
G54D15*
G01X5918200Y127000D03*
G54D16*
G01X5664200Y127000D03*
G04 Pad End*

M02*

