G04 Layer: TopSilkscreenLayer*
G04 EasyEDA Pro v2.2.35.2, 2025-01-23 15:21:27*
G04 Gerber Generator version 0.3*
G04 Scale: 100 percent, Rotated: No, Reflected: No*
G04 Dimensions in millimeters*
G04 Leading zeros omitted, absolute positions, 4 integers and 5 decimals*
%FSLAX45Y45*%
%MOMM*%
%ADD10C,0.1524*%
%ADD11C,0.203*%
%ADD12C,0.254*%
G75*


G04 Text Start*
G54D10*
G01X2013966Y-75438D02*
G01X2017014Y-81534D01*
G01X2023110Y-87884D01*
G01X2029460Y-90932D01*
G01X2038604Y-93980D01*
G01X2054098Y-93980D01*
G01X2063496Y-90932D01*
G01X2069592Y-87884D01*
G01X2075942Y-81534D01*
G01X2078990Y-75438D01*
G01X2078990Y-62992D01*
G01X2075942Y-56896D01*
G01X2069592Y-50546D01*
G01X2063496Y-47498D01*
G01X2054098Y-44450D01*
G01X2038604Y-44450D01*
G01X2029460Y-47498D01*
G01X2023110Y-50546D01*
G01X2017014Y-56896D01*
G01X2013966Y-62992D01*
G01X2013966Y-75438D01*
G01X2013966Y-14224D02*
G01X2060448Y-14224D01*
G01X2069592Y-11176D01*
G01X2075942Y-5080D01*
G01X2078990Y4318D01*
G01X2078990Y10414D01*
G01X2075942Y19812D01*
G01X2069592Y25908D01*
G01X2060448Y28956D01*
G01X2013966Y28956D01*
G01X2013966Y80772D02*
G01X2078990Y80772D01*
G01X2013966Y59182D02*
G01X2013966Y102362D01*
G01X2100580Y132588D02*
G01X2100580Y188214D01*
G01X2013966Y218440D02*
G01X2060448Y218440D01*
G01X2069592Y221488D01*
G01X2075942Y227584D01*
G01X2078990Y236982D01*
G01X2078990Y243078D01*
G01X2075942Y252476D01*
G01X2069592Y258572D01*
G01X2060448Y261620D01*
G01X2013966Y261620D01*
G01X2648966Y-75438D02*
G01X2652014Y-81534D01*
G01X2658110Y-87884D01*
G01X2664460Y-90932D01*
G01X2673604Y-93980D01*
G01X2689098Y-93980D01*
G01X2698496Y-90932D01*
G01X2704592Y-87884D01*
G01X2710942Y-81534D01*
G01X2713990Y-75438D01*
G01X2713990Y-62992D01*
G01X2710942Y-56896D01*
G01X2704592Y-50546D01*
G01X2698496Y-47498D01*
G01X2689098Y-44450D01*
G01X2673604Y-44450D01*
G01X2664460Y-47498D01*
G01X2658110Y-50546D01*
G01X2652014Y-56896D01*
G01X2648966Y-62992D01*
G01X2648966Y-75438D01*
G01X2648966Y-14224D02*
G01X2695448Y-14224D01*
G01X2704592Y-11176D01*
G01X2710942Y-5080D01*
G01X2713990Y4318D01*
G01X2713990Y10414D01*
G01X2710942Y19812D01*
G01X2704592Y25908D01*
G01X2695448Y28956D01*
G01X2648966Y28956D01*
G01X2648966Y80772D02*
G01X2713990Y80772D01*
G01X2648966Y59182D02*
G01X2648966Y102362D01*
G01X2735580Y132588D02*
G01X2735580Y188214D01*
G01X2648966Y218440D02*
G01X2713990Y218440D01*
G01X2648966Y218440D02*
G01X2648966Y240030D01*
G01X2652014Y249174D01*
G01X2658110Y255524D01*
G01X2664460Y258572D01*
G01X2673604Y261620D01*
G01X2689098Y261620D01*
G01X2698496Y258572D01*
G01X2704592Y255524D01*
G01X2710942Y249174D01*
G01X2713990Y240030D01*
G01X2713990Y218440D01*
G01X2166366Y-2938780D02*
G01X2231390Y-2938780D01*
G01X2166366Y-2908554D02*
G01X2231390Y-2908554D01*
G01X2166366Y-2908554D02*
G01X2231390Y-2865374D01*
G01X2166366Y-2865374D02*
G01X2231390Y-2865374D01*
G01X2252980Y-2835148D02*
G01X2252980Y-2779522D01*
G01X2166366Y-2749296D02*
G01X2212848Y-2749296D01*
G01X2221992Y-2746248D01*
G01X2228342Y-2740152D01*
G01X2231390Y-2730754D01*
G01X2231390Y-2724658D01*
G01X2228342Y-2715260D01*
G01X2221992Y-2709164D01*
G01X2212848Y-2706116D01*
G01X2166366Y-2706116D01*
G01X2547366Y-2938780D02*
G01X2612390Y-2938780D01*
G01X2547366Y-2908554D02*
G01X2612390Y-2908554D01*
G01X2547366Y-2908554D02*
G01X2612390Y-2865374D01*
G01X2547366Y-2865374D02*
G01X2612390Y-2865374D01*
G01X2633980Y-2835148D02*
G01X2633980Y-2779522D01*
G01X2547366Y-2749296D02*
G01X2612390Y-2749296D01*
G01X2547366Y-2749296D02*
G01X2547366Y-2727706D01*
G01X2550414Y-2718562D01*
G01X2556510Y-2712212D01*
G01X2562860Y-2709164D01*
G01X2572004Y-2706116D01*
G01X2587498Y-2706116D01*
G01X2596896Y-2709164D01*
G01X2602992Y-2712212D01*
G01X2609342Y-2718562D01*
G01X2612390Y-2727706D01*
G01X2612390Y-2749296D01*
G01X5621020Y-261366D02*
G01X5621020Y-326390D01*
G01X5621020Y-261366D02*
G01X5648960Y-261366D01*
G01X5658104Y-264414D01*
G01X5661152Y-267462D01*
G01X5664454Y-273812D01*
G01X5664454Y-282956D01*
G01X5661152Y-289052D01*
G01X5658104Y-292354D01*
G01X5648960Y-295402D01*
G01X5621020Y-295402D01*
G01X5713222Y-261366D02*
G01X5706872Y-264414D01*
G01X5700776Y-270510D01*
G01X5697728Y-276860D01*
G01X5694680Y-286004D01*
G01X5694680Y-301498D01*
G01X5697728Y-310896D01*
G01X5700776Y-316992D01*
G01X5706872Y-323342D01*
G01X5713222Y-326390D01*
G01X5725414Y-326390D01*
G01X5731764Y-323342D01*
G01X5737860Y-316992D01*
G01X5740908Y-310896D01*
G01X5744210Y-301498D01*
G01X5744210Y-286004D01*
G01X5740908Y-276860D01*
G01X5737860Y-270510D01*
G01X5731764Y-264414D01*
G01X5725414Y-261366D01*
G01X5713222Y-261366D01*
G01X5774436Y-261366D02*
G01X5789676Y-326390D01*
G01X5805170Y-261366D02*
G01X5789676Y-326390D01*
G01X5805170Y-261366D02*
G01X5820664Y-326390D01*
G01X5836158Y-261366D02*
G01X5820664Y-326390D01*
G01X5866384Y-261366D02*
G01X5866384Y-326390D01*
G01X5866384Y-261366D02*
G01X5906516Y-261366D01*
G01X5866384Y-292354D02*
G01X5891022Y-292354D01*
G01X5866384Y-326390D02*
G01X5906516Y-326390D01*
G01X5936742Y-261366D02*
G01X5936742Y-326390D01*
G01X5936742Y-261366D02*
G01X5964428Y-261366D01*
G01X5973826Y-264414D01*
G01X5976874Y-267462D01*
G01X5979922Y-273812D01*
G01X5979922Y-279908D01*
G01X5976874Y-286004D01*
G01X5973826Y-289052D01*
G01X5964428Y-292354D01*
G01X5936742Y-292354D01*
G01X5958332Y-292354D02*
G01X5979922Y-326390D01*
G01X6010148Y-273812D02*
G01X6016244Y-270510D01*
G01X6025388Y-261366D01*
G01X6025388Y-326390D01*
G54D11*
G01X2088074Y-3388360D02*
G01X1937452Y-3388360D01*
G01X2088074Y-3388360D02*
G01X2088074Y-3481578D01*
G01X2016446Y-3388360D02*
G01X2016446Y-3445764D01*
G01X1802324Y-3496056D02*
G01X1816548Y-3488944D01*
G01X1831026Y-3474466D01*
G01X1838138Y-3460242D01*
G01X1838138Y-3431540D01*
G01X1831026Y-3417062D01*
G01X1816548Y-3402584D01*
G01X1802324Y-3395472D01*
G01X1780734Y-3388360D01*
G01X1744920Y-3388360D01*
G01X1723330Y-3395472D01*
G01X1708852Y-3402584D01*
G01X1694628Y-3417062D01*
G01X1687516Y-3431540D01*
G01X1687516Y-3460242D01*
G01X1694628Y-3474466D01*
G01X1708852Y-3488944D01*
G01X1723330Y-3496056D01*
G01X1744920Y-3496056D01*
G01X1744920Y-3460242D02*
G01X1744920Y-3496056D01*
G01X1588202Y-3445764D02*
G01X1437326Y-3388360D01*
G01X1588202Y-3445764D02*
G01X1437326Y-3503168D01*
G01X1487618Y-3409950D02*
G01X1487618Y-3481578D01*
G01X1338012Y-3388360D02*
G01X1187390Y-3388360D01*
G01X1338012Y-3388360D02*
G01X1338012Y-3452876D01*
G01X1330900Y-3474466D01*
G01X1323788Y-3481578D01*
G01X1309310Y-3488944D01*
G01X1295086Y-3488944D01*
G01X1280608Y-3481578D01*
G01X1273496Y-3474466D01*
G01X1266384Y-3452876D01*
G01X1266384Y-3388360D02*
G01X1266384Y-3452876D01*
G01X1259272Y-3474466D01*
G01X1251906Y-3481578D01*
G01X1237682Y-3488944D01*
G01X1216092Y-3488944D01*
G01X1201868Y-3481578D01*
G01X1194502Y-3474466D01*
G01X1187390Y-3452876D01*
G01X1187390Y-3388360D01*
G01X1052262Y-3496056D02*
G01X1066486Y-3488944D01*
G01X1080964Y-3474466D01*
G01X1088076Y-3460242D01*
G01X1088076Y-3431540D01*
G01X1080964Y-3417062D01*
G01X1066486Y-3402584D01*
G01X1052262Y-3395472D01*
G01X1030672Y-3388360D01*
G01X994858Y-3388360D01*
G01X973268Y-3395472D01*
G01X959044Y-3402584D01*
G01X944566Y-3417062D01*
G01X937454Y-3431540D01*
G01X937454Y-3460242D01*
G01X944566Y-3474466D01*
G01X959044Y-3488944D01*
G01X973268Y-3496056D01*
G01X838140Y-3388360D02*
G01X687518Y-3388360D01*
G01X838140Y-3388360D02*
G01X838140Y-3438652D01*
G01X831028Y-3460242D01*
G01X816550Y-3474466D01*
G01X802326Y-3481578D01*
G01X780736Y-3488944D01*
G01X744922Y-3488944D01*
G01X723332Y-3481578D01*
G01X708854Y-3474466D01*
G01X694630Y-3460242D01*
G01X687518Y-3438652D01*
G01X687518Y-3388360D01*
G01X588204Y-3388360D02*
G01X437328Y-3388360D01*
G01X588204Y-3388360D02*
G01X588204Y-3481578D01*
G01X516322Y-3388360D02*
G01X516322Y-3445764D01*
G01X437328Y-3388360D02*
G01X437328Y-3481578D01*
G01X302200Y-3496056D02*
G01X316678Y-3488944D01*
G01X330902Y-3474466D01*
G01X338014Y-3460242D01*
G01X338014Y-3431540D01*
G01X330902Y-3417062D01*
G01X316678Y-3402584D01*
G01X302200Y-3395472D01*
G01X280610Y-3388360D01*
G01X244796Y-3388360D01*
G01X223206Y-3395472D01*
G01X208982Y-3402584D01*
G01X194504Y-3417062D01*
G01X187392Y-3431540D01*
G01X187392Y-3460242D01*
G01X194504Y-3474466D01*
G01X208982Y-3488944D01*
G01X223206Y-3496056D01*
G01X244796Y-3496056D01*
G01X244796Y-3460242D02*
G01X244796Y-3496056D01*
G01X338014Y-3550920D02*
G01X187392Y-3550920D01*
G01X338014Y-3550920D02*
G01X187392Y-3651250D01*
G01X338014Y-3651250D02*
G01X187392Y-3651250D01*
G01X338014Y-3706114D02*
G01X187392Y-3706114D01*
G01X338014Y-3706114D02*
G01X338014Y-3756152D01*
G01X330902Y-3777742D01*
G01X316678Y-3792220D01*
G01X302200Y-3799332D01*
G01X280610Y-3806444D01*
G01X244796Y-3806444D01*
G01X223206Y-3799332D01*
G01X208982Y-3792220D01*
G01X194504Y-3777742D01*
G01X187392Y-3756152D01*
G01X187392Y-3706114D01*
G01X4577274Y-3388360D02*
G01X4426652Y-3388360D01*
G01X4577274Y-3388360D02*
G01X4577274Y-3481578D01*
G01X4505646Y-3388360D02*
G01X4505646Y-3445764D01*
G01X4291524Y-3496056D02*
G01X4305748Y-3488944D01*
G01X4320226Y-3474466D01*
G01X4327338Y-3460242D01*
G01X4327338Y-3431540D01*
G01X4320226Y-3417062D01*
G01X4305748Y-3402584D01*
G01X4291524Y-3395472D01*
G01X4269934Y-3388360D01*
G01X4234120Y-3388360D01*
G01X4212530Y-3395472D01*
G01X4198052Y-3402584D01*
G01X4183828Y-3417062D01*
G01X4176716Y-3431540D01*
G01X4176716Y-3460242D01*
G01X4183828Y-3474466D01*
G01X4198052Y-3488944D01*
G01X4212530Y-3496056D01*
G01X4234120Y-3496056D01*
G01X4234120Y-3460242D02*
G01X4234120Y-3496056D01*
G01X4077402Y-3445764D02*
G01X3926526Y-3388360D01*
G01X4077402Y-3445764D02*
G01X3926526Y-3503168D01*
G01X3976818Y-3409950D02*
G01X3976818Y-3481578D01*
G01X3827212Y-3388360D02*
G01X3676590Y-3388360D01*
G01X3827212Y-3388360D02*
G01X3827212Y-3452876D01*
G01X3820100Y-3474466D01*
G01X3812988Y-3481578D01*
G01X3798510Y-3488944D01*
G01X3784286Y-3488944D01*
G01X3769808Y-3481578D01*
G01X3762696Y-3474466D01*
G01X3755584Y-3452876D01*
G01X3755584Y-3388360D02*
G01X3755584Y-3452876D01*
G01X3748472Y-3474466D01*
G01X3741106Y-3481578D01*
G01X3726882Y-3488944D01*
G01X3705292Y-3488944D01*
G01X3691068Y-3481578D01*
G01X3683702Y-3474466D01*
G01X3676590Y-3452876D01*
G01X3676590Y-3388360D01*
G01X3541462Y-3496056D02*
G01X3555686Y-3488944D01*
G01X3570164Y-3474466D01*
G01X3577276Y-3460242D01*
G01X3577276Y-3431540D01*
G01X3570164Y-3417062D01*
G01X3555686Y-3402584D01*
G01X3541462Y-3395472D01*
G01X3519872Y-3388360D01*
G01X3484058Y-3388360D01*
G01X3462468Y-3395472D01*
G01X3448244Y-3402584D01*
G01X3433766Y-3417062D01*
G01X3426654Y-3431540D01*
G01X3426654Y-3460242D01*
G01X3433766Y-3474466D01*
G01X3448244Y-3488944D01*
G01X3462468Y-3496056D01*
G01X3327340Y-3388360D02*
G01X3176718Y-3388360D01*
G01X3327340Y-3388360D02*
G01X3327340Y-3438652D01*
G01X3320228Y-3460242D01*
G01X3305750Y-3474466D01*
G01X3291526Y-3481578D01*
G01X3269936Y-3488944D01*
G01X3234122Y-3488944D01*
G01X3212532Y-3481578D01*
G01X3198054Y-3474466D01*
G01X3183830Y-3460242D01*
G01X3176718Y-3438652D01*
G01X3176718Y-3388360D01*
G01X3077404Y-3388360D02*
G01X2926528Y-3388360D01*
G01X3077404Y-3388360D02*
G01X3077404Y-3481578D01*
G01X3005522Y-3388360D02*
G01X3005522Y-3445764D01*
G01X2926528Y-3388360D02*
G01X2926528Y-3481578D01*
G01X2791400Y-3496056D02*
G01X2805878Y-3488944D01*
G01X2820102Y-3474466D01*
G01X2827214Y-3460242D01*
G01X2827214Y-3431540D01*
G01X2820102Y-3417062D01*
G01X2805878Y-3402584D01*
G01X2791400Y-3395472D01*
G01X2769810Y-3388360D01*
G01X2733996Y-3388360D01*
G01X2712406Y-3395472D01*
G01X2698182Y-3402584D01*
G01X2683704Y-3417062D01*
G01X2676592Y-3431540D01*
G01X2676592Y-3460242D01*
G01X2683704Y-3474466D01*
G01X2698182Y-3488944D01*
G01X2712406Y-3496056D01*
G01X2733996Y-3496056D01*
G01X2733996Y-3460242D02*
G01X2733996Y-3496056D01*
G01X2827214Y-3550920D02*
G01X2676592Y-3550920D01*
G01X2827214Y-3550920D02*
G01X2676592Y-3651250D01*
G01X2827214Y-3651250D02*
G01X2676592Y-3651250D01*
G01X2827214Y-3706114D02*
G01X2676592Y-3706114D01*
G01X2827214Y-3706114D02*
G01X2827214Y-3756152D01*
G01X2820102Y-3777742D01*
G01X2805878Y-3792220D01*
G01X2791400Y-3799332D01*
G01X2769810Y-3806444D01*
G01X2733996Y-3806444D01*
G01X2712406Y-3799332D01*
G01X2698182Y-3792220D01*
G01X2683704Y-3777742D01*
G01X2676592Y-3756152D01*
G01X2676592Y-3706114D01*
G01X5575808Y551688D02*
G01X5564378Y545846D01*
G01X5553202Y534670D01*
G01X5547614Y523494D01*
G01X5547614Y501142D01*
G01X5553202Y489712D01*
G01X5564378Y478536D01*
G01X5575808Y472948D01*
G01X5592572Y467360D01*
G01X5620512Y467360D01*
G01X5637530Y472948D01*
G01X5648706Y478536D01*
G01X5659882Y489712D01*
G01X5665470Y501142D01*
G01X5665470Y523494D01*
G01X5659882Y534670D01*
G01X5648706Y545846D01*
G01X5637530Y551688D01*
G01X5620512Y551688D01*
G01X5620512Y523494D02*
G01X5620512Y551688D01*
G01X5547614Y598932D02*
G01X5665470Y598932D01*
G01X5547614Y598932D02*
G01X5665470Y677672D01*
G01X5547614Y677672D02*
G01X5665470Y677672D01*
G01X5547614Y724916D02*
G01X5665470Y724916D01*
G01X5547614Y724916D02*
G01X5547614Y764286D01*
G01X5553202Y781050D01*
G01X5564378Y792226D01*
G01X5575808Y797814D01*
G01X5592572Y803656D01*
G01X5620512Y803656D01*
G01X5637530Y797814D01*
G01X5648706Y792226D01*
G01X5659882Y781050D01*
G01X5665470Y764286D01*
G01X5665470Y724916D01*
G01X5900166Y518160D02*
G01X5894578Y529336D01*
G01X5877814Y546354D01*
G01X5995670Y546354D01*
G01X5906008Y599186D02*
G01X5900166Y599186D01*
G01X5888990Y604774D01*
G01X5883402Y610362D01*
G01X5877814Y621792D01*
G01X5877814Y644144D01*
G01X5883402Y655320D01*
G01X5888990Y660908D01*
G01X5900166Y666496D01*
G01X5911596Y666496D01*
G01X5922772Y660908D01*
G01X5939536Y649732D01*
G01X5995670Y593598D01*
G01X5995670Y672338D01*
G01X5877814Y719582D02*
G01X5995670Y764540D01*
G01X5877814Y809498D02*
G01X5995670Y764540D01*
G04 Text End*

G04 PolygonModel Start*
G54D12*
G01X2038407Y-1456797D02*
G01X2038407Y-1501600D01*
G01X2038407Y-1215497D02*
G01X2038407Y-1258463D01*
G01X2038407Y-991489D02*
G01X2038407Y-1017163D01*
G01X2038407Y-739600D02*
G01X2038407Y-763651D01*
G01X1604006Y-1456797D02*
G01X1604006Y-1501600D01*
G01X1604006Y-1215497D02*
G01X1604006Y-1258463D01*
G01X1604006Y-991489D02*
G01X1604006Y-1017163D01*
G01X1604006Y-739600D02*
G01X1604006Y-763651D01*
G01X1169605Y-1456797D02*
G01X1169605Y-1501600D01*
G01X1169605Y-1215497D02*
G01X1169605Y-1258463D01*
G01X1169605Y-991489D02*
G01X1169605Y-1017163D01*
G01X1169605Y-739600D02*
G01X1169605Y-763651D01*
G01X735205Y-1456797D02*
G01X735205Y-1501600D01*
G01X735205Y-1215497D02*
G01X735205Y-1258463D01*
G01X735205Y-991489D02*
G01X735205Y-1017163D01*
G01X735205Y-739600D02*
G01X735205Y-763651D01*
G01X300804Y-1456797D02*
G01X300804Y-1501600D01*
G01X300804Y-1215497D02*
G01X300804Y-1258463D01*
G01X300804Y-991489D02*
G01X300804Y-1017163D01*
G01X300804Y-739600D02*
G01X300804Y-763651D01*
G01X2907209Y-1456797D02*
G01X2907209Y-1501600D01*
G01X2907209Y-1215497D02*
G01X2907209Y-1258463D01*
G01X2907209Y-991489D02*
G01X2907209Y-1017163D01*
G01X2907209Y-739600D02*
G01X2907209Y-763651D01*
G01X2472808Y-1456797D02*
G01X2472808Y-1501600D01*
G01X2472808Y-1215497D02*
G01X2472808Y-1258463D01*
G01X2472808Y-991489D02*
G01X2472808Y-1017163D01*
G01X2472808Y-739600D02*
G01X2472808Y-763651D01*
G01X5079214Y-1456797D02*
G01X5079214Y-1501600D01*
G01X5079214Y-1215497D02*
G01X5079214Y-1258463D01*
G01X5079214Y-991489D02*
G01X5079214Y-1017163D01*
G01X5079214Y-739600D02*
G01X5079214Y-763651D01*
G01X4644813Y-1456797D02*
G01X4644813Y-1501600D01*
G01X4644813Y-1215497D02*
G01X4644813Y-1258463D01*
G01X4644813Y-991489D02*
G01X4644813Y-1017163D01*
G01X4644813Y-739600D02*
G01X4644813Y-763651D01*
G01X4210412Y-1456797D02*
G01X4210412Y-1501600D01*
G01X4210412Y-1215497D02*
G01X4210412Y-1258463D01*
G01X4210412Y-991489D02*
G01X4210412Y-1017163D01*
G01X4210412Y-739600D02*
G01X4210412Y-763651D01*
G01X3776011Y-1456797D02*
G01X3776011Y-1501600D01*
G01X3776011Y-1215497D02*
G01X3776011Y-1258463D01*
G01X3776011Y-991489D02*
G01X3776011Y-1017163D01*
G01X3776011Y-739600D02*
G01X3776011Y-763651D01*
G01X3341610Y-1456797D02*
G01X3341610Y-1501600D01*
G01X3341610Y-1215497D02*
G01X3341610Y-1258463D01*
G01X3341610Y-991489D02*
G01X3341610Y-1017163D01*
G01X3341610Y-739600D02*
G01X3341610Y-763651D01*
G01X5948016Y-1456797D02*
G01X5948016Y-1501600D01*
G01X5948016Y-1215497D02*
G01X5948016Y-1258463D01*
G01X5948016Y-991489D02*
G01X5948016Y-1017163D01*
G01X5948016Y-739600D02*
G01X5948016Y-763651D01*
G01X5513615Y-1456797D02*
G01X5513615Y-1501600D01*
G01X5513615Y-1215497D02*
G01X5513615Y-1258463D01*
G01X5513615Y-991489D02*
G01X5513615Y-1017163D01*
G01X5513615Y-739600D02*
G01X5513615Y-763651D01*
G01X127401Y-208397D02*
G01X127401Y441597D01*
G01X127401Y441597D02*
G01X1955404Y441597D01*
G01X1955404Y-61150D02*
G01X127401Y-61150D01*
G01X127401Y-208397D02*
G01X1955404Y-208397D01*
G01X377261Y441597D02*
G01X341958Y406547D01*
G01X341958Y406547D02*
G01X341958Y241447D01*
G01X341958Y241447D02*
G01X214958Y241447D01*
G01X214958Y241447D02*
G01X214958Y406547D01*
G01X214958Y406547D02*
G01X176350Y441597D01*
G01X628439Y441597D02*
G01X593136Y406547D01*
G01X593136Y406547D02*
G01X593136Y241447D01*
G01X593136Y241447D02*
G01X466136Y241447D01*
G01X466136Y241447D02*
G01X466136Y406547D01*
G01X466136Y406547D02*
G01X427528Y441597D01*
G01X883288Y441597D02*
G01X847979Y406547D01*
G01X847979Y406547D02*
G01X847979Y241447D01*
G01X847979Y241447D02*
G01X720979Y241447D01*
G01X720979Y241447D02*
G01X720979Y406547D01*
G01X720979Y406547D02*
G01X682371Y441597D01*
G01X1138560Y441597D02*
G01X1103252Y406547D01*
G01X1103252Y406547D02*
G01X1103252Y241447D01*
G01X1103252Y241447D02*
G01X976252Y241447D01*
G01X976252Y241447D02*
G01X976252Y406547D01*
G01X976252Y406547D02*
G01X937641Y441597D01*
G01X1392560Y441597D02*
G01X1357252Y406547D01*
G01X1357252Y406547D02*
G01X1357252Y241447D01*
G01X1357252Y241447D02*
G01X1230252Y241447D01*
G01X1230252Y241447D02*
G01X1230252Y406547D01*
G01X1230252Y406547D02*
G01X1191641Y441597D01*
G01X1647553Y441597D02*
G01X1612242Y406547D01*
G01X1612242Y406547D02*
G01X1612242Y241447D01*
G01X1612242Y241447D02*
G01X1485242Y241447D01*
G01X1485242Y241447D02*
G01X1485242Y406547D01*
G01X1485242Y406547D02*
G01X1446634Y441597D01*
G01X1902097Y441597D02*
G01X1866900Y406397D01*
G01X1866900Y406397D02*
G01X1866900Y241297D01*
G01X1866900Y241297D02*
G01X1739900Y241297D01*
G01X1739900Y241297D02*
G01X1739900Y406397D01*
G01X1739900Y406397D02*
G01X1701416Y441597D01*
G01X1955404Y-208397D02*
G01X1955404Y441597D01*
G01X634721Y-208397D02*
G01X634721Y-122400D01*
G01X634721Y-122400D02*
G01X431328Y-122400D01*
G01X431328Y-122400D02*
G01X431328Y-208397D01*
G01X380721Y-208397D02*
G01X380721Y-122400D01*
G01X380721Y-122400D02*
G01X177328Y-122400D01*
G01X177328Y-122400D02*
G01X177328Y-208397D01*
G01X888721Y-208397D02*
G01X888721Y-122400D01*
G01X888721Y-122400D02*
G01X685328Y-122400D01*
G01X685328Y-122400D02*
G01X685328Y-208397D01*
G01X1142721Y-208397D02*
G01X1142721Y-122400D01*
G01X1142721Y-122400D02*
G01X939328Y-122400D01*
G01X939328Y-122400D02*
G01X939328Y-208397D01*
G01X1396721Y-208397D02*
G01X1396721Y-122400D01*
G01X1396721Y-122400D02*
G01X1193328Y-122400D01*
G01X1193328Y-122400D02*
G01X1193328Y-208397D01*
G01X1650746Y-208504D02*
G01X1650746Y-122400D01*
G01X1650746Y-122400D02*
G01X1447292Y-122400D01*
G01X1447292Y-122400D02*
G01X1447292Y-208504D01*
G01X1905193Y-208397D02*
G01X1905193Y-122400D01*
G01X1905193Y-122400D02*
G01X1701800Y-122400D01*
G01X1701800Y-122400D02*
G01X1701800Y-208397D01*
G36*
G01X278458Y266819D02*
G01X316558Y304919D01*
G01X291158Y304919D01*
G01X291158Y406519D01*
G01X265758Y406519D01*
G01X265758Y304919D01*
G01X240358Y304919D01*
G01X278458Y266819D01*
G37*
G36*
G01X529636Y266819D02*
G01X567736Y304919D01*
G01X542336Y304919D01*
G01X542336Y406519D01*
G01X516936Y406519D01*
G01X516936Y304919D01*
G01X491536Y304919D01*
G01X529636Y266819D01*
G37*
G36*
G01X784482Y266819D02*
G01X822582Y304919D01*
G01X797182Y304919D01*
G01X797182Y406519D01*
G01X771782Y406519D01*
G01X771782Y304919D01*
G01X746382Y304919D01*
G01X784482Y266819D01*
G37*
G36*
G01X1039752Y266819D02*
G01X1077852Y304919D01*
G01X1052452Y304919D01*
G01X1052452Y406519D01*
G01X1027052Y406519D01*
G01X1027052Y304919D01*
G01X1001652Y304919D01*
G01X1039752Y266819D01*
G37*
G36*
G01X1293752Y266819D02*
G01X1331852Y304919D01*
G01X1306452Y304919D01*
G01X1306452Y406519D01*
G01X1281052Y406519D01*
G01X1281052Y304919D01*
G01X1255652Y304919D01*
G01X1293752Y266819D01*
G37*
G36*
G01X1548745Y266819D02*
G01X1586845Y304919D01*
G01X1561445Y304919D01*
G01X1561445Y406519D01*
G01X1536045Y406519D01*
G01X1536045Y304919D01*
G01X1510645Y304919D01*
G01X1548745Y266819D01*
G37*
G36*
G01X1803400Y266700D02*
G01X1841500Y304800D01*
G01X1816100Y304800D01*
G01X1816100Y406400D01*
G01X1790700Y406400D01*
G01X1790700Y304800D01*
G01X1765300Y304800D01*
G01X1803400Y266700D01*
G37*
G01X2769001Y-208397D02*
G01X2769001Y441597D01*
G01X2769001Y441597D02*
G01X4597004Y441597D01*
G01X4597004Y-61150D02*
G01X2769001Y-61150D01*
G01X2769001Y-208397D02*
G01X4597004Y-208397D01*
G01X3018861Y441597D02*
G01X2983558Y406547D01*
G01X2983558Y406547D02*
G01X2983558Y241447D01*
G01X2983558Y241447D02*
G01X2856558Y241447D01*
G01X2856558Y241447D02*
G01X2856558Y406547D01*
G01X2856558Y406547D02*
G01X2817950Y441597D01*
G01X3270039Y441597D02*
G01X3234736Y406547D01*
G01X3234736Y406547D02*
G01X3234736Y241447D01*
G01X3234736Y241447D02*
G01X3107736Y241447D01*
G01X3107736Y241447D02*
G01X3107736Y406547D01*
G01X3107736Y406547D02*
G01X3069128Y441597D01*
G01X3524888Y441597D02*
G01X3489579Y406547D01*
G01X3489579Y406547D02*
G01X3489579Y241447D01*
G01X3489579Y241447D02*
G01X3362579Y241447D01*
G01X3362579Y241447D02*
G01X3362579Y406547D01*
G01X3362579Y406547D02*
G01X3323971Y441597D01*
G01X3780160Y441597D02*
G01X3744852Y406547D01*
G01X3744852Y406547D02*
G01X3744852Y241447D01*
G01X3744852Y241447D02*
G01X3617852Y241447D01*
G01X3617852Y241447D02*
G01X3617852Y406547D01*
G01X3617852Y406547D02*
G01X3579241Y441597D01*
G01X4034160Y441597D02*
G01X3998852Y406547D01*
G01X3998852Y406547D02*
G01X3998852Y241447D01*
G01X3998852Y241447D02*
G01X3871852Y241447D01*
G01X3871852Y241447D02*
G01X3871852Y406547D01*
G01X3871852Y406547D02*
G01X3833241Y441597D01*
G01X4289153Y441597D02*
G01X4253842Y406547D01*
G01X4253842Y406547D02*
G01X4253842Y241447D01*
G01X4253842Y241447D02*
G01X4126842Y241447D01*
G01X4126842Y241447D02*
G01X4126842Y406547D01*
G01X4126842Y406547D02*
G01X4088234Y441597D01*
G01X4543697Y441597D02*
G01X4508500Y406397D01*
G01X4508500Y406397D02*
G01X4508500Y241297D01*
G01X4508500Y241297D02*
G01X4381500Y241297D01*
G01X4381500Y241297D02*
G01X4381500Y406397D01*
G01X4381500Y406397D02*
G01X4343016Y441597D01*
G01X4597004Y-208397D02*
G01X4597004Y441597D01*
G01X3276321Y-208397D02*
G01X3276321Y-122400D01*
G01X3276321Y-122400D02*
G01X3072928Y-122400D01*
G01X3072928Y-122400D02*
G01X3072928Y-208397D01*
G01X3022321Y-208397D02*
G01X3022321Y-122400D01*
G01X3022321Y-122400D02*
G01X2818928Y-122400D01*
G01X2818928Y-122400D02*
G01X2818928Y-208397D01*
G01X3530321Y-208397D02*
G01X3530321Y-122400D01*
G01X3530321Y-122400D02*
G01X3326928Y-122400D01*
G01X3326928Y-122400D02*
G01X3326928Y-208397D01*
G01X3784321Y-208397D02*
G01X3784321Y-122400D01*
G01X3784321Y-122400D02*
G01X3580928Y-122400D01*
G01X3580928Y-122400D02*
G01X3580928Y-208397D01*
G01X4038321Y-208397D02*
G01X4038321Y-122400D01*
G01X4038321Y-122400D02*
G01X3834928Y-122400D01*
G01X3834928Y-122400D02*
G01X3834928Y-208397D01*
G01X4292346Y-208504D02*
G01X4292346Y-122400D01*
G01X4292346Y-122400D02*
G01X4088892Y-122400D01*
G01X4088892Y-122400D02*
G01X4088892Y-208504D01*
G01X4546793Y-208397D02*
G01X4546793Y-122400D01*
G01X4546793Y-122400D02*
G01X4343400Y-122400D01*
G01X4343400Y-122400D02*
G01X4343400Y-208397D01*
G36*
G01X2920058Y266819D02*
G01X2958158Y304919D01*
G01X2932758Y304919D01*
G01X2932758Y406519D01*
G01X2907358Y406519D01*
G01X2907358Y304919D01*
G01X2881958Y304919D01*
G01X2920058Y266819D01*
G37*
G36*
G01X3171236Y266819D02*
G01X3209336Y304919D01*
G01X3183936Y304919D01*
G01X3183936Y406519D01*
G01X3158536Y406519D01*
G01X3158536Y304919D01*
G01X3133136Y304919D01*
G01X3171236Y266819D01*
G37*
G36*
G01X3426082Y266819D02*
G01X3464182Y304919D01*
G01X3438782Y304919D01*
G01X3438782Y406519D01*
G01X3413382Y406519D01*
G01X3413382Y304919D01*
G01X3387982Y304919D01*
G01X3426082Y266819D01*
G37*
G36*
G01X3681352Y266819D02*
G01X3719452Y304919D01*
G01X3694052Y304919D01*
G01X3694052Y406519D01*
G01X3668652Y406519D01*
G01X3668652Y304919D01*
G01X3643252Y304919D01*
G01X3681352Y266819D01*
G37*
G36*
G01X3935352Y266819D02*
G01X3973452Y304919D01*
G01X3948052Y304919D01*
G01X3948052Y406519D01*
G01X3922652Y406519D01*
G01X3922652Y304919D01*
G01X3897252Y304919D01*
G01X3935352Y266819D01*
G37*
G36*
G01X4190345Y266819D02*
G01X4228445Y304919D01*
G01X4203045Y304919D01*
G01X4203045Y406519D01*
G01X4177645Y406519D01*
G01X4177645Y304919D01*
G01X4152245Y304919D01*
G01X4190345Y266819D01*
G37*
G36*
G01X4445000Y266700D02*
G01X4483100Y304800D01*
G01X4457700Y304800D01*
G01X4457700Y406400D01*
G01X4432300Y406400D01*
G01X4432300Y304800D01*
G01X4406900Y304800D01*
G01X4445000Y266700D01*
G37*
G01X2074990Y-2473597D02*
G01X2074990Y-3233600D01*
G01X293136Y-3283600D02*
G01X1992899Y-3283600D01*
G01X210157Y-2473599D02*
G01X210157Y-3233600D01*
G01X2159000Y-2133600D02*
G01X2159000Y-2473599D01*
G01X2159000Y-2473599D02*
G01X127000Y-2473599D01*
G01X127000Y-2473599D02*
G01X127000Y-2133600D01*
G01X2074990Y-3233600D02*
G01X1986864Y-3233600D01*
G01X1824749Y-3047368D02*
G01X1986133Y-3047368D01*
G01X1824749Y-2996568D02*
G01X1986133Y-2996568D01*
G01X1824749Y-2826022D02*
G01X1986133Y-2826022D01*
G01X1824749Y-2775222D02*
G01X1986133Y-2775222D01*
G01X1986133Y-2473597D02*
G01X1986133Y-3233600D01*
G01X2031116Y-3233600D02*
G01X2031116Y-3244162D01*
G01X2031116Y-3244162D02*
G01X1991683Y-3283600D01*
G01X2145114Y-2133600D02*
G01X2159000Y-2133600D01*
G01X1779288Y-3233600D02*
G01X1779288Y-3283600D01*
G01X1820990Y-2473597D02*
G01X1820990Y-3233600D01*
G01X1732133Y-2473597D02*
G01X1732133Y-3233600D01*
G01X1731805Y-3233600D02*
G01X1819930Y-3233600D01*
G01X1891114Y-2133600D02*
G01X1918886Y-2133600D01*
G01X299014Y-2473599D02*
G01X299014Y-3233600D01*
G01X1566192Y-3051000D02*
G01X1731808Y-3051000D01*
G01X1566192Y-2998384D02*
G01X1731808Y-2998384D01*
G01X1315951Y-3047365D02*
G01X1477335Y-3047365D01*
G01X1315951Y-2996565D02*
G01X1477335Y-2996565D01*
G01X1061951Y-3047365D02*
G01X1227094Y-3047365D01*
G01X1061951Y-2994757D02*
G01X1227094Y-2994757D01*
G01X806072Y-3043738D02*
G01X973094Y-3043738D01*
G01X806072Y-2996565D02*
G01X973094Y-2996565D01*
G01X550192Y-3041922D02*
G01X717215Y-3041922D01*
G01X550192Y-2994757D02*
G01X717215Y-2994757D01*
G01X299014Y-3041922D02*
G01X461335Y-3041922D01*
G01X299014Y-2994757D02*
G01X461335Y-2994757D01*
G01X1566192Y-2829654D02*
G01X1731805Y-2829654D01*
G01X1566192Y-2777038D02*
G01X1731805Y-2777038D01*
G01X1315954Y-2826024D02*
G01X1477335Y-2826024D01*
G01X1315954Y-2775224D02*
G01X1477335Y-2775224D01*
G01X1061954Y-2826024D02*
G01X1227097Y-2826024D01*
G01X1061954Y-2773411D02*
G01X1227097Y-2773411D01*
G01X806072Y-2822395D02*
G01X973097Y-2822395D01*
G01X806072Y-2775224D02*
G01X973097Y-2775224D01*
G01X550192Y-2820581D02*
G01X717215Y-2820581D01*
G01X550192Y-2773411D02*
G01X717215Y-2773411D01*
G01X299014Y-2820581D02*
G01X461335Y-2820581D01*
G01X299014Y-2773411D02*
G01X461335Y-2773411D01*
G01X1526301Y-3233600D02*
G01X1526301Y-3283600D01*
G01X1272301Y-3233600D02*
G01X1272301Y-3283600D01*
G01X1016488Y-3233600D02*
G01X1016488Y-3283600D01*
G01X766115Y-3233600D02*
G01X766115Y-3283600D01*
G01X508488Y-3233600D02*
G01X508488Y-3283600D01*
G01X1566192Y-2473597D02*
G01X1566192Y-3233600D01*
G01X1477335Y-2473597D02*
G01X1477335Y-3233600D01*
G01X1477007Y-3233600D02*
G01X1565133Y-3233600D01*
G01X1315954Y-2473597D02*
G01X1315954Y-3233600D01*
G01X1227097Y-2473597D02*
G01X1227097Y-3233600D01*
G01X1226769Y-3233600D02*
G01X1314895Y-3233600D01*
G01X1061954Y-2473597D02*
G01X1061954Y-3233600D01*
G01X973097Y-2473597D02*
G01X973097Y-3233600D01*
G01X972769Y-3233600D02*
G01X1060895Y-3233600D01*
G01X806072Y-2473597D02*
G01X806072Y-3233600D01*
G01X717215Y-2473597D02*
G01X717215Y-3233600D01*
G01X716887Y-3233600D02*
G01X805012Y-3233600D01*
G01X550192Y-2473597D02*
G01X550192Y-3233600D01*
G01X461335Y-2473597D02*
G01X461335Y-3233600D01*
G01X461007Y-3233600D02*
G01X549133Y-3233600D01*
G01X253700Y-3233600D02*
G01X253700Y-3244164D01*
G01X253700Y-3244164D02*
G01X293136Y-3283600D01*
G01X209829Y-3233600D02*
G01X297955Y-3233600D01*
G01X1637114Y-2133600D02*
G01X1664886Y-2133600D01*
G01X1383114Y-2133600D02*
G01X1410886Y-2133600D01*
G01X1129114Y-2133600D02*
G01X1156886Y-2133600D01*
G01X875114Y-2133600D02*
G01X902886Y-2133600D01*
G01X621114Y-2133600D02*
G01X648886Y-2133600D01*
G01X367114Y-2133600D02*
G01X394886Y-2133600D01*
G01X127000Y-2133600D02*
G01X140886Y-2133600D01*
G01X4564190Y-2498997D02*
G01X4564190Y-3259000D01*
G01X2782336Y-3309000D02*
G01X4482099Y-3309000D01*
G01X2699357Y-2498999D02*
G01X2699357Y-3259000D01*
G01X4648200Y-2159000D02*
G01X4648200Y-2498999D01*
G01X4648200Y-2498999D02*
G01X2616200Y-2498999D01*
G01X2616200Y-2498999D02*
G01X2616200Y-2159000D01*
G01X4564190Y-3259000D02*
G01X4476064Y-3259000D01*
G01X4313949Y-3072768D02*
G01X4475333Y-3072768D01*
G01X4313949Y-3021968D02*
G01X4475333Y-3021968D01*
G01X4313949Y-2851422D02*
G01X4475333Y-2851422D01*
G01X4313949Y-2800622D02*
G01X4475333Y-2800622D01*
G01X4475333Y-2498997D02*
G01X4475333Y-3259000D01*
G01X4520316Y-3259000D02*
G01X4520316Y-3269562D01*
G01X4520316Y-3269562D02*
G01X4480883Y-3309000D01*
G01X4634314Y-2159000D02*
G01X4648200Y-2159000D01*
G01X4268488Y-3259000D02*
G01X4268488Y-3309000D01*
G01X4310190Y-2498997D02*
G01X4310190Y-3259000D01*
G01X4221333Y-2498997D02*
G01X4221333Y-3259000D01*
G01X4221005Y-3259000D02*
G01X4309130Y-3259000D01*
G01X4380314Y-2159000D02*
G01X4408086Y-2159000D01*
G01X2788214Y-2498999D02*
G01X2788214Y-3259000D01*
G01X4055392Y-3076400D02*
G01X4221008Y-3076400D01*
G01X4055392Y-3023784D02*
G01X4221008Y-3023784D01*
G01X3805151Y-3072765D02*
G01X3966535Y-3072765D01*
G01X3805151Y-3021965D02*
G01X3966535Y-3021965D01*
G01X3551151Y-3072765D02*
G01X3716294Y-3072765D01*
G01X3551151Y-3020157D02*
G01X3716294Y-3020157D01*
G01X3295272Y-3069138D02*
G01X3462294Y-3069138D01*
G01X3295272Y-3021965D02*
G01X3462294Y-3021965D01*
G01X3039392Y-3067322D02*
G01X3206415Y-3067322D01*
G01X3039392Y-3020157D02*
G01X3206415Y-3020157D01*
G01X2788214Y-3067322D02*
G01X2950535Y-3067322D01*
G01X2788214Y-3020157D02*
G01X2950535Y-3020157D01*
G01X4055392Y-2855054D02*
G01X4221005Y-2855054D01*
G01X4055392Y-2802438D02*
G01X4221005Y-2802438D01*
G01X3805154Y-2851424D02*
G01X3966535Y-2851424D01*
G01X3805154Y-2800624D02*
G01X3966535Y-2800624D01*
G01X3551154Y-2851424D02*
G01X3716297Y-2851424D01*
G01X3551154Y-2798811D02*
G01X3716297Y-2798811D01*
G01X3295272Y-2847795D02*
G01X3462297Y-2847795D01*
G01X3295272Y-2800624D02*
G01X3462297Y-2800624D01*
G01X3039392Y-2845981D02*
G01X3206415Y-2845981D01*
G01X3039392Y-2798811D02*
G01X3206415Y-2798811D01*
G01X2788214Y-2845981D02*
G01X2950535Y-2845981D01*
G01X2788214Y-2798811D02*
G01X2950535Y-2798811D01*
G01X4015501Y-3259000D02*
G01X4015501Y-3309000D01*
G01X3761501Y-3259000D02*
G01X3761501Y-3309000D01*
G01X3505688Y-3259000D02*
G01X3505688Y-3309000D01*
G01X3255315Y-3259000D02*
G01X3255315Y-3309000D01*
G01X2997688Y-3259000D02*
G01X2997688Y-3309000D01*
G01X4055392Y-2498997D02*
G01X4055392Y-3259000D01*
G01X3966535Y-2498997D02*
G01X3966535Y-3259000D01*
G01X3966207Y-3259000D02*
G01X4054333Y-3259000D01*
G01X3805154Y-2498997D02*
G01X3805154Y-3259000D01*
G01X3716297Y-2498997D02*
G01X3716297Y-3259000D01*
G01X3715969Y-3259000D02*
G01X3804095Y-3259000D01*
G01X3551154Y-2498997D02*
G01X3551154Y-3259000D01*
G01X3462297Y-2498997D02*
G01X3462297Y-3259000D01*
G01X3461969Y-3259000D02*
G01X3550095Y-3259000D01*
G01X3295272Y-2498997D02*
G01X3295272Y-3259000D01*
G01X3206415Y-2498997D02*
G01X3206415Y-3259000D01*
G01X3206087Y-3259000D02*
G01X3294212Y-3259000D01*
G01X3039392Y-2498997D02*
G01X3039392Y-3259000D01*
G01X2950535Y-2498997D02*
G01X2950535Y-3259000D01*
G01X2950207Y-3259000D02*
G01X3038333Y-3259000D01*
G01X2742900Y-3259000D02*
G01X2742900Y-3269564D01*
G01X2742900Y-3269564D02*
G01X2782336Y-3309000D01*
G01X2699029Y-3259000D02*
G01X2787155Y-3259000D01*
G01X4126314Y-2159000D02*
G01X4154086Y-2159000D01*
G01X3872314Y-2159000D02*
G01X3900086Y-2159000D01*
G01X3618314Y-2159000D02*
G01X3646086Y-2159000D01*
G01X3364314Y-2159000D02*
G01X3392086Y-2159000D01*
G01X3110314Y-2159000D02*
G01X3138086Y-2159000D01*
G01X2856314Y-2159000D02*
G01X2884086Y-2159000D01*
G01X2616200Y-2159000D02*
G01X2630086Y-2159000D01*
G01X5513200Y440944D02*
G01X5513200Y-187000D01*
G01X6069200Y440944D02*
G01X6069200Y-187000D01*
G01X6069200Y440944D02*
G01X5513200Y440944D01*
G01X6069200Y-17254D02*
G01X5513200Y-17254D01*
G01X6069200Y266512D02*
G01X5513200Y266512D01*
G01X6069200Y-187000D02*
G01X5513200Y-187000D01*
G01X5607050Y431800D02*
G01X5727700Y431800D01*
G01X5727700Y368300D01*
G01X5607050Y368300D01*
G01X5607050Y431800D01*
G01X5848350Y431800D02*
G01X5969000Y431800D01*
G01X5969000Y368300D01*
G01X5848350Y368300D01*
G01X5848350Y431800D01*

G04 Rect Start*
G01X1861407Y-734601D02*
G01X2143408Y-734601D01*
G01X2143408Y-1502600D01*
G01X1861407Y-1502600D01*
G01X1861407Y-734601D01*
G01X1427006Y-734601D02*
G01X1709007Y-734601D01*
G01X1709007Y-1502600D01*
G01X1427006Y-1502600D01*
G01X1427006Y-734601D01*
G01X992606Y-734601D02*
G01X1274607Y-734601D01*
G01X1274607Y-1502600D01*
G01X992606Y-1502600D01*
G01X992606Y-734601D01*
G01X558205Y-734601D02*
G01X840206Y-734601D01*
G01X840206Y-1502600D01*
G01X558205Y-1502600D01*
G01X558205Y-734601D01*
G01X123804Y-734601D02*
G01X405805Y-734601D01*
G01X405805Y-1502600D01*
G01X123804Y-1502600D01*
G01X123804Y-734601D01*
G01X2730209Y-734601D02*
G01X3012210Y-734601D01*
G01X3012210Y-1502600D01*
G01X2730209Y-1502600D01*
G01X2730209Y-734601D01*
G01X2295808Y-734601D02*
G01X2577809Y-734601D01*
G01X2577809Y-1502600D01*
G01X2295808Y-1502600D01*
G01X2295808Y-734601D01*
G01X4902214Y-734601D02*
G01X5184215Y-734601D01*
G01X5184215Y-1502600D01*
G01X4902214Y-1502600D01*
G01X4902214Y-734601D01*
G01X4467813Y-734601D02*
G01X4749814Y-734601D01*
G01X4749814Y-1502600D01*
G01X4467813Y-1502600D01*
G01X4467813Y-734601D01*
G01X4033412Y-734601D02*
G01X4315413Y-734601D01*
G01X4315413Y-1502600D01*
G01X4033412Y-1502600D01*
G01X4033412Y-734601D01*
G01X3599011Y-734601D02*
G01X3881012Y-734601D01*
G01X3881012Y-1502600D01*
G01X3599011Y-1502600D01*
G01X3599011Y-734601D01*
G01X3164610Y-734601D02*
G01X3446611Y-734601D01*
G01X3446611Y-1502600D01*
G01X3164610Y-1502600D01*
G01X3164610Y-734601D01*
G01X5771016Y-734601D02*
G01X6053017Y-734601D01*
G01X6053017Y-1502600D01*
G01X5771016Y-1502600D01*
G01X5771016Y-734601D01*
G01X5336615Y-734601D02*
G01X5618616Y-734601D01*
G01X5618616Y-1502600D01*
G01X5336615Y-1502600D01*
G01X5336615Y-734601D01*
G04 Rect End*

G04 Circle Start*
G01X1942708Y-692602D02*
G03X1968108Y-692602I12700J0D01*
G03X1942708Y-692602I-12700J0D01*
G01X1508307Y-692602D02*
G03X1533707Y-692602I12700J0D01*
G03X1508307Y-692602I-12700J0D01*
G01X1073906Y-692602D02*
G03X1099306Y-692602I12700J0D01*
G03X1073906Y-692602I-12700J0D01*
G01X639505Y-692602D02*
G03X664905Y-692602I12700J0D01*
G03X639505Y-692602I-12700J0D01*
G01X205104Y-692602D02*
G03X230504Y-692602I12700J0D01*
G03X205104Y-692602I-12700J0D01*
G01X2811509Y-692602D02*
G03X2836909Y-692602I12700J0D01*
G03X2811509Y-692602I-12700J0D01*
G01X2377109Y-692602D02*
G03X2402509Y-692602I12700J0D01*
G03X2377109Y-692602I-12700J0D01*
G01X4983515Y-692602D02*
G03X5008915Y-692602I12700J0D01*
G03X4983515Y-692602I-12700J0D01*
G01X4549113Y-692602D02*
G03X4574513Y-692602I12700J0D01*
G03X4549113Y-692602I-12700J0D01*
G01X4114713Y-692602D02*
G03X4140113Y-692602I12700J0D01*
G03X4114713Y-692602I-12700J0D01*
G01X3680311Y-692602D02*
G03X3705711Y-692602I12700J0D01*
G03X3680311Y-692602I-12700J0D01*
G01X3245910Y-692602D02*
G03X3271310Y-692602I12700J0D01*
G03X3245910Y-692602I-12700J0D01*
G01X5852316Y-692602D02*
G03X5877716Y-692602I12700J0D01*
G03X5852316Y-692602I-12700J0D01*
G01X5417916Y-692602D02*
G03X5443316Y-692602I12700J0D01*
G03X5417916Y-692602I-12700J0D01*
G04 Circle End*

M02*

